<svg width="336" height="316" viewBox="0 0 336 316" fill="none" xmlns="http://www.w3.org/2000/svg">
<path fill-rule="evenodd" clip-rule="evenodd" d="M174.208 19.4895C172.728 23.4061 171.249 27.3233 169.769 31.2401C168.82 33.75 167.872 36.2595 166.924 38.7694C166.587 39.6593 166.4 40.5721 165.75 41.1899C164.217 42.6445 161.466 43.5703 159.623 44.5936C158.389 45.2793 157.154 45.965 155.92 46.6507C155.284 47.0045 153.873 47.4488 153.427 48.036C152.936 48.6829 153.168 49.8712 153.168 50.7659V58.4903V73.045C159.543 72.2479 165.919 71.4512 172.295 70.6541C163.801 80.4553 155.307 90.2559 146.813 100.057C144.719 102.472 142.178 104.797 140.618 107.607C137.298 113.589 134.053 119.614 130.772 125.617C127.718 131.205 124.663 136.793 121.608 142.38L149.089 141.211C156.203 140.908 163.512 141.363 170.367 139.347C176.018 137.685 181.669 136.023 187.32 134.361C188.072 134.139 190.413 133.889 190.946 133.284C191.444 132.718 191.434 130.577 191.575 129.852C194.242 116.143 197.638 101.035 205.422 89.2346C211.004 80.7752 218.535 73.3687 225.432 65.9919C228.124 63.1128 230.863 60.2681 233.46 57.3015C234.125 56.5417 235.086 55.6796 235.525 54.7567C235.809 54.1604 236.206 53.0243 236.03 52.4949C235.953 52.2654 234.179 51.442 233.925 51.2785C232.126 50.1227 230.343 48.9426 228.557 47.7682C223.537 44.4678 218.522 41.1593 213.473 37.903C209.538 35.3638 205.613 32.6717 201.461 30.4898C197.158 28.228 192.419 26.6362 187.907 24.8493C183.348 23.0432 178.781 21.2578 174.208 19.4895Z" fill="#FF5678"/>
<path fill-rule="evenodd" clip-rule="evenodd" d="M328.94 228.731C326.751 230.794 322.765 233.563 319.614 232.303C318.031 231.671 316.679 230.283 315.237 229.388C313.544 228.336 311.951 227.284 310.515 225.882C307.651 223.083 305.482 218.995 302.098 216.805C300.961 216.068 298.741 215.911 297.952 214.735C297.599 214.207 297.566 213.407 297.631 212.798C297.773 211.485 298.482 211.562 297.297 210.598H299.137C299.173 209.887 298.463 209.828 297.934 209.92C298.18 208.793 298.431 204.383 296.376 206.382C294.596 208.114 295.486 210.988 294.225 212.865C293.26 214.302 290.698 213.138 290.352 211.557C290.197 210.847 290.979 209.738 291.072 209.042C291.277 207.498 290.587 206.163 289.586 204.994C287.389 206.458 288.635 209.487 287.383 211.41C286.25 213.15 283.727 212.338 282.002 212.032C279.935 211.665 277.597 212.037 275.619 211.548C272.632 210.811 273.747 207.304 273.452 205.04C273.135 202.616 270.684 199.25 271.42 196.804C272.211 194.177 276.835 193.61 279.045 192.972C284.096 191.515 291.3 191.235 295.056 187.156C298.042 190.487 300.445 194.301 303.577 197.508C306.961 200.971 310.575 204.169 313.823 207.772C317.204 211.522 320.693 215.199 323.951 219.058C325.373 220.741 326.621 222.554 328.091 224.197C329.399 225.658 330.777 227.001 328.94 228.731ZM178.811 163.951C180.363 163.126 180.561 163.643 180.56 165.343C180.114 164.527 179.671 164.308 178.811 163.951ZM165.652 196.996V194C167.148 193.961 166.228 196.524 165.652 196.996ZM165.286 201.458C165.286 200.131 165.25 198.868 165.633 197.577C165.834 198.984 166.217 200.201 165.286 201.458ZM171.719 292.609C173.094 292.738 175.212 291.791 176.367 292.869C177.555 293.977 177.459 297.202 177.741 298.699C178.205 301.172 178.617 303.654 179.009 306.139C179.265 307.769 179.583 309.424 177.741 310.048C175.018 310.969 171.127 309.654 168.289 309.534C162.683 309.299 157.08 308.971 151.469 308.857C146.03 308.747 140.58 308.834 135.166 309.4C132.721 309.655 130.33 310.106 127.909 310.515C126.633 310.73 123.215 311.632 122.062 310.556C119.894 308.532 123.499 303.805 125.049 302.47C127.926 299.993 132.018 298.206 135.626 297.13C137.554 296.555 140.768 294.94 142.287 296.746C143.452 298.131 143.406 299.981 145.076 301.03C148.944 303.462 146.681 296.486 144.263 295.627C145.886 291.828 148.981 297.192 150.264 298.481C150.721 298.94 152.206 300.452 152.851 299.691C153.334 299.122 152.37 297.083 152.191 296.529C151.919 295.686 151.232 294.405 151.429 293.491C151.787 291.837 154.106 291.387 155.495 291.249C157.65 291.036 159.763 291.719 161.892 291.947C165.158 292.297 168.45 292.302 171.719 292.609ZM150.091 136.862C145.838 137.201 141.559 136.55 137.317 137.083C133.303 137.587 129.52 139.06 125.737 140.414C131.362 127.221 138.64 115.21 147.51 103.959C151.928 98.3557 156.679 92.7907 161.452 87.4873C163.673 85.0199 165.97 82.6343 168.264 80.2362C170.309 78.0969 171.775 74.4637 174.23 72.8661C176.325 71.5024 179.987 72.475 182.309 72.5596C184.934 72.6552 188.128 72.8938 190.688 72.0202C192.542 71.3871 193.053 69.6977 190.731 69.6418C187.992 69.5753 185.299 69.8608 182.524 69.604C175.336 68.9398 168.407 67.8481 161.16 68.4674C159.5 68.6089 157.314 69.3161 155.685 69.1038C154.514 68.9503 155.284 69.5394 154.47 68.5994C154.158 68.2398 153.782 67.3944 153.69 66.9167C153.171 64.2336 154.644 60.3996 154.997 57.6984C155.323 55.1985 155.034 52.4509 155.644 50.0165C156.2 47.8011 157.893 47.5056 159.979 47.2689C165.685 46.621 171.509 46.2762 177.24 45.788C190.321 44.6739 203.818 42.9931 216.81 45.7464C221.501 46.7405 227.222 48.2779 231.412 50.7395C232.723 51.5089 234.045 52.415 233.568 54.0093C233.074 55.6642 230.65 57.4124 229.449 58.5027C220.575 66.559 212.003 74.7764 205.769 85.1136C197.819 98.2954 193.257 112.532 190.58 127.637C190.004 130.887 189.47 132.588 186.126 133.523C182.537 134.528 179.073 135.18 175.351 135.486C166.938 136.177 158.499 136.191 150.091 136.862ZM152.94 49.5666C152.295 54.365 151.423 59.153 151.337 63.9893C151.304 65.8159 151.131 66.7311 149.189 67.1385C146.899 67.6186 144.571 67.9763 142.27 68.4745C131.167 70.8807 120.274 73.8358 109.412 77.162C98.8556 80.3954 88.4725 84.0329 77.6787 86.4281C73.0356 87.4586 67.6026 88.1529 63.3736 90.4343C58.8242 92.8892 59.4229 96.914 59.0146 101.335C58.469 107.241 56.7174 112.96 56.1015 118.864C55.807 121.685 55.5387 124.523 55.5832 127.362C55.621 129.782 55.9676 132.458 54.3409 134.495C51.0773 130.132 49.5304 124.644 48.8873 119.297C48.5746 116.698 48.6984 114.077 48.609 111.466C48.5368 109.363 48.5836 106.019 47.2142 104.263C44.237 100.447 40.3653 115.739 39.9971 117.372C39.3778 120.121 38.8671 122.892 38.2503 125.641C37.9768 126.86 37.6258 131.289 35.9933 131.73C32.6102 132.646 33.3528 123.139 33.2993 121.692C33.1922 118.77 33.1195 115.845 33.1879 112.921C33.2376 110.81 33.646 108.52 33.4035 106.408C32.8082 101.223 29.8928 106.686 29.0732 108.616C27.0022 113.488 26.0654 118.703 24.2082 123.653C23.8993 124.476 23.1734 127.248 22.0234 127.3C20.7438 127.357 20.7539 124.494 20.6807 123.658C20.2561 118.81 18.822 113.995 19.2548 109.097C19.6918 104.151 21.4257 99.0658 23.8792 94.7636C29.0665 85.6678 38.4339 80.4452 47.4064 75.6878C57.6747 70.2443 68.5154 65.9436 79.5875 62.44C92.9038 58.2263 106.577 54.8169 120.332 52.3907C127.33 51.1565 134.436 50.2738 141.506 49.5661C143.991 49.3174 146.476 49.1721 148.929 48.6991C149.854 48.5203 153.194 47.6706 152.94 49.5666ZM160.093 34.0378C156.585 34.0656 153.001 32.3647 149.583 31.6618C145.514 30.824 141.539 29.6118 137.477 28.7373C129.523 27.0249 121.564 25.3551 113.617 23.605C110.167 22.8452 106.7 22.1839 103.263 21.3678C99.5867 20.4946 95.6145 19.5211 91.8513 20.4616C86.1472 21.8875 83.7376 28.1281 81.6432 32.9983C80.1638 36.4383 79.0047 40.2727 76.6975 43.2661C75.876 44.3334 74.7083 45.6063 73.2187 45.2606C70.4515 44.6189 70.891 40.957 71.2434 38.9329C71.7541 35.9955 72.4776 33.0925 73.0566 30.1684C73.29 28.9883 75.0985 21.2645 71.8698 22.4603C69.4746 23.3473 68.2075 29.1896 67.3009 31.2764C66.6271 32.8271 65.9132 34.3678 65.1572 35.8802C64.1482 37.8977 61.2696 44.6385 58.0826 43.7692C53.5218 42.525 57.8966 30.5347 58.6736 28.0076C59.1001 26.6204 63.7361 16.1002 59.8232 16.96C58.1567 17.3267 56.5333 20.4219 55.6836 21.7049C54.1769 23.9804 52.6749 26.2723 51.2567 28.6038C49.7977 31.0019 49.0527 33.7313 47.6058 36.0945C46.8445 37.3382 45.2909 38.9955 43.7742 37.8441C41.4096 36.0505 42.8111 29.8112 43.2252 27.4519C43.9956 23.0656 45.9092 18.569 48.5349 14.9832C52.4803 9.5951 59.925 7.85407 66.1853 6.80734C74.2659 5.45602 82.459 5.82565 90.5736 6.62516C99.6996 7.52461 108.686 8.48765 117.682 10.3267C126.748 12.1801 135.818 14.0187 144.744 16.4698C148.949 17.6246 153.215 18.6484 157.36 20.004C161.767 21.4448 166.067 23.2378 170.597 24.2759C169.004 28.2519 167.41 32.2279 165.817 36.2044C164.292 34.6958 162.21 34.0206 160.093 34.0378ZM238.19 44.9942C239.587 44.2301 241.131 43.8696 241.641 42.1807C242.091 40.6883 241.321 38.9975 240.953 37.5648C239.923 33.5539 239.652 29.3991 240.563 25.3408C241.434 26.6706 244.696 31.7856 246.679 28.689C247.875 26.8212 244.67 24.1343 243.734 22.8213C245.787 21.5543 248.72 18.1535 251.086 20.2044C252.615 21.5304 253.263 22.8069 255.323 23.4515C257.824 24.2343 260.179 24.055 262.734 23.8388C264.522 23.6877 264.953 23.4491 265.652 24.8263C266.2 25.9089 266.483 27.2487 266.804 28.4111C267.435 30.703 268.897 35.2189 267.166 37.3659C265.65 39.2466 259.765 37.6342 258.948 40.0619C258.502 41.3859 260.629 41.4333 261.442 42.0884C262.449 42.8994 263.281 44.19 263.828 45.3428C264.233 46.1954 264.849 47.6041 264.16 48.4758C263.207 49.6818 261.441 48.767 260.674 47.8906C259.654 46.7262 259.323 45.1344 258.473 43.8662C256.912 41.5394 256.818 43.3904 256.393 45.0612C255.952 46.797 254.908 46.6774 253.308 46.9003C250.502 47.2919 247.666 47.8442 244.934 48.5963C243.533 48.9817 242.177 49.4728 240.843 50.0466C239.984 50.4158 238.494 51.5342 237.562 51.5448C235.834 51.5644 234.636 48.6748 233.744 47.4693C235.225 46.6425 236.702 45.8081 238.19 44.9942ZM330.97 221.93C326.655 216.75 322.918 211.123 318.66 205.898C314.461 200.745 309.604 196.239 304.892 191.572C302.668 189.369 300.537 186.952 298.082 185C296.25 183.544 294.841 183.521 292.638 184.166C286.379 185.999 280.005 188.206 274.082 190.942C268.566 193.49 263.542 196.761 257.56 198.181C251.454 199.632 245.105 200.097 238.848 199.738C232.428 199.369 226.374 198.034 220.27 196.071C214.489 194.212 208.461 192.588 203.517 188.903C198.333 185.041 194.328 179.485 190.618 174.259C188.739 171.614 186.874 168.836 185.608 165.838C184.51 163.236 183.792 160.165 181.821 158.044C181.338 158.73 180.736 159.317 180.491 160.122C180.379 160.488 181.038 160.476 180.97 160.767C180.842 161.315 180.114 161.873 179.69 162.171C178.168 163.242 178.159 162.39 178.558 164.393C178.791 165.56 178.351 168.195 176.447 167.334C177.148 168.173 176.034 169.232 175.67 169.924C175.42 169.636 175.109 169.536 174.737 169.623C175.433 171.01 175.022 171.046 174.347 172.148C174.224 172.349 173.787 173.402 173.85 173.313C173.16 174.296 172.364 174.543 171.961 175.766C171.631 176.771 171.716 177.875 171.347 178.878C170.902 178.263 170.457 177.648 170.012 177.033C170.103 177.517 170.284 178.233 170.496 178.672C170.629 178.946 171.199 179.587 171.191 179.737C171.16 180.296 170.462 180.162 170.263 180.644C169.889 181.55 170.429 181.683 170.226 182.566C169.992 183.58 169.366 183.174 169.068 184.038C169.012 184.202 169.451 184.848 169.382 185.202C169.284 185.702 168.83 185.982 168.67 186.426C168.263 187.558 168.411 188.386 167.845 189.471C167.626 189.892 167.307 190.172 167.153 190.65C167.018 191.071 167.309 191.967 167.048 192.343C165.786 194.16 165.964 191.031 166.059 190.255C166.862 183.739 169.438 177.014 171.795 170.923C172.967 167.897 174.107 164.777 175.576 161.878C176.167 160.711 176.849 159.507 177.826 158.614C179.062 157.484 180.815 157.033 181.934 155.771C181.757 155.97 183.147 154.655 182.924 155.087C183.123 154.701 182.776 154.178 182.9 153.804C183.053 153.34 183.343 153.242 183.667 152.836C184.248 152.106 184.938 151.742 184.025 150.813C185.379 150.514 186.027 150.074 186.298 148.624C186.495 147.563 186.096 147.632 186.792 146.925C187.491 146.214 187.845 146.769 188.285 145.539C188.812 144.066 189.161 142.064 189.477 140.524C189.752 139.178 189.084 137.2 190.218 136.251C191.654 135.048 192.938 135.557 192.681 133.139C192.43 130.781 193.163 129.352 193.899 127.121C195.369 122.667 195.937 117.964 197.225 113.457C199.975 103.838 204.833 95.1653 210.056 86.6983C214.883 78.8744 221.631 72.2086 228.147 65.7891C229.931 64.0309 231.695 62.2473 233.297 60.3198C234.677 58.66 235.308 56.4002 236.634 54.8246C237.44 53.8677 238.94 53.4584 240.065 52.9511C241.941 52.1047 244.177 51.0006 246.295 51.1718C245.454 54.0088 245.179 57.324 247.663 59.4514C250.676 62.0321 253.407 59.351 256.168 57.8796C261.203 55.1975 268.403 57.6597 272.792 53.6396C273.838 52.6823 274.13 51.1527 275.216 50.2585C276.014 49.6029 277.148 49.4365 278.046 48.9478C280.774 47.4631 282.098 44.7451 281.036 41.7427C280.065 38.9979 278.557 38.0459 281.915 36.6549C284.64 35.5264 285.677 33.826 284.443 30.7987C283.267 27.9124 281.111 27.5801 279.073 25.6913C277.098 23.8618 279.367 21.7326 280.846 20.3593C282.754 18.5877 283.118 16.991 280.907 15.1486C278.591 13.2197 275.283 13.2871 272.584 14.2411C269.53 15.3193 267.518 17.112 266.226 20.0169C264.91 22.9743 261.649 22.149 259.007 21.3247C256.481 20.5367 255.824 18.8363 254.165 17.0054C252.32 14.9688 248.56 16.7104 246.385 17.6409C241.025 19.9313 235.699 23.5462 235.486 29.9494C235.36 33.7677 236.974 37.013 237.814 40.597C238.582 43.8744 233.317 43.6161 232.405 46.7864C222.678 41.6375 211.846 40.0619 200.974 39.7114C189.418 39.3384 177.695 39.0395 166.238 40.8623C168.897 36.2288 170.302 31.1477 172.616 26.3875C173.282 25.0171 173.569 25.1342 175.038 25.5483C177.862 26.3435 180.665 27.2334 183.483 28.0525C193.777 31.0449 203.869 34.6504 213.822 38.5991C214.79 38.9831 216.95 40.049 217.797 38.8899C218.776 37.5534 216.512 35.9056 215.596 35.2333C211.588 32.293 206.621 30.5084 202.133 28.4456C192.319 23.9369 181.452 21.7967 171.213 18.448C149.107 11.2176 126.238 5.72619 103.265 2.09924C97.6592 1.21413 91.9933 1.08455 86.3628 0.427536C81.3754 -0.154403 76.379 -0.141014 71.3921 0.460052C62.1815 1.57085 51.5034 3.96746 46.3013 12.3986C41.6052 20.0112 38.4703 28.5699 39.6686 37.5998C40.0286 40.312 41.1772 43.5239 44.5239 42.8248C46.8455 42.3399 48.0782 40.3674 49.156 38.4423C50.7847 35.534 52.3933 32.6258 54.1582 29.7955C54.8128 34.0393 52.4339 38.2123 52.8078 42.5355C53.0622 45.4691 54.6833 50.104 58.4919 49.2734C63.7122 48.1354 65.8606 39.9801 68.3705 36.0677C68.4977 39.0811 67.4414 42.0511 67.7647 45.0712C68.0836 48.0546 70.4147 50.871 73.6888 50.4622C76.7768 50.0768 78.7837 46.7683 80.0954 44.2775C81.9206 40.8112 83.2317 37.0948 85.0144 33.6056C86.6851 30.3348 88.6643 26.4411 92.6532 25.8266C96.2132 25.2777 100.293 26.5482 103.809 27.0723C113.564 28.5259 123.122 31.0009 132.769 33.0007C143.114 35.1443 153.702 36.4464 163.728 39.9055C160.203 44.7035 150.978 43.6668 145.726 44.1818C137.791 44.9603 129.753 45.5461 121.862 46.6946C114.069 47.8289 106.439 49.8425 98.7059 51.3042C91.014 52.7584 83.3355 54.2149 75.8927 56.6947C62.0739 61.2991 48.0247 67.1261 35.8494 75.1599C30.1844 78.8983 25.1521 83.1708 21.6528 89.0715C18.1311 95.009 16.4388 101.723 15.7933 108.553C15.3916 112.806 16.074 116.486 16.8979 120.625C17.4946 123.622 17.6878 128.639 20.0906 130.834C24.6768 135.022 28.4845 118.034 29.3314 115.982C29.941 119.344 28.9441 138.288 36.3027 136.747C39.5868 136.06 40.3318 131.552 40.8764 128.837C41.8701 123.887 42.76 118.838 44.4594 114.071C45.5501 120.494 46.0049 127.186 48.3546 133.32C49.9154 137.394 54.3686 144.623 57.4734 137.649C59.8021 132.418 59.0031 126.415 59.2823 120.861C59.5917 114.707 61.3586 108.771 61.984 102.677C62.2265 100.316 62.007 97.6557 64.3792 96.3674C66.4157 95.2619 69.3938 94.9018 71.6173 94.2845C78.2032 92.456 84.8322 90.7752 91.387 88.8352C97.9447 86.8938 104.412 84.6259 110.882 82.4124C117.07 80.2955 123.388 79.0919 129.651 77.2792C133.212 76.2482 136.73 75.17 140.341 74.3092C142.021 73.909 143.722 73.5972 145.398 73.1827C146.641 72.8757 148.278 71.7171 149.556 71.7376C150.871 71.7591 151.365 72.8723 152.873 72.9598C154.497 73.0536 156.147 72.6954 157.761 72.5716C161.694 72.2698 165.875 71.7821 169.799 72.3272C167.441 75.1245 164.256 77.0583 161.464 79.3755C158.244 82.048 155.129 84.9338 152.379 88.0898C146.845 94.4399 141.615 101.152 136.757 108.032C131.964 114.818 128.105 122.245 124.75 129.833C123.079 133.613 121.456 137.477 120.301 141.451C119.826 143.084 119.439 144.722 118.583 146.207C117.797 147.569 116.69 148.743 117.619 150.387C118.258 149.987 118.832 149.49 119.41 149.009C118.742 153.715 117.301 158.267 116.56 162.959C115.829 167.581 115.859 172.334 115.906 177.002C116.005 186.778 116.732 196.332 118.715 205.921C120.721 215.617 123.297 225.239 126.546 234.593C129.673 243.599 132.811 253.043 137.177 261.531C141.839 270.598 147.385 280.13 154.134 287.804C149.725 289.609 144.115 289.272 139.447 289.999C134.568 290.759 130.347 292.194 126.189 294.894C121.982 297.626 119.698 301.144 119.117 306.126C118.704 309.671 117.476 314.58 122.128 315.512C125.474 316.182 129.214 315.081 132.566 314.809C138.431 314.334 144.303 314.037 150.181 313.781C156.043 313.525 161.906 313.3 167.77 313.118C170.528 313.032 173.288 312.989 176.045 312.89C177.281 312.846 178.03 312.827 179.138 313.184C180.014 313.467 179.95 314.054 180.925 313.328C182.498 312.158 182.175 308.469 182.131 306.847C182.064 304.344 181.827 301.812 181.338 299.356C181.049 297.897 177.531 288.49 180.266 288.094C177.089 284.602 175.82 279.616 174.392 275.24C172.604 269.757 171.034 264.29 169.802 258.65C167.17 246.605 166.006 234.428 166.006 222.103C178.208 229.624 191.119 233.698 205.491 234.152C219.779 234.604 235.477 233.431 249.046 228.677C255.329 226.475 260.957 223.584 266.344 219.69C268.275 218.294 270.343 215.132 272.878 215.186C275.902 215.251 279.289 216.396 282.293 216.886C288.036 217.822 295.533 218.35 300.396 221.903C303.038 223.833 304.931 226.534 307.288 228.758C309.081 230.45 311.453 231.368 313.232 233.06C315.153 234.885 314.39 237.27 317.574 237.418C320.296 237.543 323.28 236.448 325.628 235.163C330.311 232.599 335.298 227.125 330.97 221.93Z" fill="black"/>
<path fill-rule="evenodd" clip-rule="evenodd" d="M85.4538 218.679C85.7215 218.05 85.9883 217.421 86.2561 216.793C86.587 217.889 86.6798 218.434 85.4538 218.679ZM85.81 221.583C85.23 221.687 85.4585 219.868 85.4585 219.551C86.4603 220.118 85.6307 220.798 85.81 221.583ZM84.9058 216.334C85.4002 216.042 85.8946 215.75 86.3891 215.458C85.7005 216.734 85.9707 215.937 86.2547 216.789C85.7354 216.938 85.2304 216.764 84.9058 216.334ZM81.9755 226.305C80.1221 233.03 74.2353 238.333 68.0176 241.08C64.4447 242.658 60.932 243.053 57.0736 242.877C55.5855 242.809 53.8344 242.326 52.4023 242.416C51.2996 242.485 51.3494 242.533 50.436 243.466C50.032 242.722 50.3246 242.2 49.5141 241.767C48.5028 241.227 48.0829 241.856 47.5813 242.604C46.9248 241.924 46.6561 241.569 45.8054 241.165C45.8322 241.177 44.9911 241.145 45.0255 241.156C44.8734 241.109 43.9587 240.521 43.6723 240.414C42.4969 239.973 41.1379 239.792 40.0534 239.159C39.1047 238.607 38.3234 237.056 37.2379 238.248C37.237 236.257 34.5549 235.431 33.2978 234.388C31.3334 232.758 29.7717 230.345 28.7924 228.011C27.7481 225.522 27.3995 223.136 26.9108 220.571C26.5694 218.779 24.3334 216.188 25.6762 214.38C25.9961 215.138 25.8459 215.915 26.3772 216.603C26.8553 215.681 27.1183 214.65 27.3345 213.642C27.4406 213.148 28.0555 211.698 27.9857 211.268C27.8437 210.387 26.7535 210.339 27.3579 209.259C28.6117 210.623 29.6235 208.228 28.6762 207.273C28.2086 207.8 28.0369 208.4 27.8212 209.053C26.5885 206.564 30.0003 207.366 29.2539 205.119C30.499 204.88 31.2149 204.566 31.6882 203.336C32.2147 201.967 31.8274 201.668 33.0228 200.764C33.4341 200.453 34.597 200.006 34.8098 199.494C35.2215 198.506 34.1738 198.212 35.0914 197.286C35.4013 197.83 36.6091 198.906 37.2705 197.882C37.4029 197.678 36.8468 197.533 37.2513 197.062C37.8505 196.366 38.5209 195.683 39.5341 195.83C38.7318 193.824 43.8588 193.665 45.1718 193.192C46.4878 192.718 47.6043 192.406 48.9996 192.296C50.3935 192.187 50.4628 191.778 51.643 190.939C51.7429 192.14 52.0317 191.876 52.8853 192.088C53.0904 191.736 53.3008 191.696 53.516 191.969C53.7302 192.173 53.9922 192.268 54.3011 192.257C54.7697 192.281 55.3015 192.22 55.7926 192.23C56.9454 192.252 58.1347 192.156 59.2655 192.181C59.5572 192.132 59.8298 192.031 60.0851 191.876C60.1918 192.077 60.2989 192.278 60.405 192.48C61.0042 192.555 61.0506 193.305 61.7874 192.484C62.0055 193.528 62.6319 192.985 63.2937 193.268C63.8971 193.527 63.9933 193.94 64.5503 194.228C64.9166 194.525 65.3092 194.564 65.729 194.347C66.1283 194.643 66.5338 194.93 66.945 195.209C67.7029 195.637 68.5962 195.899 69.3947 196.237C69.926 196.456 70.4539 196.684 70.9775 196.92C70.9933 197.553 71.2768 197.776 71.8277 197.59C72.3255 198.006 72.4656 197.99 72.9485 198.699C74.0426 200.306 75.0133 201.555 76.3952 202.991C82.4016 209.236 84.2468 218.065 81.9755 226.305ZM83.8189 199.75C81.1071 196.119 77.2688 191.961 73.8198 189.667C72.0715 188.505 69.6176 186.417 67.4796 185.802C66.9728 185.657 66.4482 185.647 65.9499 185.494C65.565 185.376 65.3556 184.981 64.9166 184.91C64.6096 184.86 64.5757 185.547 64.2496 185.484C63.5677 185.351 63.1354 184.674 62.6539 184.251C61.6196 186.033 61.0582 183.036 59.5395 185.051C57.732 182.217 53.4858 182.837 50.5996 182.98C49.7436 183.022 49.3415 183.326 48.5826 183.552C47.8764 183.762 47.8066 183.708 47.0353 183.702C45.1144 183.687 43.4093 183.929 41.6338 184.772C38.6509 186.189 35.9129 188.397 33.0797 190.105C29.9133 192.013 27.059 194.442 24.6366 197.233C15.8793 207.326 13.5377 222.057 20.5205 233.757C31.6117 252.339 60.2214 254.325 76.433 241.716C88.9578 231.974 93.7243 213.012 83.8189 199.75Z" fill="black"/>
<path fill-rule="evenodd" clip-rule="evenodd" d="M221.098 147.459C220.787 148.201 217.88 147.951 217.816 147.076C217.722 145.767 221.639 146.168 221.098 147.459ZM224.186 146.973C225.833 147.107 228.539 148.226 230.127 147.549C232.55 146.518 230.005 144.934 228.706 144.46C227.383 143.979 225.413 144.235 224.733 142.852C224.221 141.812 225.486 138.908 223.917 139.375C222.271 139.865 222.75 144.024 220.167 142.622C218.936 141.953 219.438 137.878 217.375 139.96C216.81 140.529 216.761 141.575 216.013 142C215.25 142.433 214.293 141.982 213.487 142.019C211.354 142.119 210.674 144.115 212.836 144.906C213.636 145.199 216.651 145.557 214.824 146.864C213.673 147.688 211.117 145.959 210.128 147.393C208.77 149.362 212.409 149.407 213.386 149.996C215.042 150.993 213.674 153.323 213.806 154.983C214.009 157.518 215.481 156.988 216.016 154.843C216.47 153.022 215.908 150.402 218.652 151.125C223.121 152.303 216.167 157.977 219.441 159.429C221.528 160.354 221.823 155.35 221.985 154.489C222.586 151.308 224.372 152.05 227.079 152.148C230.24 152.262 231.003 149.923 227.655 149.253C226.587 149.039 225.118 149.31 224.19 148.629C223.641 148.227 222.886 146.868 224.186 146.973Z" fill="black"/>
<path fill-rule="evenodd" clip-rule="evenodd" d="M107.451 250.877C104.892 249.961 100.612 250.159 99.9787 253.464C99.7138 254.847 100.23 256.31 101.185 257.315C102.293 258.481 104.058 258.589 103.963 256.559C103.898 255.155 102.561 253.935 104.911 253.652C106.373 253.476 108.536 254.57 108.609 256.185C108.773 259.826 102.471 260.111 100.148 259.482C95.5389 258.233 96.7912 253.404 99.9567 251.201C100.774 250.631 103.121 249.755 103.228 248.572C103.37 247.004 101.431 247.324 100.48 247.53C93.4928 249.052 91.9698 260.757 99.271 262.964C102.587 263.966 107.256 262.932 109.254 259.929C111.128 257.113 111.153 252.203 107.451 250.877Z" fill="black"/>
<path fill-rule="evenodd" clip-rule="evenodd" d="M14.8029 168.011C12.6186 169.063 10.4343 170.114 8.25048 171.166C7.52844 169.621 6.30862 165.4 4.47721 164.861C1.51252 163.989 3.40035 168.59 3.912 169.642C4.33232 170.506 5.30732 171.844 5.07062 172.874C4.75311 174.262 2.79546 174.754 1.77073 175.47C-0.765027 177.242 -0.744948 180.963 2.92744 179.386C5.00558 178.493 7.57864 176.018 9.17144 178.829C9.90688 180.126 11.6493 187.371 13.4693 182.633C14.5954 179.699 9.17527 176.651 11.8473 174.169C12.7076 173.371 13.7146 173.303 14.5739 172.844C16.6491 171.735 15.4791 169.686 14.8029 168.011Z" fill="black"/>
<path fill-rule="evenodd" clip-rule="evenodd" d="M335.029 63.0329C333.727 62.5567 332.116 61.6266 330.669 61.9437C329.131 62.2803 328.511 63.821 327.393 64.7472C324.352 67.2657 322.581 63.5121 320.91 61.455C319.332 59.5126 317.407 59.0411 315.181 60.2347C314.294 60.7105 310.557 62.8904 311.209 64.2872C311.677 65.2923 313.524 64.39 314.153 64.1705C315.52 63.6947 316.79 63.2782 318.188 63.9721C320.811 65.2727 321.491 68.8394 324.665 69.3955C327.946 69.9708 328.053 66.8483 330.395 65.673C331.965 64.8854 333.058 66.2798 334.573 66.0019C336.016 65.7375 336.683 63.6374 335.029 63.0329Z" fill="black"/>
<path fill-rule="evenodd" clip-rule="evenodd" d="M308.539 75.617C309.7 75.869 310.457 73.6183 311.184 73.0473C312.389 72.101 314.478 71.9102 315.705 72.8628C318.101 74.7219 317.275 78.7357 320.687 79.7819C323.736 80.7173 325.173 76.7011 327.739 75.7012C329.232 75.1197 330.87 74.7391 330.288 72.6528C329.885 71.2102 328.7 70.8396 327.412 71.3938C325.198 72.3454 324.447 76.2219 321.822 76.2913C319.106 76.363 318.812 72.4482 317.646 70.743C315.869 68.1441 312.215 67.5163 310.139 70.0014C309.512 70.7511 306.329 75.1384 308.539 75.617Z" fill="black"/>
<path fill-rule="evenodd" clip-rule="evenodd" d="M254.861 31.2376C256.476 32.3422 259.693 32.304 261.18 30.934C262.693 29.5401 260.673 29.3259 259.44 29.3684C258.492 29.4014 256.717 29.8715 257.257 28.2337C257.737 26.7806 260.373 27.5203 260.593 25.9251C258.609 25.5694 256.424 25.6975 254.956 27.2568C253.895 28.3839 253.35 30.2033 254.861 31.2376Z" fill="black"/>
</svg>
