<svg width="301" height="160" viewBox="0 0 301 160" fill="none" xmlns="http://www.w3.org/2000/svg">
<mask id="mask0" mask-type="alpha" maskUnits="userSpaceOnUse" x="0" y="0" width="301" height="105">
<rect width="301" height="105" fill="#C4C4C4"/>
</mask>
<g mask="url(#mask0)">
<path d="M60.9832 131.826L59.6612 118.815L24.5451 122.383C20.1148 122.833 16.6785 122.169 14.2363 120.391C11.8407 118.609 10.4676 115.992 10.1169 112.541C10.0269 111.655 10.1001 110.752 10.3365 109.833C10.5682 108.867 10.9607 107.861 11.5141 106.816C12.0627 105.723 12.6394 104.675 13.2442 103.672C13.8489 102.668 14.5956 101.438 15.4841 99.9809L47.5194 46.6176C49.6128 43.1067 51.3555 40.5503 52.7475 38.9482C54.1815 37.2948 55.9944 36.3567 58.1862 36.134C65.2747 35.4138 69.2312 39.1109 70.0557 47.2254L75.5571 101.368L78.5651 101.063C82.156 100.698 85.0738 100.896 87.3185 101.658C89.6098 102.414 90.9237 104.448 91.2601 107.759C91.535 110.464 90.8503 112.536 89.2061 113.975C87.5572 115.368 84.9606 116.244 81.4164 116.604L77.1493 117.038L78.4713 130.049C78.8362 133.64 78.3158 136.402 76.9103 138.335C75.5001 140.222 73.4658 141.3 70.8076 141.57C68.1961 141.835 65.9842 141.165 64.1719 139.559C62.4015 137.901 61.3386 135.323 60.9832 131.826ZM27.9895 106.202L58.069 103.145L53.9394 62.5031L27.9895 106.202Z" fill="#FF8860"/>
<path d="M185.211 77.3639C185.988 85.0121 186.19 91.635 185.816 97.2327C185.442 102.83 184.224 107.996 182.161 112.728C179.549 118.554 175.876 123.214 171.143 126.711C166.409 130.207 160.965 132.268 154.809 132.894C147.72 133.614 141.151 132.255 135.101 128.818C129.097 125.376 124.313 120.255 120.748 113.456C118.909 109.732 117.403 105.574 116.229 100.982C115.098 96.3378 114.255 91.2878 113.7 85.8315C112.985 78.7896 112.713 72.4094 112.886 66.6907C113.059 60.9721 113.732 56.0036 114.905 51.7853C116.975 44.7903 120.443 39.2786 125.311 35.2503C130.22 31.1706 136.313 28.7611 143.588 28.0219C148.391 27.5338 152.832 27.8836 156.91 29.0711C160.984 30.212 164.644 32.1489 167.89 34.8816C171.178 37.563 174.073 41.0146 176.575 45.2364C180.901 52.571 183.78 63.2802 185.211 77.3639ZM165.902 77.9124C165.034 69.3782 163.813 62.4584 162.237 57.153C160.657 51.801 158.515 47.8725 155.81 45.3674C153.101 42.8157 149.601 41.7578 145.31 42.1938C139.155 42.8193 135.179 46.3564 133.384 52.8053C131.636 59.2494 131.419 68.9304 132.731 81.8482C133.622 90.6156 134.865 97.7452 136.459 103.237C138.054 108.729 140.211 112.798 142.929 115.443C145.643 118.041 149.076 119.129 153.226 118.707C157.517 118.271 160.723 116.438 162.844 113.207C164.966 109.976 166.235 105.536 166.65 99.8868C167.066 94.2378 166.816 86.913 165.902 77.9124Z" fill="#FF8860"/>
<path d="M261.472 111.454L260.15 98.4433L225.034 102.011C220.604 102.462 217.167 101.798 214.725 100.02C212.33 98.2373 210.957 95.6205 210.606 92.1695C210.516 91.2834 210.589 90.3808 210.825 89.4616C211.057 88.4957 211.45 87.4899 212.003 86.4443C212.552 85.3519 213.128 84.3039 213.733 83.3001C214.338 82.2964 215.085 81.0661 215.973 79.6095L248.008 26.2462C250.102 22.7353 251.844 20.1789 253.236 18.5768C254.67 16.9234 256.483 15.9853 258.675 15.7626C265.764 15.0424 269.72 18.7395 270.545 26.8539L276.046 80.997L279.054 80.6914C282.645 80.3265 285.563 80.5248 287.807 81.2861C290.099 82.0428 291.413 84.0766 291.749 87.3877C292.024 90.0925 291.339 92.1645 289.695 93.6037C288.046 94.9963 285.45 95.8727 281.905 96.2328L277.638 96.6664L278.96 109.677C279.325 113.268 278.805 116.03 277.399 117.964C275.989 119.85 273.955 120.929 271.297 121.199C268.685 121.464 266.473 120.794 264.661 119.187C262.89 117.53 261.828 114.952 261.472 111.454ZM228.478 85.8303L258.558 82.774L254.428 42.1317L228.478 85.8303Z" fill="#FF8860"/>
</g>
<path d="M38.0934 125.625V133.359C38.0882 134.432 37.7497 135.31 37.0778 135.992C36.4111 136.674 35.5049 137.057 34.3591 137.141L33.9606 137.156C32.7158 137.156 31.7236 136.82 30.9841 136.148C30.2445 135.477 29.8695 134.552 29.8591 133.375V125.625H31.3434V133.328C31.3434 134.151 31.57 134.792 32.0231 135.25C32.4762 135.703 33.1221 135.93 33.9606 135.93C34.8096 135.93 35.458 135.703 35.9059 135.25C36.3591 134.797 36.5856 134.159 36.5856 133.336V125.625H38.0934ZM49.0547 132.867C49.0547 134.154 48.7604 135.19 48.1719 135.977C47.5833 136.763 46.7865 137.156 45.7812 137.156C44.7552 137.156 43.9479 136.831 43.3594 136.18V140.25H41.9141V128.547H43.2344L43.3047 129.484C43.8932 128.755 44.7109 128.391 45.7578 128.391C46.7734 128.391 47.5755 128.773 48.1641 129.539C48.7578 130.305 49.0547 131.37 49.0547 132.734V132.867ZM47.6094 132.703C47.6094 131.75 47.4062 130.997 47 130.445C46.5938 129.893 46.0365 129.617 45.3281 129.617C44.4531 129.617 43.7969 130.005 43.3594 130.781V134.82C43.7917 135.591 44.4531 135.977 45.3438 135.977C46.0365 135.977 46.5859 135.703 46.9922 135.156C47.4036 134.604 47.6094 133.786 47.6094 132.703ZM57.5003 134.758C57.5003 134.367 57.3519 134.065 57.055 133.852C56.7633 133.633 56.2503 133.445 55.5159 133.289C54.7868 133.133 54.206 132.945 53.7738 132.727C53.3467 132.508 53.029 132.247 52.8206 131.945C52.6175 131.643 52.5159 131.284 52.5159 130.867C52.5159 130.174 52.8076 129.589 53.3909 129.109C53.9795 128.63 54.7295 128.391 55.6409 128.391C56.5993 128.391 57.3753 128.638 57.9691 129.133C58.568 129.628 58.8675 130.26 58.8675 131.031H57.4144C57.4144 130.635 57.2451 130.294 56.9066 130.008C56.5732 129.721 56.1514 129.578 55.6409 129.578C55.1149 129.578 54.7034 129.693 54.4066 129.922C54.1097 130.151 53.9613 130.451 53.9613 130.82C53.9613 131.169 54.0993 131.432 54.3753 131.609C54.6514 131.786 55.1488 131.956 55.8675 132.117C56.5915 132.279 57.1774 132.471 57.6253 132.695C58.0732 132.919 58.404 133.19 58.6175 133.508C58.8363 133.82 58.9456 134.203 58.9456 134.656C58.9456 135.411 58.6435 136.018 58.0394 136.477C57.4352 136.93 56.6514 137.156 55.6878 137.156C55.0107 137.156 54.4118 137.036 53.8909 136.797C53.3701 136.557 52.9613 136.224 52.6644 135.797C52.3727 135.365 52.2269 134.898 52.2269 134.398H53.6722C53.6982 134.883 53.8909 135.268 54.2503 135.555C54.6149 135.836 55.0941 135.977 55.6878 135.977C56.2347 135.977 56.6722 135.867 57.0003 135.648C57.3336 135.424 57.5003 135.128 57.5003 134.758ZM64.1256 133.789H62.8209L62.7194 125.625H64.235L64.1256 133.789ZM62.6647 136.273C62.6647 136.039 62.735 135.844 62.8756 135.688C63.0215 135.526 63.235 135.445 63.5163 135.445C63.7975 135.445 64.011 135.526 64.1569 135.688C64.3027 135.844 64.3756 136.039 64.3756 136.273C64.3756 136.508 64.3027 136.703 64.1569 136.859C64.011 137.01 63.7975 137.086 63.5163 137.086C63.235 137.086 63.0215 137.01 62.8756 136.859C62.735 136.703 62.6647 136.508 62.6647 136.273ZM75.3216 128.547L75.3606 129.484C75.9804 128.755 76.8164 128.391 77.8684 128.391C79.0507 128.391 79.8554 128.844 80.2825 129.75C80.5638 129.344 80.9283 129.016 81.3763 128.766C81.8294 128.516 82.3632 128.391 82.9778 128.391C84.832 128.391 85.7747 129.372 85.8059 131.336V137H84.3606V131.422C84.3606 130.818 84.2226 130.367 83.9466 130.07C83.6705 129.768 83.207 129.617 82.5559 129.617C82.0195 129.617 81.5742 129.779 81.22 130.102C80.8658 130.419 80.6601 130.849 80.6028 131.391V137H79.1497V131.461C79.1497 130.232 78.5481 129.617 77.345 129.617C76.3971 129.617 75.7486 130.021 75.3997 130.828V137H73.9544V128.547H75.3216ZM94.8922 137C94.8089 136.833 94.7411 136.536 94.6891 136.109C94.0172 136.807 93.2151 137.156 92.2828 137.156C91.4495 137.156 90.7646 136.922 90.2281 136.453C89.6969 135.979 89.4312 135.38 89.4312 134.656C89.4312 133.776 89.7646 133.094 90.4312 132.609C91.1031 132.12 92.0458 131.875 93.2594 131.875H94.6656V131.211C94.6656 130.706 94.5146 130.305 94.2125 130.008C93.9104 129.706 93.4651 129.555 92.8766 129.555C92.3609 129.555 91.9286 129.685 91.5797 129.945C91.2307 130.206 91.0562 130.521 91.0562 130.891H89.6031C89.6031 130.469 89.7516 130.062 90.0484 129.672C90.3505 129.276 90.7568 128.964 91.2672 128.734C91.7828 128.505 92.3479 128.391 92.9625 128.391C93.9365 128.391 94.6995 128.635 95.2516 129.125C95.8036 129.609 96.0901 130.279 96.1109 131.133V135.023C96.1109 135.799 96.2099 136.417 96.4078 136.875V137H94.8922ZM92.4937 135.898C92.9469 135.898 93.3766 135.781 93.7828 135.547C94.1891 135.312 94.4833 135.008 94.6656 134.633V132.898H93.5328C91.762 132.898 90.8766 133.417 90.8766 134.453C90.8766 134.906 91.0276 135.26 91.3297 135.516C91.6318 135.771 92.0198 135.898 92.4937 135.898ZM105.275 137C105.192 136.833 105.124 136.536 105.072 136.109C104.4 136.807 103.598 137.156 102.666 137.156C101.833 137.156 101.148 136.922 100.611 136.453C100.08 135.979 99.8144 135.38 99.8144 134.656C99.8144 133.776 100.148 133.094 100.814 132.609C101.486 132.12 102.429 131.875 103.643 131.875H105.049V131.211C105.049 130.706 104.898 130.305 104.596 130.008C104.294 129.706 103.848 129.555 103.26 129.555C102.744 129.555 102.312 129.685 101.963 129.945C101.614 130.206 101.439 130.521 101.439 130.891H99.9863C99.9863 130.469 100.135 130.062 100.432 129.672C100.734 129.276 101.14 128.964 101.65 128.734C102.166 128.505 102.731 128.391 103.346 128.391C104.32 128.391 105.083 128.635 105.635 129.125C106.187 129.609 106.473 130.279 106.494 131.133V135.023C106.494 135.799 106.593 136.417 106.791 136.875V137H105.275ZM102.877 135.898C103.33 135.898 103.76 135.781 104.166 135.547C104.572 135.312 104.866 135.008 105.049 134.633V132.898H103.916C102.145 132.898 101.26 133.417 101.26 134.453C101.26 134.906 101.411 135.26 101.713 135.516C102.015 135.771 102.403 135.898 102.877 135.898ZM111.151 137V129.664H109.815V128.547H111.151V127.68C111.151 126.773 111.393 126.073 111.877 125.578C112.362 125.083 113.046 124.836 113.932 124.836C114.265 124.836 114.596 124.88 114.924 124.969L114.846 126.141C114.601 126.094 114.341 126.07 114.065 126.07C113.596 126.07 113.234 126.208 112.979 126.484C112.724 126.755 112.596 127.146 112.596 127.656V128.547H114.401V129.664H112.596V137H111.151ZM117.635 139.266L116.815 138.703C117.305 138.021 117.56 137.318 117.581 136.594V135.289H118.995V136.422C118.995 136.948 118.864 137.474 118.604 138C118.349 138.526 118.026 138.948 117.635 139.266ZM130.511 133.086L129.605 134.031V137H128.159V125H129.605V132.258L130.378 131.328L133.011 128.547H134.769L131.48 132.078L135.152 137H133.456L130.511 133.086ZM143.16 137C143.076 136.833 143.009 136.536 142.957 136.109C142.285 136.807 141.483 137.156 140.55 137.156C139.717 137.156 139.032 136.922 138.496 136.453C137.964 135.979 137.699 135.38 137.699 134.656C137.699 133.776 138.032 133.094 138.699 132.609C139.371 132.12 140.313 131.875 141.527 131.875H142.933V131.211C142.933 130.706 142.782 130.305 142.48 130.008C142.178 129.706 141.733 129.555 141.144 129.555C140.628 129.555 140.196 129.685 139.847 129.945C139.498 130.206 139.324 130.521 139.324 130.891H137.871C137.871 130.469 138.019 130.062 138.316 129.672C138.618 129.276 139.024 128.964 139.535 128.734C140.05 128.505 140.615 128.391 141.23 128.391C142.204 128.391 142.967 128.635 143.519 129.125C144.071 129.609 144.358 130.279 144.378 131.133V135.023C144.378 135.799 144.477 136.417 144.675 136.875V137H143.16ZM140.761 135.898C141.214 135.898 141.644 135.781 142.05 135.547C142.457 135.312 142.751 135.008 142.933 134.633V132.898H141.8C140.029 132.898 139.144 133.417 139.144 134.453C139.144 134.906 139.295 135.26 139.597 135.516C139.899 135.771 140.287 135.898 140.761 135.898ZM149.683 128.547L149.722 129.484C150.342 128.755 151.178 128.391 152.23 128.391C153.413 128.391 154.217 128.844 154.644 129.75C154.926 129.344 155.29 129.016 155.738 128.766C156.191 128.516 156.725 128.391 157.34 128.391C159.194 128.391 160.137 129.372 160.168 131.336V137H158.722V131.422C158.722 130.818 158.584 130.367 158.308 130.07C158.032 129.768 157.569 129.617 156.918 129.617C156.381 129.617 155.936 129.779 155.582 130.102C155.228 130.419 155.022 130.849 154.965 131.391V137H153.512V131.461C153.512 130.232 152.91 129.617 151.707 129.617C150.759 129.617 150.111 130.021 149.762 130.828V137H148.316V128.547H149.683ZM165.606 137H164.16V128.547H165.606V137ZM164.043 126.305C164.043 126.07 164.113 125.872 164.254 125.711C164.4 125.549 164.613 125.469 164.895 125.469C165.176 125.469 165.389 125.549 165.535 125.711C165.681 125.872 165.754 126.07 165.754 126.305C165.754 126.539 165.681 126.734 165.535 126.891C165.389 127.047 165.176 127.125 164.895 127.125C164.613 127.125 164.4 127.047 164.254 126.891C164.113 126.734 164.043 126.539 164.043 126.305ZM177.216 126.5V128.547H178.794V129.664H177.216V134.906C177.216 135.245 177.286 135.5 177.427 135.672C177.567 135.839 177.807 135.922 178.145 135.922C178.312 135.922 178.541 135.891 178.833 135.828V137C178.453 137.104 178.083 137.156 177.723 137.156C177.078 137.156 176.591 136.961 176.263 136.57C175.934 136.18 175.77 135.625 175.77 134.906V129.664H174.231V128.547H175.77V126.5H177.216ZM183.739 137H182.294V128.547H183.739V137ZM182.177 126.305C182.177 126.07 182.247 125.872 182.388 125.711C182.534 125.549 182.747 125.469 183.028 125.469C183.31 125.469 183.523 125.549 183.669 125.711C183.815 125.872 183.888 126.07 183.888 126.305C183.888 126.539 183.815 126.734 183.669 126.891C183.523 127.047 183.31 127.125 183.028 127.125C182.747 127.125 182.534 127.047 182.388 126.891C182.247 126.734 182.177 126.539 182.177 126.305ZM187.388 132.703C187.388 131.406 187.695 130.365 188.31 129.578C188.925 128.786 189.729 128.391 190.724 128.391C191.714 128.391 192.497 128.729 193.076 129.406V125H194.521V137H193.193L193.122 136.094C192.544 136.802 191.74 137.156 190.708 137.156C189.729 137.156 188.93 136.755 188.31 135.953C187.695 135.151 187.388 134.104 187.388 132.812V132.703ZM188.833 132.867C188.833 133.826 189.031 134.576 189.427 135.117C189.823 135.659 190.37 135.93 191.068 135.93C191.984 135.93 192.654 135.518 193.076 134.695V130.812C192.643 130.016 191.979 129.617 191.083 129.617C190.375 129.617 189.823 129.891 189.427 130.438C189.031 130.984 188.833 131.794 188.833 132.867ZM203.67 137C203.586 136.833 203.519 136.536 203.467 136.109C202.795 136.807 201.993 137.156 201.06 137.156C200.227 137.156 199.542 136.922 199.006 136.453C198.474 135.979 198.209 135.38 198.209 134.656C198.209 133.776 198.542 133.094 199.209 132.609C199.881 132.12 200.823 131.875 202.037 131.875H203.443V131.211C203.443 130.706 203.292 130.305 202.99 130.008C202.688 129.706 202.243 129.555 201.654 129.555C201.138 129.555 200.706 129.685 200.357 129.945C200.008 130.206 199.834 130.521 199.834 130.891H198.381C198.381 130.469 198.529 130.062 198.826 129.672C199.128 129.276 199.534 128.964 200.045 128.734C200.56 128.505 201.125 128.391 201.74 128.391C202.714 128.391 203.477 128.635 204.029 129.125C204.581 129.609 204.868 130.279 204.888 131.133V135.023C204.888 135.799 204.987 136.417 205.185 136.875V137H203.67ZM201.271 135.898C201.724 135.898 202.154 135.781 202.56 135.547C202.967 135.312 203.261 135.008 203.443 134.633V132.898H202.31C200.539 132.898 199.654 133.417 199.654 134.453C199.654 134.906 199.805 135.26 200.107 135.516C200.409 135.771 200.797 135.898 201.271 135.898ZM211.193 133.086L210.287 134.031V137H208.842V125H210.287V132.258L211.061 131.328L213.693 128.547H215.451L212.162 132.078L215.834 137H214.139L211.193 133.086ZM223.921 132.703C223.921 131.406 224.228 130.365 224.842 129.578C225.457 128.786 226.262 128.391 227.257 128.391C228.246 128.391 229.03 128.729 229.608 129.406V125H231.053V137H229.725L229.655 136.094C229.077 136.802 228.272 137.156 227.241 137.156C226.262 137.156 225.462 136.755 224.842 135.953C224.228 135.151 223.921 134.104 223.921 132.812V132.703ZM225.366 132.867C225.366 133.826 225.564 134.576 225.96 135.117C226.356 135.659 226.902 135.93 227.6 135.93C228.517 135.93 229.186 135.518 229.608 134.695V130.812C229.176 130.016 228.512 129.617 227.616 129.617C226.908 129.617 226.356 129.891 225.96 130.438C225.564 130.984 225.366 131.794 225.366 132.867ZM240.202 137C240.119 136.833 240.051 136.536 239.999 136.109C239.327 136.807 238.525 137.156 237.593 137.156C236.759 137.156 236.075 136.922 235.538 136.453C235.007 135.979 234.741 135.38 234.741 134.656C234.741 133.776 235.075 133.094 235.741 132.609C236.413 132.12 237.356 131.875 238.569 131.875H239.976V131.211C239.976 130.706 239.825 130.305 239.522 130.008C239.22 129.706 238.775 129.555 238.187 129.555C237.671 129.555 237.239 129.685 236.89 129.945C236.541 130.206 236.366 130.521 236.366 130.891H234.913C234.913 130.469 235.062 130.062 235.358 129.672C235.661 129.276 236.067 128.964 236.577 128.734C237.093 128.505 237.658 128.391 238.272 128.391C239.246 128.391 240.009 128.635 240.562 129.125C241.114 129.609 241.4 130.279 241.421 131.133V135.023C241.421 135.799 241.52 136.417 241.718 136.875V137H240.202ZM237.804 135.898C238.257 135.898 238.687 135.781 239.093 135.547C239.499 135.312 239.793 135.008 239.976 134.633V132.898H238.843C237.072 132.898 236.187 133.417 236.187 134.453C236.187 134.906 236.338 135.26 236.64 135.516C236.942 135.771 237.33 135.898 237.804 135.898ZM252.507 132.867C252.507 134.154 252.213 135.19 251.624 135.977C251.036 136.763 250.239 137.156 249.234 137.156C248.208 137.156 247.4 136.831 246.812 136.18V140.25H245.367V128.547H246.687L246.757 129.484C247.346 128.755 248.163 128.391 249.21 128.391C250.226 128.391 251.028 128.773 251.617 129.539C252.21 130.305 252.507 131.37 252.507 132.734V132.867ZM251.062 132.703C251.062 131.75 250.859 130.997 250.452 130.445C250.046 129.893 249.489 129.617 248.781 129.617C247.906 129.617 247.249 130.005 246.812 130.781V134.82C247.244 135.591 247.906 135.977 248.796 135.977C249.489 135.977 250.038 135.703 250.445 135.156C250.856 134.604 251.062 133.786 251.062 132.703ZM261.25 137C261.166 136.833 261.099 136.536 261.047 136.109C260.375 136.807 259.573 137.156 258.64 137.156C257.807 137.156 257.122 136.922 256.586 136.453C256.054 135.979 255.789 135.38 255.789 134.656C255.789 133.776 256.122 133.094 256.789 132.609C257.461 132.12 258.403 131.875 259.617 131.875H261.023V131.211C261.023 130.706 260.872 130.305 260.57 130.008C260.268 129.706 259.823 129.555 259.234 129.555C258.718 129.555 258.286 129.685 257.937 129.945C257.588 130.206 257.414 130.521 257.414 130.891H255.961C255.961 130.469 256.109 130.062 256.406 129.672C256.708 129.276 257.114 128.964 257.625 128.734C258.14 128.505 258.705 128.391 259.32 128.391C260.294 128.391 261.057 128.635 261.609 129.125C262.161 129.609 262.448 130.279 262.468 131.133V135.023C262.468 135.799 262.567 136.417 262.765 136.875V137H261.25ZM258.851 135.898C259.304 135.898 259.734 135.781 260.14 135.547C260.547 135.312 260.841 135.008 261.023 134.633V132.898H259.89C258.119 132.898 257.234 133.417 257.234 134.453C257.234 134.906 257.385 135.26 257.687 135.516C257.989 135.771 258.377 135.898 258.851 135.898ZM268.375 126.5V128.547H269.953V129.664H268.375V134.906C268.375 135.245 268.445 135.5 268.586 135.672C268.727 135.839 268.966 135.922 269.305 135.922C269.471 135.922 269.701 135.891 269.992 135.828V137C269.612 137.104 269.242 137.156 268.883 137.156C268.237 137.156 267.75 136.961 267.422 136.57C267.094 136.18 266.93 135.625 266.93 134.906V129.664H265.391V128.547H266.93V126.5H268.375ZM48.8797 147.547L48.9187 148.484C49.5385 147.755 50.3745 147.391 51.4266 147.391C52.6089 147.391 53.4135 147.844 53.8406 148.75C54.1219 148.344 54.4865 148.016 54.9344 147.766C55.3875 147.516 55.9214 147.391 56.5359 147.391C58.3901 147.391 59.3328 148.372 59.3641 150.336V156H57.9187V150.422C57.9187 149.818 57.7807 149.367 57.5047 149.07C57.2286 148.768 56.7651 148.617 56.1141 148.617C55.5776 148.617 55.1323 148.779 54.7781 149.102C54.424 149.419 54.2182 149.849 54.1609 150.391V156H52.7078V150.461C52.7078 149.232 52.1062 148.617 50.9031 148.617C49.9552 148.617 49.3068 149.021 48.9578 149.828V156H47.5125V147.547H48.8797ZM66.7394 156.156C65.5935 156.156 64.6612 155.781 63.9425 155.031C63.2237 154.276 62.8644 153.268 62.8644 152.008V151.742C62.8644 150.904 63.0232 150.156 63.3409 149.5C63.6639 148.839 64.1118 148.323 64.6847 147.953C65.2628 147.578 65.8878 147.391 66.5597 147.391C67.6586 147.391 68.5128 147.753 69.1222 148.477C69.7316 149.201 70.0362 150.237 70.0362 151.586V152.188H64.3097C64.3305 153.021 64.5727 153.695 65.0362 154.211C65.505 154.721 66.0987 154.977 66.8175 154.977C67.3279 154.977 67.7602 154.872 68.1144 154.664C68.4685 154.456 68.7784 154.18 69.0441 153.836L69.9269 154.523C69.2185 155.612 68.156 156.156 66.7394 156.156ZM66.5597 148.578C65.9764 148.578 65.4868 148.792 65.0909 149.219C64.6951 149.641 64.4503 150.234 64.3566 151H68.5909V150.891C68.5493 150.156 68.3514 149.589 67.9972 149.188C67.643 148.781 67.1639 148.578 66.5597 148.578ZM74.7631 147.547L74.81 148.609C75.4558 147.797 76.2996 147.391 77.3412 147.391C79.1277 147.391 80.0287 148.398 80.0444 150.414V156H78.5991V150.406C78.5939 149.797 78.4532 149.346 78.1772 149.055C77.9064 148.763 77.4819 148.617 76.9037 148.617C76.435 148.617 76.0235 148.742 75.6694 148.992C75.3152 149.242 75.0392 149.57 74.8412 149.977V156H73.3959V147.547H74.7631ZM87.4119 156.156C86.266 156.156 85.3337 155.781 84.615 155.031C83.8962 154.276 83.5369 153.268 83.5369 152.008V151.742C83.5369 150.904 83.6957 150.156 84.0134 149.5C84.3364 148.839 84.7843 148.323 85.3572 147.953C85.9353 147.578 86.5603 147.391 87.2322 147.391C88.3311 147.391 89.1853 147.753 89.7947 148.477C90.4041 149.201 90.7087 150.237 90.7087 151.586V152.188H84.9822C85.003 153.021 85.2452 153.695 85.7087 154.211C86.1775 154.721 86.7712 154.977 87.49 154.977C88.0004 154.977 88.4327 154.872 88.7869 154.664C89.141 154.456 89.4509 154.18 89.7166 153.836L90.5994 154.523C89.891 155.612 88.8285 156.156 87.4119 156.156ZM87.2322 148.578C86.6489 148.578 86.1593 148.792 85.7634 149.219C85.3676 149.641 85.1228 150.234 85.0291 151H89.2634V150.891C89.2218 150.156 89.0239 149.589 88.6697 149.188C88.3155 148.781 87.8364 148.578 87.2322 148.578ZM95.4278 147.547L95.4669 148.484C96.0867 147.755 96.9226 147.391 97.9747 147.391C99.157 147.391 99.9617 147.844 100.389 148.75C100.67 148.344 101.035 148.016 101.482 147.766C101.936 147.516 102.469 147.391 103.084 147.391C104.938 147.391 105.881 148.372 105.912 150.336V156H104.467V150.422C104.467 149.818 104.329 149.367 104.053 149.07C103.777 148.768 103.313 148.617 102.662 148.617C102.126 148.617 101.68 148.779 101.326 149.102C100.972 149.419 100.766 149.849 100.709 150.391V156H99.2559V150.461C99.2559 149.232 98.6544 148.617 97.4512 148.617C96.5033 148.617 95.8549 149.021 95.5059 149.828V156H94.0606V147.547H95.4278ZM114.998 155.164C114.436 155.826 113.61 156.156 112.522 156.156C111.621 156.156 110.933 155.896 110.459 155.375C109.991 154.849 109.754 154.073 109.748 153.047V147.547H111.194V153.008C111.194 154.289 111.715 154.93 112.756 154.93C113.86 154.93 114.595 154.518 114.959 153.695V147.547H116.405V156H115.03L114.998 155.164ZM122.647 152.086L121.741 153.031V156H120.296V144H121.741V151.258L122.514 150.328L125.147 147.547H126.905L123.616 151.078L127.288 156H125.592L122.647 152.086ZM135.296 156C135.213 155.833 135.145 155.536 135.093 155.109C134.421 155.807 133.619 156.156 132.687 156.156C131.853 156.156 131.168 155.922 130.632 155.453C130.101 154.979 129.835 154.38 129.835 153.656C129.835 152.776 130.168 152.094 130.835 151.609C131.507 151.12 132.45 150.875 133.663 150.875H135.069V150.211C135.069 149.706 134.918 149.305 134.616 149.008C134.314 148.706 133.869 148.555 133.28 148.555C132.765 148.555 132.332 148.685 131.983 148.945C131.634 149.206 131.46 149.521 131.46 149.891H130.007C130.007 149.469 130.155 149.062 130.452 148.672C130.754 148.276 131.161 147.964 131.671 147.734C132.187 147.505 132.752 147.391 133.366 147.391C134.34 147.391 135.103 147.635 135.655 148.125C136.207 148.609 136.494 149.279 136.515 150.133V154.023C136.515 154.799 136.614 155.417 136.812 155.875V156H135.296ZM132.897 154.898C133.351 154.898 133.78 154.781 134.187 154.547C134.593 154.312 134.887 154.008 135.069 153.633V151.898H133.937C132.166 151.898 131.28 152.417 131.28 153.453C131.28 153.906 131.431 154.26 131.733 154.516C132.036 154.771 132.424 154.898 132.897 154.898ZM141.827 147.547L141.874 148.609C142.52 147.797 143.364 147.391 144.406 147.391C146.192 147.391 147.093 148.398 147.109 150.414V156H145.663V150.406C145.658 149.797 145.518 149.346 145.242 149.055C144.971 148.763 144.546 148.617 143.968 148.617C143.499 148.617 143.088 148.742 142.734 148.992C142.38 149.242 142.104 149.57 141.906 149.977V156H140.46V147.547H141.827ZM158.062 148.57C158.703 147.784 159.536 147.391 160.562 147.391C162.349 147.391 163.25 148.398 163.266 150.414V156H161.82V150.406C161.815 149.797 161.674 149.346 161.398 149.055C161.128 148.763 160.703 148.617 160.125 148.617C159.656 148.617 159.245 148.742 158.891 148.992C158.536 149.242 158.26 149.57 158.062 149.977V156H156.617V144H158.062V148.57ZM172.328 156C172.245 155.833 172.177 155.536 172.125 155.109C171.453 155.807 170.651 156.156 169.719 156.156C168.886 156.156 168.201 155.922 167.664 155.453C167.133 154.979 166.867 154.38 166.867 153.656C166.867 152.776 167.201 152.094 167.867 151.609C168.539 151.12 169.482 150.875 170.696 150.875H172.102V150.211C172.102 149.706 171.951 149.305 171.649 149.008C171.347 148.706 170.901 148.555 170.313 148.555C169.797 148.555 169.365 148.685 169.016 148.945C168.667 149.206 168.492 149.521 168.492 149.891H167.039C167.039 149.469 167.188 149.062 167.485 148.672C167.787 148.276 168.193 147.964 168.703 147.734C169.219 147.505 169.784 147.391 170.399 147.391C171.373 147.391 172.136 147.635 172.688 148.125C173.24 148.609 173.526 149.279 173.547 150.133V154.023C173.547 154.799 173.646 155.417 173.844 155.875V156H172.328ZM169.93 154.898C170.383 154.898 170.813 154.781 171.219 154.547C171.625 154.312 171.92 154.008 172.102 153.633V151.898H170.969C169.198 151.898 168.313 152.417 168.313 153.453C168.313 153.906 168.464 154.26 168.766 154.516C169.068 154.771 169.456 154.898 169.93 154.898ZM179.063 156H177.618V144H179.063V156ZM188.282 156C188.199 155.833 188.131 155.536 188.079 155.109C187.407 155.807 186.605 156.156 185.673 156.156C184.839 156.156 184.155 155.922 183.618 155.453C183.087 154.979 182.821 154.38 182.821 153.656C182.821 152.776 183.155 152.094 183.821 151.609C184.493 151.12 185.436 150.875 186.649 150.875H188.056V150.211C188.056 149.706 187.905 149.305 187.602 149.008C187.3 148.706 186.855 148.555 186.267 148.555C185.751 148.555 185.319 148.685 184.97 148.945C184.621 149.206 184.446 149.521 184.446 149.891H182.993C182.993 149.469 183.142 149.062 183.438 148.672C183.741 148.276 184.147 147.964 184.657 147.734C185.173 147.505 185.738 147.391 186.352 147.391C187.326 147.391 188.089 147.635 188.642 148.125C189.194 148.609 189.48 149.279 189.501 150.133V154.023C189.501 154.799 189.6 155.417 189.798 155.875V156H188.282ZM185.884 154.898C186.337 154.898 186.767 154.781 187.173 154.547C187.579 154.312 187.873 154.008 188.056 153.633V151.898H186.923C185.152 151.898 184.267 152.417 184.267 153.453C184.267 153.906 184.418 154.26 184.72 154.516C185.022 154.771 185.41 154.898 185.884 154.898ZM194.806 147.547L194.845 148.484C195.465 147.755 196.301 147.391 197.353 147.391C198.535 147.391 199.34 147.844 199.767 148.75C200.048 148.344 200.413 148.016 200.861 147.766C201.314 147.516 201.848 147.391 202.462 147.391C204.316 147.391 205.259 148.372 205.29 150.336V156H203.845V150.422C203.845 149.818 203.707 149.367 203.431 149.07C203.155 148.768 202.691 148.617 202.04 148.617C201.504 148.617 201.059 148.779 200.704 149.102C200.35 149.419 200.144 149.849 200.087 150.391V156H198.634V150.461C198.634 149.232 198.033 148.617 196.829 148.617C195.881 148.617 195.233 149.021 194.884 149.828V156H193.439V147.547H194.806ZM214.377 156C214.293 155.833 214.226 155.536 214.173 155.109C213.502 155.807 212.699 156.156 211.767 156.156C210.934 156.156 210.249 155.922 209.712 155.453C209.181 154.979 208.916 154.38 208.916 153.656C208.916 152.776 209.249 152.094 209.916 151.609C210.587 151.12 211.53 150.875 212.744 150.875H214.15V150.211C214.15 149.706 213.999 149.305 213.697 149.008C213.395 148.706 212.949 148.555 212.361 148.555C211.845 148.555 211.413 148.685 211.064 148.945C210.715 149.206 210.541 149.521 210.541 149.891H209.087C209.087 149.469 209.236 149.062 209.533 148.672C209.835 148.276 210.241 147.964 210.752 147.734C211.267 147.505 211.832 147.391 212.447 147.391C213.421 147.391 214.184 147.635 214.736 148.125C215.288 148.609 215.574 149.279 215.595 150.133V154.023C215.595 154.799 215.694 155.417 215.892 155.875V156H214.377ZM211.978 154.898C212.431 154.898 212.861 154.781 213.267 154.547C213.673 154.312 213.968 154.008 214.15 153.633V151.898H213.017C211.246 151.898 210.361 152.417 210.361 153.453C210.361 153.906 210.512 154.26 210.814 154.516C211.116 154.771 211.504 154.898 211.978 154.898ZM220.908 147.547L220.955 148.609C221.601 147.797 222.445 147.391 223.486 147.391C225.273 147.391 226.174 148.398 226.189 150.414V156H224.744V150.406C224.739 149.797 224.598 149.346 224.322 149.055C224.051 148.763 223.627 148.617 223.049 148.617C222.58 148.617 222.169 148.742 221.814 148.992C221.46 149.242 221.184 149.57 220.986 149.977V156H219.541V147.547H220.908ZM237.268 156H235.823V147.547H237.268V156ZM235.706 145.305C235.706 145.07 235.776 144.872 235.917 144.711C236.062 144.549 236.276 144.469 236.557 144.469C236.838 144.469 237.052 144.549 237.198 144.711C237.344 144.872 237.417 145.07 237.417 145.305C237.417 145.539 237.344 145.734 237.198 145.891C237.052 146.047 236.838 146.125 236.557 146.125C236.276 146.125 236.062 146.047 235.917 145.891C235.776 145.734 235.706 145.539 235.706 145.305ZM242.636 147.547L242.682 148.609C243.328 147.797 244.172 147.391 245.214 147.391C247 147.391 247.901 148.398 247.917 150.414V156H246.472V150.406C246.466 149.797 246.326 149.346 246.05 149.055C245.779 148.763 245.354 148.617 244.776 148.617C244.307 148.617 243.896 148.742 243.542 148.992C243.188 149.242 242.912 149.57 242.714 149.977V156H241.268V147.547H242.636ZM253.347 156H251.902V147.547H253.347V156ZM251.784 145.305C251.784 145.07 251.855 144.872 251.995 144.711C252.141 144.549 252.355 144.469 252.636 144.469C252.917 144.469 253.131 144.549 253.277 144.711C253.422 144.872 253.495 145.07 253.495 145.305C253.495 145.539 253.422 145.734 253.277 145.891C253.131 146.047 252.917 146.125 252.636 146.125C252.355 146.125 252.141 146.047 251.995 145.891C251.855 145.734 251.784 145.539 251.784 145.305Z" fill="#828282"/>
</svg>
