<svg width="30" height="38" viewBox="0 0 30 38" fill="none" xmlns="http://www.w3.org/2000/svg">
<circle r="15" transform="matrix(-1 0 0 1 15 22)" fill="url(#paint0_linear)"/>
<path d="M18.8182 14.1088V19.1255C18.8182 19.9615 19.2863 20.7271 20.0298 21.1063L29 25.6828C29 25.6828 26.5455 36.5275 15 36.5275C3.4545 36.5275 1 26.0001 1 26.0001L9.97028 21.1063C10.7137 20.7271 11.1818 19.9615 11.1818 19.1255V14.1088H18.8182Z" fill="#F9AA98"/>
<path d="M15.3445 17.99C13.5447 17.99 11.9627 16.799 11.1819 15.989V15.4971C11.9212 16.2961 13.0931 16.7777 14.9503 16.7777C16.8646 16.7777 18.0671 16.4092 18.8183 15.7821V16.2258C17.6698 17.5286 16.465 17.9902 15.3445 17.99Z" fill="#F79680"/>
<mask id="mask0" mask-type="alpha" maskUnits="userSpaceOnUse" x="0" y="14" width="30" height="24">
<path d="M18.8182 14.1088V19.1254C18.8182 19.9615 19.2863 20.7271 20.0298 21.1063L29.49 25.8C29.49 25.8 27 37.5001 15 37C3.00005 36.5 0.550049 26 0.550049 26L9.97033 21.1063C10.7137 20.7271 11.1818 19.9615 11.1818 19.1254V14.1088H18.8182Z" fill="#F9AA98"/>
</mask>
<g mask="url(#mask0)">
<path d="M2.79371 19.9743H7.9752C7.9752 19.9743 10.3666 20.5735 11.5624 21.3725C12.758 22.1717 15.7474 22.5713 17.242 22.2716C18.7369 21.9719 22.0249 18.8754 22.0249 18.8754L26.6085 19.9743L31.6904 24.569L30.2954 29.8632L23.3203 35.7568L15.6477 37.355L7.67623 36.2561L1.19938 31.3617L-0.594238 24.7688L1.19938 21.5723L2.993 20.1739L2.79371 19.9743" fill="#F2536D"/>
</g>
<path d="M19.9822 9.43568C19.9822 13.2422 20.8791 16.7776 14.9502 16.7776C9.91809 16.7776 9.91809 13.2422 9.91809 9.43568C9.91809 5.62915 10.4662 1.84413 15 1.84413C19.6335 1.84413 19.9822 5.62915 19.9822 9.43568" fill="#F9AA98"/>
<path d="M10.3167 8.53681C10.1174 8.53681 8.82202 7.03848 8.22422 7.63769C7.62634 8.2371 8.82202 11.5335 10.1174 9.83555" fill="#F9AA98"/>
<path d="M19.3843 8.53681C19.5836 8.53681 20.8791 7.03848 21.4769 7.63769C22.0748 8.2371 20.8791 11.5335 19.5836 9.83555" fill="#F9AA98"/>
<path d="M13.8312 14.4073C13.8341 14.4081 14.1877 14.5133 14.6469 14.5135C15.1498 14.5138 15.7865 14.386 16.2127 13.8421L16.1343 13.7806C15.7357 14.2901 15.1354 14.4134 14.6469 14.4136C14.4248 14.4136 14.2272 14.3881 14.0857 14.3623C14.0148 14.3495 13.9579 14.3368 13.9189 14.3272C13.88 14.3176 13.8597 14.3116 13.8596 14.3116L13.8312 14.4073" fill="#4C181D"/>
<path d="M15.2428 12.8176C15.242 12.8174 15.0108 12.748 14.7554 12.6432C14.4996 12.5371 14.2216 12.4025 14.1164 12.2485C14.0965 12.2171 14.0914 12.179 14.0909 12.1322C14.0922 11.8729 14.2879 11.2871 14.5083 10.6881C14.7288 10.0911 14.9751 9.4876 15.0775 9.21814C15.1056 9.14508 15.1234 9.09161 15.1243 9.08437V9.08394L15.1425 9.08629H15.198L15.1897 9.12442C15.185 9.1389 15.1787 9.15765 15.1704 9.18065C15.1536 9.22645 15.1298 9.28865 15.1 9.36448C15.041 9.51594 14.9594 9.72106 14.8686 9.95261C14.6872 10.4159 14.4694 10.9855 14.3245 11.4418C14.228 11.7451 14.1645 12.0012 14.1649 12.1322C14.1645 12.1722 14.1717 12.199 14.1778 12.2073C14.2373 12.2987 14.4071 12.4042 14.5939 12.4917C14.7809 12.5799 14.9851 12.6545 15.1183 12.6996C15.2071 12.7297 15.2639 12.7467 15.2639 12.7467L15.2428 12.8176V12.8176Z" fill="#794742"/>
<path d="M12.6086 8.58659C12.6086 8.83496 12.5417 9.03625 12.4591 9.03625C12.3766 9.03625 12.3097 8.83496 12.3097 8.58659C12.3097 8.33843 12.3766 8.13714 12.4591 8.13714C12.5417 8.13714 12.6086 8.33843 12.6086 8.58659Z" fill="#190A0C"/>
<path d="M17.5409 8.63684C17.5409 8.885 17.474 9.0863 17.3915 9.0863C17.3089 9.0863 17.2419 8.885 17.2419 8.63684C17.2419 8.38868 17.3089 8.18738 17.3915 8.18738C17.474 8.18738 17.5409 8.38868 17.5409 8.63684" fill="#190A0C"/>
<path d="M16.7815 7.5527C17.3378 7.20442 17.9708 7.30603 18.2736 7.92547C18.3159 8.01195 18.4449 7.93613 18.4026 7.84964C18.0662 7.16183 17.3353 7.02933 16.7061 7.4234C16.6247 7.47431 16.6997 7.60382 16.7815 7.5527" fill="#B94C4F"/>
<path d="M13.1942 7.42344C12.5649 7.02916 11.8344 7.16144 11.4978 7.84969C11.4555 7.93596 11.5844 8.01199 11.6269 7.92551C11.9297 7.30607 12.5626 7.20446 13.1188 7.55274C13.2007 7.60386 13.2758 7.47435 13.1942 7.42344" fill="#B94C4F"/>
<path d="M19.1773 4.57051C19.1773 4.57051 16.2501 6.77114 15.6647 4.71706C15.6647 4.71706 12.4449 7.35799 10.6886 5.45068C10.6886 5.45068 7.90769 4.57051 9.37129 1.78281C10.835 -1.00488 17.1283 -0.418245 18.8845 2.80975C18.8845 2.80975 20.4946 2.07614 20.9336 3.3966C21.3728 4.71707 20.202 5.30391 19.1773 4.57051Z" fill="#B94C4F"/>
<path d="M9.6596 4.84032C9.6596 4.84032 9.37348 7.48807 9.91981 9.0863C9.91981 9.0863 11.0642 4.1917 12.5588 5.59013C12.5588 5.59013 10.0487 4.09031 9.6596 4.84032" fill="#B94C4F"/>
<path d="M18.0393 4.89101C18.0393 4.89101 19.8306 6.58915 19.9812 9.0863C19.9812 9.0863 20.5303 4.5913 19.534 4.09179C18.5376 3.59227 18.0393 4.89101 18.0393 4.89101" fill="#B94C4F"/>
<path d="M10.9422 20.1288C10.9422 20.1288 12.758 22.0718 15.0497 22.2717C15.0497 22.2717 12.4591 23.2705 12.5588 23.77C12.6584 24.2695 8.22964 21.0824 10.9422 20.1288Z" fill="#F36581"/>
<path d="M19.1575 20.1288C19.1575 20.1288 17.3416 22.0718 15.0497 22.2717C15.0497 22.2717 17.6406 23.2705 17.5409 23.77C17.4412 24.2695 21.8699 21.0824 19.1575 20.1288Z" fill="#F36581"/>
<path d="M11.8115 13.1815C11.2887 13.1815 10.8647 12.6449 10.8647 11.9829C10.8647 11.3209 11.2887 10.7843 11.8115 10.7843C12.3343 10.7843 12.758 11.3209 12.758 11.9829C12.758 12.6449 12.3343 13.1815 11.8115 13.1815Z" fill="#F8A293"/>
<path d="M18.2883 13.1815C17.7656 13.1815 17.3417 12.6449 17.3417 11.9829C17.3417 11.3209 17.7656 10.7843 18.2883 10.7843C18.8112 10.7843 19.2349 11.3209 19.2349 11.9829C19.2349 12.6449 18.8112 13.1815 18.2883 13.1815Z" fill="#F8A293"/>
<defs>
<linearGradient id="paint0_linear" x1="15" y1="7.5" x2="14" y2="22" gradientUnits="userSpaceOnUse">
<stop stop-color="#FE69A9"/>
<stop offset="1" stop-color="#FF8860"/>
</linearGradient>
</defs>
</svg>
