<svg width="634" height="207" viewBox="0 0 634 207" fill="none" xmlns="http://www.w3.org/2000/svg">
<rect width="634" height="207" rx="8" fill="url(#paint0_linear)"/>
<mask id="mask0" mask-type="alpha" maskUnits="userSpaceOnUse" x="0" y="0" width="634" height="207">
<rect width="634" height="207" rx="8" fill="url(#paint1_linear)"/>
</mask>
<g mask="url(#mask0)">
<path fill-rule="evenodd" clip-rule="evenodd" d="M166.819 179.849C163.307 178.587 157.431 178.86 156.563 183.41C156.199 185.314 156.907 187.329 158.218 188.713C159.739 190.317 162.161 190.466 162.031 187.672C161.942 185.738 160.107 184.059 163.332 183.669C165.339 183.427 168.308 184.932 168.407 187.156C168.633 192.169 159.983 192.562 156.796 191.695C150.469 189.975 152.188 183.328 156.532 180.294C157.655 179.51 160.875 178.303 161.022 176.675C161.218 174.515 158.556 174.956 157.251 175.241C147.66 177.335 145.57 193.451 155.591 196.49C160.142 197.869 166.551 196.445 169.293 192.31C171.865 188.434 171.9 181.674 166.819 179.849Z" fill="#FF8860"/>
<path fill-rule="evenodd" clip-rule="evenodd" d="M128.719 115.869C123.448 118.407 118.177 120.946 112.908 123.484C111.166 119.754 108.222 109.565 103.803 108.264C96.6496 106.158 101.205 117.264 102.439 119.804C103.454 121.89 105.806 125.122 105.235 127.608C104.469 130.958 99.7453 132.145 97.2727 133.873C91.154 138.151 91.2025 147.135 100.064 143.328C105.078 141.173 111.287 135.197 115.13 141.982C116.905 145.113 121.109 162.603 125.501 151.165C128.218 144.083 115.139 136.725 121.587 130.734C123.663 128.807 126.093 128.644 128.166 127.536C133.174 124.859 130.35 119.912 128.719 115.869Z" fill="#FF8860"/>
<path fill-rule="evenodd" clip-rule="evenodd" d="M198.986 131.839C197.624 131.309 195.94 130.274 194.426 130.627C192.818 131.002 192.17 132.717 191.001 133.748C187.822 136.551 185.97 132.373 184.223 130.083C182.573 127.921 180.56 127.396 178.232 128.725C177.305 129.254 173.398 131.681 174.079 133.236C174.569 134.355 176.5 133.35 177.158 133.106C178.587 132.576 179.915 132.113 181.377 132.885C184.119 134.333 184.831 138.303 188.148 138.922C191.579 139.562 191.692 136.087 194.14 134.778C195.781 133.902 196.925 135.454 198.508 135.144C200.017 134.85 200.715 132.512 198.986 131.839Z" fill="#FF8860"/>
<path fill-rule="evenodd" clip-rule="evenodd" d="M170.817 145.504C172.047 145.767 172.85 143.417 173.62 142.82C174.898 141.832 177.112 141.633 178.413 142.628C180.953 144.569 180.078 148.761 183.694 149.854C186.927 150.83 188.45 146.636 191.171 145.592C192.753 144.985 194.49 144.587 193.872 142.409C193.446 140.902 192.19 140.515 190.824 141.094C188.477 142.087 187.68 146.136 184.898 146.208C182.019 146.283 181.707 142.195 180.471 140.414C178.587 137.7 174.714 137.044 172.513 139.639C171.848 140.423 168.474 145.004 170.817 145.504Z" fill="#FF8860"/>
<path opacity="0.7" d="M77 183C77 211.719 53.7188 235 25 235C-3.71881 235 -27 211.719 -27 183C-27 154.281 -3.71881 131 25 131C53.7188 131 77 154.281 77 183ZM-12.7459 183C-12.7459 203.846 4.15352 220.746 25 220.746C45.8465 220.746 62.7459 203.846 62.7459 183C62.7459 162.154 45.8465 145.254 25 145.254C4.15352 145.254 -12.7459 162.154 -12.7459 183Z" fill="#FF8860"/>
<g opacity="0.4">
<path fill-rule="evenodd" clip-rule="evenodd" d="M505.272 85.7648C505.077 85.4842 504.73 85.8179 504.875 86.0205C505.007 85.9355 505.139 85.8502 505.272 85.7648ZM510.636 87.324C510.418 87.2154 510.344 87.3863 510.258 87.5833C510.233 87.641 510.207 87.7012 510.176 87.7571C510.371 87.8647 510.462 87.6757 510.553 87.4843C510.58 87.4288 510.607 87.3728 510.636 87.324ZM506.858 80.5908C506.42 80.0322 506.388 80.2197 506.352 80.8562C506.436 80.812 506.521 80.7677 506.606 80.7233C506.69 80.6793 506.774 80.635 506.858 80.5908ZM566.718 50.3808C566.166 50.639 566.108 50.8265 566.554 51.1423C566.607 50.8966 566.646 50.7165 566.718 50.3808ZM505.077 76.4258C505.208 76.8526 505.741 76.9445 505.741 76.4258H505.077ZM546.408 54.4314C546.726 54.5326 546.889 54.5844 547.032 54.5517C547.181 54.5177 547.309 54.392 547.571 54.1354C547.442 54.1684 547.326 54.1979 547.215 54.2261C547.126 54.2488 547.04 54.2705 546.953 54.2928C546.786 54.3353 546.615 54.3788 546.408 54.4314ZM531.655 98.1803C531.466 97.9149 531.278 97.6496 531.09 97.3842C531.027 97.5792 530.963 97.7746 530.9 97.9696L530.899 97.9709L530.853 98.1148C531.12 98.1366 531.387 98.1583 531.655 98.1803ZM569.776 43.8561C569.701 44.2106 569.665 44.3859 569.735 44.4861C569.803 44.5841 569.974 44.6103 570.312 44.6623L570.058 44.2807L570.027 44.2328C569.949 44.1165 569.868 43.9947 569.776 43.8561ZM566.791 44.965C566.768 44.8496 566.745 44.734 566.721 44.6186L566.718 44.601C566.695 44.4915 566.673 44.3819 566.651 44.2722C566.611 44.4484 566.458 44.4389 566.31 44.4294C566.182 44.4213 566.057 44.4135 566.01 44.5242C565.775 45.0723 566.522 44.998 566.791 44.965ZM509.952 85.8594C509.788 85.5351 509.752 85.5099 509.394 85.4419C509.486 85.7656 509.486 86.0183 509.485 86.3422V86.4095C510.069 86.3268 510.253 86.2843 510.264 85.6631L509.952 85.8594ZM508.248 87.0052C508.171 87.2924 507.952 87.223 507.766 87.1636C507.598 87.1098 507.455 87.0646 507.468 87.3005C507.461 87.1641 508.139 88.0603 508.1 88.0314C508.441 88.2883 508.64 88.2641 509.026 87.9693C508.475 87.9485 508.411 87.6733 508.326 87.3037C508.304 87.2096 508.281 87.1091 508.248 87.0052ZM571.045 44.6966C570.925 44.9728 570.805 45.2493 570.685 45.5255L570.658 45.5866C570.547 45.8426 570.436 46.0985 570.324 46.3542C570.274 46.4703 570.235 46.5727 570.201 46.6612C570.041 47.0802 569.997 47.1939 569.413 47.0103C569.433 46.9761 569.481 46.9084 569.541 46.8235V46.8233C569.721 46.5678 570.012 46.1569 569.979 46.0325C569.949 45.9154 569.661 45.7707 569.401 45.6397C569.239 45.5585 569.089 45.4827 569.016 45.4219C568.804 45.2458 568.727 45.0855 568.645 44.9158C568.598 44.8161 568.548 44.7127 568.468 44.6012C568.554 44.3216 568.487 44.1908 568.269 44.2096C568.206 44.3785 568.144 44.5472 568.081 44.7159L568.077 44.7266L568.028 44.8577C568.039 45.1175 568.168 45.2168 568.32 45.3334C568.436 45.4231 568.566 45.5228 568.665 45.7137L568.685 45.7502C568.829 46.0266 568.871 46.1063 568.848 46.1567C568.838 46.177 568.818 46.1924 568.79 46.2141C568.732 46.2593 568.639 46.3315 568.533 46.5302C568.436 46.7133 568.369 46.914 568.303 47.1091C568.179 47.4804 568.061 47.8322 567.757 48.0072C568.006 48.1165 568.255 48.2257 568.503 48.3348C567.923 48.9723 569.131 48.6618 569.33 48.6L569.33 48.6012L569.329 48.6024C569.125 49.0356 568.921 49.4685 568.718 49.9017C568.265 49.6482 567.981 49.2265 567.699 48.807C567.6 48.6596 567.501 48.5122 567.395 48.3726C567.085 48.9495 566.774 49.5267 566.464 50.1039C566.605 50.0909 566.747 50.0777 566.888 50.0647C567.056 50.0493 567.223 50.0339 567.39 50.0183C567.381 50.0369 567.353 50.0797 567.316 50.1361L567.316 50.1364C567.19 50.3302 566.959 50.6861 566.986 50.7822C567.048 51.0108 567.296 51.078 567.539 51.1438C567.835 51.2239 568.123 51.3019 568.059 51.6652C568.044 51.75 567.101 52.7002 566.94 52.7919C567.039 52.8366 567.127 52.8679 567.203 52.895C567.486 52.996 567.592 53.0336 567.458 53.4749C567.238 53.3421 567.018 53.2091 566.798 53.0762C566.757 53.1502 566.714 53.2238 566.672 53.2976L566.671 53.2979C566.52 53.5589 566.368 53.8217 566.275 54.1087C566.298 54.3495 566.255 54.5776 566.146 54.7932C566.016 54.9861 565.87 55.166 565.708 55.3327C565.579 55.6713 565.538 57.5193 565.693 57.8207C566.039 57.3741 566.812 58.1625 565.507 58.1625C565.399 58.1625 565.312 58.1583 565.241 58.1547C564.942 58.1397 564.933 58.1393 564.756 58.5453C564.585 58.9401 564.492 59.2845 564.979 59.3224C564.685 59.9018 564.677 60.3743 564.669 60.936C564.667 61.0734 564.665 61.2162 564.658 61.367C564.637 61.8488 564.528 62.3282 564.42 62.8034C564.388 62.9423 564.357 63.0806 564.327 63.2187C564.385 63.1356 564.443 63.0525 564.501 62.9692C564.559 62.886 564.617 62.8029 564.675 62.7196C564.931 63.2659 564.817 63.7416 564.686 64.2882C564.657 64.4078 564.627 64.531 564.601 64.6588C564.415 64.4131 564.322 64.56 564.225 64.715C564.153 64.8299 564.078 64.9492 563.96 64.9155C563.626 64.8201 563.637 64.7397 563.654 64.6133C563.667 64.5258 563.682 64.4163 563.588 64.2645C563.544 64.1946 563.511 64.1354 563.483 64.0836C563.379 63.8983 563.329 63.8084 563.041 63.6548C562.692 63.4683 562.153 63.4104 561.672 63.3588C561.482 63.3383 561.301 63.319 561.144 63.2928C560.228 63.14 559.31 63.1002 558.383 63.0598L558.346 63.0581C554.828 62.9056 551.323 62.8665 547.805 63.0598C544.57 63.2378 541.255 63.6915 538.082 64.3061C537.856 64.3498 537.63 64.3936 537.405 64.4371C534.262 65.0433 531.181 65.6376 528.128 66.6702C527.847 66.7655 527.565 66.9068 527.284 67.0478V67.0481C526.933 67.2241 526.582 67.4001 526.231 67.4869C525.985 67.5482 525.737 67.5839 525.488 67.6201C525.133 67.6714 524.774 67.7233 524.406 67.8509C523.578 68.1383 522.734 68.3874 521.89 68.6365C521.208 68.8377 520.526 69.0392 519.852 69.2606C519.421 69.4027 518.98 69.5383 518.536 69.675C517.308 70.0529 516.057 70.4377 514.921 70.9811C514.58 71.1441 514.256 71.3365 513.931 71.5289C513.615 71.7162 513.299 71.9036 512.967 72.064C512.829 72.1315 512.669 72.1975 512.501 72.2669C511.903 72.5143 511.198 72.8062 510.937 73.3591C510.806 73.6354 510.829 73.8356 510.91 74.1218C511.059 74.6518 511.18 74.6401 511.544 74.6046C511.575 74.6014 511.607 74.5985 511.641 74.5953C512.027 74.5613 512.485 74.3594 512.92 74.1678C513.176 74.0548 513.424 73.9456 513.644 73.8759C515.275 73.362 516.926 72.9506 518.584 72.539C519.837 72.2283 521.091 71.8166 522.342 71.4059C524.068 70.8398 525.789 70.2751 527.493 69.9781C528.368 69.8256 529.221 69.5413 530.075 69.2567C530.921 68.9746 531.768 68.692 532.64 68.5368C532.765 68.5146 532.968 68.4415 533.195 68.3596C533.665 68.1897 534.241 67.9817 534.454 68.1095C534.51 68.1432 534.62 68.4241 534.708 68.6495C534.752 68.7607 534.79 68.8585 534.814 68.9059C535.073 69.4232 535.37 69.9226 535.717 70.3858C536.487 71.4113 537.449 72.2904 538.402 73.1616L538.402 73.1618C538.747 73.4772 539.091 73.7916 539.425 74.1113C540.476 75.1206 541.427 76.2065 542.381 77.2963V77.2965C542.727 77.6913 543.073 78.0868 543.425 78.4792C543.487 78.4071 543.549 78.3347 543.612 78.2626L543.769 78.0797C543.658 78.9378 544.24 79.5755 544.779 80.1649C544.801 80.1899 544.824 80.2145 544.846 80.2395C544.87 80.2654 544.894 80.2913 544.917 80.317C545.594 81.0689 546.139 81.7756 546.673 82.6329C546.977 83.1201 547.34 83.5655 547.699 84.006C547.857 84.2011 548.016 84.3954 548.168 84.592C548.451 84.9586 548.679 85.3693 548.909 85.7822C549.074 86.0794 549.239 86.3777 549.427 86.6617C549.819 87.256 550.208 87.8544 550.597 88.4528C551.23 89.4255 551.863 90.3977 552.505 91.3503C552.994 92.0747 553.379 92.8897 553.766 93.7142C553.858 93.9117 554.007 94.1713 554.169 94.4549V94.4551C554.546 95.112 554.996 95.8984 554.996 96.3416C554.973 96.4457 555.034 96.7249 555.098 97.017C555.225 97.5971 555.362 98.2278 554.883 97.6416C554.85 97.6919 554.818 97.7423 554.785 97.7926L554.738 97.8665C554.706 97.9156 554.674 97.9647 554.642 98.0136C554.607 98.0677 554.573 98.1217 554.538 98.1755C554.735 98.0928 554.932 98.0102 555.129 97.9276C554.752 98.2693 555.056 98.4233 555.339 98.5663C555.505 98.6502 555.664 98.7301 555.673 98.8421C555.627 98.8861 555.582 98.9298 555.536 98.9736L555.374 99.1303C555.204 99.4808 554.982 99.5263 554.71 99.2667C554.586 99.2743 554.502 99.2498 554.424 99.2266C554.313 99.1938 554.211 99.1638 554.016 99.2291C554.155 99.4459 554.311 99.5089 554.457 99.5674C554.646 99.6434 554.817 99.7121 554.909 100.101C555.023 100.59 554.754 100.769 554.396 101.008C554.3 101.072 554.197 101.14 554.094 101.22V101.219L554.081 101.217C554.108 100.835 553.921 100.553 553.585 100.375V101.126C553.677 101.143 553.77 101.16 553.862 101.177L553.865 101.178L554.081 101.217C554.081 101.222 554.081 101.226 554.08 101.231L554.094 101.22C554.015 101.523 553.783 101.467 553.506 101.401C553.458 101.389 553.408 101.377 553.357 101.366C552.759 101.243 552.114 101.034 551.503 100.837C551.312 100.774 551.123 100.714 550.941 100.657C549.289 100.142 547.625 99.7074 545.917 99.3552C543.017 98.757 540.136 98.625 537.23 98.4918H537.23C536.231 98.4458 535.229 98.3999 534.223 98.3348C534.228 98.3133 534.233 98.293 534.238 98.2737C534.287 98.0684 534.308 97.9848 534.295 97.9063C534.287 97.8525 534.263 97.8014 534.223 97.7149C534.217 97.7024 534.211 97.6892 534.204 97.6751C534.267 97.8107 534.155 97.8225 534.042 97.8342C533.871 97.852 533.696 97.8704 534.128 98.3265C532.999 98.5111 531.814 98.4959 530.637 98.4808C529.908 98.4715 529.183 98.4622 528.475 98.5001C528.494 98.4578 528.518 98.4138 528.543 98.3698C528.63 98.2143 528.718 98.0564 528.574 97.9479C527.945 98.8567 526.262 98.8352 524.825 98.8167C524.256 98.8096 523.727 98.8027 523.316 98.8541C522.82 98.9164 522.328 99.012 521.835 99.1073C521.482 99.1758 521.13 99.2442 520.776 99.3002C520.717 99.3097 520.658 99.319 520.599 99.3281C520.241 99.3838 519.883 99.4398 519.533 99.5341C519.406 99.5686 519.249 99.6392 519.084 99.7138C518.765 99.8583 518.413 100.017 518.179 99.9536C518.538 99.2295 518.363 99.4388 518.194 99.6412C518.118 99.7319 518.043 99.8211 518.018 99.8248C517.968 99.8321 517.912 99.8412 517.851 99.8512C517.604 99.891 517.275 99.9443 516.991 99.9443C517.158 99.275 517.373 98.6275 517.589 97.9801C517.897 97.0576 518.204 96.1357 518.368 95.153C518.389 95.0264 518.415 94.8905 518.442 94.748V94.7477C518.637 93.7166 518.896 92.3421 517.99 91.6931C517.542 91.3714 516.865 91.2499 516.278 91.1445H516.278C516.126 91.1174 515.981 91.0912 515.846 91.0629C515.623 91.0159 515.348 90.9841 515.056 90.9504C514.411 90.8761 513.683 90.792 513.254 90.5131C513.071 90.394 512.942 90.2787 512.818 90.1682C512.614 89.9846 512.424 89.8147 512.026 89.6636C511.881 89.6084 511.751 89.5534 511.63 89.5023C511.14 89.2945 510.804 89.152 510.208 89.3329C510.256 89.2725 510.307 89.2146 510.357 89.1583C510.619 88.863 510.839 88.6161 510.34 88.291C510.243 88.2279 510.109 88.224 509.978 88.2199C509.779 88.2138 509.586 88.2079 509.535 87.9996C509.212 88.2277 509.182 88.4238 509.142 88.6799C509.128 88.7733 509.112 88.8748 509.081 88.9887C509.092 89.1691 509.139 89.3412 509.224 89.5045L508.925 89.6248L508.524 89.7861C508.613 89.5485 508.493 89.5372 508.364 89.525C508.277 89.5169 508.186 89.5084 508.151 89.4294C508.055 89.2131 508.072 88.9124 508.088 88.6418C508.093 88.5467 508.098 88.4553 508.098 88.3727C507.618 88.5245 507.115 88.7122 506.905 89.2124C506.439 88.9347 506.488 88.8618 506.679 88.5822C506.729 88.5086 506.789 88.4208 506.852 88.3113C506.358 88.1945 506.253 88.4487 506.178 88.8579C505.991 88.8 505.803 88.7423 505.616 88.6846L505.611 88.6826L505.396 88.6164C505.983 88.6122 506.124 88.1531 506.138 87.6545C506.04 87.6865 505.942 87.7185 505.843 87.7505L505.84 87.7515C505.711 87.7936 505.582 87.8356 505.452 87.8776L505.312 88.6015C504.984 88.8789 504.18 88.4484 503.809 88.2497L503.808 88.2495C503.771 88.2297 503.739 88.2123 503.711 88.1979L503.616 88.1487C502.629 87.6381 502.268 87.4518 502.413 86.2415C502.465 85.8108 502.542 85.3791 502.619 84.9467C502.729 84.3294 502.84 83.7109 502.876 83.0922C502.936 82.0614 502.837 80.9675 502.742 79.9244C502.73 79.7853 502.717 79.6472 502.705 79.51C502.632 78.6764 502.542 77.847 502.452 77.0186V77.0183C502.299 75.6073 502.146 74.1983 502.075 72.7727C502.059 72.4446 502.043 72.1166 502.026 71.7883L502.026 71.788C501.98 70.8909 501.935 69.9937 501.899 69.0961C501.893 68.9353 501.879 68.772 501.864 68.6106C501.793 67.7946 501.726 67.0354 502.741 66.963C502.592 66.4912 503.037 65.9456 503.496 65.6872C503.657 65.3213 503.832 65.2885 504.023 65.5894C504.189 65.6415 504.343 65.6171 504.486 65.5156C504.895 65.423 505.354 65.0321 505.786 64.6639C506.061 64.4298 506.325 64.2049 506.559 64.0716C506.718 63.9807 506.93 63.8783 507.161 63.7663H507.161C507.781 63.4656 508.547 63.0948 508.853 62.6829C509.081 62.3771 508.988 62.2617 508.885 62.1317C508.803 62.029 508.714 61.9175 508.769 61.6965C508.928 61.0551 509.48 61.8774 509.628 62.0967C509.637 62.1114 509.646 62.1236 509.652 62.1321C509.718 62.0659 509.843 61.9811 509.983 61.8865C510.281 61.685 510.644 61.4391 510.638 61.2338L510.058 61.1304C510.12 61.0947 510.204 61.038 510.298 60.9747C510.525 60.8219 510.81 60.63 510.984 60.596C511.073 60.5786 511.136 60.5601 511.183 60.5461C511.241 60.529 511.275 60.5188 511.305 60.5266C511.347 60.5373 511.379 60.5845 511.459 60.6987C511.49 60.7441 511.529 60.8001 511.579 60.8686C511.612 60.818 511.658 60.7346 511.711 60.6385V60.6383C511.846 60.3924 512.028 60.0616 512.156 59.9753C512.206 59.9416 512.4 59.9145 512.573 59.8905C512.694 59.8734 512.805 59.858 512.848 59.8426C513.152 59.7353 513.27 59.5561 513.384 59.3835C513.475 59.2454 513.564 59.1112 513.742 59.0212C513.847 58.9689 513.964 58.9875 514.076 59.0053C514.173 59.021 514.265 59.0357 514.341 59.0024C514.479 58.9425 514.544 58.8064 514.609 58.6702C514.669 58.5468 514.728 58.4233 514.841 58.3561C514.952 58.2898 515.155 58.2891 515.357 58.2884C515.529 58.2879 515.699 58.2871 515.812 58.2461C516.084 58.1468 516.166 58.0522 516.281 57.9195C516.338 57.8537 516.403 57.7787 516.504 57.6887C516.747 57.4714 516.98 57.3966 517.223 57.3181C517.404 57.2597 517.591 57.1993 517.794 57.0764C518.034 56.9304 518.139 56.6945 518.235 56.477C518.336 56.2506 518.428 56.0441 518.655 55.9785C518.911 55.905 519.085 55.9675 519.226 56.0181C519.412 56.0851 519.541 56.1313 519.725 55.8145C519.754 55.7644 519.719 55.7043 519.679 55.6373C519.619 55.5373 519.551 55.4224 519.675 55.3024C519.896 55.0882 520.005 55.2816 520.107 55.462C520.122 55.4894 520.137 55.5165 520.153 55.5419L520.154 55.5405L520.155 55.539C520.289 55.286 520.423 55.033 520.557 54.78C520.952 54.9968 521.005 54.91 521.098 54.7543C521.158 54.6553 521.234 54.5284 521.426 54.4338C521.532 54.382 521.628 54.4043 521.726 54.427C521.833 54.4514 521.942 54.4766 522.066 54.4087C522.172 54.3515 522.226 54.2537 522.279 54.1569C522.314 54.0916 522.35 54.0268 522.401 53.9748C522.475 53.8995 522.538 53.8156 522.602 53.732C522.749 53.5399 522.894 53.3492 523.157 53.2666C523.021 53.3091 524.14 53.2768 524.04 53.2289C523.932 53.0691 523.823 52.9092 523.714 52.7493C523.832 52.7493 523.948 52.7518 524.061 52.7542H524.061C524.509 52.7633 524.926 52.7721 525.378 52.6315L525.387 52.6288C525.588 52.5665 525.895 52.4716 526.059 52.346L526.073 52.3357C526.276 52.1805 526.365 52.1128 526.401 52.0235C526.43 51.9541 526.427 51.8717 526.421 51.7255C526.418 51.649 526.415 51.5552 526.415 51.4364C527.048 51.8392 527.853 51.6984 528.478 51.2313C528.618 51.1269 528.736 51.0137 528.853 50.901C529.01 50.7504 529.166 50.6011 529.371 50.4749C529.524 50.3955 529.68 50.3212 529.839 50.2522C530.037 50.0469 530.236 50.0449 530.435 50.2466C530.634 50.1933 530.691 50.1518 530.784 50.0841C530.822 50.0557 530.868 50.0227 530.932 49.9824C530.995 49.8587 531.061 49.7372 531.132 49.6181C531.367 49.5937 531.597 49.5514 531.825 49.4913C532.081 49.4226 532.308 49.324 532.521 49.2316C533.043 49.005 533.481 48.8149 534.064 49.1862L534.128 49.0554L534.13 49.0507C534.213 48.8818 534.296 48.7129 534.379 48.544C534.626 48.9305 534.818 48.7819 535.074 48.5836C535.179 48.502 535.295 48.412 535.43 48.3475C535.529 48.3003 535.643 48.2712 535.755 48.2428C535.862 48.2155 535.966 48.1888 536.052 48.1473C536.151 48.1705 536.25 48.1939 536.349 48.2174C536.433 47.9583 536.517 47.6992 536.6 47.4401C536.645 47.4574 536.724 47.4951 536.82 47.5408C537.089 47.6689 537.492 47.8605 537.64 47.8463C537.798 47.8314 537.973 47.6779 538.145 47.5271C538.287 47.4029 538.426 47.2804 538.552 47.2389C538.795 47.1589 538.85 47.1846 538.93 47.2222C538.99 47.2508 539.064 47.2858 539.245 47.287C539.287 47.2873 539.326 47.2885 539.363 47.2895C539.608 47.2958 539.755 47.2997 539.997 47.0646C539.216 46.8619 539.901 46.7483 540.383 46.6681C540.481 46.6517 540.572 46.6368 540.639 46.6226C540.81 46.5872 540.958 46.5718 541.092 46.5581C541.441 46.5221 541.693 46.4962 542.003 46.1437H541.558C541.883 45.8477 541.886 45.8484 542.054 45.8846C542.113 45.8971 542.192 45.9142 542.312 45.9242C542.344 45.9269 542.4 45.946 542.468 45.9692C542.707 46.0506 543.091 46.1814 543.092 45.8201C543.69 46.1723 543.696 46.1731 544.313 46.0142C544.424 45.9853 544.529 45.9298 544.635 45.8741C544.787 45.7937 544.941 45.7125 545.118 45.7093C545.257 45.7069 545.377 45.7357 545.494 45.7634C545.622 45.7939 545.744 45.823 545.881 45.8081C546.021 45.7932 546.476 45.6265 546.702 45.5438C546.727 45.5343 546.75 45.526 546.769 45.5191C546.912 45.4671 547.031 45.3864 547.148 45.307C547.271 45.2234 547.392 45.1412 547.535 45.096C547.7 45.0442 547.888 45.0527 548.077 45.0613C548.243 45.0689 548.409 45.0764 548.561 45.0432C548.875 44.974 549.148 44.866 549.408 44.7626C549.945 44.5492 550.431 44.356 551.134 44.5665C551.242 43.6586 552.345 43.8295 552.982 43.9282L553.036 43.9366C553.153 43.9546 553.254 43.9803 553.348 44.0045C553.607 44.0703 553.815 44.1233 554.146 43.9666C554.306 43.8911 554.436 43.7962 554.565 43.7019C554.733 43.5789 554.901 43.4567 555.132 43.3782C555.396 43.2888 555.737 43.2198 556.033 43.1597C556.09 43.1482 556.144 43.1372 556.197 43.1262C556.399 43.0622 556.606 43.0416 556.818 43.0648C557.044 43.0966 557.231 43.199 557.379 43.3719C557.375 43.3814 557.378 43.3865 557.39 43.3856C557.387 43.3809 557.383 43.3765 557.379 43.3719C557.411 43.2956 557.905 42.9294 557.848 42.9746C557.964 42.882 558.06 42.8297 558.145 42.7835C558.331 42.6828 558.461 42.6119 558.616 42.2178C558.485 42.1902 558.353 42.1623 558.221 42.1345C558.089 42.1068 557.958 42.079 557.826 42.0511C557.873 42.0479 557.918 42.0447 557.963 42.0413C558.304 42.0156 558.58 41.9951 558.9 42.1349C559.006 42.1814 559.143 42.3124 559.285 42.4478C559.476 42.6317 559.677 42.8236 559.821 42.8238C560.274 42.8243 560.433 42.186 560.388 41.8538C560.768 42.739 561.092 42.8864 561.946 42.4339C561.996 42.4073 562.046 42.3809 562.096 42.3542L562.102 42.3508C562.151 42.3254 562.199 42.2999 562.247 42.2743C562.45 42.0614 562.652 42.0653 562.853 42.2863C562.972 42.3513 563.091 42.4161 563.211 42.4811L563.301 42.3305C563.414 42.142 563.528 41.9536 563.641 41.7648C563.946 42.1843 564.235 42.2049 564.732 42.1068C564.901 42.0736 565.157 41.9059 565.404 41.7443C565.658 41.5781 565.902 41.4187 566.03 41.4187C566.1 41.4187 566.179 41.4999 566.269 41.5923C566.368 41.6937 566.48 41.8088 566.607 41.8453C567.012 41.9611 567.639 41.6697 567.783 41.283C567.86 41.4444 567.937 41.6059 568.013 41.7675C568.06 41.7233 568.108 41.6788 568.156 41.6345C568.299 41.5006 568.443 41.3664 568.585 41.2314C568.636 41.6717 568.972 41.6649 569.265 41.659C569.481 41.6546 569.674 41.6507 569.711 41.8264C569.755 42.0323 569.155 42.4789 568.797 42.7449C568.702 42.8155 568.624 42.8737 568.58 42.9108C569.146 43.2521 569.842 42.6561 570.353 42.2178C570.457 42.1291 570.553 42.0467 570.639 41.98C570.902 42.2652 570.991 42.4151 570.749 42.7414C570.528 43.0411 570.427 42.9785 570.31 42.9057C570.201 42.8385 570.079 42.7627 569.836 42.9551C570.004 43.2372 570.156 43.1663 570.346 43.0776C570.394 43.0546 570.446 43.0306 570.501 43.0111C570.433 43.4088 570.493 43.4279 570.596 43.4601C570.669 43.4833 570.765 43.5134 570.85 43.6933C570.975 43.9586 570.995 44.1715 571.018 44.4286C571.025 44.5122 571.033 44.6005 571.045 44.6966ZM493.054 79.0874C493.282 79.0678 493.346 79.1732 493.404 79.268C493.453 79.3482 493.498 79.4206 493.632 79.403C493.746 79.3881 493.838 79.2673 493.932 79.1434C494.014 79.0358 494.098 78.9258 494.199 78.8815C494.66 78.6799 495.33 78.6488 495.944 78.6205C496.232 78.6073 496.508 78.5943 496.745 78.5647C497.136 78.5161 497.503 78.4017 497.867 78.2885V78.2883C498.208 78.1822 498.546 78.0768 498.897 78.0277C499.196 77.9861 499.413 78.0401 499.696 78.1228C499.717 78.1289 499.736 78.1345 499.756 78.1401C500.02 78.2171 500.15 78.255 500.229 78.3403C500.305 78.4232 500.333 78.551 500.388 78.8031L500.39 78.8133C500.679 80.1459 500.456 81.5629 500.232 82.9791C499.94 84.8342 499.648 86.6874 500.508 88.3465C496.075 88.3106 491.633 88.3991 487.225 88.9185C487.225 88.5289 487.228 88.1395 487.231 87.75C487.241 86.465 487.251 85.1813 487.153 83.897C487.109 83.3096 487.048 82.7239 486.986 82.1379V82.1377C486.968 81.9663 486.95 81.7947 486.933 81.6231C486.841 80.7193 486.862 80.7149 487.519 80.58C487.561 80.5714 487.605 80.5624 487.653 80.5524C487.887 80.5032 488.036 80.3976 488.193 80.2864C488.313 80.2013 488.438 80.1129 488.609 80.0437C488.808 79.9633 488.933 80.0031 489.082 80.0505C489.155 80.0737 489.234 80.0989 489.331 80.1124C489.708 80.1657 489.816 80.1349 490.027 80.0754C490.108 80.0522 490.205 80.0249 490.339 79.9963C490.589 79.943 490.83 79.9073 491.063 79.8728C491.789 79.7652 492.439 79.6687 493.054 79.0874ZM570.983 51.7058C570.919 51.6683 570.855 51.6312 570.791 51.5938C570.033 53.1986 569.537 54.8712 569.034 56.5657C568.961 56.8126 568.887 57.06 568.813 57.3079C568.51 58.3187 568.208 59.3297 567.907 60.3413C567.851 60.5273 567.784 60.7202 567.715 60.9172C567.487 61.5716 567.243 62.2715 567.367 62.9117C568.324 61.4367 569.235 59.9316 570.1 58.4011C570.522 57.6547 570.933 56.9026 571.335 56.1455C571.387 56.0475 571.452 55.9431 571.519 55.8355C571.664 55.6018 571.819 55.3525 571.875 55.1149C571.947 54.8101 572.02 54.7199 572 54.6648C571.98 54.6138 571.88 54.5932 571.623 54.4598C571.828 54.227 571.962 54.2913 572.073 54.3449C572.137 54.3752 572.193 54.4023 572.251 54.3686C572.394 54.2857 572.588 54.0285 572.742 53.8249C572.806 53.7411 572.862 53.666 572.905 53.6164C572.786 53.5824 572.589 53.5455 572.36 53.5025C571.771 53.3917 570.971 53.2419 570.751 53.0011C570.4 52.6161 570.775 52.2805 571.143 51.9512C571.178 51.9204 571.212 51.8898 571.246 51.859C571.158 51.8079 571.07 51.7568 570.983 51.7058Z" fill="#FF5678"/>
<path fill-rule="evenodd" clip-rule="evenodd" d="M470.95 116.78C470.847 117.313 470.588 117.564 470.859 118.055C471.09 118.471 471.751 118.743 472.194 118.638L470.95 116.78ZM458.93 97.7988L456.741 98.549C457.339 99.1359 457.909 99.7529 458.569 100.274L458.93 97.7988ZM495.03 99.7202C493.986 99.1941 492.817 99.1347 491.673 99.0672C491.847 100.007 492.021 100.946 492.195 101.886C493.14 101.164 494.085 100.442 495.03 99.7202ZM469.966 172.444C469.757 172.075 468.337 169.225 468.041 169.371C467.885 169.449 467.873 171.035 467.85 171.261C467.768 172.064 467.686 172.866 467.605 173.669C468.446 173.372 469.343 173.126 469.966 172.444ZM460.039 149.403C460.254 150.033 460.469 150.663 460.684 151.293C460.786 151.592 460.846 152.034 461.027 152.298C461.262 152.641 461.085 152.842 461.398 152.467C461.735 152.064 461.836 150.989 461.982 150.495C462.204 149.745 462.426 148.995 462.648 148.245C461.602 148.236 460.967 149.098 460.039 149.403ZM438.048 112.31C436.761 113.189 435.458 114.062 434.338 115.155C435.323 115.094 436.695 115.771 437.622 115.453C438.051 115.544 438.192 115.382 438.048 114.965V114.098V112.31ZM457.128 118.532V123.667C458.329 122.643 459.594 121.692 460.75 120.615C459.542 119.921 458.335 119.226 457.128 118.532ZM500.078 131.837C499.699 134.123 499.678 136.476 499.574 138.79C499.556 139.2 499.398 139.818 499.671 140.178C499.946 140.539 500.728 140.738 501.125 140.931C502.244 141.473 503.354 142.031 504.47 142.58C503.006 138.999 501.542 135.418 500.078 131.837ZM528.472 117.778C531.23 116.422 533.99 115.066 536.749 113.709C534.044 112.564 531.338 111.419 528.633 110.274C528.579 112.775 528.525 115.277 528.472 117.778ZM500.072 124.163C500.577 124.2 500.656 122.279 500.74 121.771C500.899 120.807 501.061 119.843 501.228 118.881C501.562 116.956 501.914 115.034 502.283 113.116C503.022 109.28 503.838 105.458 504.741 101.658C503.77 101.483 502.878 101.357 501.93 101.074C501.164 100.846 500.252 100.97 499.568 100.495C499.48 102.276 499.924 104.169 500.089 105.95C500.279 108.011 500.382 110.061 500.365 112.13C500.332 116.142 500.179 120.154 500.072 124.163ZM436.568 178.51C437.046 178.383 436.395 171.828 436.366 170.883C436.283 168.146 436.267 165.407 436.316 162.67C433.74 164.285 431.104 165.773 428.382 167.115C429.082 168.022 429.737 169 430.511 169.845C431.309 170.714 432.223 171.427 432.962 172.363C434.45 174.249 435.469 176.39 436.568 178.51ZM498.558 139.735C498.678 137.764 498.789 135.796 498.988 133.831C499.072 132.994 499.881 128.549 498.587 128.654C497.85 128.713 496.559 129.791 495.884 130.168C494.992 130.667 494.099 131.164 493.203 131.655C491.434 132.624 489.654 133.572 487.879 134.529C491.439 136.265 494.998 138 498.558 139.735ZM490.873 98.7409C489.399 98.6309 487.973 98.5214 486.519 98.2468C485.735 98.0987 484.951 98.1192 484.162 98.0193C483.598 97.9476 482.494 97.4839 481.968 97.6357C481.307 97.8264 481.067 101.139 480.976 101.97C480.829 103.309 480.731 104.934 481.329 106.192C482.482 108.617 485.588 106.724 487.099 105.707C488.395 104.835 489.862 103.952 491.011 102.893C492.029 101.955 491.115 99.9529 490.873 98.7409ZM498.519 125.111C499.629 124.662 499.612 124.098 499.66 122.936C499.719 121.524 499.753 120.11 499.793 118.697C499.865 116.18 499.933 113.661 499.911 111.142C499.889 108.682 499.768 106.226 499.487 103.78C499.387 102.916 499.486 101.439 499.031 100.701C498.615 100.029 497.324 100.022 496.62 100.063C495.826 100.11 495.183 100.864 494.597 101.341C493.948 101.869 492.614 102.613 492.508 103.4C492.389 104.28 492.872 105.535 493.059 106.388C493.744 109.501 494.577 112.584 495.455 115.648C496.365 118.827 497.288 122.038 498.519 125.111ZM470.297 117.658C470.369 116.959 470.629 116.374 470.277 115.708C469.975 115.135 469.482 114.559 469.112 114.017C468.054 112.463 466.867 110.975 465.714 109.491C464.658 108.131 463.576 106.786 462.469 105.468C461.852 104.734 461.217 104.016 460.585 103.295C460.122 102.767 459.684 102.025 459.029 101.749C458.547 104.779 458.149 107.823 457.838 110.876C457.688 112.352 457.558 113.83 457.449 115.309C457.418 115.727 457.095 117.137 457.302 117.526C457.519 117.934 458.85 118.481 459.258 118.731C460.397 119.431 461.282 120.486 462.366 119.335C463.112 118.543 463.712 117.426 464.546 116.734C464.98 116.374 465.389 116.391 465.876 116.177C466.443 115.928 466.461 115.689 467.137 116.027C468.278 116.596 468.971 117.438 470.297 117.658ZM413.205 133.251C413.205 135.349 413.062 137.074 414.484 138.772C415.727 140.257 417.018 140.6 418.766 141.186C419.796 141.53 419.868 141.213 420.702 140.63C421.494 140.077 422.358 139.634 423.139 139.063C424.824 137.833 426.508 136.565 428.146 135.272C428.696 134.837 428.615 134.985 428.532 134.463C428.455 133.988 428.114 133.383 427.927 132.931C427.59 132.112 427.192 131.321 426.795 130.53C426.343 129.634 425.95 128.66 425.389 127.824C425.156 127.477 424.88 127.163 424.609 126.847C424.037 126.18 424.057 126.205 423.373 126.75C421.93 127.899 420.587 129.144 418.962 130.043C417.04 131.106 415.123 132.177 413.205 133.251ZM456.73 116.998C456.938 113.986 457.174 110.991 457.535 107.992C457.72 106.453 457.936 104.917 458.146 103.381C458.232 102.755 458.562 101.705 458.378 101.098C458.197 100.499 457.4 99.9301 456.962 99.4975C456.845 99.3811 456.483 98.8929 456.328 98.8709C456.161 98.8477 455.534 99.3065 455.354 99.4099C454.715 99.7764 454.087 100.162 453.469 100.563C452.305 101.318 451.176 102.129 450.072 102.97C447.757 104.734 445.549 106.632 443.282 108.457C445.359 110.277 447.914 111.69 450.236 113.164C451.609 114.036 452.988 114.897 454.386 115.728C455.094 116.149 455.916 116.793 456.73 116.998ZM428.346 170.861C426.669 171.97 425.068 173.14 423.171 173.852C421.284 174.56 419.418 174.833 417.467 175.254C416.483 175.466 415.558 175.698 414.554 175.847C413.991 175.93 413.121 175.898 412.607 176.136C412.151 176.038 411.988 176.194 412.119 176.603C412.124 176.73 412.129 176.857 412.134 176.984C412.263 178.752 413.4 180.88 414.391 182.318C414.97 183.157 415.707 183.938 416.44 184.643C417.267 185.44 417.744 186.002 418.897 185.668C420.841 185.105 422.556 183.973 424.526 183.474C426.084 183.078 427.379 182.251 428.898 181.822C430.773 181.293 432.627 180.691 434.527 180.25C433.679 178.611 432.92 176.906 431.833 175.405C430.719 173.865 429.49 172.385 428.346 170.861ZM438.629 115.733C442.135 116.431 445.936 117.077 449.074 118.887C450.299 119.594 451.851 120.686 452.21 122.147C452.639 123.893 450.953 124.975 449.545 125.52C447.854 126.174 446.014 126.425 444.223 126.631C443.274 126.741 442.322 126.8 441.369 126.854C440.598 126.898 439.291 126.729 438.586 127.035C438.144 126.947 437.991 127.125 438.127 127.572C438.118 127.732 438.11 127.892 438.102 128.052L438.029 129.492C437.981 130.451 437.932 131.41 437.883 132.369C437.777 134.457 437.671 136.546 437.565 138.635C439.402 137.497 440.882 135.867 442.677 134.653C443.53 134.076 444.378 133.498 445.228 132.923C445.584 132.682 445.802 132.344 446.153 132.119C446.618 131.821 447.03 131.642 447.467 131.251C449.249 129.658 451.23 128.28 453.121 126.817C453.979 126.152 454.919 125.541 455.736 124.828C456.592 124.081 456.473 123.466 456.452 122.392C456.43 121.255 456.847 119.843 456.654 118.747C456.816 118.375 456.691 118.143 456.28 118.052C456.004 117.876 455.729 117.7 455.454 117.524C454.905 117.173 454.356 116.822 453.808 116.471C451.624 115.075 449.442 113.679 447.258 112.283C446.168 111.585 445.077 110.888 443.987 110.191C443.682 109.996 442.689 109.116 442.347 109.142C441.998 109.168 441.393 109.849 441.132 110.065C440.731 110.397 440.342 110.747 439.909 111.037C439.693 111.187 439.468 111.32 439.233 111.438C438.858 111.474 438.727 111.68 438.842 112.056C438.512 113.113 438.693 114.623 438.629 115.733ZM487.253 165.564C486.459 161.852 485.435 157.456 482.338 154.931C479.198 152.37 474.605 153.36 472.148 156.367C470.918 157.873 470.155 159.654 469.588 161.5C469.007 163.394 468.149 165.861 468.306 167.864C468.375 168.743 469.127 169.686 469.557 170.453C470.001 171.244 470.296 172.378 471.341 172.104C472.963 171.679 474.612 170.703 476.129 170.005C477.664 169.298 479.28 168.717 480.871 168.034C481.928 167.581 483.024 167.237 484.078 166.777C485.078 166.342 486.396 166.237 487.253 165.564ZM534.171 143.455C536.386 144.247 537.537 142.978 539.096 141.55C540.572 140.197 542.171 138.895 543.531 137.424C544.933 135.908 546.041 134.115 547.119 132.364C548.209 130.593 549.682 128.681 550.353 126.709C550.695 125.706 550.84 124.595 551.055 123.558C551.107 123.309 551.455 122.38 551.344 122.17C551.192 121.881 550.225 121.851 549.96 121.809C547.846 121.475 545.607 121.458 543.487 121.757C539.386 122.335 535.956 124.635 534.66 128.656C533.14 133.371 533.871 138.611 534.171 143.455ZM519.812 102.562C519.777 103.378 521.734 103.605 522.241 103.796C523.413 104.235 524.578 104.699 525.716 105.22C528.06 106.291 530.559 106.989 532.803 108.284C537.641 111.076 542.892 113.044 547.779 115.714C548.541 116.131 550.029 117.133 550.898 117.048C551.361 117.003 551.016 117.375 551.316 116.64C551.424 116.376 551.46 116.032 551.52 115.749C551.701 114.9 551.842 114.043 552.045 113.199C552.38 111.809 552.721 110.52 552.862 109.091C552.922 108.486 552.988 107.881 552.995 107.273C553.002 106.656 553.144 105.11 552.866 104.576C552.681 104.222 552.644 104.343 552.183 104.243C551.918 104.186 551.641 104.067 551.386 103.987C550.787 103.801 550.188 103.622 549.56 103.567C548.94 103.513 548.544 103.324 547.963 103.215C547.352 103.1 546.726 103.239 546.104 103.079C545.433 102.906 545.113 102.747 544.412 102.814C543.732 102.878 543.536 102.727 542.871 102.542C542.315 102.387 541.653 102.495 541.074 102.448C540.373 102.391 539.674 102.304 538.973 102.248C535.82 101.999 532.629 102.369 529.468 102.339C527.749 102.324 526.067 102.577 524.351 102.499C522.851 102.43 521.301 102.447 519.812 102.562ZM528.015 119.182C526.481 119.766 525.059 120.715 523.637 121.533C521.997 122.475 520.427 123.476 518.909 124.606C516.357 126.507 513.379 128.785 512.708 132.101C512.018 135.505 514.974 138.293 517.745 139.685C520.905 141.273 524.581 142.094 528.043 142.701C527.672 134.866 527.76 127.019 528.015 119.182ZM482.124 137.627C481.193 137.884 480.405 138.435 479.542 138.842C478.769 139.207 478.02 139.482 477.298 139.952C476.121 140.718 474.756 141.374 473.526 141.966C470.481 143.431 467.525 145.25 464.51 146.874C463.711 147.305 463.449 147.576 463.179 148.462C462.885 149.424 462.608 150.393 462.325 151.359C462.061 152.259 461.639 153.222 461.75 154.173C461.847 155 462.275 155.78 462.597 156.534C463.41 158.433 464.29 160.301 465.199 162.154C466.016 163.818 466.76 165.583 467.808 167.112C468.622 162.865 469.353 158.106 472.51 154.87C475.664 151.636 480.696 151.591 483.736 154.929C485.18 156.515 486.058 158.512 486.749 160.518C487.112 161.573 487.356 162.647 487.589 163.736C487.838 164.899 487.777 165.516 489.06 165.164C490.08 164.884 491.16 164.66 492.159 164.341C492.677 164.176 493.183 163.99 493.206 163.58C493.236 163.063 492.54 162.004 492.334 161.518C491.273 159.007 490.211 156.496 489.149 153.985C487.996 151.259 486.843 148.533 485.689 145.807C485.114 144.446 484.538 143.086 483.962 141.726C483.437 140.486 483 138.645 482.124 137.627ZM528.101 116.425C528.119 115.185 528.139 113.945 528.155 112.705C528.165 111.967 528.494 110.538 527.851 110.01C527.452 109.683 526.269 109.432 525.764 109.209C524.768 108.767 523.69 108.57 522.689 108.132C518.766 106.413 514.684 104.982 510.646 103.597C509.775 103.299 508.885 103.054 508.008 102.76C507.535 102.602 505.782 101.669 505.344 101.913C504.961 102.127 504.671 104.669 504.549 105.197C504.258 106.446 503.98 107.699 503.713 108.954C502.676 113.827 501.807 118.733 500.998 123.648C503.147 122.832 505.206 121.419 507.235 120.326C509.344 119.191 511.445 118.059 513.568 116.95C514.167 116.637 516.275 115.198 516.768 115.763C517.559 116.669 515.674 117.732 515.179 118.12C513.264 119.622 511.242 120.931 509.194 122.241C507.072 123.598 504.865 124.798 502.732 126.13C501.962 126.611 500.733 127.197 500.431 128.01C500.041 129.055 500.322 130.325 500.677 131.324C501.547 133.778 502.5 136.202 503.508 138.602C503.966 139.694 504.437 140.78 504.915 141.863C505.486 143.152 506.234 143.425 507.477 144.018C512.77 146.546 518.268 148.944 523.353 151.869C522.502 152.85 520.428 151.24 519.588 150.832C518.033 150.076 516.476 149.323 514.922 148.566C512.027 147.155 509.147 145.715 506.235 144.338C508.101 148.582 510.303 152.671 512.745 156.61C512.128 156.819 512.279 156.83 511.892 156.459C511.566 156.147 511.347 155.536 511.126 155.143C510.67 154.334 510.22 153.52 509.76 152.713C508.806 151.036 507.817 149.385 506.946 147.662C506.291 146.367 505.784 144.103 504.437 143.45C502.76 142.636 501.06 141.844 499.382 141.018C499.382 147.471 499.846 153.78 500.526 160.192C500.561 160.516 500.871 161.47 500.246 161.376C499.964 161.334 499.869 159.565 499.819 159.195C499.592 157.502 499.399 155.804 499.241 154.102C498.927 150.707 498.756 147.298 498.734 143.889C498.332 147.204 497.929 150.519 497.527 153.834L496.954 158.546C496.854 159.371 496.754 160.196 496.654 161.021C496.608 161.4 496.637 161.896 496.504 162.257C496.294 162.826 496.364 162.783 495.708 163.042C496.336 158.725 496.916 154.401 497.429 150.069C497.679 147.955 497.914 145.84 498.13 143.722C498.189 143.153 498.246 142.583 498.301 142.014C498.329 141.723 498.58 140.789 498.441 140.548C498.303 140.309 497.391 140.06 497.128 139.938C496.553 139.671 495.977 139.404 495.403 139.136C493.537 138.264 491.673 137.385 489.828 136.47C489.021 136.07 488.174 135.452 487.296 135.238C486.422 135.026 485.787 135.634 485.039 136.021C484.458 136.322 483.088 136.722 482.699 137.234C482.338 137.709 483.461 139.613 483.756 140.315C484.587 142.295 485.42 144.275 486.252 146.255C487.939 150.27 489.626 154.285 491.313 158.3C491.725 159.282 492.138 160.263 492.55 161.244C492.815 161.873 493.256 163.666 493.897 163.736C494.181 163.767 494.647 163.458 494.921 163.369C495.33 163.237 495.708 163.239 496.119 163.17C496.871 163.042 497.652 162.654 498.391 162.381C500.291 161.681 502.259 161.229 504.174 160.575C506.097 159.919 507.989 159.181 509.905 158.523C511.645 157.927 513.401 157.247 515.072 156.47C516.838 155.65 518.648 154.926 520.368 154.016C523.501 152.359 526.6 150.811 529.368 148.779C530.019 148.301 530.712 147.821 531.356 147.31C531.92 146.861 532.997 146.306 533.382 145.716C533.528 145.491 533.654 145.049 533.483 144.782C533.299 144.495 532.486 144.521 532.106 144.47C530.908 144.309 529.71 144.148 528.513 143.987C528.605 144.775 528.697 145.562 528.764 146.353C528.811 146.911 529.141 148.386 528.696 148.824C528.084 148.242 528.281 146.504 528.226 145.73C528.197 145.316 528.302 144.506 528.117 144.138C527.914 143.736 527.352 143.741 526.844 143.631C524.687 143.165 522.549 142.773 520.462 142.034C516.936 140.785 512.721 138.676 511.933 134.608C511.112 130.368 514.72 126.694 517.758 124.328C519.577 122.913 521.512 121.687 523.513 120.548C524.449 120.017 525.383 119.485 526.325 118.964C526.667 118.775 527.792 118.385 527.972 118.054C528.157 117.716 528.062 116.81 528.101 116.425ZM452.659 181.548C452.488 181.632 452.316 181.715 452.145 181.799C454.048 176.376 455.934 170.977 457.525 165.452C458.293 162.785 459.071 160.121 459.865 157.462C460.208 156.315 461.051 154.735 460.817 153.547C460.563 152.261 459.956 150.893 459.486 149.67C456.479 151.56 453.408 153.354 450.351 155.159C447.61 156.777 444.822 158.217 442.062 159.818C440.647 160.638 439.188 161.193 437.712 161.863C436.512 162.408 436.978 164.073 436.995 165.186C437.056 169.114 437.053 173.055 437.291 176.978C437.378 178.407 437.266 180.047 438.176 181.236C439.339 182.757 440.418 184.307 441.479 185.908C441.877 186.507 443.547 189.754 444.169 189.683C444.576 189.636 444.95 188.322 445.153 188.01C445.592 187.338 446.232 186.76 446.816 186.219C449.334 183.882 452.13 182.236 455.034 180.528C457.986 178.793 461.006 177.178 464.013 175.532C464.692 175.16 465.424 174.892 466.099 174.512C466.365 174.362 466.894 174.124 467.062 173.856C467.313 173.454 467.228 172.342 467.28 171.863C467.388 170.882 467.58 169.864 467.59 168.876C467.6 167.901 467.014 167.063 466.589 166.212C464.722 162.477 462.909 158.734 461.286 154.886C460.006 159.354 458.662 163.801 457.406 168.276C456.75 170.612 455.96 172.91 455.19 175.211C454.797 176.386 454.402 177.56 454.01 178.736C453.704 179.651 453.546 180.991 452.659 181.548ZM479.461 97.3421C478.471 97.3531 477.575 97.2077 476.607 97.0011C476.252 96.9256 475.94 96.8935 475.581 96.8618C475.173 96.8258 474.802 96.6048 474.444 96.5616C474.174 96.5291 473.702 96.6425 473.444 96.729C472.845 96.9295 472.864 96.8283 472.84 97.523C472.8 98.5964 472.771 99.67 472.712 100.742C472.48 104.964 472.032 109.144 471.418 113.325C471.293 114.17 470.945 115.278 471.136 116.118C471.309 116.874 471.963 117.682 472.394 118.317C473.282 119.622 475.374 120.267 476.845 120.637C478.397 121.027 480.008 121.171 481.482 121.519C481.89 121.616 482.359 121.446 482.795 121.542C483.197 121.632 483.51 121.853 483.882 122.013C484.794 122.404 485.812 122.476 486.753 122.778C488.62 123.378 490.619 123.342 492.487 123.917C492.965 124.064 493.377 124.435 493.837 124.561C494.257 124.677 494.69 124.541 495.129 124.606C496.061 124.743 496.93 125.061 497.145 126.062C497.715 125.611 497.794 125.729 497.695 125.032C497.632 124.584 497.383 124.04 497.247 123.608C496.899 122.509 496.55 121.41 496.202 120.31C495.515 118.135 494.832 115.957 494.199 113.765C493.632 111.804 493.117 109.829 492.666 107.838C492.437 106.825 492.246 105.809 492.05 104.791C491.992 104.496 492.049 104.026 491.752 103.83C491.483 103.652 490.855 104.291 490.571 104.497C488.585 105.936 484.031 110.19 481.548 107.68C480.211 106.329 480.289 103.953 480.434 102.207C480.523 101.134 480.712 100.075 480.923 99.0198C480.975 98.7565 481.297 97.9107 481.179 97.7232C481.052 97.5215 479.727 97.4013 479.461 97.3421ZM549.232 120.823C549.761 120.882 550.289 120.942 550.818 121.001C550.769 120.574 550.813 119.932 550.651 119.534C550.428 118.984 549.88 118.923 549.278 118.695C548.326 118.335 547.355 118.022 546.413 117.634C544.369 116.793 542.334 115.94 540.289 115.099C539.392 114.73 538.339 114.126 537.366 114.427C536.316 114.753 535.28 115.415 534.299 115.899C533.188 116.448 532.077 116.999 530.967 117.549C530.446 117.807 529.925 118.065 529.404 118.323C528.586 118.728 528.477 118.769 528.413 119.695C528.084 124.431 528.109 129.35 528.252 134.092C528.325 136.512 528.243 138.945 528.417 141.36C528.43 141.546 528.416 142.595 528.532 142.738C528.696 142.939 529.849 143.007 530.125 143.058C531.199 143.254 532.281 143.319 533.366 143.416C533.11 137.908 532.171 131.397 535 126.359C537.841 121.297 543.914 120.201 549.232 120.823ZM499.839 66.6352C500.158 65.9097 500.706 65.2971 501.175 64.6605C501.429 64.3163 501.867 63.9049 502.029 63.5023C502.26 62.9293 502.259 63.052 501.914 62.5502C501.588 62.0759 501.594 62.0402 501.09 61.9554C500.665 61.884 500.212 62.0053 499.778 61.9275C499.34 61.8488 498.134 61.4792 498.41 60.7811C498.398 60.8116 499.096 60.4677 499.15 60.408C499.326 60.2171 499.381 59.8101 499.468 59.5793C499.746 58.8396 499.844 58.3607 499.534 57.5731C499.07 56.397 497.236 56.0489 496.094 56.4447C495.523 56.6422 495.198 57.0612 494.941 57.5878C494.778 57.9222 494.741 58.4055 494.53 58.6966C494.212 59.1349 494.192 59.0863 493.534 59.0088C492.695 58.9103 492.007 58.5881 491.212 58.3634C490.347 58.1185 489.784 58.6167 489.027 59.0183C487.662 59.7438 486.343 59.9956 484.814 60.1108C483.11 60.2391 481.532 59.8284 479.845 59.7226C480.283 61.7381 481.414 63.3745 482.319 65.1995C482.478 65.5205 482.735 65.8486 482.741 66.2199C482.747 66.5697 482.24 67.0456 482.297 67.3351C482.419 67.9526 483.778 68.4468 484.293 68.6206C485.749 69.1118 487.407 70.0732 489.01 69.687C489.889 69.4753 490.362 68.0877 491.189 67.9858C492.298 67.8484 491.468 69.277 491.262 69.7684C492.837 70.0077 494.832 69.8048 496.339 69.2709C497.095 69.0035 497.735 68.6043 498.424 68.2085C499.282 67.7157 499.461 67.5803 499.839 66.6352ZM472.286 96.632C469.479 96.6787 466.63 96.2746 463.817 96.6459C463.165 96.7317 462.522 96.8701 461.882 97.0172C461.421 97.1231 459.959 97.2126 459.652 97.5548C459.373 97.867 459.371 99.3041 459.313 99.7092C459.185 100.611 459.219 100.923 459.794 101.62C461.687 103.915 463.658 106.141 465.523 108.462C467.314 110.691 468.784 113.181 470.595 115.379C471.562 112.564 471.62 109.186 471.885 106.234C472.027 104.66 472.156 103.085 472.277 101.51C472.392 100.01 472.784 98.0625 472.286 96.632ZM435.953 126.298C436.277 126.298 436.795 126.4 437.111 126.298C437.545 126.436 437.69 126.273 437.546 125.81C437.553 125.648 437.56 125.485 437.567 125.323C437.612 124.278 437.662 123.232 437.71 122.187C437.755 121.231 437.798 120.275 437.836 119.319C437.862 118.666 438.192 117.048 437.928 116.459C437.751 116.063 437.331 116.153 436.82 116.095C436.334 116.04 435.847 115.989 435.364 115.913C434.751 115.818 434.072 115.598 433.448 115.736C432.821 115.874 432.365 116.452 431.873 116.821C431.095 117.403 430.3 117.963 429.515 118.536C428.088 119.578 426.676 120.639 425.261 121.697C424.677 122.133 424.565 121.982 424.85 122.609C425.026 122.997 425.427 123.436 425.671 123.786C426.156 124.484 426.64 125.541 427.263 126.108C428.17 126.931 430.686 126.408 431.89 126.402C433.263 126.396 434.587 126.417 435.953 126.298ZM439.508 126.23C440.699 126.113 441.902 126.164 443.086 126.003C444.372 125.829 445.65 125.571 446.934 125.378C448.215 125.186 452.11 124.407 451.725 122.496C451.319 120.476 448.337 119.266 446.687 118.587C444.11 117.526 441.42 116.958 438.709 116.358C438.369 118.169 438.418 120.113 438.356 121.948C438.322 122.945 438.292 123.943 438.293 124.941C438.293 125.181 438.21 125.679 438.308 125.902C438.539 126.427 438.807 126.23 439.508 126.23ZM435.591 127.098H427.99C429.115 129.426 430.178 131.798 431.391 134.083C432.598 136.359 434.154 138.503 435.524 140.688C435.871 140.31 436.425 139.9 436.661 139.451C436.922 138.954 436.915 138.222 436.958 137.646C437.069 136.152 437.119 134.645 437.157 133.147C437.19 131.836 437.247 130.533 437.348 129.225C437.37 128.938 437.687 127.447 437.506 127.202C437.344 126.984 435.924 127.1 435.591 127.098ZM466.897 81.3757C468.179 81.3754 469.463 81.3593 470.745 81.3808C471.909 81.4006 473.425 81.198 474.491 81.7971C476.662 83.0174 472.322 86.1516 471.441 86.9404C472.864 87.4562 475.086 86.4324 476.479 85.9633C478.202 85.3835 479.959 84.9941 481.716 84.5399C482.155 84.4265 484.04 84.2043 484.278 83.8679C484.514 83.5342 483.985 81.5211 483.932 81.0965C483.883 80.6973 483.924 80.075 483.758 79.6995C483.86 79.2485 483.702 79.0903 483.283 79.2257C483.138 79.2252 482.994 79.2245 482.849 79.224C481.78 79.2326 480.71 79.2822 479.641 79.3177C475.969 79.4399 472.385 79.6029 468.744 80.1762C467.051 80.4426 465.343 80.7704 463.659 81.0975C462.242 81.3728 462.48 81.6038 463.804 81.6072C464.84 81.6099 465.867 81.4561 466.897 81.3757ZM572.251 54.3686C572.469 54.118 572.687 53.8672 572.906 53.6164C572.374 53.4646 571.842 53.3125 571.31 53.1607C570.745 52.9994 570.441 53.0363 570.692 52.4046C571.007 51.6133 572.445 51.5227 573.137 51.4928C575.517 51.3899 578.017 52.1472 580.278 52.8143C581.382 53.14 582.247 53.6438 583.18 54.3138C583.588 54.6064 584.058 54.8812 584.415 55.2327C584.785 55.5979 584.94 56.0658 585.302 56.432C585.896 57.0324 586.657 57.3313 586.948 58.1979C587.282 59.1926 586.883 60.3313 586.388 61.1986C585.886 62.0789 585.14 62.7445 584.535 63.5443C584.054 64.1789 583.05 65.9128 584.619 65.7119C585.448 65.6056 586.524 64.1907 587.122 63.627C587.977 62.8186 588.819 61.9916 589.726 61.2387C590.53 60.5711 591.456 59.8866 592.53 59.7693C593.663 59.6456 594.229 60.3706 594.781 61.2524C595.302 62.084 595.386 62.8958 595.752 63.747C595.929 64.1574 596.153 64.3862 596.257 64.8336C596.417 65.5217 596.434 66.2724 596.515 66.974C596.643 68.0758 596.764 68.9421 596.55 70.0216C596.35 71.0319 596.296 72.1051 596.127 73.133C595.937 74.2971 595.778 75.4665 595.59 76.6311C595.431 77.6177 594.825 79.0228 595.419 79.9403C596.846 82.145 598.559 78.8994 599.009 77.6869C599.802 75.5563 600.205 73.2271 600.905 71.0527C601.279 69.8898 601.606 68.716 601.821 67.5121C601.998 66.5164 601.911 65.3034 602.456 64.4166C602.881 63.7277 603.635 63.2046 604.463 63.4148C605.499 63.6781 605.897 65.1756 606.202 66.0859C607.006 68.4869 606.71 70.6494 606.383 73.098C606.231 74.2318 606.086 75.3673 605.826 76.4822C605.65 77.2344 604.922 78.7569 606.004 79.1658C607.538 79.7462 609.164 75.3455 609.601 74.3518C610.746 71.7492 611.184 69.168 611.656 66.3793C611.764 65.7381 611.847 65.0832 612.009 64.453C612.15 63.9044 612.572 63.35 612.609 62.8015C612.647 62.2524 612.284 61.8694 612.656 61.3303C612.966 60.8818 613.526 60.8546 614.032 60.8507C615.221 60.8414 616.358 61.3633 617.464 61.742C618.492 62.0943 620.015 62.8672 621.125 62.6184C617.643 59.0843 614.171 55.5903 610.02 52.8381C608.092 51.5598 606.163 50.3314 604.079 49.2891C601.968 48.2333 599.55 47.5202 597.289 46.8815C596.06 46.5339 594.838 46.1401 593.624 45.7414C592.543 45.3864 591.455 45.3192 590.397 44.9166C588.098 44.0422 585.529 43.7033 583.148 43.0834C582.097 42.8099 581.035 42.5752 579.981 42.3217C578.874 42.0552 577.318 41.5925 576.19 41.6375C575.226 41.6759 574.901 42.7801 574.437 43.5481C573.765 44.6631 573.191 45.8215 572.662 47.0108C571.578 49.4475 570.433 51.9649 569.658 54.5106C569.232 55.9084 568.812 57.3076 568.394 58.7076C568.032 59.9196 567.127 61.6679 567.367 62.9117C569.15 60.1643 570.81 57.311 572.251 54.3686ZM489.251 79.1766C488.305 79.2196 487.359 79.2624 486.414 79.3054C487.357 82.4051 487.225 85.7057 487.225 88.9185C491.632 88.3991 496.075 88.3106 500.508 88.3465C499.694 86.7752 500.01 84.7367 500.242 83.0541C500.378 82.0692 500.453 81.1205 500.434 80.1268C500.415 79.1947 500.684 78.411 499.696 78.1228C498.913 77.8942 498.417 78.2751 497.671 78.4489C496.777 78.6569 495.803 78.6821 494.893 78.7953C492.999 79.0307 491.173 79.1688 489.251 79.1766ZM463.855 85.2131C466.695 84.4252 469.714 84.7157 472.568 84.1167C471.919 83.5242 470.696 83.8752 469.834 83.9246C468.853 83.9803 467.874 84.0212 466.893 84.0688C465.937 84.1155 463.286 84.0432 462.941 85.2596C463.245 85.2442 463.55 85.2285 463.855 85.2131ZM567.782 41.2899C564.065 41.616 560.173 41.5654 556.483 42.2139C552.257 42.9565 547.852 43.4225 543.755 44.7313C539.736 46.0154 535.637 46.9142 531.675 48.422C527.823 49.8878 524.113 51.4471 520.486 53.4076C518.711 54.3671 516.983 55.3843 515.291 56.4863C513.639 57.5621 511.828 58.4441 510.227 59.5845C508.802 60.5997 507.573 61.5308 506.33 62.7746C505.002 64.1044 503.709 65.4701 502.38 66.7978C501.27 67.9054 501.972 70.6134 502.043 72.0875C502.14 74.1311 502.309 76.1459 502.559 78.1761C502.798 80.1107 503.043 82.19 502.728 84.1204C502.596 84.932 502.139 86.3339 502.357 87.144C502.532 87.7928 503.689 88.2685 504.279 88.48C505.001 88.7386 505.739 88.6296 506.48 88.9586C507.307 89.3265 508.005 89.7851 508.884 89.9785C509.967 90.2168 511.185 90.4173 512.298 90.4246C513.327 90.4312 514.36 90.7646 515.387 90.97C517.056 91.3044 518.686 91.4085 518.582 93.4221C518.462 95.7454 517.54 97.7389 516.991 99.9443C517.734 99.9443 518.251 99.9917 518.931 99.7285C519.724 99.4214 520.571 99.3398 521.404 99.2073C523.247 98.9142 525.043 98.8203 526.897 98.6333C530.294 98.2906 533.75 98.3317 537.149 98.3678C538.871 98.3859 540.738 98.5189 542.435 98.7868C544.177 99.0618 545.98 99.2337 547.668 99.761C549.092 100.206 550.562 100.509 552.014 100.902C552.669 101.079 553.453 101.223 554.071 101.421C554.967 101.708 555.446 102.32 556.481 102.306C556.19 100.39 555.506 98.6121 555.093 96.7114C554.662 94.7265 553.803 92.9703 552.855 91.0978C552.431 90.2625 552.118 89.3761 551.71 88.5338C551.257 87.5968 550.619 86.8206 550.071 85.9445C548.95 84.1524 547.754 82.4286 546.653 80.6238C545.692 79.048 544.593 77.5375 543.541 76.0166C542.384 74.3443 540.777 73.0822 539.464 71.548C538.91 70.8999 538.382 70.2978 537.761 69.7031C537.189 69.1555 536.378 67.9435 535.503 67.8868C535 67.854 534.128 68.1371 533.648 68.2889C532.76 68.5703 531.817 68.7536 530.9 69.0013C529.896 69.2724 528.909 69.6251 527.904 69.8828C527.501 69.9857 527.023 69.9368 526.642 70.0534C526.243 70.1756 525.924 70.4448 525.488 70.5682C523.335 71.1788 521.196 71.8721 519.027 72.428C516.795 73.0005 514.528 73.4879 512.364 74.2988C511.951 74.4535 511.492 74.8192 511.175 74.5789C510.939 74.3995 510.786 73.8928 510.849 73.597C511.056 72.6123 512.631 72.2566 513.39 71.8614C515.422 70.8019 517.441 70.0549 519.625 69.3354C520.7 68.9815 521.772 68.6035 522.863 68.2977C523.775 68.0423 524.724 67.6101 525.656 67.4793C526.485 67.3629 527.074 67.0364 527.897 66.7472C529.11 66.3211 530.357 65.9713 531.589 65.6073C533.695 64.9849 535.927 64.7233 538.082 64.3061C543.074 63.3392 548.258 62.8552 553.352 62.9151C555.92 62.9454 558.606 62.8704 561.145 63.2928C561.757 63.3945 563.043 63.3749 563.465 63.9242C563.692 64.219 563.569 64.6578 563.627 64.9773C563.726 65.5166 564.02 65.7679 564.275 66.2592C564.817 63.6006 565.439 60.9984 566.139 58.3786C566.771 56.0076 567.357 53.5937 568.202 51.256C569.097 48.7826 570.181 46.1601 571.518 43.8965C571.793 43.4305 572.479 42.6903 572.538 42.1692C572.599 41.6314 571.846 41.2148 571.328 41.1549C570.166 41.0207 568.923 41.2505 567.782 41.2899ZM592.749 79.279C593.128 75.591 594.233 71.7333 593.616 68.0305C593.354 66.4631 593.15 64.9668 592.366 63.5519C591.97 62.8364 591.811 62.3108 591.054 62.7328C590.288 63.1598 589.583 64.2146 588.947 64.826C587.78 65.9498 586.558 67.107 585.16 67.9416C584.059 68.5986 581.872 69.2215 581.044 67.8C580.256 66.4453 581.308 64.5547 582.063 63.437C582.927 62.1583 584.564 60.9739 583.645 59.3962C583.25 58.7171 582.681 58.5392 582.083 58.0935C581.565 57.7078 581.132 57.2081 580.614 56.8155C579.114 55.6776 577.469 55.1902 575.737 54.5399C574.937 54.2395 574.832 53.9569 574.37 54.6436C573.869 55.3894 573.594 56.4347 573.231 57.2595C572.505 58.9117 571.73 60.4772 570.793 62.0177C569.848 63.5725 569.01 65.1966 568.116 66.7821C567.779 67.3803 567.462 67.9882 567.064 68.5498C566.847 68.8553 566.578 69.1276 566.402 69.4621C566.141 69.9566 566.257 70.4074 566.095 70.8997C565.394 73.024 564.372 70.0585 564.177 69.3653C563.955 68.5766 563.42 67.9618 563.072 67.2263C562.786 66.6188 562.59 65.7161 561.898 65.4301C561.331 65.1959 560.6 65.5173 560.021 65.5486C558.958 65.6063 557.887 65.5203 556.819 65.5867C555.82 65.6488 554.824 65.7447 553.825 65.8058C552.826 65.8671 551.828 65.6982 550.842 65.8033C549.072 65.992 547.263 65.9617 545.497 66.2233C543.425 66.5298 541.375 66.8569 539.297 67.1121C539.779 68.0252 540.78 68.4212 541.572 69.0726C542.279 69.6549 542.839 70.3269 543.551 70.8809C544.274 71.4431 544.703 72.2747 545.302 72.9504C545.888 73.6121 546.431 74.167 546.944 74.9075C549.423 78.4828 551.979 81.9262 554.023 85.7905C555.058 87.7464 556.046 89.8389 556.753 91.9373C557.512 94.1879 557.884 96.6017 558.334 98.9289C558.559 100.089 558.676 101.068 558.43 102.234C558.366 102.512 558.298 102.789 558.229 103.066C558.013 103.397 558.093 103.611 558.468 103.71C558.688 104.03 558.988 104.15 559.007 104.587C559.021 104.92 558.836 105.305 558.55 105.493C557.997 105.854 557.997 105.366 557.427 105.474C557.214 105.59 557 105.705 556.787 105.82C556.674 105.649 556.558 105.479 556.439 105.312C556.076 104.967 555.787 104.998 555.312 104.914C555.553 107.693 555.169 110.174 554.557 112.884C554.263 114.188 553.758 115.463 553.504 116.769C553.22 118.228 553.841 118.892 554.8 119.865C554.557 119.992 554.13 120.13 553.929 120.32C553.609 120.623 553.691 120.66 553.691 121.134C553.692 122.002 553.525 122.857 553.389 123.711C553.137 125.291 552.906 126.927 552.362 128.44C551.374 131.188 549.776 134.042 548.149 136.463C547.238 137.818 546.325 139.357 545.183 140.526C544.037 141.699 542.902 142.882 541.759 144.059C539.509 146.375 537.05 147.975 534.355 149.709C533.288 150.396 532.164 151.148 531.246 152.003C530.313 152.872 529.072 153.48 527.958 154.111C527.46 154.393 527.106 154.798 526.569 155.029C526.064 155.245 525.712 155.316 525.289 155.601C524.239 156.307 523.105 156.91 521.949 157.443C520.539 158.092 519.151 158.847 517.703 159.402C517.043 159.654 516.423 159.929 515.784 160.225C515.092 160.544 514.346 160.754 513.637 161.094C513.037 161.382 512.43 161.549 511.82 161.784C511.322 161.977 510.931 162.288 510.423 162.488C509.367 162.905 508.407 163.13 507.382 163.621C506.019 164.274 504.405 164.579 502.97 165.048C501.368 165.573 499.706 166.095 498.062 166.467C497.362 166.626 496.766 166.833 496.09 167.073C495.65 167.229 495.145 167.314 494.658 167.463C493.31 167.874 491.963 168.27 490.608 168.619C487.961 169.302 485.257 170.122 482.69 171.048C481.344 171.534 479.979 172.119 478.688 172.738C477.228 173.437 475.655 173.84 474.19 174.533C471.36 175.87 468.54 177.246 465.743 178.649C464.274 179.387 462.825 180.146 461.391 180.948C460.871 181.239 460.302 181.359 459.785 181.644C459.108 182.018 458.553 182.565 457.861 182.935C455.192 184.361 452.467 185.704 450.015 187.508C448.732 188.452 447.353 189.419 446.245 190.568C445.879 190.947 445.245 191.534 445.178 192.085C445.081 192.899 445.172 192.15 445.454 192.652C445.844 192.699 445.933 192.849 445.72 193.102C445.621 193.22 445.496 193.28 445.342 193.283C444.849 193.382 443.927 192.86 443.531 192.641C442.844 192.263 442.48 191.785 442.039 191.149C441.081 189.771 440.146 188.38 439.16 187.022C438.273 185.799 437.404 184.454 436.395 183.332C435.711 182.571 435.659 182.903 434.898 183.332C434.332 183.651 433.674 183.787 433.087 184.088C430.85 185.234 428.392 186.08 426.098 186.878C425.576 187.06 425.297 187.348 424.838 187.599C424.253 187.919 423.513 188.076 422.887 188.303C421.165 188.929 419.451 189.58 417.74 190.239C416.42 190.748 415.151 191.149 414.117 192.089C413.705 192.463 413.208 192.73 412.783 193.109C412.288 193.548 411.619 194.264 410.996 194.513L410.617 194.809C410.36 194.631 410.103 194.453 409.846 194.275C409.59 194.098 409.335 193.922 409.08 193.745C408.44 193.3 407.805 192.849 407.17 192.399C405.728 191.377 404.276 190.365 402.935 189.211C400.552 187.162 398.08 185.223 395.588 183.304C392.973 181.29 390.424 179.183 387.719 177.29C385.268 175.574 382.593 174.125 380.217 172.314C379.02 171.402 377.827 170.485 376.605 169.602C376.539 169.554 375.545 168.944 375.536 168.876C375.518 168.752 375.845 168.426 375.942 168.322C376.399 167.825 376.905 167.382 377.361 166.88C379.483 164.539 382.255 164.621 385.184 164.51C386.512 164.46 387.953 165.073 389.214 165.49C390.757 166 392.245 166.748 393.736 167.395C396.807 168.727 399.976 169.865 403.078 171.099C404.298 171.584 405.513 171.82 406.753 172.154C408.012 172.492 409.308 172.17 410.653 172.194C411.352 172.206 412.012 172.247 412.715 172.207C413.133 172.184 413.614 172.105 414.026 172.112C414.361 172.118 414.707 172.256 415.015 172.221C416.361 172.068 417.783 171.854 419.172 171.679C420.55 171.505 421.973 171.419 423.333 171.147C424.018 171.01 424.694 170.816 425.353 170.584C425.925 170.383 426.965 170.154 427.434 169.745C427.854 169.38 427.671 169.375 427.436 168.779C427.344 168.543 427.248 168.185 427.111 167.958C426.739 167.345 426.38 167.152 426.596 166.384C426.977 165.031 428.274 164.167 429.385 163.5C431.887 161.999 434.175 160.074 436.809 158.801C442.237 156.177 447.184 152.769 452.477 149.888C458.295 146.721 463.799 143.005 469.699 139.972C475.19 137.149 480.656 134.309 486.193 131.575C488.897 130.24 491.955 129.018 494.408 127.268C493.049 127.1 491.686 126.882 490.322 126.761C489.689 126.705 489.049 126.757 488.42 126.656C487.716 126.544 487.051 126.259 486.349 126.141C485.142 125.937 484.056 125.523 482.848 125.371C481.552 125.207 480.283 124.826 478.982 124.72C476.259 124.496 473.801 123.492 471.414 122.227C470.823 121.913 470.338 122.092 469.772 121.879C469.46 121.762 469.129 121.294 468.778 121.042C467.813 120.35 466.985 119.532 466.068 118.775C464.14 123.101 460.355 126.044 456.743 128.946C454.913 130.415 452.927 131.661 451.079 133.103C449.646 134.221 448.344 135.222 446.814 136.111C445.345 136.964 443.966 138.117 442.565 139.142C441.616 139.837 440.503 140.361 439.494 140.964C438.669 141.457 437.059 142.192 436.834 143.086C436.65 143.816 437.009 144.686 435.894 144.35C434.896 144.049 434.173 142.941 433.591 142.161C432.088 140.141 430.686 138.053 429.29 135.959C428.54 137.422 427.247 138.476 426.052 139.561C425.325 140.22 424.571 140.832 423.787 141.42C423.407 141.706 423.022 141.986 422.641 142.271C422.491 142.383 422.15 142.556 422.053 142.714C421.826 143.085 421.964 142.917 421.999 143.365C422.055 144.067 422.289 144.619 421.891 145.292C421.518 145.923 420.705 146.193 420.135 146.624C418.779 147.65 417.353 148.741 415.848 149.543C415.507 149.725 415.184 149.882 414.866 150.105C414.335 150.476 414.432 150.611 413.897 150.255C413.06 149.698 412.337 148.773 411.582 148.101C410 146.694 408.4 145.304 406.78 143.941C403.692 141.342 400.513 138.873 397.464 136.228C394.566 133.715 391.46 131.551 388.468 129.162C387.647 128.506 386.837 127.837 386.027 127.169C385.306 126.573 384.136 125.917 383.602 125.155C382.828 124.049 385.858 122.537 386.772 122.312C388.349 121.924 390.387 122.146 391.966 122.464C393.623 122.798 395.311 123.914 396.859 124.609C398.603 125.393 400.38 126.07 402.137 126.81C402.921 127.139 403.752 127.403 404.479 127.847C405.251 128.319 405.94 128.856 406.761 129.252C407.707 129.707 408.69 130.132 409.685 130.469C410.136 130.621 410.621 130.774 411.095 130.836C411.766 130.923 411.675 130.614 412.232 130.442C412.705 130.295 412.818 130.683 413.244 130.79C413.645 130.892 413.944 130.789 414.291 130.573C415.065 130.093 415.754 129.431 416.528 128.931C417.247 128.466 418.038 128.033 418.712 127.507C419.012 127.273 419.234 126.952 419.53 126.714C420.004 126.333 420.192 126.484 420.745 126.222C421.197 126.007 421.608 125.607 422.038 125.342C422.306 125.177 422.954 124.969 423.126 124.703C423.579 124.004 422.806 123.519 422.114 123.725C422.01 123.121 421.478 121.688 421.708 121.122C421.911 120.622 422.445 120.715 422.894 120.45C424.582 119.454 425.827 117.644 427.406 116.473C428.895 115.369 430.208 114.052 431.683 112.928C432.946 111.965 434.326 111.025 435.476 109.986C436.836 108.759 438.577 107.803 440.056 106.708C441.583 105.576 443.002 104.316 444.513 103.172C445.967 102.07 447.395 100.92 448.889 99.8715C450.231 98.9291 451.638 98.0686 452.953 97.1133C453.673 96.5902 454.461 96.1306 455.283 95.7872C456.1 95.4454 456.815 95.0448 457.613 94.6769C459.2 93.9457 461.265 93.4404 462.99 93.2309C464.887 93.0006 466.791 92.7941 468.705 92.7924C469.725 92.7916 470.716 92.9857 471.729 93.0473C472.661 93.1036 473.668 93.3392 474.593 93.3082C475.012 93.2942 475.376 93.117 475.781 93.1742C476.12 93.2219 476.414 93.4262 476.777 93.4619C477.586 93.5416 478.4 93.4622 479.218 93.5668C481.097 93.8068 482.978 94.1491 484.861 94.3398C486.867 94.5429 488.856 94.5813 490.852 94.9235C492.802 95.2577 494.765 95.6041 496.704 95.9905C500.824 96.8119 504.988 97.614 509.044 98.8335C509.992 99.1186 510.945 99.3897 511.857 99.7805C512.299 99.97 512.724 100.2 513.185 100.342C513.846 100.544 513.976 100.621 514.316 100.067C514.902 99.1134 515.224 97.8518 515.649 96.8141C516.07 95.7872 516.58 94.7521 516.824 93.6797C516.115 93.5675 515.221 93.7856 514.49 93.8105C513.596 93.8413 512.712 93.822 511.819 93.8166C510.019 93.8059 508.612 93.2742 506.908 92.7161C505.473 92.2455 503.562 91.9756 502.467 90.8981C501.88 90.3205 501.684 90.2188 500.802 90.3224C499.912 90.4268 499.032 90.6067 498.134 90.6365C494.746 90.749 491.374 91.3401 487.971 91.4569C487.05 91.4885 484.748 91.9248 484.898 90.3635C484.93 90.0393 485.178 89.7582 485.226 89.4245C485.278 89.0669 485.189 88.7039 485.133 88.3543C485 87.5273 484.861 86.7009 484.728 85.8736C481.625 86.8695 478.482 87.6765 475.32 88.4653C474.009 88.7924 471.902 89.5446 470.547 89.1322C469.237 88.7335 469.996 86.8879 470.404 86.0044C467.801 86.5984 465.025 87.5699 462.371 87.7928C461.564 87.8608 460.778 88.0395 460.59 87.0634C460.44 86.2855 461.002 85.3344 461.289 84.6511C459.252 84.4692 457.143 84.4866 457.526 81.8758C457.877 79.4805 459.867 79.0035 461.986 78.566C464.601 78.0255 467.271 77.8453 469.903 77.408C472.193 77.0274 474.692 76.603 477.031 76.7951C478.269 76.8966 479.514 76.9198 480.752 77.0345C481.336 77.0885 481.897 77.1789 482.463 77.3383C482.984 77.485 483.713 77.9399 484.248 77.948C485.054 77.9607 486.027 76.8699 486.894 76.6179C487.969 76.3055 489.127 76.2488 490.237 76.1723C491.496 76.086 492.756 76.0378 494.014 75.9359C494.3 75.9127 495.384 75.9836 495.61 75.8156C495.94 75.5709 495.721 74.3159 495.698 73.8004C495.676 73.3234 495.768 72.4302 495.437 72.2432C495.127 72.0677 494.222 72.3085 493.916 72.3574C492.65 72.5602 491.447 72.537 490.185 72.4854C489.602 72.4617 489.042 72.617 488.465 72.5404C487.846 72.4586 487.222 72.2503 486.606 72.1344C485.27 71.8834 484.053 71.5709 482.901 70.8224C481.891 70.1656 480.695 69.7209 480.13 68.5705C479.717 67.7282 479.549 66.1025 480.765 65.863C479.936 64.6683 479.365 63.3263 478.926 61.9459C478.846 61.6956 478.793 61.3186 478.674 61.1003C478.254 60.3283 478.644 61.013 478.044 60.7043C477.451 60.3995 477.024 60.1582 476.561 59.628C475.822 58.7824 475.511 57.7418 475.418 56.64C475.291 55.1437 475.055 53.4565 475.273 51.9678C475.651 49.3891 477.536 47.4515 479.451 45.8919C480.491 45.0451 481.86 44.7298 483.079 44.216C484.256 43.7197 485.571 43.1995 486.811 43.0832C487.93 42.9781 489.022 42.6126 490.142 42.4652C491.682 42.2623 493.224 42.3381 494.772 42.2765C495.484 42.2481 496.195 42.1477 496.904 42.0711C497.304 42.0279 497.981 42.0741 498.348 41.9154C498.948 41.6553 498.624 42.2014 498.838 41.406C499.246 39.8928 499.579 38.4738 500.197 37.0034C500.772 35.6335 501.471 34.3237 502.395 33.1526C503.261 32.054 504.385 31.2505 505.405 30.312C506.162 29.6168 507.019 28.9888 507.882 28.4266C508.375 28.1051 508.925 27.9313 509.407 27.6475C510.005 27.2955 510.533 27.0285 511.206 26.8129C512.651 26.3504 514.085 25.8593 515.619 25.8835C517.273 25.9094 518.932 25.5244 520.542 26.0126C523.533 26.9193 524.998 30.1602 524.948 33.1364C525.971 32.8812 526.865 32.3899 527.948 32.3478C528.946 32.3092 530.131 32.3957 531.112 32.581C533.014 32.9406 534.971 33.9981 536.105 35.6007C537.187 37.1293 537.349 39.1587 536.684 40.8929C536.365 41.723 535.861 42.4615 535.323 43.1629C534.929 43.6772 534.049 44.2465 534.008 44.9356C541.371 42.7099 548.764 41.141 556.381 40.1255C560.242 39.611 564.11 39.8686 567.975 39.5745C569.626 39.4489 571.42 39.6247 573.127 39.6313C573.847 39.6342 574.408 39.534 574.931 39.0676C575.46 38.5958 575.882 38.0179 576.499 38.6989C576.656 38.8727 576.689 39.2932 576.901 39.424C577.158 39.5824 577.904 39.4736 578.211 39.4924C579.284 39.5579 580.332 39.74 581.386 39.9498C583.319 40.3348 585.24 40.724 587.151 41.2126C590.789 42.1433 594.379 43.0433 597.964 44.148C601.623 45.2752 605.32 46.6659 608.693 48.4905C610.327 49.3742 611.959 50.4774 613.461 51.5706C614.159 52.079 614.785 52.629 615.393 53.2421C616.042 53.8975 616.836 54.3397 617.479 55C618.878 56.4362 620.271 57.9596 621.54 59.5155C622.203 60.3278 622.811 61.1846 623.4 62.0505C623.816 62.658 624.906 63.7702 624.654 64.5549C624.522 64.9739 624.053 65.267 623.625 65.1643C623.481 65.1301 623.364 64.9443 623.241 64.9267C622.826 64.8681 623.202 64.7224 622.721 64.9182C621.76 65.3076 621.455 66.0886 620.235 65.9109C618.162 65.6085 616.213 64.6297 614.328 63.7763C613.79 65.8346 613.713 67.9684 613.242 70.0514C612.783 72.0836 612.016 74.0216 611.091 75.8855C610.279 77.5209 609.237 79.2639 607.801 80.4326C606.704 81.3244 603.999 82.4322 603.194 80.5336C602.852 79.7271 603.361 78.474 603.505 77.6441C603.698 76.5304 603.911 75.4135 604.027 74.2885C604.122 73.3745 604.17 72.4551 604.258 71.5401C604.334 70.753 604.544 69.0631 604.101 68.3679C603.834 67.9489 603.811 68.3601 603.656 68.7783C603.468 69.2856 603.311 69.7886 603.174 70.311C602.881 71.4211 602.617 72.5387 602.34 73.6527C601.845 75.643 601.3 77.5899 600.269 79.3795C599.353 80.9687 598.065 82.7121 596.106 82.9725C595.189 83.0942 593.994 82.675 593.294 82.0572C592.508 81.3642 592.743 80.2211 592.749 79.279Z" fill="black"/>
<path fill-rule="evenodd" clip-rule="evenodd" d="M548.027 160.554C549.104 160.342 550.01 159.483 550.889 158.838C552.01 158.015 553.073 157.118 554.162 156.253C556.213 154.624 558.074 152.837 559.844 150.893C563.336 147.059 565.965 142.124 567.16 137.082C567.765 134.531 568.512 131.541 568.169 128.904C568.05 127.988 567.868 127.821 566.97 127.716C566.564 127.669 565.535 127.553 565.17 127.712C564.223 128.126 563.712 129.886 563.432 130.77C562.603 133.381 562.115 136.086 561.365 138.718C560.631 141.299 559.447 143.917 558.277 146.33C555.673 151.699 552.053 156.191 548.027 160.554ZM569.378 130.911C568.735 138.223 566.705 145.189 562.153 151.077C559.99 153.875 557.446 156.31 554.688 158.522C551.841 160.806 548.933 162.957 545.702 164.66C544.842 165.114 543.981 165.565 543.111 165.998C542.628 166.238 541.41 167.121 540.853 166.981C540.407 166.869 540.291 166.524 540.221 166.075C540.065 165.068 540.72 164.565 541.382 163.918C544.04 161.319 546.707 158.711 549.192 155.946C554.101 150.486 557.789 143.948 559.838 136.893C560.47 134.72 561.033 132.524 561.715 130.367C562.13 129.053 562.719 126.714 564.098 126.059C564.838 125.708 565.7 126.05 566.478 125.839C567.208 125.642 567.691 125.239 568.313 125.915C569.404 127.1 569.453 129.426 569.378 130.911Z" fill="black"/>
<path fill-rule="evenodd" clip-rule="evenodd" d="M374.907 173.097C374.362 173.29 374.339 173.482 374.09 172.921C373.964 172.639 373.998 172.252 374.028 171.958C374.099 171.255 374.469 170.606 374.773 169.982C377.635 172.343 380.607 174.471 383.675 176.557C386.957 178.787 390.091 181.268 393.195 183.739C395.975 185.952 398.788 188.099 401.539 190.34C402.865 191.42 404.378 192.258 405.639 193.372C406.658 194.272 408.348 194.675 409.217 195.734C407.84 196.557 406.002 197.219 404.476 196.507C402.793 195.722 401.502 194.699 400.005 193.634C399.233 193.086 398.43 192.588 397.646 192.058C396.957 191.591 396.471 190.91 395.773 190.473C394.307 189.553 392.803 188.539 391.411 187.489C389.982 186.41 388.403 185.552 387.024 184.405C385.611 183.23 384.028 182.451 382.553 181.381C379.425 179.113 376.671 176.562 374.907 173.097Z" fill="black"/>
<path fill-rule="evenodd" clip-rule="evenodd" d="M459.288 52.6738C459.249 52.8826 459.21 53.0913 459.171 53.3003C459.195 53.3057 461.066 49.6903 461.376 49.2537C462.428 47.7735 463.796 46.5419 465.116 45.3058C467.91 42.6872 471.181 40.5736 473.92 37.9084C474.821 37.0315 476.435 35.7029 476.079 34.2203C475.725 32.7468 472.734 33.0462 471.71 33.4725C470.105 34.1411 468.801 35.5394 467.605 36.7577C466.3 38.0868 464.985 39.401 463.879 40.9051C462.686 42.5271 461.554 44.2837 460.823 46.166C460.005 48.2746 459.685 50.4569 459.288 52.6738ZM459.902 59.143C458.632 59.5346 460.225 59.7991 459.727 60.4777C459.181 61.2218 458.264 58.9291 458.127 58.4962C457.319 55.9385 457.68 52.8312 458.122 50.2344C458.345 48.9244 458.489 47.5928 458.789 46.297C459.083 45.0334 459.721 43.8327 460.312 42.6833C461.493 40.3835 463.057 38.2408 464.833 36.3656C466.614 34.4843 468.599 32.602 470.949 31.4438C472.89 30.4873 475.968 31.151 476.877 33.2403C477.806 35.3754 476.55 37.7011 475.064 39.2023C473.127 41.1601 471.016 43.1047 468.839 44.7929C467.721 45.6607 466.783 46.7101 465.697 47.6156C464.54 48.5795 463.54 49.549 462.685 50.7954C461.856 52.0033 461.004 53.2101 460.466 54.5813C459.876 56.0827 459.902 57.5545 459.902 59.143Z" fill="black"/>
<path fill-rule="evenodd" clip-rule="evenodd" d="M409.106 151.214C406.188 149.335 403.26 147.685 400.718 145.289C398.209 142.923 396.017 140.255 393.224 138.202C391.831 137.177 390.393 136.216 389.024 135.158C387.725 134.154 386.232 133.294 385.058 132.149C383.493 130.622 380.563 127.786 382.562 125.509C385.044 128.461 388.449 130.787 391.553 133.028C394.827 135.391 397.831 138.147 400.936 140.721C403.927 143.2 406.907 145.703 409.826 148.248C410.592 148.917 411.332 149.619 412.107 150.277C412.202 150.357 413.006 150.866 413.006 151.002C413.006 151.327 412.383 151.53 412.161 151.62C411.81 151.763 410.863 152.118 410.466 151.998C410.257 151.935 410.254 151.765 410.104 151.664C410.017 151.502 409.917 151.348 409.802 151.204C409.57 151.208 409.338 151.211 409.106 151.214Z" fill="black"/>
<path fill-rule="evenodd" clip-rule="evenodd" d="M580.903 118.451C578.823 118.398 575.656 118.391 575.773 121.232C575.83 122.639 576.593 123.672 577.22 124.875C577.877 126.139 578.365 127.445 578.558 128.863C579.339 134.599 577.244 140.204 575.349 145.507C579.419 142.222 582.358 137.65 583.902 132.64C584.65 130.21 584.941 127.087 584.7 124.557C584.579 123.291 584.112 122.156 583.549 121.028C583.267 120.461 582.985 119.814 582.534 119.356C582.083 118.896 581.458 118.743 580.903 118.451ZM573.646 148.793C572.302 146.582 574.418 143.328 575.11 141.173C575.937 138.597 576.7 135.914 577.054 133.227C577.424 130.412 576.946 128.223 575.641 125.737C574.475 123.514 573.782 120.554 575.079 118.202C575.602 117.255 576.373 117.139 577.29 116.761C578.415 116.298 578.725 115.514 580.106 115.639C582.571 115.86 583.711 118.197 584.627 120.188C586.765 124.831 586.184 130.821 584.361 135.483C583.312 138.165 582.115 140.95 580.334 143.234C579.46 144.354 578.434 145.324 577.368 146.259C576.216 147.269 575.183 148.487 573.646 148.793Z" fill="black"/>
<path fill-rule="evenodd" clip-rule="evenodd" d="M432.92 68.1966C429.672 68.8495 426.707 70.3138 426.187 73.9649C425.713 77.2831 427.974 80.353 430.749 81.9062C433.751 83.5866 437.512 83.8657 440.504 82.0035C443.652 80.043 444.367 76.1141 442.45 73.0318C440.312 69.5921 436.729 68.5769 432.92 68.1966ZM435.008 66.6047C438.877 67.1716 442.468 69.9248 443.771 73.633C445.115 77.4555 443.88 81.6581 440.324 83.7526C433.136 87.9857 423.528 80.9311 425.263 72.8226C425.704 70.7638 426.955 69.1695 428.654 67.9641C430.53 66.633 432.799 66.5969 435.008 66.6047Z" fill="black"/>
<path fill-rule="evenodd" clip-rule="evenodd" d="M572.557 27.7864C567.896 25.6787 563.234 23.5711 558.573 21.4634C558.382 23.5764 558.19 25.6893 557.999 27.8023C557.947 28.3741 557.735 29.1519 557.826 29.7161C557.922 30.3182 557.716 30.2539 558.501 30.1684C559.505 30.0586 560.512 29.8107 561.505 29.6335C563.291 29.3147 565.191 29.2238 566.939 28.7549C567.831 28.5156 568.685 28.4855 569.591 28.3408C570.585 28.1819 571.553 27.8876 572.557 27.7864ZM556.789 31.8712C556.789 29.491 557.053 27.1428 557.271 24.7735C557.467 22.6419 557.543 20.61 558.238 18.5791C558.888 19.7596 560.688 20.2314 561.802 20.8388C563.337 21.6758 564.971 22.2921 566.542 23.0545C568.085 23.8033 569.571 24.663 571.116 25.4101C571.899 25.789 572.694 26.1425 573.476 26.5243C573.965 26.7634 575.126 27.1481 575.43 27.5921C576.355 28.9395 573.191 29.0698 572.581 29.1886C570.749 29.5457 568.897 29.7469 567.069 30.1141C565.365 30.4568 563.658 30.7748 561.948 31.0855C560.255 31.3931 558.511 31.8712 556.789 31.8712Z" fill="black"/>
<path fill-rule="evenodd" clip-rule="evenodd" d="M413.055 90.7963C414.891 90.6054 416.718 90.3306 418.552 90.1492C420.288 89.9774 421.823 89.7945 423.41 88.9991C421.243 88.3459 419.072 87.7274 416.888 87.1373C415.805 86.8447 414.723 86.535 413.635 86.2617C412.793 86.05 412.059 85.9283 411.736 85.0094C411.359 83.9396 412.406 84.1017 413.059 84.3735C413.96 84.7483 414.941 84.9812 415.874 85.2929C417.957 85.9884 420.053 86.6281 422.156 87.2605C422.81 87.4571 426.597 88.1841 425.233 89.4476C424.649 89.9886 423.345 90.2856 422.631 90.6741C421.715 91.1723 420.718 91.3707 419.699 91.569C417.576 91.9821 415.372 92.1408 413.222 92.4991C412.125 92.6822 411.027 92.8653 409.929 93.0484C409.286 93.1555 409.039 93.145 408.871 92.4278C408.748 91.9066 408.908 91.3852 409.025 90.8804C409.323 89.5977 409.654 88.3217 409.982 87.0466C410.107 86.5602 410.327 84.4217 410.761 84.1878C411.746 83.657 410.986 86.6176 410.913 86.9801C410.637 88.3476 410.309 89.7055 410.161 91.0933C411.128 91.0058 412.092 90.9151 413.055 90.7963Z" fill="black"/>
<path fill-rule="evenodd" clip-rule="evenodd" d="M439.079 101.683C439.443 102.598 438.839 102.802 438.105 103.119C437.153 103.53 436.217 103.964 435.247 104.334C433.208 105.112 431.155 105.835 429.164 106.735C425.368 108.452 421.521 110.1 417.784 111.939C416.855 112.396 415.926 112.851 414.989 113.291C414.02 113.746 412.908 114.512 411.872 114.772C410.967 114.999 410.873 114.355 411.409 113.762C412.1 112.997 413.168 112.426 414.035 111.894C417.606 109.706 421.503 107.924 425.402 106.418C429.91 104.678 434.429 103.008 439.079 101.683Z" fill="black"/>
<path fill-rule="evenodd" clip-rule="evenodd" d="M448.99 49.8038C448.86 47.0233 449.232 44.2354 449.01 41.4623C445.198 44.8421 447.076 50.0653 449.269 53.7326L448.99 49.8038ZM450.641 49.6449C450.665 51.003 450.742 52.3605 450.61 53.7118C450.471 55.1304 451.137 55.861 452.004 56.9058C451.268 57.6534 449.577 55.9104 449.111 55.3966C448.15 54.3386 447.435 52.933 446.798 51.6626C445.443 48.9562 444.51 46.0587 445.595 43.0874C445.997 41.9862 446.489 40.4889 447.553 39.8477C448.722 39.1437 449.616 40.1366 450.101 41.158C451.285 43.6499 450.383 46.9701 450.641 49.6449Z" fill="black"/>
<path fill-rule="evenodd" clip-rule="evenodd" d="M491.029 187.853C492.787 187.993 494.519 188.13 496.277 188.241C495.974 185.831 495.67 183.421 495.367 181.011C494.349 181.247 493.332 181.482 492.315 181.718C491.834 181.829 491.097 181.858 490.671 182.098C490.512 182.135 490.353 182.172 490.194 182.209C490.189 182.521 490.186 182.834 490.183 183.147C490.171 184.073 490.144 184.997 490.106 185.922C490.09 186.309 489.955 186.877 490.047 187.261C489.883 187.649 489.987 187.814 490.362 187.756C490.585 187.788 490.807 187.821 491.029 187.853ZM489.819 189.596C488.441 188.909 488.818 186.813 488.82 185.478C488.822 184.629 488.882 183.786 488.904 182.938C488.919 182.356 488.786 181.634 488.986 181.071C489.343 180.07 491.088 180.097 491.986 180.167C492.651 180.219 493.208 180.186 493.89 180.142C494.226 180.12 494.601 180.184 494.931 180.085C495.003 180.064 495.675 179.595 495.645 179.594C496.85 179.64 496.866 182.53 496.945 183.263C497.138 185.071 497.313 186.882 497.47 188.693C497.512 189.173 497.69 189.715 497.235 189.988C496.824 190.235 495.736 189.991 495.282 189.977C493.451 189.922 491.63 189.637 489.819 189.596Z" fill="black"/>
<path fill-rule="evenodd" clip-rule="evenodd" d="M575.838 82.2039C576.634 82.9208 576.252 83.6606 575.991 84.5562C575.834 85.0938 574.972 86.8587 575.21 87.3616C575.485 87.9429 576.776 88.0859 577.328 88.2695C578.29 88.5892 579.256 88.9104 580.166 89.3612C580.57 89.5614 582.026 90.0215 582.3 90.395C582.456 90.6091 582.513 90.7768 582.395 91.0528C582.189 91.5373 581.894 91.2809 581.391 91.177C579.091 90.7018 576.81 90.0941 574.677 89.0918C574.083 90.4722 573.579 91.882 573.076 93.2983C572.928 93.7134 572.788 94.6565 572.228 94.7237C571.545 94.8054 571.535 93.8907 571.581 93.3971C571.647 92.6765 572.02 91.9081 572.246 91.2259C572.432 90.6627 573.084 89.49 573.004 88.9097C572.949 88.5102 572.705 88.5381 572.271 88.3812C571.861 88.233 571.451 88.0856 571.042 87.9358C570.385 87.6955 569.731 87.4545 569.091 87.1694C568.74 87.013 568.006 86.8301 567.752 86.5055C567.605 86.3173 567.441 85.6389 567.627 85.4512C568.062 85.0114 570.954 86.195 571.549 86.3566C571.943 86.4639 572.34 86.5458 572.723 86.6864C572.868 86.7399 573.039 86.957 573.196 86.9651C573.861 86.9988 573.914 86.4872 574.12 85.9384C574.6 84.6631 575.12 83.3621 575.838 82.2039Z" fill="black"/>
<path fill-rule="evenodd" clip-rule="evenodd" d="M410.006 107.577C409.651 106.707 413.416 105.657 414.115 105.364C415.82 104.65 417.648 104.218 419.414 103.673C421.151 103.136 422.88 102.559 424.589 101.938C425.117 101.746 428.921 99.8938 429.12 100.165C429.779 101.061 421.796 103.876 421.019 104.156C417.406 105.457 413.677 106.455 410.006 107.577Z" fill="black"/>
<path fill-rule="evenodd" clip-rule="evenodd" d="M571.931 39.5783C570.955 39.588 569.547 39.8648 568.652 39.4688C569.745 39.5052 570.838 39.5418 571.931 39.5783Z" fill="black"/>
<path fill-rule="evenodd" clip-rule="evenodd" d="M435.008 66.6045L432.838 66.5967C433.562 66.4288 434.286 66.3273 435.008 66.6045Z" fill="black"/>
<path fill-rule="evenodd" clip-rule="evenodd" d="M548.012 66.0249C548.524 66.0222 549.036 66.0195 549.544 66.0166C549.031 66.0195 548.522 66.0222 548.012 66.0249Z" fill="black"/>
<path fill-rule="evenodd" clip-rule="evenodd" d="M592.749 79.2791C592.745 79.8264 592.742 80.3737 592.737 80.9188C592.741 80.3708 592.745 79.8249 592.749 79.2791Z" fill="black"/>
<path fill-rule="evenodd" clip-rule="evenodd" d="M491.986 180.167C491.442 180.207 490.899 180.246 490.356 180.285C490.9 180.246 491.443 180.206 491.986 180.167Z" fill="black"/>
<path fill-rule="evenodd" clip-rule="evenodd" d="M495.048 75.8518C494.496 75.8965 493.944 75.9415 493.393 75.9863C493.945 75.9413 494.496 75.8965 495.048 75.8518Z" fill="black"/>
<path fill-rule="evenodd" clip-rule="evenodd" d="M552.159 65.8447C552.549 65.844 552.94 65.8433 553.327 65.8425C552.935 65.8435 552.547 65.8442 552.159 65.8447Z" fill="black"/>
<path fill-rule="evenodd" clip-rule="evenodd" d="M473.577 76.9197C473.092 76.9634 472.606 77.0072 472.121 77.051C472.606 77.0072 473.092 76.9634 473.577 76.9197Z" fill="black"/>
<path fill-rule="evenodd" clip-rule="evenodd" d="M495.014 42.2749C494.529 42.2779 494.043 42.2808 493.558 42.2837C494.042 42.027 494.528 42.0933 495.014 42.2749Z" fill="black"/>
<path fill-rule="evenodd" clip-rule="evenodd" d="M406.408 126.232C406.004 126.21 405.675 126.406 405.447 126.021C405.82 125.731 406.035 126.065 406.408 126.232Z" fill="black"/>
<path fill-rule="evenodd" clip-rule="evenodd" d="M481.304 93.8141L480.044 93.6724L481.304 93.8141Z" fill="black"/>
<path fill-rule="evenodd" clip-rule="evenodd" d="M489.819 189.596C490.097 189.602 490.376 189.608 490.651 189.615C490.371 189.608 490.095 189.602 489.819 189.596Z" fill="black"/>
<path fill-rule="evenodd" clip-rule="evenodd" d="M554.496 40.3708C554.062 40.4097 553.628 40.4486 553.194 40.4875C553.628 40.4483 554.062 40.4097 554.496 40.3708Z" fill="black"/>
<path fill-rule="evenodd" clip-rule="evenodd" d="M416.992 171.994C416.575 171.996 416.158 171.998 415.742 171.999C416.159 171.998 416.575 171.996 416.992 171.994Z" fill="black"/>
<path fill-rule="evenodd" clip-rule="evenodd" d="M383.492 164.607C383.071 164.607 382.651 164.608 382.23 164.609C382.651 164.608 383.071 164.607 383.492 164.607Z" fill="black"/>
<path fill-rule="evenodd" clip-rule="evenodd" d="M489.786 76.1987C489.359 76.2408 488.932 76.2826 488.505 76.3246C488.932 76.2826 489.359 76.2408 489.786 76.1987Z" fill="black"/>
<path fill-rule="evenodd" clip-rule="evenodd" d="M477.871 76.8919C477.45 76.8435 477.03 76.7951 476.61 76.7467C477.027 76.8281 477.489 76.5066 477.871 76.8919Z" fill="black"/>
<path fill-rule="evenodd" clip-rule="evenodd" d="M515.925 93.7583C516.187 93.7288 516.554 93.6371 516.824 93.6799C516.788 93.8339 516.026 93.7579 515.925 93.7583Z" fill="black"/>
<path fill-rule="evenodd" clip-rule="evenodd" d="M489.272 126.72C489.554 126.725 489.836 126.73 490.115 126.735C489.832 126.73 489.552 126.725 489.272 126.72Z" fill="black"/>
<path fill-rule="evenodd" clip-rule="evenodd" d="M463.813 93.1511C463.402 93.191 462.99 93.2308 462.578 93.2704C462.99 93.2306 463.402 93.191 463.813 93.1511Z" fill="black"/>
<path fill-rule="evenodd" clip-rule="evenodd" d="M417.725 91.7483C417.949 91.7544 418.174 91.7605 418.395 91.7666C418.17 91.7605 417.947 91.7544 417.725 91.7483Z" fill="black"/>
<path fill-rule="evenodd" clip-rule="evenodd" d="M478.391 93.4612C478.039 93.4541 477.687 93.447 477.335 93.4402C477.687 93.447 478.039 93.4541 478.391 93.4612Z" fill="black"/>
<path fill-rule="evenodd" clip-rule="evenodd" d="M413.055 90.7964C412.699 90.8404 412.343 90.8841 411.988 90.9279C412.344 90.8839 412.7 90.8401 413.055 90.7964Z" fill="black"/>
<path fill-rule="evenodd" clip-rule="evenodd" d="M461.879 87.7727C462.098 87.7815 462.318 87.7903 462.535 87.7998C462.314 87.7915 462.096 87.7822 461.879 87.7727Z" fill="black"/>
<path fill-rule="evenodd" clip-rule="evenodd" d="M478.647 124.741C478.871 124.727 479.094 124.712 479.314 124.697C479.09 124.712 478.869 124.727 478.647 124.741Z" fill="black"/>
<path fill-rule="evenodd" clip-rule="evenodd" d="M495.721 95.7929C495.362 95.7482 495.003 95.7034 494.644 95.6587C495.003 95.7034 495.362 95.7482 495.721 95.7929Z" fill="black"/>
<path fill-rule="evenodd" clip-rule="evenodd" d="M409.106 151.214C409.339 151.211 409.572 151.208 409.802 151.204C409.569 151.207 409.337 151.211 409.106 151.214Z" fill="black"/>
<path fill-rule="evenodd" clip-rule="evenodd" d="M389.979 122.267C389.607 122.229 389.236 122.191 388.865 122.154C389.236 122.191 389.607 122.229 389.979 122.267Z" fill="black"/>
<path fill-rule="evenodd" clip-rule="evenodd" d="M382.061 164.657C381.696 164.7 381.331 164.742 380.966 164.784C381.331 164.742 381.696 164.7 382.061 164.657Z" fill="black"/>
<path fill-rule="evenodd" clip-rule="evenodd" d="M580.884 65.9656C580.856 66.2809 580.827 66.5963 580.798 66.9104C580.826 66.5946 580.855 66.2802 580.884 65.9656Z" fill="black"/>
<path fill-rule="evenodd" clip-rule="evenodd" d="M419.171 171.679C418.804 171.721 418.438 171.764 418.071 171.806C418.438 171.763 418.805 171.721 419.171 171.679Z" fill="black"/>
<path fill-rule="evenodd" clip-rule="evenodd" d="M415.572 172.043C415.2 172.302 414.829 172.317 414.458 172.044C414.829 172.043 415.2 172.043 415.572 172.043Z" fill="black"/>
<path fill-rule="evenodd" clip-rule="evenodd" d="M408.531 172.353C408.171 172.353 407.811 172.354 407.452 172.354C407.812 172.354 408.172 172.353 408.531 172.353Z" fill="black"/>
<path fill-rule="evenodd" clip-rule="evenodd" d="M450.641 49.645C450.61 49.3255 450.579 49.0063 450.548 48.688C450.579 49.008 450.61 49.3265 450.641 49.645Z" fill="black"/>
<path fill-rule="evenodd" clip-rule="evenodd" d="M489.963 42.5105C489.601 42.5552 489.239 42.5997 488.878 42.6442C489.239 42.5997 489.601 42.5552 489.963 42.5105Z" fill="black"/>
<path fill-rule="evenodd" clip-rule="evenodd" d="M491.245 42.3413C490.877 42.3824 490.509 42.4237 490.142 42.465C490.51 42.4237 490.877 42.3824 491.245 42.3413Z" fill="black"/>
<path fill-rule="evenodd" clip-rule="evenodd" d="M434.141 84.9141C434.367 84.9107 434.594 84.9072 434.817 84.9038C434.59 84.9072 434.365 84.9107 434.141 84.9141Z" fill="black"/>
<path fill-rule="evenodd" clip-rule="evenodd" d="M466.897 81.3757C468.098 81.1777 469.298 81.1117 470.498 81.3749L466.897 81.3757Z" fill="black"/>
<path fill-rule="evenodd" clip-rule="evenodd" d="M498.917 67.8702C499.167 67.2175 499.229 66.9726 499.839 66.6348C499.585 67.2691 499.545 67.6084 498.917 67.8702Z" fill="black"/>
<path fill-rule="evenodd" clip-rule="evenodd" d="M528.194 132.465C528.219 133.143 528.243 133.822 528.266 134.5C528.242 133.821 528.218 133.143 528.194 132.465Z" fill="black"/>
<path fill-rule="evenodd" clip-rule="evenodd" d="M571.734 41.1458C571.191 41.158 570.648 41.1704 570.107 41.1827C570.651 41.1704 571.193 41.158 571.734 41.1458Z" fill="black"/>
<path fill-rule="evenodd" clip-rule="evenodd" d="M499.382 144.526C499.401 145.091 499.42 145.657 499.438 146.222C499.419 145.656 499.401 145.091 499.382 144.526Z" fill="black"/>
<path fill-rule="evenodd" clip-rule="evenodd" d="M432.827 126.401C433.376 126.405 433.924 126.409 434.473 126.413C433.924 126.409 433.376 126.405 432.827 126.401Z" fill="black"/>
<path fill-rule="evenodd" clip-rule="evenodd" d="M479.461 97.342C479.13 97.3452 478.8 97.3482 478.472 97.3523C478.804 97.3494 479.132 97.3457 479.461 97.342Z" fill="black"/>
<path fill-rule="evenodd" clip-rule="evenodd" d="M478.384 79.3594C478.112 79.3501 477.84 79.3408 477.571 79.3325C477.844 79.3421 478.114 79.3506 478.384 79.3594Z" fill="black"/>
<path fill-rule="evenodd" clip-rule="evenodd" d="M439.508 126.23C439.937 126.188 440.365 126.146 440.794 126.104C440.365 126.146 439.937 126.188 439.508 126.23Z" fill="black"/>
<path fill-rule="evenodd" clip-rule="evenodd" d="M430.161 126.422C430.581 126.416 431.001 126.409 431.421 126.403C431.001 126.409 430.581 126.416 430.161 126.422Z" fill="black"/>
<path fill-rule="evenodd" clip-rule="evenodd" d="M434.647 126.412C435.082 126.374 435.517 126.336 435.953 126.298C435.518 126.335 435.082 126.374 434.647 126.412Z" fill="black"/>
<path fill-rule="evenodd" clip-rule="evenodd" d="M436.234 127.102C436.018 127.1 435.801 127.099 435.588 127.098C435.805 127.099 436.02 127.1 436.234 127.102Z" fill="black"/>
<path fill-rule="evenodd" clip-rule="evenodd" d="M528.004 117.379C528.037 117.06 528.069 116.741 528.101 116.424C528.069 116.743 528.037 117.061 528.004 117.379Z" fill="black"/>
<path fill-rule="evenodd" clip-rule="evenodd" d="M463.036 85.1431C463.309 85.1663 463.582 85.1895 463.855 85.213C463.55 85.2286 463.245 85.244 462.941 85.2597C462.942 85.1971 462.974 85.1582 463.036 85.1431Z" fill="black"/>
<path fill-rule="evenodd" clip-rule="evenodd" d="M533.151 138.78C533.133 138.49 533.116 138.199 533.099 137.91C533.116 138.202 533.134 138.491 533.151 138.78Z" fill="black"/>
<path fill-rule="evenodd" clip-rule="evenodd" d="M467.935 84.0349C467.716 84.0393 467.496 84.0435 467.28 84.0476C467.5 84.0432 467.717 84.0391 467.935 84.0349Z" fill="black"/>
<path fill-rule="evenodd" clip-rule="evenodd" d="M548.137 120.695C548.502 120.738 548.867 120.78 549.232 120.823C548.867 120.78 548.502 120.738 548.137 120.695Z" fill="black"/>
<path fill-rule="evenodd" clip-rule="evenodd" d="M472.286 96.6318C472.061 96.6353 471.836 96.6384 471.614 96.6423C471.84 96.6392 472.063 96.6355 472.286 96.6318Z" fill="black"/>
<path fill-rule="evenodd" clip-rule="evenodd" d="M459.288 52.6736C459.524 52.7995 459.401 53.3529 459.171 53.3001C459.21 53.0911 459.249 52.8823 459.288 52.6736Z" fill="black"/>
<path fill-rule="evenodd" clip-rule="evenodd" d="M580.903 118.451C580.686 118.445 580.47 118.44 580.256 118.434C580.473 118.44 580.688 118.446 580.903 118.451Z" fill="black"/>
<path fill-rule="evenodd" clip-rule="evenodd" d="M448.991 49.8039C448.968 49.3162 448.945 48.8287 448.922 48.3425C448.945 48.8307 448.968 49.3172 448.991 49.8039Z" fill="black"/>
<path fill-rule="evenodd" clip-rule="evenodd" d="M490.029 187.707C490.362 187.755 490.696 187.804 491.03 187.853C490.696 187.804 490.362 187.755 490.029 187.707Z" fill="black"/>
<path fill-rule="evenodd" clip-rule="evenodd" d="M487.822 62.1595C486.645 62.4018 485.436 62.5284 484.286 62.8851C484 62.9741 483.059 63.5206 482.715 63.3767C482.193 63.1574 482.457 62.5949 482.677 62.2947C483.265 61.4919 484.317 61.0421 485.282 61.0522C486.245 61.0624 487.567 61.0272 487.822 62.1595Z" fill="black"/>
<path fill-rule="evenodd" clip-rule="evenodd" d="M484.551 64.3134C485.848 65.2205 486.838 65.6674 486.947 63.6284C488.352 63.8198 487.723 66.082 486.66 66.2526C485.503 66.4382 484.731 65.2826 484.551 64.3134Z" fill="black"/>
</g>
</g>
<path d="M31.0753 37.2344H34.625C34.5554 33.794 31.6222 31.358 27.2869 31.358C23.0114 31.358 19.7997 33.7642 19.8097 37.3636C19.8097 40.2869 21.8878 41.9673 25.2386 42.8324L27.5554 43.429C29.7528 43.9858 31.2045 44.6719 31.2145 46.2528C31.2045 47.9929 29.554 49.1562 27.1477 49.1562C24.8409 49.1562 23.0511 48.1222 22.902 45.9844H19.2727C19.4219 50.0312 22.4347 52.3082 27.1776 52.3082C32.0597 52.3082 34.8935 49.8722 34.9034 46.2827C34.8935 42.7528 31.9801 41.142 28.9176 40.4162L27.0085 39.9389C25.3381 39.5412 23.5284 38.8352 23.5483 37.1349C23.5582 35.6037 24.9304 34.4801 27.2372 34.4801C29.4347 34.4801 30.8864 35.5043 31.0753 37.2344ZM38.1921 52H51.516V48.9077H41.881V43.3494H50.7504V40.2571H41.881V34.7287H51.4364V31.6364H38.1921V52ZM55.1999 52H67.8576V48.9077H58.8888V31.6364H55.1999V52ZM74.44 52L76.1204 46.9787H83.7766L85.467 52H89.4045L82.2255 31.6364H77.6715L70.5025 52H74.44ZM77.1147 44.0156L79.869 35.8125H80.0281L82.7823 44.0156H77.1147ZM92.0866 31.6364V52H95.6264V37.9801H95.8153L101.443 51.9403H104.088L109.716 38.0099H109.905V52H113.445V31.6364H108.93L102.885 46.392H102.646L96.6009 31.6364H92.0866ZM120.077 52L121.757 46.9787H129.413L131.104 52H135.041L127.862 31.6364H123.308L116.139 52H120.077ZM122.751 44.0156L125.506 35.8125H125.665L128.419 44.0156H122.751ZM134.368 34.7287H140.662V52H144.321V34.7287H150.615V31.6364H134.368V34.7287ZM167.593 52C173.797 52 177.476 48.1619 177.476 41.7983C177.476 35.4545 173.797 31.6364 167.732 31.6364H160.692V52H167.593ZM164.381 48.8082V34.8281H167.523C171.659 34.8281 173.817 37.1349 173.817 41.7983C173.817 46.4815 171.659 48.8082 167.414 48.8082H164.381ZM182.639 52L184.32 46.9787H191.976L193.666 52H197.604L190.425 31.6364H185.871L178.702 52H182.639ZM185.314 44.0156L188.068 35.8125H188.227L190.982 44.0156H185.314ZM196.93 34.7287H203.224V52H206.883V34.7287H213.177V31.6364H196.93V34.7287ZM216.463 52L218.144 46.9787H225.8L227.49 52H231.428L224.249 31.6364H219.695L212.526 52H216.463ZM219.138 44.0156L221.892 35.8125H222.051L224.806 44.0156H219.138ZM250.844 31.6364H247.175V45.517H246.996L237.411 31.6364H234.11V52H237.799V38.1293H237.968L247.563 52H250.844V31.6364ZM268.506 38.1392H272.265C271.638 34.142 268.178 31.358 263.674 31.358C258.344 31.358 254.347 35.2756 254.347 41.8381C254.347 48.2812 258.165 52.2784 263.783 52.2784C268.824 52.2784 272.434 49.0369 272.434 43.7869V41.3409H264.171V44.2244H268.864C268.804 47.1278 266.865 48.9673 263.803 48.9673C260.392 48.9673 258.056 46.4119 258.056 41.7983C258.056 37.2145 260.432 34.669 263.723 34.669C266.179 34.669 267.85 35.9815 268.506 38.1392ZM289.847 52C296.051 52 299.73 48.1619 299.73 41.7983C299.73 35.4545 296.051 31.6364 289.986 31.6364H282.946V52H289.847ZM286.635 48.8082V34.8281H289.777C293.913 34.8281 296.071 37.1349 296.071 41.7983C296.071 46.4815 293.913 48.8082 289.668 48.8082H286.635ZM306.924 31.6364H303.235V52H306.924V31.6364ZM22.6236 86L24.304 80.9787H31.9602L33.6506 86H37.5881L30.4091 65.6364H25.8551L18.6861 86H22.6236ZM25.2983 78.0156L28.0526 69.8125H28.2116L30.9659 78.0156H25.2983ZM40.2702 86H43.9592V79.1193H47.8569C52.56 79.1193 55.0856 76.2955 55.0856 72.3778C55.0856 68.4901 52.5898 65.6364 47.9066 65.6364H40.2702V86ZM43.9592 76.0866V68.7188H47.3398C50.104 68.7188 51.3271 70.2102 51.3271 72.3778C51.3271 74.5455 50.104 76.0866 47.3597 76.0866H43.9592ZM58.2898 86H70.9474V82.9077H61.9787V65.6364H58.2898V86ZM77.8381 65.6364H74.1491V86H77.8381V65.6364ZM81.8327 86H85.5217V79.9347L87.7788 77.2699L93.854 86H98.2887L90.3441 74.7741L98.2191 65.6364H93.7148L85.7702 74.9929H85.5217V65.6364H81.8327V86ZM103.397 86L105.077 80.9787H112.734L114.424 86H118.362L111.183 65.6364H106.629L99.4595 86H103.397ZM106.072 78.0156L108.826 69.8125H108.985L111.739 78.0156H106.072ZM131.782 71.2344H135.332C135.262 67.794 132.329 65.358 127.994 65.358C123.718 65.358 120.507 67.7642 120.517 71.3636C120.517 74.2869 122.595 75.9673 125.946 76.8324L128.262 77.429C130.46 77.9858 131.912 78.6719 131.922 80.2528C131.912 81.9929 130.261 83.1562 127.855 83.1562C125.548 83.1562 123.758 82.1222 123.609 79.9844H119.98C120.129 84.0312 123.142 86.3082 127.885 86.3082C132.767 86.3082 135.6 83.8722 135.61 80.2827C135.6 76.7528 132.687 75.142 129.625 74.4162L127.716 73.9389C126.045 73.5412 124.235 72.8352 124.255 71.1349C124.265 69.6037 125.637 68.4801 127.944 68.4801C130.142 68.4801 131.593 69.5043 131.782 71.2344ZM142.588 65.6364H138.899V86H142.588V65.6364ZM164.595 71.2344H168.145C168.075 67.794 165.142 65.358 160.806 65.358C156.531 65.358 153.319 67.7642 153.329 71.3636C153.329 74.2869 155.407 75.9673 158.758 76.8324L161.075 77.429C163.272 77.9858 164.724 78.6719 164.734 80.2528C164.724 81.9929 163.074 83.1562 160.667 83.1562C158.36 83.1562 156.571 82.1222 156.422 79.9844H152.792C152.941 84.0312 155.954 86.3082 160.697 86.3082C165.579 86.3082 168.413 83.8722 168.423 80.2827C168.413 76.7528 165.5 75.142 162.437 74.4162L160.528 73.9389C158.858 73.5412 157.048 72.8352 157.068 71.1349C157.078 69.6037 158.45 68.4801 160.757 68.4801C162.954 68.4801 164.406 69.5043 164.595 71.2344ZM171.712 86H175.401V79.1193H179.298C184.001 79.1193 186.527 76.2955 186.527 72.3778C186.527 68.4901 184.031 65.6364 179.348 65.6364H171.712V86ZM175.401 76.0866V68.7188H178.781C181.545 68.7188 182.768 70.2102 182.768 72.3778C182.768 74.5455 181.545 76.0866 178.801 76.0866H175.401ZM189.731 86H193.42V79.1193H197.318C202.021 79.1193 204.547 76.2955 204.547 72.3778C204.547 68.4901 202.051 65.6364 197.368 65.6364H189.731V86ZM193.42 76.0866V68.7188H196.801C199.565 68.7188 200.788 70.2102 200.788 72.3778C200.788 74.5455 199.565 76.0866 196.821 76.0866H193.42ZM232.892 75.8182C232.892 69.2358 228.875 65.358 223.536 65.358C218.186 65.358 214.179 69.2358 214.179 75.8182C214.179 82.3906 218.186 86.2784 223.536 86.2784C228.875 86.2784 232.892 82.4006 232.892 75.8182ZM229.183 75.8182C229.183 80.4517 226.857 82.9673 223.536 82.9673C220.224 82.9673 217.888 80.4517 217.888 75.8182C217.888 71.1847 220.224 68.669 223.536 68.669C226.857 68.669 229.183 71.1847 229.183 75.8182ZM236.38 86H240.069V79.1193H243.966C248.669 79.1193 251.195 76.2955 251.195 72.3778C251.195 68.4901 248.699 65.6364 244.016 65.6364H236.38V86ZM240.069 76.0866V68.7188H243.449C246.213 68.7188 247.436 70.2102 247.436 72.3778C247.436 74.5455 246.213 76.0866 243.469 76.0866H240.069ZM254.745 86L256.425 80.9787H264.081L265.772 86H269.709L262.53 65.6364H257.976L250.807 86H254.745ZM257.419 78.0156L260.174 69.8125H260.333L263.087 78.0156H257.419ZM269.036 68.7287H275.33V86H278.989V68.7287H285.283V65.6364H269.036V68.7287ZM299.606 65.6364H295.758L296.076 80.0142H299.278L299.606 65.6364ZM297.677 86.2188C298.85 86.2188 299.854 85.2443 299.864 84.0312C299.854 82.8381 298.85 81.8636 297.677 81.8636C296.464 81.8636 295.479 82.8381 295.489 84.0312C295.479 85.2443 296.464 86.2188 297.677 86.2188Z" fill="white"/>
<defs>
<linearGradient id="paint0_linear" x1="1.57456e-07" y1="158.7" x2="636.466" y2="93.7379" gradientUnits="userSpaceOnUse">
<stop stop-color="#FE69A9"/>
<stop offset="1" stop-color="#FF8860"/>
</linearGradient>
<linearGradient id="paint1_linear" x1="1.57456e-07" y1="158.7" x2="636.466" y2="93.7379" gradientUnits="userSpaceOnUse">
<stop stop-color="#FE69A9"/>
<stop offset="1" stop-color="#FF8860"/>
</linearGradient>
</defs>
</svg>
