<svg width="199" height="106" viewBox="0 0 199 106" fill="none" xmlns="http://www.w3.org/2000/svg">
<path fill-rule="evenodd" clip-rule="evenodd" d="M165.819 71.8486C162.307 70.5872 156.431 70.8598 155.563 75.4096C155.199 77.3142 155.907 79.3288 157.218 80.7126C158.739 82.317 161.161 82.4658 161.031 79.6718C160.942 77.7382 159.107 76.0587 162.332 75.669C164.339 75.4267 167.308 76.9324 167.407 79.1563C167.633 84.1689 158.983 84.562 155.796 83.6949C149.469 81.9753 151.188 75.328 155.532 72.2943C156.655 71.5102 159.875 70.3028 160.022 68.6747C160.218 66.5154 157.556 66.9564 156.251 67.2408C146.66 69.335 144.57 85.4514 154.591 88.4897C159.142 89.8689 165.551 88.4449 168.293 84.3105C170.865 80.4341 170.9 73.6736 165.819 71.8486Z" fill="#FF8860"/>
<path fill-rule="evenodd" clip-rule="evenodd" d="M127.719 7.86889C122.448 10.4073 117.177 12.9456 111.908 15.484C110.166 11.7544 107.222 1.56512 102.803 0.264188C95.6496 -1.84246 100.205 9.2645 101.439 11.804C102.454 13.8899 104.806 17.122 104.235 19.6084C103.469 22.9583 98.7453 24.1449 96.2727 25.873C90.154 30.1509 90.2025 39.1351 99.0638 35.3281C104.078 33.173 110.287 27.197 114.13 33.9821C115.905 37.1127 120.109 54.6031 124.501 43.1648C127.218 36.083 114.139 28.7253 120.587 22.7344C122.663 20.8066 125.093 20.6439 127.166 19.5357C132.174 16.8588 129.35 11.9125 127.719 7.86889Z" fill="#FF8860"/>
<path fill-rule="evenodd" clip-rule="evenodd" d="M197.986 23.8395C196.624 23.3093 194.94 22.274 193.426 22.6269C191.818 23.0017 191.17 24.7167 190.001 25.7477C186.822 28.5512 184.97 24.3728 183.223 22.0829C181.573 19.9208 179.56 19.396 177.232 20.7245C176.305 21.2542 172.398 23.6808 173.079 25.2356C173.569 26.3545 175.5 25.3501 176.158 25.1058C177.587 24.5762 178.915 24.1125 180.377 24.8849C183.119 26.3327 183.831 30.303 187.148 30.922C190.579 31.5624 190.692 28.0866 193.14 26.7782C194.781 25.9015 195.925 27.4537 197.508 27.1444C199.017 26.8501 199.715 24.5123 197.986 23.8395Z" fill="#FF8860"/>
<path fill-rule="evenodd" clip-rule="evenodd" d="M169.817 37.5041C171.047 37.7673 171.85 35.4167 172.62 34.8205C173.898 33.8322 176.112 33.633 177.413 34.6277C179.953 36.5693 179.078 40.761 182.694 41.8537C185.927 42.8304 187.45 38.6362 190.171 37.592C191.753 36.9848 193.49 36.5873 192.872 34.4085C192.446 32.9019 191.19 32.5149 189.824 33.0937C187.477 34.0874 186.68 38.1358 183.898 38.2082C181.019 38.2831 180.707 34.1948 179.471 32.414C177.587 29.6999 173.714 29.0443 171.513 31.6395C170.848 32.4225 167.474 37.0043 169.817 37.5041Z" fill="#FF8860"/>
<path opacity="0.7" d="M76 75C76 103.719 52.7188 127 24 127C-4.71881 127 -28 103.719 -28 75C-28 46.2812 -4.71881 23 24 23C52.7188 23 76 46.2812 76 75ZM-13.7459 75C-13.7459 95.8465 3.15352 112.746 24 112.746C44.8465 112.746 61.7459 95.8465 61.7459 75C61.7459 54.1535 44.8465 37.2541 24 37.2541C3.15352 37.2541 -13.7459 54.1535 -13.7459 75Z" fill="#FF8860"/>
</svg>
