<svg width="32" height="32" viewBox="0 0 32 32" fill="none" xmlns="http://www.w3.org/2000/svg">
<path d="M7.99999 6.33337H14.6667C15.0203 6.33337 15.3594 6.47385 15.6095 6.7239C15.8595 6.97395 16 7.31309 16 7.66671C16 8.02033 15.8595 8.35947 15.6095 8.60952C15.3594 8.85956 15.0203 9.00004 14.6667 9.00004H7.99999C7.64637 9.00004 7.30723 8.85956 7.05718 8.60952C6.80713 8.35947 6.66666 8.02033 6.66666 7.66671C6.66666 7.31309 6.80713 6.97395 7.05718 6.7239C7.30723 6.47385 7.64637 6.33337 7.99999 6.33337ZM17.3333 23H24C24.3536 23 24.6928 23.1405 24.9428 23.3906C25.1928 23.6406 25.3333 23.9798 25.3333 24.3334C25.3333 24.687 25.1928 25.0261 24.9428 25.2762C24.6928 25.5262 24.3536 25.6667 24 25.6667H17.3333C16.9797 25.6667 16.6406 25.5262 16.3905 25.2762C16.1405 25.0261 16 24.687 16 24.3334C16 23.9798 16.1405 23.6406 16.3905 23.3906C16.6406 23.1405 16.9797 23 17.3333 23ZM7.99999 14.6667H24C24.3536 14.6667 24.6928 14.8072 24.9428 15.0572C25.1928 15.3073 25.3333 15.6464 25.3333 16C25.3333 16.3537 25.1928 16.6928 24.9428 16.9428C24.6928 17.1929 24.3536 17.3334 24 17.3334H7.99999C7.64637 17.3334 7.30723 17.1929 7.05718 16.9428C6.80713 16.6928 6.66666 16.3537 6.66666 16C6.66666 15.6464 6.80713 15.3073 7.05718 15.0572C7.30723 14.8072 7.64637 14.6667 7.99999 14.6667Z" fill="url(#paint0_linear)"/>
<defs>
<linearGradient id="paint0_linear" x1="6.66666" y1="16" x2="25.3333" y2="16" gradientUnits="userSpaceOnUse">
<stop stop-color="#FE69A9"/>
<stop offset="1" stop-color="#FF8860"/>
</linearGradient>
</defs>
</svg>
