<svg width="24" height="24" viewBox="0 0 24 24" fill="none" xmlns="http://www.w3.org/2000/svg">
<path fill-rule="evenodd" clip-rule="evenodd" d="M19.6443 21.9963H21.8943H23.6443V20.2821C23.6443 19.1454 23.1833 18.0553 22.3629 17.2516C21.5424 16.4479 20.4296 15.9963 19.2693 15.9963H17.6443C17.8325 16.1375 18.0115 16.2925 18.1798 16.4608C19.1175 17.3985 19.6443 18.6703 19.6443 19.9963V21.9963ZM13 12.8412C13.473 13.288 14.0276 13.644 14.6352 13.8906C15.2722 14.149 15.9548 14.282 16.6443 14.282C18.0367 14.282 19.372 13.7402 20.3566 12.7757C21.3412 11.8113 21.8943 10.5032 21.8943 9.13919C21.8943 7.77522 21.3412 6.46712 20.3566 5.50264C19.4189 4.58405 18.1629 4.04884 16.8426 4C17.3633 4.90348 17.6443 5.93542 17.6443 6.99633C17.6443 8.58763 17.0121 10.1138 15.8869 11.239C15.087 12.0389 14.0845 12.5896 13 12.8412Z" fill="url(#paint0_linear)"/>
<path fill-rule="evenodd" clip-rule="evenodd" d="M4 21.9963H1.75H9.53674e-07V20.2821C9.53674e-07 19.1454 0.460938 18.0553 1.28141 17.2516C2.10188 16.4479 3.21468 15.9963 4.375 15.9963H5.99997C5.81179 16.1375 5.63275 16.2925 5.46447 16.4608C4.52678 17.3985 4 18.6703 4 19.9963V21.9963ZM10.6443 12.8412C10.1713 13.288 9.61667 13.644 9.00909 13.8906C8.37213 14.149 7.68944 14.282 7 14.282C5.60761 14.282 4.27226 13.7402 3.28769 12.7757C2.30312 11.8113 1.75 10.5032 1.75 9.13919C1.75 7.77522 2.30312 6.46712 3.28769 5.50264C4.22542 4.58405 5.48136 4.04884 6.80172 4C6.28098 4.90348 6 5.93542 6 6.99633C6 8.58763 6.63214 10.1138 7.75736 11.239C8.55727 12.0389 9.55978 12.5896 10.6443 12.8412Z" fill="url(#paint1_linear)"/>
<path d="M19.5 20V22.5H18H16.2426H14.5H9.5H7H6H4.5V20C4.5 18.8065 4.97411 17.6619 5.81802 16.818C6.66193 15.9741 7.80653 15.5 9 15.5H15C16.1935 15.5 17.3381 15.9741 18.182 16.818C19.0259 17.6619 19.5 18.8065 19.5 20ZM12 12.5C11.2777 12.5 10.5625 12.3577 9.89524 12.0813C9.22795 11.8049 8.62163 11.3998 8.11091 10.8891C7.60019 10.3784 7.19506 9.77205 6.91866 9.10476C6.64226 8.43747 6.5 7.72227 6.5 7C6.5 6.27773 6.64226 5.56253 6.91866 4.89524C7.19506 4.22795 7.60019 3.62163 8.11091 3.11091C8.62163 2.60019 9.22795 2.19506 9.89524 1.91866C10.5625 1.64226 11.2777 1.5 12 1.5C13.4587 1.5 14.8576 2.07946 15.8891 3.11091C16.9205 4.14236 17.5 5.54131 17.5 7C17.5 8.45869 16.9205 9.85764 15.8891 10.8891C14.8576 11.9205 13.4587 12.5 12 12.5Z" fill="url(#paint2_linear)" stroke="white"/>
<defs>
<linearGradient id="paint0_linear" x1="18.3221" y1="10.6302" x2="18.3221" y2="21.9963" gradientUnits="userSpaceOnUse">
<stop stop-color="#FE69A9"/>
<stop offset="1" stop-color="#FF8860"/>
</linearGradient>
<linearGradient id="paint1_linear" x1="5.32214" y1="10.6302" x2="5.32214" y2="21.9963" gradientUnits="userSpaceOnUse">
<stop stop-color="#FE69A9"/>
<stop offset="1" stop-color="#FF8860"/>
</linearGradient>
<linearGradient id="paint2_linear" x1="12" y1="9.10526" x2="12" y2="23" gradientUnits="userSpaceOnUse">
<stop stop-color="#FE69A9"/>
<stop offset="1" stop-color="#FF8860"/>
</linearGradient>
</defs>
</svg>
