<svg width="24" height="24" viewBox="0 0 24 24" fill="none" xmlns="http://www.w3.org/2000/svg">
<path d="M20 22H18V20C18 19.2044 17.6839 18.4413 17.1213 17.8787C16.5587 17.3161 15.7956 17 15 17H9C8.20435 17 7.44129 17.3161 6.87868 17.8787C6.31607 18.4413 6 19.2044 6 20V22H4V20C4 18.6739 4.52678 17.4021 5.46447 16.4645C6.40215 15.5268 7.67392 15 9 15H15C16.3261 15 17.5979 15.5268 18.5355 16.4645C19.4732 17.4021 20 18.6739 20 20V22ZM12 13C11.2121 13 10.4319 12.8448 9.7039 12.5433C8.97595 12.2417 8.31451 11.7998 7.75736 11.2426C7.20021 10.6855 6.75825 10.0241 6.45672 9.2961C6.15519 8.56815 6 7.78793 6 7C6 6.21207 6.15519 5.43185 6.45672 4.7039C6.75825 3.97595 7.20021 3.31451 7.75736 2.75736C8.31451 2.20021 8.97595 1.75825 9.7039 1.45672C10.4319 1.15519 11.2121 1 12 1C13.5913 1 15.1174 1.63214 16.2426 2.75736C17.3679 3.88258 18 5.4087 18 7C18 8.5913 17.3679 10.1174 16.2426 11.2426C15.1174 12.3679 13.5913 13 12 13ZM12 11C13.0609 11 14.0783 10.5786 14.8284 9.82843C15.5786 9.07828 16 8.06087 16 7C16 5.93913 15.5786 4.92172 14.8284 4.17157C14.0783 3.42143 13.0609 3 12 3C10.9391 3 9.92172 3.42143 9.17157 4.17157C8.42143 4.92172 8 5.93913 8 7C8 8.06087 8.42143 9.07828 9.17157 9.82843C9.92172 10.5786 10.9391 11 12 11Z" fill="#E0E0E0"/>
<path fill-rule="evenodd" clip-rule="evenodd" d="M17.6443 15.9963C17.8325 16.1375 18.0115 16.2925 18.1798 16.4608C18.5501 16.8311 18.8563 17.2534 19.0913 17.7106H19.2693C19.9655 17.7106 20.6332 17.9815 21.1254 18.4638C21.6177 18.946 21.8943 19.6001 21.8943 20.282V21.9963H23.6443V20.282C23.6443 19.1454 23.1833 18.0553 22.3629 17.2516C21.5424 16.4479 20.4296 15.9963 19.2693 15.9963H17.6443ZM13 12.8412C13.473 13.288 14.0276 13.644 14.6352 13.8906C15.2721 14.149 15.9548 14.282 16.6443 14.282C18.0367 14.282 19.372 13.7402 20.3566 12.7757C21.3412 11.8113 21.8943 10.5032 21.8943 9.13919C21.8943 7.77522 21.3412 6.46712 20.3566 5.50264C19.4189 4.58405 18.1629 4.04884 16.8426 4C17.1683 4.56511 17.4002 5.18048 17.5282 5.82175C18.125 5.97437 18.6755 6.28024 19.1192 6.71483C19.7755 7.35781 20.1443 8.22988 20.1443 9.13919C20.1443 10.0485 19.7755 10.9206 19.1192 11.5636C18.4628 12.2065 17.5725 12.5678 16.6443 12.5678C16.0024 12.5678 15.3786 12.395 14.8379 12.0758C14.2721 12.4315 13.6508 12.6902 13 12.8412Z" fill="#E0E0E0"/>
<path fill-rule="evenodd" clip-rule="evenodd" d="M5.99997 15.9963C5.81179 16.1375 5.63275 16.2925 5.46447 16.4608C5.09421 16.8311 4.78802 17.2534 4.55303 17.7106H4.375C3.67881 17.7106 3.01113 17.9815 2.51885 18.4638C2.02656 18.946 1.75 19.6001 1.75 20.282V21.9963H9.53674e-07V20.282C9.53674e-07 19.1454 0.460938 18.0553 1.28141 17.2516C2.10188 16.4479 3.21468 15.9963 4.375 15.9963H5.99997ZM10.6443 12.8412C10.1713 13.288 9.61667 13.644 9.00909 13.8906C8.37213 14.149 7.68944 14.282 7 14.282C5.60761 14.282 4.27226 13.7402 3.28769 12.7757C2.30312 11.8113 1.75 10.5032 1.75 9.13919C1.75 7.77522 2.30312 6.46712 3.28769 5.50264C4.22542 4.58405 5.48136 4.04884 6.80172 4C6.476 4.56511 6.24409 5.18048 6.11607 5.82175C5.51923 5.97437 4.96876 6.28024 4.52513 6.71483C3.86875 7.35781 3.5 8.22988 3.5 9.13919C3.5 10.0485 3.86875 10.9206 4.52513 11.5636C5.1815 12.2065 6.07174 12.5678 7 12.5678C7.64191 12.5678 8.26563 12.395 8.80642 12.0758C9.37213 12.4315 9.99344 12.6902 10.6443 12.8412Z" fill="#E0E0E0"/>
</svg>
