<svg width="24" height="24" viewBox="0 0 24 24" fill="none" xmlns="http://www.w3.org/2000/svg">
<circle opacity="0.2" cx="12" cy="12" r="12" fill="#FE69A9"/>
<path d="M6.66669 18.6667C6.66669 17.2522 7.22859 15.8956 8.22878 14.8954C9.22898 13.8952 10.5855 13.3333 12 13.3333C13.4145 13.3333 14.7711 13.8952 15.7713 14.8954C16.7715 15.8956 17.3334 17.2522 17.3334 18.6667H6.66669ZM12 12.6667C9.79002 12.6667 8.00002 10.8767 8.00002 8.66667C8.00002 6.45667 9.79002 4.66667 12 4.66667C14.21 4.66667 16 6.45667 16 8.66667C16 10.8767 14.21 12.6667 12 12.6667Z" fill="url(#paint0_linear)"/>
<defs>
<linearGradient id="paint0_linear" x1="6.66669" y1="11.6667" x2="17.3334" y2="11.6667" gradientUnits="userSpaceOnUse">
<stop stop-color="#FE69A9"/>
<stop offset="1" stop-color="#FF8860"/>
</linearGradient>
</defs>
</svg>
