<svg width="24" height="24" viewBox="0 0 24 24" fill="none" xmlns="http://www.w3.org/2000/svg">
<circle opacity="0.2" cx="12" cy="12" r="12" fill="#FE69A9"/>
<path d="M17.3333 18.6667H6.66667C6.48986 18.6667 6.32029 18.5964 6.19526 18.4714C6.07024 18.3464 6 18.1768 6 18V6C6 5.82319 6.07024 5.65362 6.19526 5.52859C6.32029 5.40357 6.48986 5.33333 6.66667 5.33333H17.3333C17.5101 5.33333 17.6797 5.40357 17.8047 5.52859C17.9298 5.65362 18 5.82319 18 6V18C18 18.1768 17.9298 18.3464 17.8047 18.4714C17.6797 18.5964 17.5101 18.6667 17.3333 18.6667ZM16.6667 17.3333V6.66667H7.33333V17.3333H16.6667ZM9.33333 10H14.6667V11.3333H9.33333V10ZM9.33333 12.6667H14.6667V14H9.33333V12.6667Z" fill="url(#paint0_linear)"/>
<defs>
<linearGradient id="paint0_linear" x1="6" y1="12" x2="18" y2="12" gradientUnits="userSpaceOnUse">
<stop stop-color="#FE69A9"/>
<stop offset="1" stop-color="#FF8860"/>
</linearGradient>
</defs>
</svg>
