<svg width="24" height="24" viewBox="0 0 24 24" fill="none" xmlns="http://www.w3.org/2000/svg">
<circle opacity="0.2" cx="12" cy="12" r="12" fill="#FE69A9"/>
<g clip-path="url(#clip0)">
<path d="M18.4167 6.16667H5.58333C5.42862 6.16667 5.28025 6.22813 5.17085 6.33752C5.06146 6.44692 5 6.59529 5 6.75V17.25C5 17.4047 5.06146 17.5531 5.17085 17.6625C5.28025 17.7719 5.42862 17.8333 5.58333 17.8333H18.4167C18.5714 17.8333 18.7197 17.7719 18.8291 17.6625C18.9385 17.5531 19 17.4047 19 17.25V6.75C19 6.59529 18.9385 6.44692 18.8291 6.33752C18.7197 6.22813 18.5714 6.16667 18.4167 6.16667V6.16667ZM17.8333 16.6667H16.6667V16.0833H13.75V16.6667H6.16667V7.33333H17.8333V16.6667ZM11.0025 10.6642C11.0025 10.3996 11.1076 10.1459 11.2947 9.95883C11.4817 9.77176 11.7354 9.66667 12 9.66667C12.5542 9.66667 12.9975 10.1158 12.9975 10.6642C12.9975 11.2183 12.5542 11.6675 12 11.6675C11.4458 11.6675 11.0025 11.2183 11.0025 10.6642ZM8.33083 11.5858C8.33083 11.1717 8.66917 10.8333 9.08333 10.8333C9.28291 10.8333 9.47431 10.9126 9.61543 11.0537C9.75655 11.1949 9.83583 11.3863 9.83583 11.5858C9.83583 12 9.4975 12.3325 9.08333 12.3325C8.66917 12.3325 8.33083 12 8.33083 11.5858V11.5858ZM14.1642 11.5858C14.1642 11.3863 14.2434 11.1949 14.3846 11.0537C14.5257 10.9126 14.7171 10.8333 14.9167 10.8333C15.1162 10.8333 15.3076 10.9126 15.4488 11.0537C15.5899 11.1949 15.6692 11.3863 15.6692 11.5858C15.6692 12 15.3308 12.3325 14.9167 12.3325C14.5025 12.3325 14.1642 12 14.1642 11.5858V11.5858ZM16.6667 13.8317V14.3333H7.33333V13.8317C7.33333 13.2833 8.2375 12.8342 9.08333 12.8342C9.40417 12.8342 9.73083 12.8983 10.0167 13.0092C10.4542 12.6067 11.2417 12.3325 12 12.3325C12.7583 12.3325 13.5458 12.6067 13.9833 13.0092C14.2692 12.8983 14.5958 12.8342 14.9167 12.8342C15.7625 12.8342 16.6667 13.2833 16.6667 13.8317Z" fill="url(#paint0_linear)"/>
</g>
<defs>
<linearGradient id="paint0_linear" x1="5" y1="12" x2="19" y2="12" gradientUnits="userSpaceOnUse">
<stop stop-color="#FE69A9"/>
<stop offset="1" stop-color="#FF8860"/>
</linearGradient>
<clipPath id="clip0">
<path d="M5 5H19V19H5V5Z" fill="white"/>
</clipPath>
</defs>
</svg>
