<svg width="24" height="24" viewBox="0 0 24 24" fill="none" xmlns="http://www.w3.org/2000/svg">
<circle opacity="0.2" cx="12" cy="12" r="12" fill="#FE69A9"/>
<path d="M12 19.5C7.85775 19.5 4.5 16.1423 4.5 12C4.5 7.85775 7.85775 4.5 12 4.5C16.1423 4.5 19.5 7.85775 19.5 12C19.5 16.1423 16.1423 19.5 12 19.5ZM9.375 13.5V15H11.25V16.5H12.75V15H13.5C13.9973 15 14.4742 14.8025 14.8258 14.4508C15.1775 14.0992 15.375 13.6223 15.375 13.125C15.375 12.6277 15.1775 12.1508 14.8258 11.7992C14.4742 11.4475 13.9973 11.25 13.5 11.25H10.5C10.4005 11.25 10.3052 11.2105 10.2348 11.1402C10.1645 11.0698 10.125 10.9745 10.125 10.875C10.125 10.7755 10.1645 10.6802 10.2348 10.6098C10.3052 10.5395 10.4005 10.5 10.5 10.5H14.625V9H12.75V7.5H11.25V9H10.5C10.0027 9 9.52581 9.19754 9.17418 9.54917C8.82254 9.90081 8.625 10.3777 8.625 10.875C8.625 11.3723 8.82254 11.8492 9.17418 12.2008C9.52581 12.5525 10.0027 12.75 10.5 12.75H13.5C13.5995 12.75 13.6948 12.7895 13.7652 12.8598C13.8355 12.9302 13.875 13.0255 13.875 13.125C13.875 13.2245 13.8355 13.3198 13.7652 13.3902C13.6948 13.4605 13.5995 13.5 13.5 13.5H9.375Z" fill="url(#paint0_linear)"/>
<defs>
<linearGradient id="paint0_linear" x1="4.5" y1="12" x2="19.5" y2="12" gradientUnits="userSpaceOnUse">
<stop stop-color="#FE69A9"/>
<stop offset="1" stop-color="#FF8860"/>
</linearGradient>
</defs>
</svg>
