<svg width="251" height="179" viewBox="0 0 251 179" fill="none" xmlns="http://www.w3.org/2000/svg">
<g opacity="0.3">
<path fill-rule="evenodd" clip-rule="evenodd" d="M131.272 67.7648C131.077 67.4842 130.73 67.8178 130.875 68.0205C131.007 67.9354 131.139 67.8501 131.272 67.7648ZM136.636 69.3239C136.418 69.2154 136.344 69.3862 136.258 69.5833C136.233 69.641 136.207 69.7011 136.176 69.7571C136.371 69.8646 136.462 69.6757 136.553 69.4843C136.58 69.4288 136.607 69.3728 136.636 69.3239ZM132.858 62.5907C132.42 62.0321 132.388 62.2196 132.352 62.8562C132.436 62.8119 132.521 62.7677 132.606 62.7232C132.69 62.6792 132.774 62.6349 132.858 62.5907ZM192.718 32.3808C192.166 32.6389 192.108 32.8264 192.554 33.1422C192.607 32.8966 192.646 32.7164 192.718 32.3808ZM131.077 58.4257C131.208 58.8525 131.741 58.9444 131.741 58.4257H131.077ZM172.408 36.4313C172.726 36.5325 172.889 36.5844 173.032 36.5516C173.181 36.5176 173.309 36.392 173.571 36.1353C173.442 36.1683 173.326 36.1979 173.215 36.226C173.126 36.2487 173.04 36.2705 172.953 36.2927C172.786 36.3353 172.615 36.3788 172.408 36.4313ZM157.655 80.1803C157.466 79.9148 157.278 79.6496 157.09 79.3841C157.027 79.5792 156.963 79.7745 156.9 79.9696L156.899 79.9708L156.853 80.1148C157.12 80.1365 157.387 80.1583 157.655 80.1803ZM195.776 25.8561C195.701 26.2105 195.665 26.3858 195.735 26.486C195.803 26.5841 195.974 26.6102 196.312 26.6623L196.058 26.2807L196.027 26.2328C195.949 26.1164 195.868 25.9947 195.776 25.8561ZM192.791 26.9649C192.768 26.8495 192.745 26.7339 192.721 26.6185L192.718 26.6009C192.695 26.4914 192.673 26.3819 192.651 26.2721C192.611 26.4484 192.458 26.4389 192.31 26.4293C192.182 26.4213 192.057 26.4134 192.01 26.5242C191.775 27.0722 192.522 26.9979 192.791 26.9649ZM135.952 67.8594C135.788 67.535 135.752 67.5098 135.394 67.4419C135.486 67.7655 135.486 68.0183 135.485 68.3422V68.4094C136.069 68.3268 136.253 68.2842 136.264 67.6631L135.952 67.8594ZM134.248 69.0051C134.171 69.2924 133.952 69.2229 133.766 69.1635C133.598 69.1098 133.455 69.0645 133.468 69.3004C133.461 69.164 134.139 70.0602 134.1 70.0314C134.441 70.2883 134.64 70.2641 135.026 69.9693C134.475 69.9485 134.411 69.6732 134.326 69.3036C134.304 69.2095 134.281 69.109 134.248 69.0051ZM197.045 26.6965C196.925 26.9727 196.805 27.2492 196.685 27.5254L196.658 27.5866C196.547 27.8425 196.436 28.0984 196.324 28.3541C196.274 28.4703 196.235 28.5727 196.201 28.6612C196.041 29.0802 195.997 29.1938 195.413 29.0102C195.433 28.976 195.481 28.9083 195.541 28.8235V28.8232C195.721 28.5678 196.012 28.1569 195.979 28.0324C195.949 27.9153 195.661 27.7706 195.401 27.6396C195.239 27.5584 195.089 27.4827 195.016 27.4218C194.804 27.2458 194.727 27.0854 194.645 26.9158C194.598 26.816 194.548 26.7126 194.468 26.6012C194.554 26.3215 194.487 26.1907 194.269 26.2096C194.206 26.3785 194.144 26.5471 194.081 26.7158L194.077 26.7266L194.028 26.8576C194.039 27.1175 194.168 27.2167 194.32 27.3333C194.436 27.423 194.566 27.5228 194.665 27.7137L194.685 27.7501C194.829 28.0266 194.871 28.1063 194.848 28.1566C194.838 28.1769 194.818 28.1923 194.79 28.2141C194.732 28.2593 194.639 28.3314 194.533 28.5301C194.436 28.7132 194.369 28.9139 194.303 29.109C194.179 29.4803 194.061 29.8321 193.757 30.0071C194.006 30.1164 194.255 30.2257 194.503 30.3347C193.923 30.9722 195.131 30.6618 195.33 30.5999L195.33 30.6011L195.329 30.6024C195.125 31.0355 194.921 31.4685 194.718 31.9016C194.265 31.6481 193.981 31.2265 193.699 30.807C193.6 30.6596 193.501 30.5122 193.395 30.3726C193.085 30.9495 192.774 31.5266 192.464 32.1038C192.605 32.0908 192.747 32.0776 192.888 32.0647C193.056 32.0493 193.223 32.0339 193.39 32.0182C193.381 32.0368 193.353 32.0796 193.316 32.1361L193.316 32.1363C193.19 32.3302 192.959 32.6861 192.986 32.7822C193.048 33.0107 193.296 33.0779 193.539 33.1437C193.835 33.2239 194.123 33.3019 194.059 33.6651C194.044 33.7499 193.101 34.7001 192.94 34.7918C193.039 34.8365 193.127 34.8678 193.203 34.895C193.486 34.9959 193.592 35.0336 193.458 35.4748C193.238 35.3421 193.018 35.2091 192.798 35.0761C192.757 35.1502 192.714 35.2237 192.672 35.2976L192.671 35.2978C192.52 35.5589 192.368 35.8217 192.275 36.1087C192.298 36.3495 192.255 36.5775 192.146 36.7931C192.016 36.986 191.87 37.1659 191.708 37.3326C191.579 37.6712 191.538 39.5193 191.693 39.8207C192.039 39.3741 192.812 40.1624 191.507 40.1624C191.399 40.1624 191.312 40.1583 191.241 40.1546C190.942 40.1397 190.933 40.1392 190.756 40.5452C190.585 40.94 190.492 41.2845 190.979 41.3224C190.685 41.9017 190.677 42.3742 190.669 42.936C190.667 43.0734 190.665 43.2161 190.658 43.367C190.637 43.8488 190.528 44.3281 190.42 44.8034C190.388 44.9422 190.357 45.0806 190.327 45.2187C190.385 45.1356 190.443 45.0525 190.501 44.9691C190.559 44.886 190.617 44.8029 190.675 44.7195C190.931 45.2659 190.817 45.7416 190.686 46.2882C190.657 46.4077 190.627 46.5309 190.601 46.6588C190.415 46.4131 190.322 46.56 190.225 46.715C190.153 46.8299 190.078 46.9492 189.96 46.9154C189.626 46.8201 189.637 46.7397 189.654 46.6133C189.667 46.5258 189.682 46.4163 189.588 46.2644C189.544 46.1945 189.511 46.1354 189.483 46.0836C189.379 45.8983 189.329 45.8083 189.041 45.6548C188.692 45.4683 188.153 45.4103 187.672 45.3588C187.482 45.3382 187.301 45.3189 187.144 45.2927C186.228 45.14 185.31 45.1001 184.383 45.0598L184.346 45.0581C180.828 44.9055 177.323 44.8664 173.805 45.0598C170.57 45.2377 167.255 45.6915 164.082 46.306C163.856 46.3498 163.63 46.3935 163.405 46.437C160.262 47.0433 157.181 47.6375 154.128 48.6701C153.847 48.7654 153.565 48.9067 153.284 49.0478V49.048C152.933 49.224 152.582 49.4 152.231 49.4868C151.985 49.5482 151.737 49.5839 151.488 49.6201C151.133 49.6714 150.774 49.7232 150.406 49.8508C149.578 50.1383 148.734 50.3874 147.89 50.6365C147.208 50.8377 146.526 51.0391 145.852 51.2606C145.421 51.4026 144.98 51.5383 144.536 51.6749C143.308 52.0528 142.057 52.4376 140.921 52.981C140.58 53.1441 140.256 53.3365 139.931 53.5288C139.615 53.7161 139.299 53.9036 138.967 54.064C138.829 54.1314 138.669 54.1974 138.501 54.2668C137.903 54.5142 137.198 54.8061 136.937 55.3591C136.806 55.6353 136.829 55.8355 136.91 56.1218C137.059 56.6517 137.18 56.64 137.544 56.6046C137.575 56.6014 137.607 56.5984 137.641 56.5953C138.027 56.5613 138.485 56.3594 138.92 56.1677C139.176 56.0548 139.424 55.9455 139.644 55.8758C141.275 55.362 142.926 54.9506 144.584 54.5389C145.837 54.2282 147.091 53.8166 148.342 53.4059C150.068 52.8397 151.789 52.275 153.493 51.978C154.368 51.8255 155.221 51.5412 156.075 51.2567C156.921 50.9746 157.768 50.692 158.64 50.5367C158.765 50.5145 158.968 50.4414 159.195 50.3595C159.665 50.1896 160.241 49.9816 160.454 50.1094C160.51 50.1432 160.62 50.4241 160.708 50.6494C160.752 50.7607 160.79 50.8584 160.814 50.9059C161.073 51.4231 161.37 51.9225 161.717 52.3858C162.487 53.4113 163.449 54.2903 164.402 55.1615L164.402 55.1618C164.747 55.4771 165.091 55.7915 165.425 56.1112C166.476 57.1206 167.427 58.2064 168.381 59.2962V59.2965C168.727 59.6913 169.073 60.0868 169.425 60.4791C169.487 60.407 169.549 60.3346 169.612 60.2625L169.769 60.0797C169.658 60.9377 170.24 61.5755 170.779 62.1649C170.801 62.1898 170.824 62.2145 170.846 62.2394C170.87 62.2653 170.894 62.2912 170.917 62.3169C171.594 63.0689 172.139 63.7756 172.673 64.6329C172.977 65.1201 173.34 65.5654 173.699 66.0059C173.857 66.201 174.016 66.3954 174.168 66.5919C174.451 66.9586 174.679 67.3693 174.909 67.7821C175.074 68.0794 175.239 68.3776 175.427 68.6617C175.819 69.256 176.208 69.8544 176.597 70.4528C177.23 71.4255 177.863 72.3977 178.505 73.3503C178.994 74.0746 179.379 74.8896 179.766 75.7141C179.858 75.9117 180.007 76.1713 180.169 76.4548V76.4551C180.546 77.1119 180.996 77.8983 180.996 78.3415C180.973 78.4457 181.034 78.7248 181.098 79.0169C181.225 79.597 181.362 80.2277 180.883 79.6415C180.85 79.6919 180.818 79.7422 180.785 79.7926L180.738 79.8664C180.706 79.9156 180.674 79.9647 180.642 80.0136C180.607 80.0676 180.573 80.1216 180.538 80.1754C180.735 80.0928 180.932 80.0102 181.129 79.9275C180.752 80.2693 181.056 80.4233 181.339 80.5663C181.505 80.6501 181.664 80.7301 181.673 80.842C181.627 80.886 181.582 80.9298 181.536 80.9735L181.374 81.1302C181.204 81.4808 180.982 81.5262 180.71 81.2666C180.586 81.2742 180.502 81.2498 180.424 81.2265C180.313 81.1938 180.211 81.1637 180.016 81.229C180.155 81.4458 180.311 81.5089 180.457 81.5673C180.646 81.6433 180.817 81.712 180.909 82.1012C181.023 82.5896 180.754 82.7693 180.396 83.0079C180.3 83.0719 180.197 83.1401 180.094 83.2198V83.2193L180.081 83.2171C180.108 82.8346 179.921 82.5529 179.585 82.3747V83.1264C179.677 83.1433 179.77 83.1602 179.862 83.177L179.865 83.1775L180.081 83.2171C180.081 83.2215 180.081 83.2262 180.08 83.2306L180.094 83.2198C180.015 83.5227 179.783 83.467 179.506 83.4005C179.458 83.3887 179.408 83.3768 179.357 83.3662C178.759 83.2433 178.114 83.0343 177.503 82.8365C177.312 82.7744 177.123 82.7136 176.941 82.6566C175.289 82.1415 173.625 81.7074 171.917 81.3551C169.017 80.757 166.136 80.6249 163.23 80.4917H163.23C162.231 80.4458 161.229 80.3998 160.223 80.3348C160.228 80.3133 160.233 80.293 160.238 80.2737C160.287 80.0683 160.308 79.9847 160.295 79.9063C160.287 79.8525 160.263 79.8014 160.223 79.7149C160.217 79.7024 160.211 79.6892 160.204 79.675C160.267 79.8107 160.155 79.8224 160.042 79.8341C159.871 79.852 159.696 79.8703 160.128 80.3265C158.999 80.511 157.814 80.4959 156.637 80.4807C155.908 80.4714 155.183 80.4621 154.475 80.5C154.494 80.4577 154.518 80.4137 154.543 80.3697C154.63 80.2143 154.718 80.0563 154.574 79.9478C153.945 80.8567 152.262 80.8352 150.825 80.8166C150.256 80.8095 149.727 80.8027 149.316 80.854C148.82 80.9163 148.328 81.0119 147.835 81.1073C147.482 81.1757 147.13 81.2441 146.776 81.3001C146.717 81.3097 146.658 81.319 146.599 81.328C146.241 81.3837 145.883 81.4397 145.533 81.5341C145.406 81.5685 145.249 81.6392 145.084 81.7137C144.765 81.8582 144.413 82.0171 144.179 81.9536C144.538 81.2295 144.363 81.4387 144.194 81.6411C144.118 81.7318 144.043 81.8211 144.018 81.8247C143.968 81.8321 143.912 81.8411 143.851 81.8511C143.604 81.891 143.275 81.9443 142.991 81.9443C143.158 81.275 143.373 80.6274 143.589 79.9801C143.897 79.0575 144.204 78.1357 144.368 77.153C144.389 77.0264 144.415 76.8904 144.442 76.7479V76.7477C144.637 75.7166 144.896 74.342 143.99 73.693C143.542 73.3713 142.865 73.2498 142.278 73.1445H142.278C142.126 73.1173 141.981 73.0912 141.846 73.0628C141.623 73.0159 141.348 72.9841 141.056 72.9504C140.411 72.876 139.683 72.792 139.254 72.513C139.071 72.394 138.942 72.2786 138.818 72.1681C138.614 71.9845 138.424 71.8146 138.026 71.6636C137.881 71.6083 137.751 71.5533 137.63 71.5022C137.14 71.2944 136.804 71.1519 136.208 71.3328C136.256 71.2724 136.307 71.2145 136.357 71.1583C136.619 70.863 136.839 70.6161 136.34 70.291C136.243 70.2279 136.109 70.224 135.978 70.2198C135.779 70.2137 135.586 70.2078 135.535 69.9996C135.212 70.2276 135.182 70.4237 135.142 70.6799C135.128 70.7733 135.112 70.8747 135.081 70.9886C135.092 71.169 135.139 71.3411 135.224 71.5044L134.925 71.6247L134.524 71.786C134.613 71.5484 134.493 71.5372 134.364 71.525C134.277 71.5169 134.186 71.5083 134.151 71.4294C134.055 71.213 134.072 70.9124 134.088 70.6417C134.093 70.5467 134.098 70.4552 134.098 70.3726C133.618 70.5244 133.115 70.7122 132.905 71.2123C132.439 70.9346 132.488 70.8618 132.679 70.5821C132.729 70.5085 132.789 70.4208 132.852 70.3112C132.358 70.1944 132.253 70.4486 132.178 70.8578C131.991 70.7999 131.803 70.7422 131.616 70.6845L131.611 70.6826L131.396 70.6163C131.983 70.6122 132.124 70.1531 132.138 69.6544C132.04 69.6864 131.942 69.7184 131.843 69.7505L131.84 69.7514C131.711 69.7935 131.582 69.8355 131.452 69.8776L131.312 70.6014C130.984 70.8789 130.18 70.4484 129.809 70.2497L129.808 70.2494C129.771 70.2296 129.739 70.2122 129.711 70.1978L129.616 70.1487C128.629 69.638 128.268 69.4518 128.413 68.2415C128.465 67.8107 128.542 67.379 128.619 66.9466C128.729 66.3294 128.84 65.7109 128.876 65.0922C128.936 64.0613 128.837 62.9674 128.742 61.9243C128.73 61.7852 128.717 61.6471 128.705 61.51C128.632 60.6764 128.542 59.847 128.452 59.0185V59.0183C128.299 57.6073 128.146 56.1983 128.075 54.7726C128.059 54.4446 128.043 54.1165 128.026 53.7882L128.026 53.788C127.98 52.8908 127.935 51.9937 127.899 51.0961C127.893 50.9352 127.879 50.7719 127.864 50.6106C127.793 49.7946 127.726 49.0353 128.741 48.963C128.592 48.4912 129.037 47.9455 129.496 47.6872C129.657 47.3212 129.832 47.2885 130.023 47.5894C130.189 47.6414 130.343 47.617 130.486 47.5156C130.895 47.4229 131.354 47.032 131.786 46.6639C132.061 46.4297 132.325 46.2048 132.559 46.0716C132.718 45.9806 132.93 45.8782 133.161 45.7663H133.161C133.781 45.4656 134.547 45.0947 134.853 44.6828C135.081 44.377 134.988 44.2616 134.885 44.1316C134.803 44.0289 134.714 43.9175 134.769 43.6965C134.928 43.055 135.48 43.8774 135.628 44.0966C135.637 44.1113 135.646 44.1235 135.652 44.1321C135.718 44.0658 135.843 43.981 135.983 43.8864C136.281 43.685 136.644 43.4391 136.638 43.2337L136.058 43.1303C136.12 43.0946 136.204 43.0379 136.298 42.9746C136.525 42.8218 136.81 42.6299 136.984 42.5959C137.073 42.5786 137.136 42.56 137.183 42.5461C137.241 42.529 137.275 42.5187 137.305 42.5265C137.347 42.5373 137.379 42.5845 137.459 42.6986C137.49 42.7441 137.529 42.8001 137.579 42.8685C137.612 42.8179 137.658 42.7346 137.711 42.6385V42.6382C137.846 42.3923 138.028 42.0616 138.156 41.9753C138.206 41.9415 138.4 41.9144 138.573 41.8905C138.694 41.8733 138.805 41.8579 138.848 41.8425C139.152 41.7352 139.27 41.556 139.384 41.3835C139.475 41.2453 139.564 41.1111 139.742 41.0212C139.847 40.9689 139.964 40.9874 140.076 41.0053C140.173 41.0209 140.265 41.0356 140.341 41.0024C140.479 40.9425 140.544 40.8063 140.609 40.6702C140.669 40.5467 140.728 40.4233 140.841 40.356C140.952 40.2898 141.155 40.289 141.357 40.2883C141.529 40.2878 141.699 40.2871 141.812 40.246C142.084 40.1468 142.166 40.0522 142.281 39.9194C142.338 39.8537 142.403 39.7786 142.504 39.6887C142.747 39.4714 142.98 39.3966 143.223 39.3181C143.404 39.2597 143.591 39.1993 143.794 39.0763C144.034 38.9304 144.139 38.6945 144.235 38.4769C144.336 38.2506 144.428 38.044 144.655 37.9785C144.911 37.9049 145.085 37.9675 145.226 38.0181C145.412 38.0851 145.541 38.1313 145.725 37.8145C145.754 37.7643 145.719 37.7042 145.679 37.6372C145.619 37.5372 145.551 37.4224 145.675 37.3023C145.896 37.0882 146.005 37.2815 146.107 37.462C146.122 37.4893 146.137 37.5165 146.153 37.5419L146.154 37.5404L146.155 37.539C146.289 37.2859 146.423 37.0329 146.557 36.7799C146.952 36.9968 147.005 36.91 147.098 36.7543C147.158 36.6553 147.234 36.5284 147.426 36.4338C147.532 36.382 147.628 36.4042 147.726 36.4269C147.833 36.4514 147.942 36.4766 148.066 36.4086C148.172 36.3514 148.226 36.2536 148.279 36.1568C148.314 36.0916 148.35 36.0268 148.401 35.9747C148.475 35.8994 148.538 35.8156 148.602 35.732C148.749 35.5398 148.894 35.3491 149.157 35.2665C149.021 35.3091 150.14 35.2768 150.04 35.2289C149.932 35.069 149.823 34.9091 149.714 34.7493C149.832 34.7493 149.948 34.7517 150.061 34.7542H150.061C150.509 34.7632 150.926 34.772 151.378 34.6314L151.387 34.6287C151.588 34.5664 151.895 34.4716 152.059 34.3459L152.073 34.3356C152.276 34.1804 152.365 34.1127 152.401 34.0235C152.43 33.9541 152.427 33.8717 152.421 33.7255C152.418 33.649 152.415 33.5551 152.415 33.4363C153.048 33.8392 153.853 33.6984 154.478 33.2312C154.618 33.1268 154.736 33.0136 154.853 32.901C155.01 32.7504 155.166 32.601 155.371 32.4749C155.524 32.3954 155.68 32.3211 155.839 32.2522C156.037 32.0468 156.236 32.0449 156.435 32.2466C156.634 32.1933 156.691 32.1517 156.784 32.084C156.822 32.0556 156.868 32.0226 156.932 31.9823C156.995 31.8586 157.061 31.7371 157.132 31.6181C157.367 31.5936 157.597 31.5513 157.825 31.4912C158.081 31.4225 158.308 31.324 158.521 31.2316C159.043 31.005 159.481 30.8148 160.064 31.1861L160.128 31.0553L160.13 31.0507C160.213 30.8818 160.296 30.7129 160.379 30.5439C160.626 30.9304 160.818 30.7818 161.074 30.5835C161.179 30.5019 161.295 30.4119 161.43 30.3474C161.529 30.3002 161.643 30.2711 161.755 30.2428C161.862 30.2154 161.966 30.1888 162.052 30.1472C162.151 30.1704 162.25 30.1939 162.349 30.2174C162.433 29.9582 162.517 29.6991 162.6 29.44C162.645 29.4574 162.724 29.495 162.82 29.5407C163.089 29.6688 163.492 29.8605 163.64 29.8463C163.798 29.8314 163.973 29.6779 164.145 29.527C164.287 29.4028 164.426 29.2804 164.552 29.2388C164.795 29.1589 164.85 29.1845 164.93 29.2222C164.99 29.2508 165.064 29.2857 165.245 29.287C165.287 29.2872 165.326 29.2884 165.363 29.2894C165.608 29.2958 165.755 29.2997 165.997 29.0645C165.216 28.8619 165.901 28.7482 166.383 28.668C166.481 28.6516 166.572 28.6367 166.639 28.6225C166.81 28.5871 166.958 28.5717 167.092 28.558C167.441 28.5221 167.693 28.4962 168.003 28.1437H167.558C167.883 27.8476 167.886 27.8484 168.054 27.8845C168.113 27.897 168.192 27.9141 168.312 27.9241C168.344 27.9268 168.4 27.9459 168.468 27.9691C168.707 28.0505 169.091 28.1813 169.092 27.82C169.69 28.1723 169.696 28.173 170.313 28.0141C170.424 27.9853 170.529 27.9298 170.635 27.874C170.787 27.7936 170.941 27.7125 171.118 27.7093C171.257 27.7068 171.377 27.7357 171.494 27.7633C171.622 27.7939 171.744 27.8229 171.881 27.808C172.021 27.7931 172.476 27.6264 172.702 27.5438C172.727 27.5342 172.75 27.5259 172.769 27.5191C172.912 27.467 173.031 27.3864 173.148 27.3069C173.271 27.2233 173.392 27.1412 173.535 27.0959C173.7 27.0441 173.888 27.0527 174.077 27.0612C174.243 27.0688 174.409 27.0764 174.561 27.0431C174.875 26.974 175.148 26.8659 175.408 26.7625C175.945 26.5491 176.431 26.356 177.134 26.5665C177.242 25.6586 178.345 25.8294 178.982 25.9282L179.036 25.9365C179.153 25.9546 179.254 25.9803 179.348 26.0045C179.607 26.0702 179.815 26.1233 180.146 25.9666C180.306 25.891 180.436 25.7962 180.565 25.7018C180.733 25.5789 180.901 25.4566 181.132 25.3782C181.396 25.2887 181.737 25.2198 182.033 25.1596C182.09 25.1481 182.144 25.1371 182.197 25.1261C182.399 25.0621 182.606 25.0416 182.818 25.0648C183.044 25.0966 183.231 25.199 183.379 25.3718C183.375 25.3813 183.378 25.3865 183.39 25.3855C183.387 25.3809 183.383 25.3765 183.379 25.3718C183.411 25.2955 183.905 24.9294 183.848 24.9746C183.964 24.8819 184.06 24.8296 184.145 24.7834C184.331 24.6827 184.461 24.6118 184.616 24.2178C184.485 24.1901 184.353 24.1623 184.221 24.1344C184.089 24.1068 183.958 24.0789 183.826 24.051C183.873 24.0479 183.918 24.0447 183.963 24.0413C184.304 24.0156 184.58 23.9951 184.9 24.1349C185.006 24.1813 185.143 24.3124 185.285 24.4478C185.476 24.6316 185.677 24.8235 185.821 24.8238C186.274 24.8242 186.433 24.186 186.388 23.8538C186.768 24.7389 187.092 24.8863 187.946 24.4339C187.996 24.4072 188.046 24.3808 188.096 24.3542L188.102 24.3507C188.151 24.3253 188.199 24.2999 188.247 24.2742C188.45 24.0613 188.652 24.0652 188.853 24.2862C188.972 24.3512 189.091 24.416 189.211 24.481L189.301 24.3304C189.414 24.142 189.528 23.9535 189.641 23.7648C189.946 24.1843 190.235 24.2048 190.732 24.1068C190.901 24.0735 191.157 23.9058 191.404 23.7443C191.658 23.578 191.902 23.4186 192.03 23.4186C192.1 23.4186 192.179 23.4998 192.269 23.5922C192.368 23.6936 192.48 23.8088 192.607 23.8452C193.012 23.9611 193.639 23.6697 193.783 23.283C193.86 23.4443 193.937 23.6059 194.013 23.7675C194.06 23.7232 194.108 23.6787 194.156 23.6345C194.299 23.5005 194.443 23.3663 194.585 23.2314C194.636 23.6716 194.972 23.6648 195.265 23.6589C195.481 23.6545 195.674 23.6506 195.711 23.8264C195.755 24.0322 195.155 24.4788 194.797 24.7448C194.702 24.8154 194.624 24.8736 194.58 24.9108C195.146 25.252 195.842 24.6561 196.353 24.2178C196.457 24.129 196.553 24.0466 196.639 23.9799C196.902 24.2652 196.991 24.415 196.749 24.7414C196.528 25.0411 196.427 24.9785 196.31 24.9056C196.201 24.8384 196.079 24.7626 195.836 24.955C196.004 25.2371 196.156 25.1662 196.346 25.0775C196.394 25.0545 196.446 25.0306 196.501 25.011C196.433 25.4087 196.493 25.4278 196.596 25.4601C196.669 25.4833 196.765 25.5134 196.85 25.6933C196.975 25.9585 196.995 26.1714 197.018 26.4286C197.025 26.5122 197.033 26.6004 197.045 26.6965ZM119.054 61.0873C119.282 61.0678 119.346 61.1731 119.404 61.268C119.453 61.3482 119.498 61.4205 119.632 61.4029C119.746 61.388 119.838 61.2672 119.932 61.1433C120.014 61.0357 120.098 60.9257 120.199 60.8815C120.66 60.6798 121.33 60.6488 121.944 60.6204C122.232 60.6072 122.508 60.5943 122.745 60.5647C123.136 60.516 123.503 60.4016 123.867 60.2884V60.2882C124.208 60.1821 124.546 60.0768 124.897 60.0276C125.196 59.9861 125.413 60.0401 125.696 60.1227C125.717 60.1288 125.736 60.1344 125.756 60.1401C126.02 60.2171 126.15 60.255 126.229 60.3403C126.305 60.4231 126.333 60.551 126.388 60.803L126.39 60.8133C126.679 62.1458 126.456 63.5629 126.232 64.979C125.94 66.8342 125.648 68.6874 126.508 70.3465C122.075 70.3105 117.633 70.399 113.225 70.9185C113.225 70.5288 113.228 70.1394 113.231 69.75C113.241 68.4649 113.251 67.1813 113.153 65.8969C113.109 65.3095 113.048 64.7238 112.986 64.1378V64.1376C112.968 63.9662 112.95 63.7946 112.933 63.623C112.841 62.7193 112.862 62.7149 113.519 62.5799C113.561 62.5714 113.605 62.5623 113.653 62.5523C113.887 62.5032 114.036 62.3976 114.193 62.2864C114.313 62.2013 114.438 62.1128 114.609 62.0436C114.808 61.9632 114.933 62.003 115.082 62.0505C115.155 62.0737 115.234 62.0989 115.331 62.1123C115.708 62.1656 115.816 62.1348 116.027 62.0754C116.108 62.0522 116.205 62.0248 116.339 61.9962C116.589 61.9429 116.83 61.9072 117.063 61.8727C117.789 61.7652 118.439 61.6686 119.054 61.0873ZM196.983 33.7057C196.919 33.6683 196.855 33.6311 196.791 33.5937C196.033 35.1986 195.537 36.8711 195.034 38.5657C194.961 38.8126 194.887 39.0599 194.813 39.3078C194.51 40.3186 194.208 41.3297 193.907 42.3412C193.851 42.5273 193.784 42.7201 193.715 42.9172C193.487 43.5716 193.243 44.2714 193.367 44.9116C194.324 43.4366 195.235 41.9315 196.1 40.401C196.522 39.6547 196.933 38.9025 197.335 38.1454C197.387 38.0474 197.452 37.943 197.519 37.8355C197.664 37.6018 197.819 37.3524 197.875 37.1148C197.947 36.81 198.02 36.7198 198 36.6648C197.98 36.6137 197.88 36.5932 197.623 36.4597C197.828 36.227 197.962 36.2913 198.073 36.3448C198.137 36.3751 198.193 36.4023 198.251 36.3685C198.394 36.2856 198.588 36.0285 198.742 35.8249C198.806 35.741 198.862 35.666 198.905 35.6163C198.786 35.5824 198.589 35.5454 198.36 35.5024C197.771 35.3917 196.971 35.2418 196.751 35.001C196.4 34.616 196.775 34.2804 197.143 33.9511C197.178 33.9203 197.212 33.8898 197.246 33.859C197.158 33.8079 197.07 33.7568 196.983 33.7057Z" fill="#FF5678"/>
<path fill-rule="evenodd" clip-rule="evenodd" d="M96.9504 98.7794C96.8468 99.3131 96.5876 99.5644 96.8592 100.055C97.0897 100.471 97.7507 100.743 98.1944 100.638L96.9504 98.7794ZM84.9297 79.7987L82.7411 80.5489C83.3393 81.1358 83.9093 81.7528 84.5689 82.274L84.9297 79.7987ZM121.03 81.7201C119.986 81.194 118.817 81.1346 117.673 81.0671C117.847 82.0066 118.021 82.9463 118.195 83.8857C119.14 83.1638 120.085 82.4419 121.03 81.7201ZM95.9657 154.444C95.7575 154.075 94.3367 151.225 94.0414 151.371C93.8847 151.448 93.8725 153.035 93.8495 153.261C93.7681 154.064 93.6865 154.866 93.6051 155.669C94.4455 155.372 95.3431 155.126 95.9657 154.444ZM86.039 131.403C86.2539 132.033 86.469 132.663 86.6839 133.292C86.7861 133.592 86.8459 134.034 87.0268 134.298C87.2618 134.641 87.0845 134.842 87.3982 134.467C87.735 134.064 87.8357 132.989 87.9819 132.495C88.2041 131.745 88.4261 130.995 88.6481 130.245C87.6016 130.236 86.9672 131.098 86.039 131.403ZM64.0476 94.3096C62.7608 95.1892 61.4581 96.0616 60.3385 97.1548C61.3234 97.0935 62.6948 97.7711 63.6225 97.4528C64.0507 97.5442 64.1923 97.3817 64.0476 96.9646V96.0983V94.3096ZM83.1276 100.531V105.667C84.3291 104.643 85.5936 103.692 86.7496 102.615C85.5423 101.921 84.3352 101.226 83.1276 100.531ZM126.078 113.837C125.699 116.123 125.678 118.476 125.574 120.789C125.556 121.2 125.398 121.818 125.671 122.178C125.946 122.539 126.728 122.738 127.125 122.931C128.244 123.473 129.354 124.031 130.47 124.579C129.006 120.999 127.542 117.418 126.078 113.837ZM154.472 99.778C157.23 98.4218 159.99 97.0656 162.749 95.7091C160.044 94.5639 157.338 93.4188 154.633 92.2736C154.579 94.7751 154.525 97.2768 154.472 99.778ZM126.072 106.163C126.577 106.2 126.656 104.279 126.74 103.771C126.899 102.807 127.061 101.843 127.228 100.881C127.562 98.9557 127.914 97.0338 128.283 95.1156C129.022 91.2796 129.838 87.4581 130.741 83.6576C129.77 83.4826 128.878 83.3567 127.93 83.0741C127.164 82.8458 126.252 82.97 125.568 82.4952C125.479 84.2761 125.924 86.1694 126.089 87.9502C126.279 90.0107 126.382 92.0604 126.365 94.1302C126.332 98.1414 126.179 102.154 126.072 106.163ZM62.5679 160.51C63.046 160.382 62.3951 153.828 62.366 152.883C62.2829 150.146 62.2667 147.407 62.3156 144.67C59.7396 146.285 57.1036 147.773 54.3824 149.115C55.0818 150.022 55.7372 151 56.5111 151.845C57.3085 152.714 58.2232 153.427 58.9622 154.363C60.45 156.249 61.4691 158.39 62.5679 160.51ZM124.558 121.735C124.678 119.764 124.789 117.796 124.988 115.831C125.072 114.994 125.881 110.549 124.587 110.654C123.85 110.713 122.559 111.791 121.884 112.168C120.992 112.667 120.099 113.164 119.203 113.655C117.434 114.624 115.654 115.572 113.879 116.529C117.439 118.265 120.998 120 124.558 121.735ZM116.873 80.7408C115.399 80.6308 113.973 80.5213 112.519 80.2468C111.735 80.0986 110.951 80.1192 110.162 80.0192C109.598 79.9476 108.494 79.4838 107.968 79.6356C107.307 79.8263 107.067 83.1389 106.976 83.9703C106.829 85.3094 106.731 86.934 107.329 88.192C108.482 90.6169 111.588 88.7241 113.099 87.707C114.395 86.8348 115.862 85.9515 117.011 84.8928C118.029 83.9549 117.115 81.9528 116.873 80.7408ZM124.519 107.111C125.629 106.662 125.612 106.098 125.66 104.936C125.719 103.524 125.753 102.11 125.793 100.697C125.865 98.1798 125.933 95.6612 125.911 93.1424C125.889 90.682 125.768 88.2254 125.487 85.7802C125.387 84.9156 125.486 83.4388 125.031 82.7013C124.615 82.0286 123.324 82.0215 122.62 82.063C121.826 82.1097 121.183 82.8639 120.597 83.3406C119.948 83.8688 118.614 84.6124 118.508 85.4001C118.389 86.2796 118.872 87.5346 119.059 88.3878C119.744 91.5014 120.577 94.5844 121.455 97.6484C122.365 100.827 123.287 104.038 124.519 107.111ZM96.297 99.6583C96.3686 98.9586 96.6289 98.3744 96.2769 97.708C95.9745 97.135 95.4822 96.5593 95.1124 96.0169C94.0539 94.4631 92.8668 92.9749 91.7137 91.4906C90.6577 90.1312 89.5758 88.7862 88.4689 87.4679C87.8524 86.7338 87.2168 86.0156 86.5851 85.2945C86.1224 84.7667 85.6838 84.025 85.0294 83.7488C84.5471 86.7793 84.1487 89.8229 83.8377 92.8759C83.6876 94.3517 83.5581 95.8296 83.4493 97.3091C83.4185 97.7266 83.0946 99.1368 83.3016 99.5258C83.5194 99.9342 84.8505 100.481 85.258 100.731C86.3971 101.431 87.2823 102.486 88.3657 101.335C89.1115 100.543 89.7122 99.4255 90.5457 98.734C90.9801 98.3737 91.3891 98.3905 91.8763 98.1766C92.4427 97.9283 92.4605 97.6889 93.1374 98.027C94.2778 98.5964 94.9706 99.4378 96.297 99.6583ZM39.2053 115.251C39.2053 117.349 39.0618 119.074 40.484 120.772C41.7268 122.256 43.0183 122.6 44.7664 123.186C45.7958 123.53 45.8676 123.212 46.7017 122.63C47.4945 122.077 48.3576 121.634 49.1394 121.063C50.8244 119.833 52.5082 118.565 54.1458 117.272C54.6963 116.837 54.6151 116.985 54.5315 116.463C54.455 115.988 54.1137 115.383 53.9272 114.93C53.5899 114.112 53.1924 113.32 52.7947 112.53C52.3432 111.634 51.9498 110.66 51.3891 109.824C51.1564 109.477 50.8801 109.163 50.6085 108.846C50.0368 108.18 50.0571 108.205 49.3733 108.749C47.9298 109.899 46.5868 111.144 44.9622 112.042C43.04 113.106 41.1226 114.177 39.2053 115.251ZM82.7299 98.9982C82.9384 95.9861 83.1735 92.9906 83.5346 89.9921C83.7201 88.4525 83.936 86.9171 84.146 85.3808C84.2315 84.7552 84.5615 83.7053 84.3777 83.0976C84.1971 82.4994 83.3997 81.9301 82.9621 81.4974C82.8445 81.381 82.483 80.8928 82.3275 80.8708C82.161 80.8476 81.5345 81.3065 81.3538 81.4099C80.7148 81.7763 80.0873 82.1616 79.4693 82.5625C78.3048 83.3181 77.1764 84.1289 76.0722 84.9701C73.7567 86.7338 71.5486 88.6317 69.2823 90.4573C71.3587 92.277 73.9144 93.6902 76.236 95.164C77.6086 96.0355 78.9883 96.8974 80.3858 97.7283C81.0945 98.1493 81.9163 98.7929 82.7299 98.9982ZM54.3455 152.861C52.6688 153.97 51.0676 155.14 49.1714 155.852C47.2837 156.56 45.4181 156.833 43.4671 157.253C42.4832 157.466 41.5584 157.698 40.5542 157.847C39.9915 157.93 39.1205 157.898 38.6074 158.135C38.1505 158.038 37.9877 158.194 38.1195 158.603C38.1243 158.73 38.1292 158.857 38.1341 158.984C38.2634 160.752 39.3999 162.88 40.3912 164.317C40.9698 165.157 41.707 165.938 42.4397 166.643C43.2669 167.44 43.7438 168.002 44.8969 167.668C46.8405 167.105 48.5559 165.973 50.5259 165.473C52.0843 165.078 53.3787 164.25 54.8984 163.822C56.7727 163.293 58.6273 162.691 60.5274 162.25C59.6787 160.611 58.9197 158.905 57.8331 157.405C56.7186 155.865 55.4898 154.385 54.3455 152.861ZM64.6289 97.7329C68.1353 98.4309 71.9358 99.0769 75.0741 100.887C76.2988 101.594 77.8513 102.686 78.2099 104.147C78.6387 105.893 76.953 106.975 75.5449 107.52C73.8543 108.174 72.014 108.425 70.2227 108.631C69.2745 108.741 68.3218 108.8 67.3692 108.854C66.5982 108.898 65.2906 108.729 64.5858 109.034C64.1444 108.946 63.9913 109.125 64.1268 109.572C64.1185 109.732 64.1104 109.892 64.1023 110.052L64.0292 111.492C63.9806 112.451 63.9319 113.41 63.883 114.368C63.7772 116.457 63.6711 118.546 63.5653 120.634C65.4018 119.497 66.882 117.867 68.677 116.653C69.5304 116.076 70.3777 115.498 71.2276 114.923C71.584 114.682 71.8018 114.343 72.1526 114.119C72.6178 113.821 73.0302 113.642 73.4666 113.251C75.2486 111.657 77.2304 110.28 79.1205 108.817C79.979 108.152 80.919 107.541 81.7359 106.828C82.5915 106.081 82.4732 105.465 82.4522 104.392C82.4302 103.255 82.8474 101.843 82.6538 100.747C82.8164 100.374 82.6915 100.143 82.2796 100.052C82.0043 99.8761 81.7293 99.7001 81.4541 99.524C80.9053 99.173 80.3565 98.822 79.8077 98.4712C77.6245 97.0751 75.4415 95.6788 73.2583 94.2827C72.1678 93.5853 71.0773 92.8879 69.9865 92.1905C69.682 91.9959 68.6885 91.1159 68.3468 91.1418C67.9982 91.1682 67.3934 91.8487 67.1321 92.0653C66.7312 92.3973 66.342 92.7466 65.9088 93.0373C65.693 93.1869 65.4676 93.3203 65.2329 93.4379C64.8577 93.4741 64.7274 93.6802 64.8416 94.0559C64.512 95.1129 64.6932 96.6226 64.6289 97.7329ZM113.253 147.564C112.459 143.852 111.435 139.456 108.338 136.931C105.197 134.37 100.605 135.36 98.1485 138.367C96.9179 139.873 96.155 141.654 95.5883 143.5C95.0065 145.394 94.1492 147.861 94.3062 149.864C94.3748 150.742 95.1273 151.686 95.5573 152.452C96.001 153.244 96.2955 154.378 97.3413 154.104C98.9627 153.679 100.612 152.703 102.129 152.005C103.664 151.298 105.28 150.717 106.871 150.034C107.928 149.581 109.024 149.237 110.078 148.777C111.078 148.342 112.396 148.237 113.253 147.564ZM160.171 125.455C162.386 126.247 163.537 124.978 165.096 123.55C166.572 122.197 168.171 120.895 169.531 119.424C170.933 117.908 172.041 116.115 173.119 114.364C174.209 112.593 175.682 110.681 176.353 108.709C176.695 107.706 176.84 106.595 177.055 105.558C177.107 105.309 177.455 104.38 177.344 104.17C177.192 103.881 176.225 103.851 175.96 103.809C173.846 103.475 171.607 103.458 169.487 103.757C165.386 104.335 161.956 106.635 160.66 110.656C159.14 115.371 159.871 120.611 160.171 125.455ZM145.812 84.5621C145.777 85.3783 147.734 85.6052 148.241 85.7956C149.413 86.2351 150.578 86.6993 151.716 87.2195C154.06 88.2907 156.559 88.9886 158.803 90.2837C163.641 93.0756 168.892 95.0437 173.779 97.7141C174.541 98.1304 176.029 99.1329 176.898 99.0481C177.361 99.0031 177.016 99.3752 177.316 98.6404C177.424 98.3759 177.46 98.0319 177.52 97.7486C177.701 96.8996 177.841 96.0428 178.045 95.1985C178.38 93.8088 178.721 92.5195 178.862 91.0912C178.922 90.4859 178.988 89.8814 178.995 89.2727C179.002 88.6557 179.144 87.1098 178.866 86.5756C178.681 86.2214 178.644 86.3429 178.183 86.2429C177.918 86.1857 177.641 86.0667 177.386 85.9872C176.787 85.801 176.188 85.622 175.56 85.5673C174.94 85.513 174.544 85.3243 173.963 85.2148C173.352 85.0999 172.726 85.2392 172.104 85.0789C171.433 84.9055 171.113 84.7474 170.412 84.8136C169.732 84.8777 169.536 84.7271 168.871 84.5418C168.315 84.3873 167.653 84.4953 167.074 84.4484C166.373 84.3912 165.674 84.3037 164.973 84.2482C161.82 83.9986 158.629 84.3687 155.468 84.3394C153.749 84.3235 152.067 84.5772 150.351 84.4988C148.851 84.4303 147.301 84.4465 145.812 84.5621ZM154.015 101.182C152.481 101.766 151.059 102.715 149.637 103.533C147.997 104.475 146.427 105.476 144.909 106.606C142.357 108.507 139.379 110.785 138.708 114.101C138.018 117.505 140.974 120.293 143.745 121.685C146.905 123.273 150.581 124.094 154.043 124.701C153.672 116.866 153.759 109.019 154.015 101.182ZM108.124 119.627C107.193 119.884 106.405 120.435 105.542 120.842C104.768 121.207 104.02 121.482 103.298 121.952C102.121 122.718 100.756 123.374 99.5257 123.966C96.4808 125.431 93.5246 127.25 90.5101 128.874C89.7112 129.304 89.4494 129.576 89.1788 130.462C88.8849 131.424 88.608 132.393 88.3249 133.359C88.0609 134.259 87.6394 135.222 87.7504 136.173C87.8472 137 88.275 137.78 88.5975 138.534C89.4095 140.433 90.2898 142.301 91.1994 144.154C92.0156 145.818 92.7605 147.583 93.8082 149.112C94.6225 144.865 95.3531 140.106 98.5098 136.87C101.664 133.636 106.696 133.59 109.736 136.929C111.18 138.514 112.058 140.512 112.749 142.518C113.112 143.573 113.356 144.647 113.589 145.736C113.838 146.899 113.777 147.516 115.06 147.164C116.08 146.884 117.16 146.66 118.159 146.341C118.677 146.176 119.183 145.99 119.206 145.58C119.236 145.063 118.54 144.004 118.334 143.518C117.273 141.007 116.211 138.496 115.149 135.985C113.996 133.259 112.843 130.533 111.689 127.806C111.114 126.446 110.538 125.086 109.962 123.726C109.437 122.486 109 120.645 108.124 119.627ZM154.101 98.4245C154.119 97.1849 154.139 95.9453 154.155 94.7054C154.165 93.9667 154.494 92.5381 153.851 92.0103C153.452 91.6832 152.269 91.4324 151.764 91.2085C150.768 90.767 149.69 90.57 148.689 90.1315C144.766 88.4132 140.684 86.9822 136.646 85.5973C135.775 85.2986 134.885 85.0542 134.008 84.7601C133.535 84.6014 131.782 83.6691 131.344 83.9131C130.961 84.1265 130.671 86.6688 130.549 87.1965C130.258 88.4462 129.98 89.699 129.713 90.954C128.676 95.8265 127.807 100.733 126.998 105.648C129.147 104.832 131.206 103.419 133.235 102.326C135.344 101.191 137.445 100.059 139.568 98.9501C140.167 98.6369 142.275 97.1981 142.768 97.7628C143.559 98.669 141.674 99.7318 141.179 100.12C139.264 101.622 137.242 102.931 135.194 104.241C133.072 105.598 130.865 106.797 128.732 108.13C127.962 108.611 126.733 109.197 126.431 110.01C126.041 111.055 126.322 112.325 126.677 113.324C127.547 115.778 128.5 118.202 129.508 120.602C129.966 121.694 130.436 122.78 130.915 123.863C131.486 125.152 132.234 125.425 133.477 126.018C138.77 128.545 144.268 130.944 149.352 133.869C148.502 134.85 146.428 133.239 145.588 132.832C144.033 132.076 142.476 131.323 140.922 130.566C138.027 129.155 135.147 127.715 132.235 126.338C134.101 130.582 136.303 134.671 138.745 138.61C138.128 138.819 138.279 138.83 137.892 138.459C137.566 138.147 137.347 137.535 137.126 137.143C136.67 136.333 136.22 135.52 135.76 134.713C134.806 133.036 133.817 131.385 132.946 129.662C132.291 128.367 131.784 126.103 130.437 125.45C128.76 124.636 127.06 123.844 125.382 123.018C125.382 129.47 125.846 135.78 126.526 142.192C126.561 142.515 126.871 143.47 126.246 143.376C125.964 143.334 125.869 141.565 125.819 141.195C125.592 139.502 125.399 137.804 125.241 136.102C124.927 132.707 124.756 129.298 124.734 125.889C124.332 129.204 123.929 132.519 123.527 135.834L122.954 140.546C122.854 141.371 122.754 142.196 122.654 143.021C122.608 143.4 122.637 143.896 122.504 144.257C122.294 144.826 122.364 144.782 121.708 145.042C122.336 140.725 122.916 136.401 123.429 132.069C123.679 129.955 123.914 127.84 124.13 125.722C124.189 125.153 124.245 124.583 124.301 124.014C124.329 123.723 124.58 122.789 124.441 122.548C124.303 122.309 123.391 122.06 123.128 121.938C122.553 121.671 121.977 121.404 121.403 121.136C119.537 120.264 117.673 119.385 115.828 118.47C115.021 118.07 114.174 117.452 113.296 117.238C112.422 117.026 111.787 117.634 111.039 118.021C110.458 118.322 109.088 118.722 108.699 119.234C108.338 119.709 109.461 121.613 109.756 122.315C110.587 124.295 111.42 126.275 112.252 128.255C113.939 132.27 115.626 136.285 117.313 140.3C117.725 141.281 118.138 142.263 118.55 143.244C118.814 143.873 119.256 145.666 119.897 145.736C120.181 145.767 120.647 145.458 120.921 145.369C121.33 145.237 121.708 145.239 122.119 145.169C122.871 145.042 123.652 144.654 124.391 144.381C126.291 143.681 128.259 143.229 130.174 142.575C132.097 141.918 133.989 141.18 135.905 140.523C137.645 139.927 139.401 139.247 141.072 138.47C142.838 137.65 144.648 136.926 146.368 136.016C149.501 134.359 152.6 132.811 155.368 130.779C156.019 130.301 156.712 129.821 157.356 129.31C157.92 128.861 158.997 128.306 159.382 127.716C159.528 127.491 159.654 127.049 159.483 126.782C159.299 126.495 158.486 126.521 158.106 126.47C156.908 126.309 155.71 126.148 154.513 125.987C154.605 126.775 154.697 127.562 154.764 128.353C154.811 128.911 155.141 130.386 154.696 130.824C154.084 130.242 154.281 128.504 154.226 127.729C154.197 127.316 154.302 126.506 154.117 126.138C153.914 125.736 153.352 125.741 152.844 125.631C150.687 125.165 148.549 124.773 146.462 124.034C142.936 122.785 138.721 120.676 137.933 116.608C137.112 112.368 140.72 108.693 143.758 106.328C145.577 104.913 147.512 103.687 149.513 102.548C150.449 102.017 151.383 101.485 152.325 100.964C152.667 100.775 153.792 100.385 153.972 100.054C154.157 99.7157 154.062 98.8102 154.101 98.4245ZM78.6587 163.548C78.4876 163.632 78.3163 163.715 78.1454 163.799C80.0485 158.376 81.9339 152.977 83.5251 147.452C84.2931 144.785 85.0712 142.121 85.8655 139.462C86.2084 138.315 87.0506 136.735 86.8166 135.547C86.5634 134.261 85.9561 132.893 85.4863 131.67C82.4788 133.56 79.4082 135.354 76.3506 137.159C73.6096 138.777 70.8221 140.217 68.0617 141.818C66.6473 142.638 65.1882 143.193 63.7119 143.863C62.5124 144.408 62.9781 146.073 62.9954 147.186C63.0561 151.114 63.0531 155.055 63.2915 158.978C63.3783 160.406 63.2663 162.047 64.1759 163.236C65.3393 164.757 66.4183 166.307 67.4792 167.907C67.8767 168.507 69.5465 171.754 70.1691 171.683C70.5757 171.636 70.9499 170.322 71.1533 170.01C71.5916 169.338 72.2323 168.76 72.8156 168.219C75.3344 165.882 78.1295 164.236 81.0343 162.528C83.9856 160.793 87.0058 159.178 90.0128 157.532C90.6922 157.16 91.4238 156.892 92.0988 156.512C92.3654 156.362 92.8942 156.124 93.0621 155.856C93.3132 155.454 93.2281 154.342 93.2804 153.862C93.3875 152.882 93.5799 151.864 93.5902 150.876C93.6002 149.901 93.0137 149.063 92.5886 148.212C90.7225 144.477 88.9094 140.734 87.2857 136.886C86.0055 141.354 84.6615 145.801 83.4058 150.276C82.7501 152.612 81.9598 154.91 81.1903 157.211C80.7975 158.386 80.4022 159.56 80.0098 160.735C79.7043 161.651 79.5456 162.991 78.6587 163.548ZM105.461 79.342C104.471 79.353 103.575 79.2076 102.607 79.001C102.252 78.9255 101.94 78.8935 101.581 78.8617C101.173 78.8258 100.802 78.6048 100.444 78.5615C100.174 78.529 99.702 78.6424 99.4438 78.729C98.8454 78.9294 98.8645 78.8282 98.8395 79.5229C98.8004 80.5963 98.7711 81.67 98.7122 82.7424C98.4802 86.9638 98.0319 91.1442 97.4176 95.3248C97.2931 96.1699 96.945 97.2783 97.1364 98.1175C97.309 98.874 97.9627 99.6822 98.3944 100.317C99.2825 101.622 101.374 102.267 102.845 102.637C104.397 103.027 106.008 103.171 107.482 103.519C107.89 103.616 108.359 103.446 108.795 103.542C109.197 103.632 109.51 103.853 109.882 104.013C110.794 104.404 111.812 104.476 112.753 104.778C114.62 105.377 116.619 105.342 118.487 105.917C118.965 106.064 119.377 106.434 119.837 106.561C120.257 106.677 120.69 106.541 121.129 106.606C122.061 106.743 122.93 107.061 123.145 108.062C123.715 107.611 123.794 107.729 123.695 107.031C123.632 106.584 123.383 106.039 123.247 105.608C122.899 104.509 122.55 103.41 122.202 102.31C121.515 100.134 120.832 97.9569 120.199 95.7649C119.632 93.8041 119.117 91.8284 118.666 89.8376C118.437 88.8253 118.246 87.8087 118.05 86.791C117.992 86.4957 118.049 86.0264 117.752 85.8298C117.483 85.6516 116.855 86.2911 116.571 86.4972C114.585 87.9355 110.031 92.1897 107.548 89.6802C106.211 88.3289 106.289 85.953 106.434 84.2071C106.523 83.134 106.712 82.0748 106.923 81.0197C106.975 80.7564 107.297 79.9106 107.179 79.7231C107.052 79.5215 105.726 79.4012 105.461 79.342ZM175.232 102.823C175.761 102.882 176.289 102.941 176.818 103.001C176.769 102.574 176.813 101.932 176.651 101.534C176.428 100.984 175.88 100.923 175.278 100.695C174.326 100.335 173.355 100.022 172.413 99.6341C170.369 98.7929 168.334 97.9398 166.289 97.0986C165.392 96.7297 164.339 96.1262 163.365 96.4273C162.316 96.7524 161.28 97.4144 160.299 97.8992C159.188 98.4482 158.077 98.9985 156.967 99.5487C156.446 99.8069 155.925 100.065 155.404 100.323C154.586 100.728 154.477 100.769 154.413 101.695C154.084 106.431 154.109 111.35 154.252 116.092C154.325 118.512 154.243 120.945 154.417 123.36C154.43 123.546 154.416 124.595 154.532 124.738C154.696 124.939 155.849 125.007 156.125 125.058C157.199 125.254 158.281 125.319 159.366 125.416C159.11 119.908 158.171 113.397 161 108.359C163.841 103.297 169.914 102.201 175.232 102.823ZM125.839 48.6351C126.158 47.9096 126.706 47.297 127.175 46.6604C127.429 46.3162 127.867 45.9048 128.029 45.5022C128.26 44.9292 128.259 45.0519 127.914 44.5501C127.588 44.0758 127.594 44.0402 127.09 43.9553C126.665 43.8839 126.212 44.0052 125.778 43.9275C125.34 43.8487 124.134 43.4791 124.41 42.781C124.398 42.8115 125.096 42.4676 125.15 42.4079C125.325 42.217 125.381 41.81 125.468 41.5792C125.746 40.8395 125.844 40.3607 125.534 39.573C125.07 38.397 123.236 38.0489 122.094 38.4446C121.523 38.6422 121.198 39.0611 120.941 39.5877C120.778 39.9221 120.741 40.4054 120.53 40.6965C120.212 41.1348 120.192 41.0862 119.534 41.0087C118.695 40.9102 118.007 40.588 117.212 40.3633C116.347 40.1184 115.784 40.6166 115.027 41.0182C113.662 41.7438 112.343 41.9955 110.814 42.1107C109.11 42.239 107.532 41.8283 105.845 41.7225C106.283 43.738 107.414 45.3744 108.319 47.1995C108.478 47.5204 108.734 47.8485 108.741 48.2198C108.747 48.5696 108.24 49.0456 108.297 49.335C108.419 49.9525 109.778 50.4468 110.293 50.6206C111.749 51.1117 113.407 52.0731 115.01 51.6869C115.889 51.4752 116.362 50.0877 117.189 49.9857C118.298 49.8483 117.468 51.2769 117.262 51.7683C118.836 52.0076 120.832 51.8047 122.339 51.2708C123.095 51.0034 123.735 50.6042 124.424 50.2084C125.282 49.7156 125.461 49.5802 125.839 48.6351ZM98.2856 78.6319C95.4786 78.6786 92.6304 78.2745 89.817 78.6458C89.1653 78.7316 88.5222 78.87 87.8817 79.0172C87.4214 79.123 85.9593 79.2125 85.6523 79.5547C85.3726 79.8669 85.3707 81.304 85.313 81.7091C85.1847 82.6111 85.2189 82.9225 85.7941 83.62C87.6866 85.9149 89.6576 88.1414 91.5226 90.4617C93.3139 92.6906 94.7843 95.1811 96.595 97.3785C97.562 94.5636 97.62 91.1855 97.8854 88.234C98.027 86.6602 98.1558 85.0852 98.2768 83.51C98.3919 82.0095 98.7836 80.0624 98.2856 78.6319ZM61.9528 108.298C62.2775 108.298 62.7952 108.4 63.1108 108.298C63.5447 108.436 63.6897 108.273 63.5462 107.81C63.553 107.648 63.5599 107.485 63.567 107.323C63.6122 106.278 63.6621 105.232 63.7105 104.187C63.755 103.231 63.7982 102.275 63.8359 101.319C63.8618 100.666 64.1915 99.0481 63.9278 98.4587C63.7506 98.0625 63.3308 98.1524 62.8202 98.0945C62.3344 98.0395 61.8472 97.9886 61.3642 97.9134C60.7511 97.8178 60.0715 97.5983 59.4477 97.7356C58.8209 97.8738 58.3653 98.4524 57.8734 98.8205C57.0951 99.4026 56.2999 99.9631 55.5149 100.536C54.0883 101.578 52.6761 102.639 51.2615 103.697C50.6772 104.133 50.565 103.982 50.8498 104.609C51.0261 104.997 51.4267 105.436 51.6707 105.786C52.1564 106.484 52.6402 107.541 53.2633 108.108C54.17 108.931 56.6856 108.408 57.89 108.402C59.2634 108.395 60.5873 108.417 61.9528 108.298ZM65.5077 108.23C66.6987 108.113 67.9019 108.163 69.0855 108.003C70.3723 107.829 71.6498 107.571 72.9342 107.378C74.2146 107.185 78.1099 106.407 77.7254 104.496C77.3191 102.476 74.3371 101.266 72.687 100.586C70.11 99.5258 67.4195 98.9579 64.7088 98.3583C64.3688 100.169 64.4177 102.113 64.3556 103.948C64.3218 104.945 64.2923 105.943 64.2927 106.94C64.2927 107.181 64.2104 107.679 64.3084 107.902C64.5387 108.427 64.8066 108.23 65.5077 108.23ZM61.5911 109.098H53.9896C55.1145 111.426 56.1779 113.798 57.3906 116.083C58.5985 118.359 60.1537 120.503 61.5241 122.688C61.8712 122.31 62.4249 121.9 62.6608 121.451C62.9221 120.954 62.9148 120.222 62.9576 119.646C63.0685 118.152 63.1191 116.645 63.1568 115.147C63.1898 113.836 63.2475 112.533 63.3482 111.225C63.3702 110.938 63.6868 109.447 63.5056 109.202C63.344 108.984 61.9235 109.1 61.5911 109.098ZM92.8969 63.3756C94.1793 63.3754 95.4632 63.3592 96.7453 63.3808C97.9089 63.4006 99.425 63.1979 100.491 63.7971C102.662 65.0174 98.3215 68.1515 97.4413 68.9403C98.8645 69.4561 101.086 68.4324 102.479 67.9633C104.202 67.3834 105.959 66.994 107.716 66.5398C108.155 66.4264 110.04 66.2042 110.278 65.8678C110.514 65.5341 109.985 63.5211 109.932 63.0965C109.883 62.6973 109.924 62.0749 109.758 61.6994C109.86 61.2484 109.702 61.0902 109.283 61.2257C109.138 61.2252 108.994 61.2244 108.849 61.224C107.78 61.2325 106.71 61.2821 105.641 61.3176C101.969 61.4398 98.3853 61.6029 94.744 62.1761C93.0511 62.4425 91.3434 62.7704 89.6594 63.0974C88.2418 63.3727 88.4804 63.6037 89.8043 63.6071C90.8398 63.6098 91.8665 63.456 92.8969 63.3756ZM198.251 36.3685C198.469 36.1179 198.687 35.8671 198.905 35.6163C198.374 35.4645 197.842 35.3125 197.31 35.1607C196.745 34.9993 196.441 35.0362 196.692 34.4046C197.007 33.6133 198.445 33.5226 199.137 33.4928C201.517 33.3898 204.017 34.1472 206.278 34.8143C207.382 35.1399 208.247 35.6437 209.18 36.3137C209.588 36.6064 210.058 36.8811 210.415 37.2326C210.785 37.5978 210.94 38.0657 211.302 38.4319C211.896 39.0323 212.657 39.3313 212.948 40.1978C213.282 41.1925 212.883 42.3312 212.388 43.1985C211.886 44.0788 211.14 44.7444 210.535 45.5443C210.054 46.1789 209.05 47.9128 210.619 47.7118C211.448 47.6055 212.524 46.1906 213.122 45.6269C213.977 44.8185 214.819 43.9915 215.726 43.2386C216.53 42.571 217.456 41.8865 218.53 41.7692C219.663 41.6455 220.229 42.3705 220.781 43.2523C221.302 44.0839 221.386 44.8957 221.752 45.7469C221.929 46.1574 222.153 46.3862 222.257 46.8335C222.417 47.5216 222.434 48.2724 222.515 48.9739C222.643 50.0757 222.764 50.942 222.55 52.0215C222.35 53.0319 222.296 54.105 222.127 55.1329C221.937 56.297 221.778 57.4665 221.59 58.631C221.431 59.6176 220.825 61.0228 221.419 61.9402C222.846 64.1449 224.559 60.8993 225.009 59.6868C225.802 57.5562 226.205 55.227 226.905 53.0526C227.279 51.8898 227.606 50.7159 227.821 49.512C227.998 48.5163 227.911 47.3033 228.456 46.4165C228.881 45.7276 229.635 45.2045 230.463 45.4147C231.499 45.678 231.897 47.1755 232.202 48.0858C233.006 50.4869 232.71 52.6493 232.383 55.098C232.231 56.2317 232.086 57.3672 231.826 58.4822C231.65 59.2344 230.922 60.7568 232.004 61.1658C233.538 61.7461 235.164 57.3455 235.601 56.3518C236.746 53.7491 237.184 51.1679 237.656 48.3792C237.764 47.738 237.847 47.0831 238.009 46.4529C238.15 45.9043 238.572 45.3499 238.609 44.8014C238.647 44.2523 238.284 43.8693 238.656 43.3303C238.966 42.8817 239.526 42.8546 240.032 42.8506C241.221 42.8414 242.358 43.3633 243.464 43.7419C244.492 44.0942 246.015 44.8671 247.125 44.6183C243.643 41.0842 240.171 37.5903 236.02 34.838C234.092 33.5597 232.163 32.3314 230.079 31.289C227.968 30.2332 225.55 29.5202 223.289 28.8814C222.06 28.5338 220.838 28.14 219.624 27.7413C218.543 27.3863 217.455 27.3191 216.397 26.9165C214.098 26.0421 211.529 25.7033 209.148 25.0833C208.097 24.8098 207.035 24.5751 205.981 24.3216C204.874 24.0552 203.318 23.5924 202.19 23.6374C201.226 23.6758 200.901 24.78 200.437 25.548C199.764 26.663 199.191 27.8215 198.662 29.0107C197.578 31.4474 196.433 33.9648 195.658 36.5105C195.232 37.9083 194.812 39.3076 194.394 40.7075C194.032 41.9195 193.127 43.6679 193.367 44.9116C195.15 42.1642 196.81 39.311 198.251 36.3685ZM115.251 61.1765C114.305 61.2196 113.359 61.2623 112.413 61.3053C113.357 64.405 113.225 67.7056 113.225 70.9185C117.632 70.399 122.075 70.3105 126.508 70.3464C125.694 68.7751 126.01 66.7366 126.242 65.054C126.378 64.0691 126.453 63.1204 126.434 62.1267C126.415 61.1946 126.684 60.4109 125.696 60.1227C124.913 59.8941 124.417 60.275 123.671 60.4488C122.777 60.6568 121.803 60.682 120.893 60.7952C118.999 61.0306 117.173 61.1687 115.251 61.1765ZM89.8552 67.213C92.6955 66.4252 95.7137 66.7156 98.5682 66.1167C97.9189 65.5241 96.6957 65.8751 95.8335 65.9245C94.8532 65.9803 93.8737 66.0211 92.8935 66.0688C91.9374 66.1154 89.2856 66.0431 88.9407 67.2595C89.2453 67.2441 89.5503 67.2284 89.8552 67.213ZM193.782 23.2898C190.065 23.6159 186.173 23.5653 182.483 24.2138C178.257 24.9565 173.852 25.4224 169.755 26.7312C165.736 28.0153 161.637 28.9142 157.675 30.4219C153.823 31.8877 150.113 33.447 146.486 35.4076C144.711 36.367 142.983 37.3842 141.291 38.4862C139.639 39.562 137.828 40.444 136.227 41.5844C134.802 42.5996 133.573 43.5307 132.33 44.7745C131.002 46.1043 129.709 47.4701 128.38 48.7977C127.27 49.9053 127.972 52.6133 128.043 54.0874C128.14 56.131 128.309 58.1458 128.559 60.176C128.798 62.1106 129.043 64.1899 128.728 66.1203C128.596 66.9319 128.139 68.3339 128.357 69.144C128.531 69.7927 129.689 70.2685 130.279 70.4799C131.001 70.7385 131.739 70.6295 132.48 70.9585C133.307 71.3264 134.005 71.785 134.884 71.9784C135.967 72.2167 137.185 72.4172 138.298 72.4245C139.327 72.4311 140.36 72.7646 141.387 72.9699C143.056 73.3043 144.686 73.4084 144.582 75.422C144.462 77.7453 143.54 79.7388 142.991 81.9442C143.733 81.9442 144.251 81.9917 144.931 81.7284C145.724 81.4214 146.571 81.3397 147.404 81.2072C149.247 80.9141 151.043 80.8202 152.897 80.6332C156.294 80.2905 159.75 80.3316 163.149 80.3678C164.871 80.3859 166.738 80.5188 168.435 80.7868C170.177 81.0618 171.98 81.2336 173.668 81.7609C175.092 82.2058 176.562 82.5089 178.014 82.902C178.669 83.079 179.453 83.2227 180.071 83.4207C180.967 83.708 181.446 84.3203 182.481 84.3064C182.19 82.3899 181.506 80.612 181.093 78.7114C180.662 76.7264 179.803 74.9703 178.855 73.0977C178.431 72.2625 178.118 71.3761 177.71 70.5337C177.257 69.5967 176.619 68.8206 176.071 67.9444C174.95 66.1524 173.754 64.4285 172.653 62.6237C171.692 61.0479 170.593 59.5375 169.541 58.0165C168.384 56.3442 166.777 55.0821 165.464 53.5479C164.91 52.8998 164.382 52.2978 163.761 51.703C163.189 51.1554 162.378 49.9434 161.503 49.8867C161 49.854 160.128 50.137 159.648 50.2888C158.76 50.5702 157.817 50.7536 156.9 51.0012C155.896 51.2723 154.909 51.625 153.904 51.8827C153.501 51.9856 153.023 51.9367 152.642 52.0533C152.243 52.1755 151.924 52.4447 151.488 52.5681C149.335 53.1788 147.196 53.872 145.027 54.4279C142.795 55.0004 140.528 55.4879 138.364 56.2987C137.951 56.4535 137.492 56.8192 137.175 56.5789C136.939 56.3994 136.786 55.8927 136.849 55.5969C137.056 54.6122 138.631 54.2566 139.39 53.8613C141.422 52.8018 143.441 52.0548 145.625 51.3354C146.7 50.9814 147.772 50.6035 148.863 50.2976C149.775 50.0422 150.724 49.61 151.656 49.4792C152.485 49.3629 153.074 49.0363 153.897 48.7471C155.11 48.321 156.357 47.9712 157.589 47.6072C159.695 46.9848 161.927 46.7233 164.082 46.306C169.074 45.3392 174.258 44.8552 179.352 44.915C181.92 44.9454 184.606 44.8703 187.145 45.2927C187.757 45.3944 189.043 45.3749 189.465 45.9241C189.692 46.219 189.569 46.6578 189.627 46.9773C189.726 47.5165 190.02 47.7678 190.275 48.2592C190.817 45.6005 191.439 42.9983 192.139 40.3785C192.771 38.0076 193.357 35.5936 194.202 33.2559C195.097 30.7825 196.181 28.16 197.518 25.8964C197.793 25.4305 198.479 24.6903 198.538 24.1691C198.599 23.6313 197.846 23.2147 197.328 23.1549C196.166 23.0206 194.923 23.2504 193.782 23.2898ZM218.749 61.2789C219.128 57.5909 220.233 53.7332 219.616 50.0305C219.354 48.463 219.15 46.9667 218.366 45.5518C217.97 44.8363 217.811 44.3108 217.054 44.7327C216.288 45.1597 215.583 46.2146 214.947 46.8259C213.78 47.9497 212.558 49.1069 211.16 49.9415C210.059 50.5986 207.872 51.2214 207.044 49.7999C206.256 48.4452 207.308 46.5546 208.063 45.437C208.927 44.1582 210.564 42.9739 209.645 41.3962C209.25 40.7171 208.681 40.5391 208.083 40.0935C207.565 39.7077 207.132 39.2081 206.614 38.8155C205.114 37.6775 203.469 37.1901 201.737 36.5399C200.937 36.2394 200.832 35.9568 200.37 36.6435C199.869 37.3893 199.594 38.4346 199.231 39.2594C198.505 40.9116 197.73 42.4771 196.793 44.0177C195.848 45.5724 195.01 47.1965 194.116 48.782C193.779 49.3802 193.462 49.9882 193.064 50.5497C192.847 50.8552 192.578 51.1276 192.402 51.462C192.141 51.9565 192.257 52.4073 192.095 52.8996C191.394 55.0239 190.372 52.0584 190.177 51.3652C189.955 50.5766 189.42 49.9618 189.072 49.2262C188.786 48.6187 188.59 47.716 187.898 47.43C187.331 47.1958 186.6 47.5172 186.021 47.5485C184.958 47.6062 183.887 47.5202 182.819 47.5867C181.82 47.6488 180.824 47.7446 179.825 47.8057C178.826 47.8671 177.828 47.6981 176.842 47.8033C175.072 47.992 173.263 47.9617 171.497 48.2232C169.425 48.5298 167.375 48.8568 165.297 49.1121C165.779 50.0251 166.78 50.4211 167.572 51.0726C168.279 51.6549 168.839 52.3269 169.551 52.8808C170.274 53.443 170.703 54.2746 171.302 54.9503C171.888 55.612 172.431 56.167 172.944 56.9074C175.423 60.4828 177.979 63.9261 180.023 67.7904C181.058 69.7463 182.046 71.8388 182.753 73.9372C183.512 76.1879 183.884 78.6016 184.334 80.9288C184.559 82.0887 184.676 83.0677 184.43 84.2343C184.366 84.512 184.298 84.7892 184.229 85.0657C184.013 85.3966 184.093 85.6113 184.468 85.7098C184.688 86.0298 184.988 86.1498 185.007 86.5874C185.021 86.9198 184.836 87.3051 184.55 87.4926C183.997 87.8544 183.997 87.3657 183.427 87.474C183.214 87.5896 183 87.705 182.787 87.8204C182.674 87.6488 182.558 87.4791 182.439 87.3119C182.076 86.9665 181.787 86.9981 181.312 86.914C181.553 89.6927 181.168 92.1736 180.557 94.8841C180.263 96.1875 179.758 97.4633 179.504 98.7689C179.22 100.228 179.841 100.892 180.8 101.865C180.557 101.992 180.13 102.13 179.929 102.32C179.609 102.623 179.691 102.66 179.691 103.134C179.692 104.002 179.525 104.857 179.389 105.711C179.137 107.291 178.906 108.926 178.362 110.44C177.374 113.188 175.776 116.042 174.149 118.463C173.238 119.818 172.325 121.357 171.183 122.526C170.037 123.699 168.902 124.882 167.759 126.059C165.509 128.375 163.05 129.975 160.355 131.709C159.288 132.396 158.164 133.148 157.246 134.003C156.313 134.872 155.072 135.48 153.957 136.111C153.46 136.393 153.106 136.797 152.569 137.028C152.064 137.245 151.712 137.316 151.289 137.601C150.239 138.307 149.105 138.91 147.949 139.443C146.539 140.092 145.151 140.847 143.703 141.401C143.043 141.654 142.423 141.929 141.784 142.225C141.092 142.544 140.346 142.754 139.637 143.094C139.037 143.382 138.43 143.549 137.82 143.784C137.322 143.977 136.931 144.287 136.423 144.488C135.367 144.905 134.407 145.13 133.382 145.621C132.019 146.274 130.405 146.578 128.97 147.048C127.368 147.573 125.706 148.095 124.062 148.467C123.362 148.626 122.766 148.833 122.09 149.073C121.65 149.229 121.145 149.314 120.658 149.463C119.31 149.874 117.963 150.27 116.608 150.619C113.961 151.302 111.257 152.121 108.69 153.048C107.344 153.534 105.979 154.119 104.688 154.738C103.228 155.437 101.655 155.84 100.19 156.533C97.3603 157.869 94.5399 159.246 91.7426 160.649C90.2737 161.387 88.8253 162.146 87.3911 162.948C86.8706 163.239 86.3016 163.359 85.7845 163.644C85.1084 164.017 84.5535 164.565 83.8609 164.935C81.1915 166.361 78.4671 167.704 76.0152 169.508C74.7321 170.452 73.3534 171.419 72.2446 172.568C71.8786 172.947 71.2445 173.534 71.1783 174.085C71.0807 174.899 71.1721 174.15 71.454 174.652C71.8444 174.699 71.9326 174.849 71.7197 175.101C71.6214 175.22 71.4955 175.28 71.3423 175.283C70.8492 175.382 69.9269 174.86 69.5306 174.641C68.844 174.263 68.4795 173.785 68.0385 173.149C67.0807 171.771 66.1462 170.38 65.1598 169.021C64.2727 167.799 63.4044 166.454 62.3951 165.332C61.7106 164.571 61.6593 164.903 60.898 165.332C60.3316 165.651 59.6738 165.787 59.0869 166.088C56.8504 167.234 54.3919 168.08 52.098 168.878C51.5756 169.06 51.2972 169.348 50.8381 169.599C50.2533 169.919 49.5127 170.076 48.8873 170.303C47.1647 170.929 45.4506 171.58 43.7402 172.239C42.4196 172.748 41.1507 173.149 40.1169 174.088C39.7055 174.462 39.2075 174.73 38.7827 175.109C38.2879 175.548 37.6188 176.264 36.9959 176.513L36.6166 176.809C36.3599 176.631 36.103 176.453 35.8456 176.275C35.5903 176.098 35.3349 175.922 35.0802 175.745C34.4404 175.3 33.8054 174.849 33.1695 174.399C31.7275 173.377 30.2762 172.365 28.9349 171.211C26.5522 169.162 24.0797 167.223 21.5883 165.304C18.9734 163.29 16.424 161.183 13.7193 159.29C11.268 157.574 8.59341 156.125 6.2166 154.314C5.02025 153.402 3.82683 152.485 2.6053 151.602C2.53881 151.554 1.54487 150.944 1.53558 150.876C1.51798 150.752 1.84506 150.426 1.94162 150.322C2.39874 149.825 2.90524 149.382 3.36066 148.88C5.48324 146.539 8.2546 146.621 11.1839 146.51C12.5122 146.46 13.9528 147.073 15.2144 147.49C16.7572 148 18.2454 148.748 19.7356 149.395C22.8066 150.727 25.9763 151.865 29.0784 153.099C30.2982 153.584 31.5134 153.82 32.7535 154.154C34.0117 154.492 35.3078 154.169 36.6535 154.194C37.3519 154.206 38.0121 154.247 38.7154 154.207C39.133 154.184 39.614 154.105 40.0264 154.112C40.3606 154.118 40.7075 154.256 41.015 154.221C42.3612 154.068 43.7832 153.854 45.1717 153.679C46.5501 153.505 47.9726 153.419 49.333 153.147C50.0179 153.01 50.6939 152.816 51.3529 152.584C51.9249 152.383 52.9648 152.153 53.4342 151.745C53.8541 151.38 53.6705 151.375 53.4364 150.778C53.3437 150.543 53.2479 150.185 53.1105 149.958C52.7392 149.345 52.3803 149.152 52.5964 148.384C52.977 147.031 54.2743 146.167 55.3849 145.5C57.8866 143.999 60.1747 142.074 62.8089 140.801C68.2368 138.177 73.1835 134.769 78.4769 131.888C84.2953 128.721 89.7994 125.005 95.6988 121.972C101.19 119.149 106.656 116.309 112.193 113.574C114.897 112.24 117.955 111.018 120.408 109.268C119.049 109.1 117.686 108.882 116.322 108.761C115.689 108.705 115.049 108.757 114.42 108.656C113.716 108.544 113.051 108.259 112.349 108.141C111.142 107.937 110.056 107.523 108.848 107.371C107.552 107.207 106.283 106.826 104.982 106.72C102.259 106.496 99.8012 105.492 97.4141 104.227C96.8233 103.913 96.3378 104.092 95.7717 103.879C95.4597 103.762 95.1285 103.294 94.7782 103.042C93.8133 102.349 92.9851 101.531 92.0682 100.775C90.1404 105.101 86.3551 108.043 82.7428 110.946C80.9131 112.415 78.9272 113.661 77.0786 115.103C75.6456 116.221 74.3442 117.222 72.8144 118.111C71.3455 118.964 69.9655 120.117 68.5651 121.142C67.6158 121.836 66.5033 122.361 65.494 122.964C64.6692 123.457 63.059 124.192 62.8341 125.086C62.65 125.816 63.0091 126.686 61.8944 126.35C60.8963 126.049 60.1727 124.941 59.5914 124.161C58.0881 122.141 56.6856 120.053 55.2898 117.959C54.5401 119.422 53.2469 120.476 52.0515 121.561C51.3253 122.22 50.5714 122.832 49.7869 123.42C49.4066 123.706 49.0218 123.986 48.6407 124.27C48.4906 124.383 48.1503 124.556 48.053 124.714C47.8257 125.085 47.9638 124.917 47.9993 125.365C48.0545 126.067 48.2887 126.619 47.8914 127.291C47.5184 127.923 46.7051 128.192 46.1351 128.624C44.7788 129.65 43.3527 130.741 41.8481 131.543C41.5066 131.725 41.1837 131.882 40.8656 132.105C40.3347 132.476 40.4317 132.611 39.8966 132.255C39.0599 131.698 38.337 130.773 37.5819 130.101C35.9998 128.694 34.4001 127.304 32.7799 125.941C29.6922 123.342 26.5133 120.873 23.464 118.228C20.5662 115.715 17.4597 113.551 14.4681 111.161C13.6475 110.506 12.8369 109.837 12.027 109.168C11.3059 108.573 10.1357 107.917 9.60227 107.155C8.8276 106.049 11.8578 104.537 12.7721 104.312C14.3486 103.924 16.387 104.146 17.966 104.464C19.6234 104.798 21.3111 105.914 22.8587 106.609C24.6032 107.392 26.3799 108.07 28.1372 108.81C28.9209 109.139 29.7518 109.403 30.4793 109.847C31.2513 110.319 31.9404 110.856 32.7613 111.252C33.7073 111.707 34.6903 112.132 35.6852 112.469C36.136 112.621 36.6212 112.774 37.0949 112.836C37.7657 112.923 37.6748 112.614 38.2319 112.442C38.7054 112.295 38.8179 112.682 39.2437 112.79C39.6446 112.892 39.9443 112.789 40.2914 112.573C41.0653 112.093 41.7542 111.431 42.5284 110.93C43.2466 110.466 44.0384 110.033 44.7116 109.507C45.0118 109.273 45.2338 108.952 45.5295 108.714C46.0035 108.333 46.1915 108.484 46.745 108.221C47.1974 108.007 47.6079 107.607 48.0384 107.342C48.3056 107.177 48.9536 106.969 49.1259 106.703C49.5787 106.004 48.8059 105.519 48.1139 105.725C48.0102 105.121 47.4781 103.688 47.7079 103.122C47.9112 102.622 48.4451 102.715 48.8942 102.45C50.5819 101.454 51.8274 99.6436 53.4063 98.4729C54.8948 97.3692 56.208 96.0516 57.6825 94.9276C58.9456 93.9647 60.326 93.0245 61.4762 91.9861C62.8361 90.7585 64.577 89.8034 66.0555 88.7075C67.5828 87.5757 69.0021 86.3163 70.5131 85.1715C71.9669 84.0702 73.3947 82.9199 74.8885 81.8714C76.2311 80.929 77.6384 80.0686 78.9531 79.1132C79.6732 78.5901 80.4606 78.1305 81.2827 77.7871C82.1001 77.4453 82.8152 77.0447 83.6133 76.6768C85.1996 75.9456 87.2652 75.4403 88.99 75.2308C90.8865 75.0006 92.7908 74.794 94.7053 74.7923C95.7252 74.7916 96.7157 74.9856 97.7295 75.0473C98.6608 75.1035 99.668 75.3391 100.593 75.3081C101.011 75.2942 101.375 75.1169 101.781 75.1741C102.12 75.2218 102.414 75.4262 102.777 75.4618C103.586 75.5415 104.4 75.4621 105.218 75.5667C107.097 75.8068 108.978 76.149 110.861 76.3397C112.867 76.5428 114.856 76.5812 116.852 76.9234C118.802 77.2576 120.765 77.604 122.704 77.9905C126.824 78.8118 130.988 79.6139 135.044 80.8334C135.992 81.1185 136.945 81.3896 137.857 81.7805C138.299 81.9699 138.724 82.1997 139.185 82.3415C139.845 82.5444 139.976 82.6214 140.316 82.0672C140.902 81.1133 141.224 79.8517 141.649 78.814C142.07 77.7871 142.58 76.7521 142.824 75.6797C142.115 75.5674 141.221 75.7855 140.49 75.8104C139.596 75.8412 138.712 75.8219 137.819 75.8165C136.019 75.8058 134.612 75.2741 132.908 74.716C131.473 74.2455 129.562 73.9756 128.467 72.898C127.88 72.3204 127.684 72.2187 126.802 72.3223C125.912 72.4267 125.032 72.6066 124.134 72.6365C120.746 72.7489 117.374 73.34 113.971 73.4568C113.05 73.4884 110.748 73.9247 110.898 72.3634C110.93 72.0393 111.178 71.7581 111.226 71.4245C111.278 71.0668 111.189 70.7038 111.133 70.3543C111 69.5273 110.86 68.7008 110.728 67.8736C107.625 68.8695 104.482 69.6764 101.32 70.4652C100.009 70.7923 97.9023 71.5445 96.5473 71.1321C95.2373 70.7334 95.9961 68.8878 96.4041 68.0043C93.8014 68.5984 91.0254 69.5698 88.3713 69.7927C87.5639 69.8607 86.778 70.0394 86.59 69.0633C86.4404 68.2855 87.0022 67.3343 87.2887 66.651C85.2519 66.4692 83.1427 66.4865 83.526 63.8758C83.8773 61.4804 85.8672 61.0035 87.9858 60.5659C90.6007 60.0254 93.2714 59.8452 95.9034 59.4079C98.1934 59.0273 100.692 58.6029 103.031 58.7951C104.269 58.8965 105.514 58.9197 106.752 59.0344C107.336 59.0884 107.897 59.1789 108.463 59.3382C108.984 59.4849 109.713 59.9398 110.248 59.9479C111.054 59.9606 112.027 58.8699 112.894 58.6178C113.969 58.3054 115.127 58.2487 116.237 58.1722C117.496 58.0859 118.756 58.0378 120.014 57.9358C120.3 57.9126 121.384 57.9835 121.61 57.8155C121.94 57.5709 121.721 56.3158 121.698 55.8003C121.676 55.3234 121.768 54.4301 121.437 54.2431C121.127 54.0676 120.222 54.3084 119.916 54.3573C118.65 54.5602 117.447 54.5369 116.185 54.4854C115.602 54.4617 115.042 54.6169 114.465 54.5404C113.846 54.4585 113.222 54.2502 112.606 54.1343C111.27 53.8833 110.053 53.5709 108.901 52.8224C107.891 52.1655 106.695 51.7209 106.13 50.5705C105.717 49.7281 105.549 48.1025 106.765 47.8629C105.936 46.6683 105.365 45.3262 104.926 43.9458C104.846 43.6955 104.793 43.3185 104.674 43.1002C104.254 42.3283 104.644 43.013 104.044 42.7042C103.451 42.3994 103.024 42.1581 102.561 41.6279C101.822 40.7823 101.511 39.7417 101.418 38.6399C101.291 37.1437 101.055 35.4564 101.273 33.9677C101.651 31.389 103.536 29.4515 105.451 27.8919C106.491 27.0451 107.86 26.7297 109.079 26.2159C110.256 25.7197 111.571 25.1995 112.811 25.0831C113.93 24.978 115.022 24.6125 116.142 24.4651C117.682 24.2622 119.224 24.338 120.772 24.2764C121.484 24.248 122.195 24.1476 122.904 24.0711C123.304 24.0278 123.981 24.074 124.348 23.9153C124.948 23.6552 124.624 24.2014 124.838 23.4059C125.246 21.8927 125.579 20.4737 126.197 19.0033C126.772 17.6334 127.471 16.3236 128.395 15.1525C129.261 14.0539 130.385 13.2504 131.405 12.3119C132.162 11.6167 133.019 10.9887 133.882 10.4265C134.375 10.105 134.925 9.93121 135.407 9.64741C136.005 9.29539 136.533 9.02845 137.206 8.81284C138.651 8.35034 140.085 7.85923 141.619 7.88344C143.273 7.90935 144.932 7.52433 146.542 8.01251C149.533 8.91918 150.998 12.1601 150.948 15.1363C151.971 14.8811 152.865 14.3898 153.948 14.3477C154.946 14.3091 156.131 14.3957 157.112 14.5809C159.014 14.9405 160.971 15.998 162.105 17.6007C163.187 19.1292 163.349 21.1587 162.684 22.8928C162.365 23.723 161.861 24.4615 161.323 25.1628C160.929 25.6771 160.049 26.2464 160.008 26.9356C167.371 24.7098 174.764 23.1409 182.381 22.1255C186.242 21.6109 190.11 21.8685 193.975 21.5745C195.626 21.4488 197.42 21.6246 199.127 21.6312C199.847 21.6341 200.408 21.5339 200.931 21.0675C201.46 20.5957 201.882 20.0178 202.499 20.6988C202.656 20.8726 202.689 21.2931 202.901 21.4239C203.157 21.5823 203.904 21.4735 204.211 21.4923C205.284 21.5578 206.332 21.74 207.386 21.9497C209.319 22.3347 211.24 22.7239 213.151 23.2125C216.789 24.1432 220.379 25.0433 223.964 26.1479C227.623 27.2751 231.32 28.6658 234.693 30.4904C236.327 31.3741 237.959 32.4773 239.461 33.5705C240.159 34.079 240.785 34.629 241.393 35.2421C242.042 35.8974 242.836 36.3397 243.479 36.9999C244.878 38.4361 246.271 39.9595 247.54 41.5154C248.203 42.3278 248.811 43.1846 249.4 44.0504C249.816 44.6579 250.906 45.7701 250.654 46.5548C250.522 46.9738 250.053 47.2669 249.625 47.1643C249.481 47.13 249.364 46.9442 249.241 46.9266C248.826 46.868 249.202 46.7223 248.721 46.9181C247.76 47.3075 247.455 48.0885 246.235 47.9108C244.162 47.6084 242.213 46.6296 240.328 45.7763C239.79 47.8345 239.713 49.9684 239.242 52.0514C238.783 54.0835 238.016 56.0215 237.091 57.8855C236.279 59.5208 235.237 61.2638 233.801 62.4325C232.704 63.3243 229.999 64.4321 229.194 62.5335C228.852 61.727 229.361 60.474 229.505 59.6441C229.698 58.5303 229.911 57.4134 230.027 56.2884C230.122 55.3744 230.17 54.4551 230.258 53.5401C230.334 52.7529 230.544 51.063 230.101 50.3678C229.834 49.9488 229.811 50.36 229.656 50.7782C229.468 51.2855 229.311 51.7886 229.174 52.311C228.881 53.421 228.617 54.5387 228.34 55.6526C227.845 57.643 227.3 59.5898 226.269 61.3794C225.353 62.9686 224.065 64.712 222.106 64.9724C221.189 65.0941 219.994 64.6749 219.294 64.0572C218.508 63.3641 218.743 62.2211 218.749 61.2789Z" fill="black"/>
<path fill-rule="evenodd" clip-rule="evenodd" d="M174.027 142.555C175.104 142.342 176.01 141.483 176.889 140.838C178.01 140.015 179.073 139.118 180.162 138.253C182.213 136.624 184.074 134.837 185.844 132.894C189.336 129.06 191.965 124.124 193.16 119.082C193.765 116.531 194.512 113.541 194.169 110.905C194.05 109.989 193.868 109.821 192.97 109.717C192.564 109.67 191.535 109.553 191.17 109.712C190.223 110.126 189.712 111.886 189.432 112.77C188.603 115.381 188.115 118.086 187.365 120.719C186.631 123.299 185.447 125.917 184.277 128.33C181.673 133.7 178.053 138.191 174.027 142.555ZM195.378 112.912C194.735 120.223 192.705 127.189 188.153 133.077C185.99 135.875 183.446 138.31 180.688 140.522C177.841 142.806 174.933 144.957 171.702 146.66C170.842 147.114 169.981 147.566 169.111 147.998C168.628 148.238 167.41 149.121 166.853 148.981C166.407 148.869 166.291 148.524 166.221 148.075C166.065 147.068 166.72 146.565 167.382 145.918C170.04 143.319 172.707 140.711 175.192 137.946C180.101 132.486 183.789 125.948 185.838 118.893C186.47 116.721 187.033 114.524 187.715 112.367C188.13 111.053 188.719 108.715 190.098 108.059C190.838 107.708 191.7 108.05 192.478 107.839C193.208 107.642 193.691 107.239 194.313 107.915C195.404 109.1 195.453 111.426 195.378 112.912Z" fill="black"/>
<path fill-rule="evenodd" clip-rule="evenodd" d="M0.906953 155.097C0.362068 155.29 0.339334 155.482 0.0897495 154.921C-0.0358991 154.639 -0.00192028 154.252 0.0276586 153.958C0.0985498 153.255 0.46865 152.605 0.772749 151.982C3.63479 154.343 6.6066 156.471 9.67546 158.557C12.9575 160.787 16.0911 163.268 19.1952 165.738C21.9748 167.952 24.788 170.099 27.5386 172.34C28.8652 173.42 30.3776 174.258 31.6388 175.372C32.6579 176.272 34.348 176.675 35.2168 177.734C33.8401 178.557 32.002 179.219 30.4764 178.507C28.7933 177.722 27.5024 176.699 26.0046 175.634C25.2329 175.086 24.4304 174.588 23.6464 174.058C22.9573 173.591 22.4706 172.91 21.7729 172.473C20.3067 171.553 18.8026 170.539 17.4114 169.489C15.9823 168.41 14.4027 167.552 13.024 166.405C11.6105 165.23 10.0284 164.451 8.55269 163.381C5.42516 161.113 2.67116 158.562 0.906953 155.097Z" fill="black"/>
<path fill-rule="evenodd" clip-rule="evenodd" d="M85.2878 34.6737C85.2489 34.8825 85.2101 35.0913 85.1712 35.3003C85.1949 35.3056 87.0664 31.6902 87.3764 31.2536C88.428 29.7734 89.7965 28.5419 91.1158 27.3057C93.9104 24.6871 97.1811 22.5736 99.9197 19.9083C100.821 19.0315 102.435 17.7029 102.079 16.2202C101.725 14.7467 98.7344 15.0461 97.7104 15.4725C96.1051 16.141 94.8011 17.5393 93.6048 18.7577C92.2999 20.0868 90.9845 21.4009 89.8786 22.905C88.6862 24.527 87.5541 26.2836 86.8234 28.1659C86.0048 30.2746 85.685 32.4568 85.2878 34.6737ZM85.9023 41.1429C84.6324 41.5345 86.2245 41.799 85.7271 42.4776C85.1815 43.2218 84.2643 40.929 84.1271 40.4961C83.3187 37.9384 83.6803 34.8312 84.1217 32.2343C84.3447 30.9243 84.4887 29.5928 84.7894 28.2969C85.0827 27.0334 85.7214 25.8326 86.3116 24.6832C87.493 22.3834 89.0575 20.2408 90.833 18.3656C92.6138 16.4843 94.5987 14.602 96.9487 13.4438C98.8904 12.4872 101.968 13.1509 102.877 15.2402C103.806 17.3753 102.55 19.701 101.064 21.2022C99.1267 23.16 97.0156 25.1046 94.8393 26.7928C93.7209 27.6606 92.7834 28.7101 91.6968 29.6155C90.5403 30.5794 89.5398 31.5489 88.6847 32.7954C87.8565 34.0032 87.0041 35.2101 86.4658 36.5812C85.8764 38.0826 85.9023 39.5545 85.9023 41.1429Z" fill="black"/>
<path fill-rule="evenodd" clip-rule="evenodd" d="M35.1061 133.214C32.1878 131.335 29.2598 129.685 26.7184 127.289C24.2093 124.923 22.017 122.255 19.2244 120.202C17.831 119.178 16.3929 118.216 15.0242 117.158C13.7252 116.154 12.2321 115.294 11.058 114.149C9.49298 112.623 6.56297 109.786 8.56235 107.509C11.044 110.461 14.449 112.787 17.5533 115.028C20.8265 117.391 23.8309 120.147 26.9357 122.721C29.9266 125.2 32.9075 127.703 35.826 130.248C36.5924 130.917 37.3316 131.619 38.107 132.277C38.2018 132.357 39.0056 132.866 39.0056 133.002C39.0058 133.327 38.3827 133.53 38.1608 133.62C37.8105 133.763 36.863 134.118 36.4657 133.998C36.2575 133.935 36.2538 133.765 36.1037 133.665C36.0174 133.502 35.9167 133.349 35.8023 133.204C35.5701 133.208 35.3381 133.211 35.1061 133.214Z" fill="black"/>
<path fill-rule="evenodd" clip-rule="evenodd" d="M206.903 100.451C204.823 100.398 201.656 100.391 201.773 103.232C201.83 104.639 202.593 105.672 203.22 106.875C203.877 108.139 204.365 109.445 204.558 110.863C205.339 116.599 203.244 122.204 201.349 127.507C205.419 124.222 208.358 119.65 209.902 114.64C210.65 112.21 210.941 109.087 210.7 106.557C210.579 105.291 210.112 104.156 209.549 103.028C209.267 102.461 208.985 101.814 208.534 101.356C208.083 100.896 207.458 100.743 206.903 100.451ZM199.646 130.793C198.302 128.582 200.418 125.328 201.11 123.173C201.937 120.597 202.7 117.914 203.054 115.227C203.424 112.412 202.946 110.223 201.641 107.737C200.475 105.514 199.782 102.554 201.079 100.202C201.602 99.2554 202.373 99.1391 203.29 98.7614C204.415 98.2982 204.725 97.5144 206.106 97.6386C208.571 97.8599 209.711 100.197 210.627 102.188C212.765 106.831 212.184 112.821 210.361 117.483C209.312 120.165 208.115 122.95 206.334 125.234C205.46 126.354 204.434 127.324 203.368 128.259C202.216 129.269 201.183 130.487 199.646 130.793Z" fill="black"/>
<path fill-rule="evenodd" clip-rule="evenodd" d="M58.9204 50.1965C55.6717 50.8494 52.7069 52.3137 52.1865 55.9648C51.7135 59.283 53.9737 62.3529 56.7492 63.9061C59.7511 65.5865 63.5125 65.8656 66.5036 64.0034C69.6524 62.0429 70.3667 58.1141 68.4502 55.0318C66.3117 51.5921 62.7293 50.5768 58.9204 50.1965ZM61.0083 48.6046C64.877 49.1715 68.4683 51.9248 69.7715 55.6329C71.115 59.4554 69.8805 63.658 66.3237 65.7525C59.1356 69.9857 49.5283 62.931 51.2632 54.8225C51.7037 52.7637 52.9546 51.1694 54.654 49.964C56.5302 48.633 58.799 48.5968 61.0083 48.6046Z" fill="black"/>
<path fill-rule="evenodd" clip-rule="evenodd" d="M198.557 9.78646C193.896 7.67879 189.234 5.57111 184.573 3.46344C184.382 5.57649 184.19 7.6893 183.999 9.80235C183.947 10.3741 183.735 11.152 183.826 11.7162C183.922 12.3183 183.716 12.254 184.501 12.1684C185.505 12.0586 186.512 11.8108 187.505 11.6335C189.291 11.3148 191.191 11.2238 192.939 10.755C193.831 10.5157 194.685 10.4856 195.591 10.3409C196.585 10.182 197.553 9.88766 198.557 9.78646ZM182.789 13.8713C182.789 11.491 183.053 9.14281 183.271 6.77358C183.467 4.64195 183.543 2.61006 184.238 0.579147C184.888 1.75961 186.688 2.2314 187.802 2.83887C189.337 3.67587 190.971 4.29214 192.542 5.05459C194.085 5.80334 195.571 6.66308 197.116 7.41013C197.899 7.78903 198.694 8.14251 199.476 8.52435C199.965 8.76342 201.126 9.14819 201.43 9.59212C202.355 10.9395 199.191 11.0698 198.581 11.1886C196.749 11.5458 194.897 11.747 193.069 12.1141C191.365 12.4569 189.658 12.7749 187.948 13.0856C186.255 13.3931 184.511 13.8713 182.789 13.8713Z" fill="black"/>
<path fill-rule="evenodd" clip-rule="evenodd" d="M39.0552 72.7963C40.8906 72.6054 42.7184 72.3307 44.5517 72.1493C46.2878 71.9774 47.8235 71.7946 49.4095 70.9991C47.2434 70.3459 45.0724 69.7275 42.888 69.1374C41.8046 68.8448 40.7234 68.535 39.6351 68.2617C38.7932 68.05 38.0593 67.9283 37.7357 67.0094C37.359 65.9397 38.4065 66.1018 39.0594 66.3736C39.9599 66.7483 40.9409 66.9813 41.8743 67.293C43.9575 67.9885 46.0534 68.6282 48.1562 69.2606C48.8099 69.4571 52.5974 70.1841 51.2326 71.4477C50.6486 71.9887 49.3455 72.2857 48.6314 72.6741C47.7155 73.1723 46.7183 73.3708 45.6995 73.5691C43.5759 73.9822 41.3721 74.1408 39.2224 74.4992C38.1246 74.6823 37.027 74.8654 35.9294 75.0485C35.2863 75.1556 35.0386 75.145 34.8707 74.4278C34.7485 73.9066 34.9078 73.3852 35.0252 72.8804C35.3229 71.5978 35.6542 70.3217 35.982 69.0467C36.1066 68.5602 36.3274 66.4218 36.7613 66.1878C37.7457 65.6571 36.9862 68.6177 36.9131 68.9802C36.6369 70.3477 36.3088 71.7056 36.1612 73.0934C37.128 73.0058 38.0921 72.9151 39.0552 72.7963Z" fill="black"/>
<path fill-rule="evenodd" clip-rule="evenodd" d="M65.0792 83.6833C65.4434 84.5978 64.8386 84.8024 64.1048 85.1192C63.1529 85.5301 62.2166 85.9638 61.2474 86.3339C59.2084 87.112 57.1548 87.8346 55.1644 88.7349C51.3683 90.4517 47.5209 92.1003 43.7837 93.9386C42.855 94.3954 41.9256 94.8506 40.9886 95.2906C40.0196 95.7458 38.9083 96.5117 37.8716 96.7718C36.9674 96.9986 36.873 96.3547 37.4089 95.7617C38.0997 94.9968 39.1677 94.4258 40.0353 93.8941C43.6057 91.7055 47.5025 89.9239 51.4023 88.4183C55.9098 86.6778 60.4294 85.008 65.0792 83.6833Z" fill="black"/>
<path fill-rule="evenodd" clip-rule="evenodd" d="M74.9905 31.8039C74.86 29.0235 75.2318 26.2355 75.0101 23.4624C71.1976 26.8422 73.0759 32.0654 75.2692 35.7327L74.9905 31.8039ZM76.6408 31.645C76.665 33.0032 76.742 34.3606 76.61 35.7119C76.4714 37.1305 77.1368 37.8612 78.0041 38.906C77.2676 39.6535 75.5774 37.9105 75.1108 37.3967C74.1498 36.3387 73.4348 34.9331 72.7985 33.6627C71.4432 30.9564 70.5099 28.0589 71.5946 25.0875C71.9967 23.9863 72.4885 22.489 73.5531 21.8478C74.7221 21.1438 75.6163 22.1367 76.1013 23.1581C77.2854 25.65 76.3826 28.9702 76.6408 31.645Z" fill="black"/>
<path fill-rule="evenodd" clip-rule="evenodd" d="M117.029 169.853C118.787 169.993 120.519 170.13 122.277 170.241C121.974 167.831 121.67 165.421 121.367 163.011C120.349 163.247 119.332 163.482 118.315 163.718C117.834 163.829 117.097 163.858 116.671 164.098C116.512 164.135 116.353 164.172 116.194 164.209C116.189 164.521 116.186 164.834 116.183 165.147C116.171 166.073 116.144 166.997 116.106 167.922C116.09 168.309 115.955 168.877 116.047 169.261C115.883 169.649 115.987 169.814 116.362 169.756C116.585 169.788 116.807 169.821 117.029 169.853ZM115.819 171.596C114.441 170.909 114.818 168.813 114.82 167.478C114.822 166.629 114.882 165.786 114.904 164.938C114.919 164.356 114.786 163.634 114.986 163.071C115.343 162.07 117.088 162.097 117.986 162.167C118.651 162.219 119.208 162.186 119.89 162.142C120.226 162.12 120.601 162.184 120.931 162.085C121.003 162.064 121.675 161.595 121.645 161.594C122.85 161.64 122.866 164.53 122.945 165.263C123.138 167.071 123.313 168.882 123.47 170.694C123.512 171.173 123.69 171.715 123.235 171.988C122.824 172.235 121.736 171.991 121.282 171.977C119.451 171.922 117.63 171.637 115.819 171.596Z" fill="black"/>
<path fill-rule="evenodd" clip-rule="evenodd" d="M201.838 64.2038C202.634 64.9208 202.252 65.6605 201.991 66.5562C201.834 67.0938 200.972 68.8587 201.21 69.3616C201.485 69.9429 202.776 70.0859 203.328 70.2695C204.29 70.5892 205.256 70.9104 206.166 71.3612C206.57 71.5614 208.026 72.0215 208.3 72.395C208.456 72.6091 208.513 72.7768 208.395 73.0528C208.189 73.5373 207.894 73.2809 207.391 73.177C205.091 72.7018 202.81 72.094 200.677 71.0918C200.083 72.4722 199.579 73.882 199.076 75.2983C198.928 75.7134 198.788 76.6565 198.228 76.7237C197.545 76.8054 197.535 75.8906 197.581 75.3971C197.647 74.6764 198.02 73.9081 198.246 73.2259C198.432 72.6626 199.084 71.49 199.004 70.9097C198.949 70.5102 198.705 70.5381 198.271 70.3812C197.861 70.233 197.451 70.0856 197.042 69.9358C196.385 69.6955 195.731 69.4545 195.091 69.1694C194.74 69.013 194.006 68.8301 193.752 68.5055C193.605 68.3173 193.441 67.6389 193.627 67.4512C194.062 67.0114 196.954 68.195 197.549 68.3566C197.943 68.4639 198.34 68.5458 198.723 68.6864C198.868 68.7399 199.039 68.957 199.196 68.9651C199.861 68.9988 199.914 68.4872 200.12 67.9384C200.6 66.663 201.12 65.3621 201.838 64.2038Z" fill="black"/>
<path fill-rule="evenodd" clip-rule="evenodd" d="M36.0057 89.5768C35.651 88.7073 39.4158 87.6569 40.1147 87.364C41.8205 86.65 43.648 86.218 45.4142 85.6726C47.151 85.1363 48.8803 84.5589 50.5885 83.9383C51.1168 83.7461 54.9209 81.8939 55.1199 82.1647C55.7792 83.0609 47.7964 85.876 47.0185 86.1562C43.4065 87.4567 39.6769 88.4553 36.0057 89.5768Z" fill="black"/>
<path fill-rule="evenodd" clip-rule="evenodd" d="M197.931 21.5784C196.955 21.5882 195.547 21.8649 194.652 21.4689C195.745 21.5053 196.838 21.542 197.931 21.5784Z" fill="black"/>
<path fill-rule="evenodd" clip-rule="evenodd" d="M61.0083 48.6046L58.8383 48.5968C59.5624 48.4289 60.2859 48.3274 61.0083 48.6046Z" fill="black"/>
<path fill-rule="evenodd" clip-rule="evenodd" d="M174.012 48.025C174.524 48.0223 175.036 48.0196 175.544 48.0167C175.031 48.0196 174.522 48.0223 174.012 48.025Z" fill="black"/>
<path fill-rule="evenodd" clip-rule="evenodd" d="M218.749 61.279C218.746 61.8263 218.742 62.3736 218.737 62.9188C218.741 62.3707 218.745 61.8248 218.749 61.279Z" fill="black"/>
<path fill-rule="evenodd" clip-rule="evenodd" d="M117.986 162.167C117.442 162.207 116.899 162.246 116.356 162.285C116.9 162.246 117.443 162.206 117.986 162.167Z" fill="black"/>
<path fill-rule="evenodd" clip-rule="evenodd" d="M121.048 57.8517C120.496 57.8965 119.944 57.9414 119.393 57.9862C119.945 57.9412 120.496 57.8965 121.048 57.8517Z" fill="black"/>
<path fill-rule="evenodd" clip-rule="evenodd" d="M178.159 47.8448C178.549 47.8441 178.94 47.8434 179.327 47.8426C178.935 47.8436 178.547 47.8443 178.159 47.8448Z" fill="black"/>
<path fill-rule="evenodd" clip-rule="evenodd" d="M99.5771 58.9198C99.0918 58.9635 98.6061 59.0073 98.1211 59.051C98.6063 59.0073 99.0918 58.9635 99.5771 58.9198Z" fill="black"/>
<path fill-rule="evenodd" clip-rule="evenodd" d="M121.014 24.275C120.529 24.2779 120.043 24.2808 119.558 24.2838C120.042 24.0271 120.528 24.0933 121.014 24.275Z" fill="black"/>
<path fill-rule="evenodd" clip-rule="evenodd" d="M32.4076 108.232C32.0038 108.21 31.6747 108.407 31.4469 108.021C31.8197 107.731 32.0348 108.066 32.4076 108.232Z" fill="black"/>
<path fill-rule="evenodd" clip-rule="evenodd" d="M107.304 75.8141L106.044 75.6723L107.304 75.8141Z" fill="black"/>
<path fill-rule="evenodd" clip-rule="evenodd" d="M115.819 171.596C116.097 171.602 116.376 171.608 116.651 171.615C116.371 171.608 116.095 171.602 115.819 171.596Z" fill="black"/>
<path fill-rule="evenodd" clip-rule="evenodd" d="M180.496 22.3709C180.062 22.4098 179.628 22.4486 179.194 22.4875C179.628 22.4484 180.062 22.4098 180.496 22.3709Z" fill="black"/>
<path fill-rule="evenodd" clip-rule="evenodd" d="M42.9916 153.994C42.5749 153.996 42.1583 153.998 41.7418 153.999C42.1586 153.998 42.5751 153.996 42.9916 153.994Z" fill="black"/>
<path fill-rule="evenodd" clip-rule="evenodd" d="M9.49194 146.607C9.07123 146.607 8.65077 146.608 8.23032 146.609C8.65102 146.608 9.07123 146.607 9.49194 146.607Z" fill="black"/>
<path fill-rule="evenodd" clip-rule="evenodd" d="M115.786 58.1989C115.359 58.2409 114.932 58.2827 114.505 58.3247C114.932 58.2827 115.359 58.2409 115.786 58.1989Z" fill="black"/>
<path fill-rule="evenodd" clip-rule="evenodd" d="M103.871 58.8919C103.45 58.8435 103.03 58.7951 102.61 58.7467C103.027 58.8281 103.489 58.5066 103.871 58.8919Z" fill="black"/>
<path fill-rule="evenodd" clip-rule="evenodd" d="M141.925 75.7584C142.187 75.7288 142.554 75.6371 142.824 75.6799C142.788 75.8339 142.026 75.7579 141.925 75.7584Z" fill="black"/>
<path fill-rule="evenodd" clip-rule="evenodd" d="M115.272 108.72C115.554 108.725 115.836 108.73 116.115 108.735C115.832 108.73 115.552 108.725 115.272 108.72Z" fill="black"/>
<path fill-rule="evenodd" clip-rule="evenodd" d="M89.8132 75.1512C89.4015 75.191 88.9901 75.2309 88.5784 75.2705C88.9903 75.2306 89.4015 75.191 89.8132 75.1512Z" fill="black"/>
<path fill-rule="evenodd" clip-rule="evenodd" d="M43.725 73.7483C43.9494 73.7544 44.1738 73.7605 44.3953 73.7666C44.1699 73.7605 43.9475 73.7544 43.725 73.7483Z" fill="black"/>
<path fill-rule="evenodd" clip-rule="evenodd" d="M104.391 75.4612C104.039 75.4541 103.687 75.447 103.335 75.4401C103.687 75.447 104.039 75.4541 104.391 75.4612Z" fill="black"/>
<path fill-rule="evenodd" clip-rule="evenodd" d="M39.0552 72.7964C38.6993 72.8404 38.3434 72.8841 37.9879 72.9279C38.3441 72.8839 38.6996 72.8401 39.0552 72.7964Z" fill="black"/>
<path fill-rule="evenodd" clip-rule="evenodd" d="M87.8785 69.7728C88.0983 69.7816 88.3181 69.7903 88.5351 69.7999C88.3142 69.7916 88.0963 69.7823 87.8785 69.7728Z" fill="black"/>
<path fill-rule="evenodd" clip-rule="evenodd" d="M104.647 106.741C104.871 106.727 105.094 106.712 105.314 106.697C105.09 106.712 104.869 106.727 104.647 106.741Z" fill="black"/>
<path fill-rule="evenodd" clip-rule="evenodd" d="M121.721 77.793C121.362 77.7482 121.003 77.7035 120.644 77.6588C121.003 77.7035 121.362 77.7482 121.721 77.793Z" fill="black"/>
<path fill-rule="evenodd" clip-rule="evenodd" d="M35.1061 133.214C35.339 133.211 35.572 133.208 35.8023 133.204C35.5686 133.207 35.3371 133.211 35.1061 133.214Z" fill="black"/>
<path fill-rule="evenodd" clip-rule="evenodd" d="M15.9785 104.266C15.6074 104.229 15.2363 104.191 14.865 104.154C15.2361 104.191 15.6072 104.229 15.9785 104.266Z" fill="black"/>
<path fill-rule="evenodd" clip-rule="evenodd" d="M8.06051 146.657C7.69579 146.7 7.33106 146.742 6.96609 146.784C7.33131 146.742 7.69579 146.7 8.06051 146.657Z" fill="black"/>
<path fill-rule="evenodd" clip-rule="evenodd" d="M206.884 47.9656C206.856 48.2809 206.827 48.5963 206.798 48.9104C206.826 48.5946 206.855 48.2802 206.884 47.9656Z" fill="black"/>
<path fill-rule="evenodd" clip-rule="evenodd" d="M45.1714 153.679C44.8045 153.721 44.4376 153.763 44.0709 153.806C44.4378 153.763 44.8047 153.721 45.1714 153.679Z" fill="black"/>
<path fill-rule="evenodd" clip-rule="evenodd" d="M41.5716 154.043C41.2003 154.302 40.8292 154.317 40.4576 154.044C40.829 154.043 41.2003 154.043 41.5716 154.043Z" fill="black"/>
<path fill-rule="evenodd" clip-rule="evenodd" d="M34.5314 154.353C34.1713 154.353 33.8115 154.354 33.4516 154.354C33.8117 154.354 34.1715 154.353 34.5314 154.353Z" fill="black"/>
<path fill-rule="evenodd" clip-rule="evenodd" d="M76.6408 31.6449C76.61 31.3254 76.5792 31.0062 76.5484 30.6879C76.5792 31.0079 76.61 31.3264 76.6408 31.6449Z" fill="black"/>
<path fill-rule="evenodd" clip-rule="evenodd" d="M115.963 24.5106C115.601 24.5554 115.239 24.5998 114.878 24.6443C115.239 24.5998 115.601 24.5554 115.963 24.5106Z" fill="black"/>
<path fill-rule="evenodd" clip-rule="evenodd" d="M117.245 24.3415C116.877 24.3825 116.509 24.4238 116.142 24.4651C116.51 24.4238 116.877 24.3825 117.245 24.3415Z" fill="black"/>
<path fill-rule="evenodd" clip-rule="evenodd" d="M60.141 66.9141C60.3673 66.9107 60.5937 66.9072 60.8169 66.9038C60.5895 66.9072 60.3654 66.9107 60.141 66.9141Z" fill="black"/>
<path fill-rule="evenodd" clip-rule="evenodd" d="M92.8969 63.3756C94.0976 63.1776 95.2981 63.1116 96.4984 63.3749L92.8969 63.3756Z" fill="black"/>
<path fill-rule="evenodd" clip-rule="evenodd" d="M124.917 49.8704C125.167 49.2177 125.229 48.9728 125.839 48.6349C125.585 49.2693 125.545 49.6086 124.917 49.8704Z" fill="black"/>
<path fill-rule="evenodd" clip-rule="evenodd" d="M154.194 114.465C154.219 115.143 154.243 115.822 154.266 116.5C154.242 115.821 154.218 115.143 154.194 114.465Z" fill="black"/>
<path fill-rule="evenodd" clip-rule="evenodd" d="M197.734 23.1458C197.191 23.158 196.648 23.1705 196.107 23.1827C196.651 23.1705 197.193 23.158 197.734 23.1458Z" fill="black"/>
<path fill-rule="evenodd" clip-rule="evenodd" d="M125.382 126.526C125.401 127.091 125.42 127.657 125.438 128.222C125.419 127.656 125.401 127.091 125.382 126.526Z" fill="black"/>
<path fill-rule="evenodd" clip-rule="evenodd" d="M58.8271 108.401C59.3756 108.405 59.9244 108.409 60.473 108.413C59.9242 108.409 59.3756 108.405 58.8271 108.401Z" fill="black"/>
<path fill-rule="evenodd" clip-rule="evenodd" d="M105.461 79.3421C105.13 79.3452 104.8 79.3482 104.472 79.3523C104.804 79.3494 105.132 79.3457 105.461 79.3421Z" fill="black"/>
<path fill-rule="evenodd" clip-rule="evenodd" d="M104.384 61.3594C104.112 61.3501 103.84 61.3408 103.571 61.3325C103.844 61.342 104.114 61.3506 104.384 61.3594Z" fill="black"/>
<path fill-rule="evenodd" clip-rule="evenodd" d="M65.5077 108.23C65.9367 108.188 66.3655 108.146 66.7945 108.104C66.3655 108.146 65.9367 108.188 65.5077 108.23Z" fill="black"/>
<path fill-rule="evenodd" clip-rule="evenodd" d="M56.161 108.422C56.5813 108.416 57.0015 108.409 57.4214 108.403C57.0015 108.409 56.5813 108.416 56.161 108.422Z" fill="black"/>
<path fill-rule="evenodd" clip-rule="evenodd" d="M60.6472 108.412C61.0823 108.374 61.5175 108.336 61.9528 108.298C61.5177 108.336 61.0823 108.374 60.6472 108.412Z" fill="black"/>
<path fill-rule="evenodd" clip-rule="evenodd" d="M62.234 109.101C62.0176 109.1 61.8013 109.099 61.5879 109.098C61.8052 109.099 62.0196 109.1 62.234 109.101Z" fill="black"/>
<path fill-rule="evenodd" clip-rule="evenodd" d="M154.004 99.3791C154.037 99.0601 154.069 98.7413 154.101 98.4235C154.069 98.7428 154.037 99.0608 154.004 99.3791Z" fill="black"/>
<path fill-rule="evenodd" clip-rule="evenodd" d="M89.036 67.1432C89.3088 67.1664 89.5819 67.1896 89.8552 67.2131C89.5503 67.2287 89.2453 67.2441 88.9407 67.2598C88.9424 67.1972 88.9742 67.1583 89.036 67.1432Z" fill="black"/>
<path fill-rule="evenodd" clip-rule="evenodd" d="M159.151 120.78C159.133 120.49 159.116 120.199 159.099 119.91C159.116 120.202 159.134 120.491 159.151 120.78Z" fill="black"/>
<path fill-rule="evenodd" clip-rule="evenodd" d="M93.9346 66.035C93.7156 66.0394 93.4963 66.0436 93.2799 66.0477C93.5002 66.0433 93.7173 66.0392 93.9346 66.035Z" fill="black"/>
<path fill-rule="evenodd" clip-rule="evenodd" d="M174.137 102.695C174.502 102.738 174.867 102.78 175.232 102.823C174.867 102.78 174.502 102.738 174.137 102.695Z" fill="black"/>
<path fill-rule="evenodd" clip-rule="evenodd" d="M98.2856 78.6319C98.0607 78.6354 97.8361 78.6385 97.6141 78.6424C97.8397 78.6393 98.0627 78.6356 98.2856 78.6319Z" fill="black"/>
<path fill-rule="evenodd" clip-rule="evenodd" d="M85.2878 34.6737C85.5237 34.7996 85.4012 35.353 85.1712 35.3002C85.2101 35.0912 85.2489 34.8825 85.2878 34.6737Z" fill="black"/>
<path fill-rule="evenodd" clip-rule="evenodd" d="M206.903 100.451C206.686 100.445 206.47 100.44 206.256 100.434C206.473 100.44 206.688 100.446 206.903 100.451Z" fill="black"/>
<path fill-rule="evenodd" clip-rule="evenodd" d="M74.9905 31.8038C74.9675 31.3162 74.9448 30.8287 74.9221 30.3425C74.9448 30.8307 74.9678 31.3171 74.9905 31.8038Z" fill="black"/>
<path fill-rule="evenodd" clip-rule="evenodd" d="M116.029 169.707C116.362 169.756 116.696 169.804 117.03 169.853C116.696 169.804 116.362 169.756 116.029 169.707Z" fill="black"/>
<path fill-rule="evenodd" clip-rule="evenodd" d="M113.822 44.1595C112.645 44.4017 111.436 44.5283 110.286 44.885C110 44.974 109.059 45.5206 108.715 45.3766C108.193 45.1573 108.457 44.5948 108.677 44.2947C109.265 43.4919 110.317 43.0421 111.282 43.0521C112.245 43.0624 113.567 43.0272 113.822 44.1595Z" fill="black"/>
<path fill-rule="evenodd" clip-rule="evenodd" d="M110.551 46.3133C111.848 47.2205 112.838 47.6674 112.947 45.6284C114.352 45.8198 113.723 48.082 112.66 48.2526C111.503 48.4381 110.731 47.2826 110.551 46.3133Z" fill="black"/>
</g>
</svg>
