<svg width="97" height="25" viewBox="0 0 97 25" fill="none" xmlns="http://www.w3.org/2000/svg">
<path fill-rule="evenodd" clip-rule="evenodd" d="M25 12.5C25 19.4036 19.4036 25 12.5 25C5.59644 25 0 19.4036 0 12.5C0 5.59644 5.59644 0 12.5 0C19.4036 0 25 5.59644 25 12.5ZM7.87406 11.4826C6.38765 11.0962 5.90964 10.6968 5.90964 10.0747C5.90964 9.361 6.57099 8.86335 7.67762 8.86335C8.84317 8.86335 9.27535 9.41993 9.31464 10.2384H10.7618C10.7159 9.11217 10.0284 8.07758 8.65983 7.74363V6.3096H6.69541V7.72398C5.42508 7.999 4.40358 8.82406 4.40358 10.0878C4.40358 11.6004 5.65426 12.3535 7.48117 12.7922C9.11819 13.1851 9.4456 13.7613 9.4456 14.3703C9.4456 14.8221 9.12474 15.5424 7.67762 15.5424C6.32871 15.5424 5.79832 14.94 5.72629 14.1673H4.28571C4.36429 15.6013 5.43818 16.4067 6.69541 16.6752V18.0961H8.65983V16.6883C9.9367 16.446 10.9517 15.7061 10.9517 14.3637C10.9517 12.5041 9.36047 11.8689 7.87406 11.4826ZM20.5349 15.6668C20.879 14.9135 21.0511 14.0392 21.0511 13.0441V12.479C21.0465 11.4885 20.8697 10.6213 20.521 9.87721C20.1722 9.12851 19.6769 8.55652 19.0352 8.16125C18.3981 7.76132 17.6657 7.56136 16.8379 7.56136C16.0102 7.56136 15.2754 7.76365 14.6337 8.16822C13.9966 8.56815 13.5013 9.14711 13.1479 9.90511C12.7992 10.6631 12.6248 11.5374 12.6248 12.5279V13.0999C12.6294 14.0718 12.8061 14.9298 13.1549 15.6738C13.5083 16.4178 14.0059 16.9922 14.6476 17.3967C15.294 17.7967 16.0288 17.9966 16.8519 17.9966C17.6843 17.9966 18.419 17.7967 19.0561 17.3967C19.6979 16.9922 20.1908 16.4155 20.5349 15.6668ZM18.6446 9.92603C19.0724 10.5259 19.2863 11.3886 19.2863 12.5139V13.0441C19.2863 14.188 19.0747 15.0576 18.6516 15.6529C18.233 16.2481 17.6331 16.5457 16.8519 16.5457C16.0799 16.5457 15.4754 16.2411 15.0383 15.6319C14.6058 15.0228 14.3896 14.1601 14.3896 13.0441V12.4581C14.3989 11.3653 14.6174 10.5213 15.0452 9.92603C15.4777 9.32615 16.0753 9.0262 16.8379 9.0262C17.6192 9.0262 18.2214 9.32615 18.6446 9.92603Z" fill="url(#paint0_linear)"/>
<circle cx="12.5" cy="12.5" r="11.25" stroke="white" stroke-width="0.5"/>
<path d="M37.9673 14.5271C37.9673 14.0806 37.8092 13.7365 37.493 13.4947C37.1814 13.2529 36.6164 13.0087 35.798 12.7623C34.9795 12.5158 34.3285 12.2414 33.8448 11.9392C32.9194 11.3579 32.4567 10.5999 32.4567 9.66517C32.4567 8.84672 32.7892 8.17243 33.4542 7.64229C34.1238 7.11216 34.9911 6.84709 36.056 6.84709C36.7629 6.84709 37.393 6.9773 37.9464 7.23772C38.4998 7.49813 38.9346 7.87016 39.2508 8.35379C39.567 8.83277 39.7251 9.36523 39.7251 9.95117H37.9673C37.9673 9.42103 37.7999 9.00715 37.4651 8.70954C37.1349 8.40727 36.6606 8.25613 36.0421 8.25613C35.4655 8.25613 35.0167 8.37936 34.6958 8.62583C34.3796 8.8723 34.2215 9.21642 34.2215 9.6582C34.2215 10.0302 34.3936 10.3418 34.7377 10.5929C35.0818 10.8394 35.6491 11.0812 36.4397 11.3184C37.2302 11.5509 37.865 11.8183 38.344 12.1205C38.823 12.4181 39.1741 12.7623 39.3973 13.1529C39.6205 13.5389 39.7321 13.9923 39.7321 14.5131C39.7321 15.3595 39.4066 16.0338 38.7555 16.536C38.1092 17.0336 37.2302 17.2824 36.1188 17.2824C35.3841 17.2824 34.7075 17.1475 34.089 16.8778C33.4751 16.6034 32.9962 16.2267 32.652 15.7478C32.3126 15.2688 32.1428 14.7107 32.1428 14.0737H33.9076C33.9076 14.6503 34.0983 15.0967 34.4796 15.4129C34.8609 15.7292 35.4073 15.8873 36.1188 15.8873C36.7327 15.8873 37.193 15.764 37.5 15.5176C37.8115 15.2665 37.9673 14.9363 37.9673 14.5271Z" fill="url(#paint1_linear)"/>
<path d="M43.0454 13.3691V17.1428H41.2807V6.9866H45.166C46.3007 6.9866 47.2005 7.28189 47.8655 7.87248C48.5351 8.46307 48.8699 9.24432 48.8699 10.2162C48.8699 11.2114 48.5421 11.9857 47.8864 12.5391C47.2354 13.0924 46.3216 13.3691 45.1451 13.3691H43.0454ZM43.0454 11.9531H45.166C45.7938 11.9531 46.2728 11.8066 46.6029 11.5137C46.9331 11.216 47.0982 10.7882 47.0982 10.2302C47.0982 9.68145 46.9308 9.24432 46.5959 8.9188C46.2611 8.58863 45.8007 8.41889 45.2148 8.40959H43.0454V11.9531Z" fill="url(#paint2_linear)"/>
<path d="M52.1833 13.3691V17.1428H50.4185V6.9866H54.3038C55.4385 6.9866 56.3383 7.28189 57.0033 7.87248C57.673 8.46307 58.0078 9.24432 58.0078 10.2162C58.0078 11.2114 57.6799 11.9857 57.0242 12.5391C56.3732 13.0924 55.4594 13.3691 54.2829 13.3691H52.1833ZM52.1833 11.9531H54.3038C54.9316 11.9531 55.4106 11.8066 55.7408 11.5137C56.0709 11.216 56.236 10.7882 56.236 10.2302C56.236 9.68145 56.0686 9.24432 55.7338 8.9188C55.399 8.58863 54.9386 8.41889 54.3526 8.40959H52.1833V11.9531Z" fill="url(#paint3_linear)"/>
<path d="M71.2193 12.3298C71.2193 13.325 71.0472 14.1992 70.7031 14.9526C70.359 15.7013 69.866 16.2779 69.2243 16.6825C68.5872 17.0824 67.8525 17.2824 67.0201 17.2824C66.197 17.2824 65.4622 17.0824 64.8158 16.6825C64.1741 16.2779 63.6765 15.7036 63.3231 14.9595C62.9743 14.2155 62.7976 13.3575 62.7929 12.3856V11.8136C62.7929 10.8231 62.9673 9.94884 63.3161 9.19084C63.6695 8.43284 64.1648 7.85388 64.8019 7.45396C65.4436 7.04938 66.1784 6.84709 67.0061 6.84709C67.8339 6.84709 68.5663 7.04705 69.2034 7.44698C69.8451 7.84226 70.3404 8.41424 70.6891 9.16294C71.0379 9.90699 71.2146 10.7743 71.2193 11.7648V12.3298ZM69.4545 11.7997C69.4545 10.6743 69.2406 9.81166 68.8127 9.21177C68.3896 8.61188 67.7874 8.31194 67.0061 8.31194C66.2435 8.31194 65.6459 8.61188 65.2134 9.21177C64.7856 9.80701 64.567 10.651 64.5577 11.7439V12.3298C64.5577 13.4459 64.774 14.3085 65.2064 14.9177C65.6436 15.5269 66.2481 15.8315 67.0201 15.8315C67.8013 15.8315 68.4012 15.5338 68.8197 14.9386C69.2429 14.3434 69.4545 13.4738 69.4545 12.3298V11.7997Z" fill="url(#paint4_linear)"/>
<path d="M74.7419 13.3691V17.1428H72.9771V6.9866H76.8624C77.9971 6.9866 78.8969 7.28189 79.5619 7.87248C80.2316 8.46307 80.5664 9.24432 80.5664 10.2162C80.5664 11.2114 80.2385 11.9857 79.5828 12.5391C78.9318 13.0924 78.018 13.3691 76.8415 13.3691H74.7419ZM74.7419 11.9531H76.8624C77.4902 11.9531 77.9692 11.8066 78.2994 11.5137C78.6295 11.216 78.7946 10.7882 78.7946 10.2302C78.7946 9.68145 78.6272 9.24432 78.2924 8.9188C77.9576 8.58863 77.4972 8.41889 76.9112 8.40959H74.7419V11.9531Z" fill="url(#paint5_linear)"/>
<path d="M86.5583 14.7782H82.6241L81.801 17.1428H79.9665L83.803 6.9866H85.3864L89.2299 17.1428H87.3884L86.5583 14.7782ZM83.1194 13.3552H86.063L84.5912 9.14201L83.1194 13.3552Z" fill="url(#paint6_linear)"/>
<path d="M96.8889 8.40959H93.7221V17.1428H91.9712V8.40959H88.8323V6.9866H96.8889V8.40959Z" fill="url(#paint7_linear)"/>
<defs>
<linearGradient id="paint0_linear" x1="-6" y1="15" x2="29" y2="3.5" gradientUnits="userSpaceOnUse">
<stop stop-color="#FE69A9"/>
<stop offset="1" stop-color="#FF8860"/>
</linearGradient>
<linearGradient id="paint1_linear" x1="32.1428" y1="12.0647" x2="96.8889" y2="12.0647" gradientUnits="userSpaceOnUse">
<stop stop-color="#FF8860"/>
<stop offset="1" stop-color="#FE69A9"/>
</linearGradient>
<linearGradient id="paint2_linear" x1="32.1428" y1="12.0647" x2="96.8889" y2="12.0647" gradientUnits="userSpaceOnUse">
<stop stop-color="#FF8860"/>
<stop offset="1" stop-color="#FE69A9"/>
</linearGradient>
<linearGradient id="paint3_linear" x1="32.1428" y1="12.0647" x2="96.8889" y2="12.0647" gradientUnits="userSpaceOnUse">
<stop stop-color="#FF8860"/>
<stop offset="1" stop-color="#FE69A9"/>
</linearGradient>
<linearGradient id="paint4_linear" x1="32.1428" y1="12.0647" x2="96.8889" y2="12.0647" gradientUnits="userSpaceOnUse">
<stop stop-color="#FF8860"/>
<stop offset="1" stop-color="#FE69A9"/>
</linearGradient>
<linearGradient id="paint5_linear" x1="32.1428" y1="12.0647" x2="96.8889" y2="12.0647" gradientUnits="userSpaceOnUse">
<stop stop-color="#FF8860"/>
<stop offset="1" stop-color="#FE69A9"/>
</linearGradient>
<linearGradient id="paint6_linear" x1="32.1428" y1="12.0647" x2="96.8889" y2="12.0647" gradientUnits="userSpaceOnUse">
<stop stop-color="#FF8860"/>
<stop offset="1" stop-color="#FE69A9"/>
</linearGradient>
<linearGradient id="paint7_linear" x1="32.1428" y1="12.0647" x2="96.8889" y2="12.0647" gradientUnits="userSpaceOnUse">
<stop stop-color="#FF8860"/>
<stop offset="1" stop-color="#FE69A9"/>
</linearGradient>
</defs>
</svg>
