<svg width="251" height="204" viewBox="0 0 251 204" fill="none" xmlns="http://www.w3.org/2000/svg">
<g opacity="0.4">
<path fill-rule="evenodd" clip-rule="evenodd" d="M131.272 80.7647C131.077 80.4841 130.73 80.8178 130.875 81.0204C131.007 80.9353 131.139 80.85 131.272 80.7647ZM136.636 82.3238C136.418 82.2153 136.344 82.3862 136.258 82.5832C136.233 82.6409 136.207 82.701 136.176 82.757C136.371 82.8646 136.462 82.6756 136.553 82.4842C136.58 82.4287 136.607 82.3727 136.636 82.3238ZM132.858 75.5906C132.42 75.0321 132.388 75.2196 132.352 75.8561C132.436 75.8119 132.521 75.7676 132.606 75.7231C132.69 75.6791 132.774 75.6349 132.858 75.5906ZM192.718 45.3807C192.166 45.6388 192.108 45.8263 192.554 46.1422C192.607 45.8965 192.646 45.7163 192.718 45.3807ZM131.077 71.4257C131.208 71.8525 131.741 71.9444 131.741 71.4257H131.077ZM172.408 49.4313C172.726 49.5325 172.889 49.5843 173.032 49.5515C173.181 49.5176 173.309 49.3919 173.571 49.1352C173.442 49.1682 173.326 49.1978 173.215 49.2259C173.126 49.2487 173.04 49.2704 172.953 49.2927C172.786 49.3352 172.615 49.3787 172.408 49.4313ZM157.655 93.1802C157.466 92.9147 157.278 92.6495 157.09 92.384C157.027 92.5791 156.963 92.7744 156.9 92.9695L156.899 92.9707L156.853 93.1147C157.12 93.1365 157.387 93.1582 157.655 93.1802ZM195.776 38.856C195.701 39.2105 195.665 39.3857 195.735 39.486C195.803 39.584 195.974 39.6101 196.312 39.6622L196.058 39.2806L196.027 39.2327C195.949 39.1164 195.868 38.9946 195.776 38.856ZM192.791 39.9648C192.768 39.8495 192.745 39.7338 192.721 39.6185L192.718 39.6009C192.695 39.4913 192.673 39.3818 192.651 39.2721C192.611 39.4483 192.458 39.4388 192.31 39.4293C192.182 39.4212 192.057 39.4134 192.01 39.5241C191.775 40.0722 192.522 39.9978 192.791 39.9648ZM135.952 80.8593C135.788 80.5349 135.752 80.5098 135.394 80.4418C135.486 80.7655 135.486 81.0182 135.485 81.3421V81.4093C136.069 81.3267 136.253 81.2842 136.264 80.663L135.952 80.8593ZM134.248 82.0051C134.171 82.2923 133.952 82.2229 133.766 82.1635C133.598 82.1097 133.455 82.0645 133.468 82.3004C133.461 82.164 134.139 83.0601 134.1 83.0313C134.441 83.2882 134.64 83.264 135.026 82.9692C134.475 82.9484 134.411 82.6732 134.326 82.3035C134.304 82.2094 134.281 82.109 134.248 82.0051ZM197.045 39.6964C196.925 39.9727 196.805 40.2491 196.685 40.5254L196.658 40.5865C196.547 40.8424 196.436 41.0984 196.324 41.3541C196.274 41.4702 196.235 41.5726 196.201 41.6611C196.041 42.0801 195.997 42.1938 195.413 42.0102C195.433 41.976 195.481 41.9082 195.541 41.8234V41.8232C195.721 41.5677 196.012 41.1568 195.979 41.0324C195.949 40.9153 195.661 40.7706 195.401 40.6395C195.239 40.5584 195.089 40.4826 195.016 40.4217C194.804 40.2457 194.727 40.0854 194.645 39.9157C194.598 39.816 194.548 39.7126 194.468 39.6011C194.554 39.3214 194.487 39.1907 194.269 39.2095C194.206 39.3784 194.144 39.5471 194.081 39.7158L194.077 39.7265L194.028 39.8575C194.039 40.1174 194.168 40.2166 194.32 40.3332C194.436 40.423 194.566 40.5227 194.665 40.7136L194.685 40.75C194.829 41.0265 194.871 41.1062 194.848 41.1566C194.838 41.1768 194.818 41.1922 194.79 41.214C194.732 41.2592 194.639 41.3313 194.533 41.5301C194.436 41.7132 194.369 41.9139 194.303 42.1089C194.179 42.4803 194.061 42.832 193.757 43.0071C194.006 43.1163 194.255 43.2256 194.503 43.3346C193.923 43.9722 195.131 43.6617 195.33 43.5999L195.33 43.6011L195.329 43.6023C195.125 44.0355 194.921 44.4684 194.718 44.9016C194.265 44.6481 193.981 44.2264 193.699 43.8069C193.6 43.6595 193.501 43.5121 193.395 43.3725C193.085 43.9494 192.774 44.5266 192.464 45.1037C192.605 45.0908 192.747 45.0776 192.888 45.0646C193.056 45.0492 193.223 45.0338 193.39 45.0182C193.381 45.0368 193.353 45.0795 193.316 45.136L193.316 45.1362C193.19 45.3301 192.959 45.686 192.986 45.7821C193.048 46.0106 193.296 46.0779 193.539 46.1436C193.835 46.2238 194.123 46.3018 194.059 46.665C194.044 46.7499 193.101 47.7001 192.94 47.7917C193.039 47.8365 193.127 47.8678 193.203 47.8949C193.486 47.9959 193.592 48.0335 193.458 48.4747C193.238 48.342 193.018 48.209 192.798 48.076C192.757 48.1501 192.714 48.2237 192.672 48.2975L192.671 48.2977C192.52 48.5588 192.368 48.8216 192.275 49.1086C192.298 49.3494 192.255 49.5775 192.146 49.7931C192.016 49.9859 191.87 50.1659 191.708 50.3326C191.579 50.6711 191.538 52.5192 191.693 52.8206C192.039 52.374 192.812 53.1624 191.507 53.1624C191.399 53.1624 191.312 53.1582 191.241 53.1545C190.942 53.1396 190.933 53.1391 190.756 53.5452C190.585 53.94 190.492 54.2844 190.979 54.3223C190.685 54.9016 190.677 55.3742 190.669 55.9359C190.667 56.0733 190.665 56.2161 190.658 56.3669C190.637 56.8487 190.528 57.3281 190.42 57.8033C190.388 57.9421 190.357 58.0805 190.327 58.2186C190.385 58.1355 190.443 58.0524 190.501 57.969C190.559 57.8859 190.617 57.8028 190.675 57.7194C190.931 58.2658 190.817 58.7415 190.686 59.2881C190.657 59.4076 190.627 59.5308 190.601 59.6587C190.415 59.413 190.322 59.5599 190.225 59.7149C190.153 59.8298 190.078 59.9491 189.96 59.9154C189.626 59.82 189.637 59.7396 189.654 59.6132C189.667 59.5257 189.682 59.4162 189.588 59.2644C189.544 59.1945 189.511 59.1353 189.483 59.0835C189.379 58.8982 189.329 58.8082 189.041 58.6547C188.692 58.4682 188.153 58.4103 187.672 58.3587C187.482 58.3382 187.301 58.3188 187.144 58.2927C186.228 58.1399 185.31 58.1001 184.383 58.0597L184.346 58.058C180.828 57.9055 177.323 57.8664 173.805 58.0597C170.57 58.2377 167.255 58.6914 164.082 59.3059C163.856 59.3497 163.63 59.3935 163.405 59.437C160.262 60.0432 157.181 60.6375 154.128 61.67C153.847 61.7654 153.565 61.9067 153.284 62.0477V62.048C152.933 62.224 152.582 62.4 152.231 62.4868C151.985 62.5481 151.737 62.5838 151.488 62.62C151.133 62.6713 150.774 62.7231 150.406 62.8507C149.578 63.1382 148.734 63.3873 147.89 63.6364C147.208 63.8376 146.526 64.039 145.852 64.2605C145.421 64.4025 144.98 64.5382 144.536 64.6749C143.308 65.0528 142.057 65.4375 140.921 65.981C140.58 66.144 140.256 66.3364 139.931 66.5288C139.615 66.716 139.299 66.9035 138.967 67.0639C138.829 67.1314 138.669 67.1974 138.501 67.2668C137.903 67.5142 137.198 67.806 136.937 68.359C136.806 68.6352 136.829 68.8354 136.91 69.1217C137.059 69.6517 137.18 69.6399 137.544 69.6045C137.575 69.6013 137.607 69.5984 137.641 69.5952C138.027 69.5612 138.485 69.3593 138.92 69.1676C139.176 69.0547 139.424 68.9454 139.644 68.8758C141.275 68.3619 142.926 67.9505 144.584 67.5389C145.837 67.2282 147.091 66.8165 148.342 66.4058C150.068 65.8397 151.789 65.275 153.493 64.978C154.368 64.8254 155.221 64.5411 156.075 64.2566C156.921 63.9745 157.768 63.6919 158.64 63.5367C158.765 63.5144 158.968 63.4413 159.195 63.3595C159.665 63.1896 160.241 62.9815 160.454 63.1094C160.51 63.1431 160.62 63.424 160.708 63.6494C160.752 63.7606 160.79 63.8584 160.814 63.9058C161.073 64.4231 161.37 64.9225 161.717 65.3857C162.487 66.4112 163.449 67.2902 164.402 68.1615L164.402 68.1617C164.747 68.4771 165.091 68.7914 165.425 69.1112C166.476 70.1205 167.427 71.2064 168.381 72.2961V72.2964C168.727 72.6912 169.073 73.0867 169.425 73.4791C169.487 73.4069 169.549 73.3346 169.612 73.2625L169.769 73.0796C169.658 73.9377 170.24 74.5754 170.779 75.1648C170.801 75.1897 170.824 75.2144 170.846 75.2394C170.87 75.2653 170.894 75.2912 170.917 75.3168C171.594 76.0688 172.139 76.7755 172.673 77.6328C172.977 78.12 173.34 78.5654 173.699 79.0059C173.857 79.201 174.016 79.3953 174.168 79.5918C174.451 79.9585 174.679 80.3692 174.909 80.7821C175.074 81.0793 175.239 81.3776 175.427 81.6616C175.819 82.2559 176.208 82.8543 176.597 83.4527C177.23 84.4254 177.863 85.3976 178.505 86.3502C178.994 87.0745 179.379 87.8895 179.766 88.7141C179.858 88.9116 180.007 89.1712 180.169 89.4548V89.455C180.546 90.1119 180.996 90.8983 180.996 91.3415C180.973 91.4456 181.034 91.7248 181.098 92.0169C181.225 92.597 181.362 93.2276 180.883 92.6414C180.85 92.6918 180.818 92.7422 180.785 92.7925L180.738 92.8663C180.706 92.9155 180.674 92.9646 180.642 93.0135C180.607 93.0675 180.573 93.1216 180.538 93.1753C180.735 93.0927 180.932 93.0101 181.129 92.9275C180.752 93.2692 181.056 93.4232 181.339 93.5662C181.505 93.6501 181.664 93.73 181.673 93.842C181.627 93.886 181.582 93.9297 181.536 93.9735L181.374 94.1302C181.204 94.4807 180.982 94.5262 180.71 94.2666C180.586 94.2742 180.502 94.2497 180.424 94.2265C180.313 94.1937 180.211 94.1637 180.016 94.2289C180.155 94.4458 180.311 94.5088 180.457 94.5672C180.646 94.6433 180.817 94.712 180.909 95.1011C181.023 95.5896 180.754 95.7692 180.396 96.0078C180.3 96.0719 180.197 96.1401 180.094 96.2197V96.2193L180.081 96.2171C180.108 95.8345 179.921 95.5529 179.585 95.3747V96.1264C179.677 96.1432 179.77 96.1601 179.862 96.177L179.865 96.1775L180.081 96.2171C180.081 96.2215 180.081 96.2261 180.08 96.2305L180.094 96.2197C180.015 96.5226 179.783 96.4669 179.506 96.4004C179.458 96.3887 179.408 96.3767 179.357 96.3662C178.759 96.2432 178.114 96.0342 177.503 95.8364C177.312 95.7744 177.123 95.7135 176.941 95.6565C175.289 95.1415 173.625 94.7073 171.917 94.3551C169.017 93.7569 166.136 93.6249 163.23 93.4917H163.23C162.231 93.4457 161.229 93.3997 160.223 93.3347C160.228 93.3132 160.233 93.2929 160.238 93.2736C160.287 93.0683 160.308 92.9847 160.295 92.9062C160.287 92.8524 160.263 92.8013 160.223 92.7148C160.217 92.7023 160.211 92.6891 160.204 92.6749C160.267 92.8106 160.155 92.8223 160.042 92.8341C159.871 92.8519 159.696 92.8703 160.128 93.3264C158.999 93.511 157.814 93.4958 156.637 93.4807C155.908 93.4714 155.183 93.4621 154.475 93.5C154.494 93.4577 154.518 93.4137 154.543 93.3697C154.63 93.2142 154.718 93.0563 154.574 92.9477C153.945 93.8566 152.262 93.8351 150.825 93.8165C150.256 93.8094 149.727 93.8026 149.316 93.8539C148.82 93.9163 148.328 94.0119 147.835 94.1072C147.482 94.1756 147.13 94.2441 146.776 94.3001C146.717 94.3096 146.658 94.3189 146.599 94.3279C146.241 94.3837 145.883 94.4396 145.533 94.534C145.406 94.5685 145.249 94.6391 145.084 94.7137C144.765 94.8582 144.413 95.017 144.179 94.9535C144.538 94.2294 144.363 94.4387 144.194 94.6411C144.118 94.7318 144.043 94.821 144.018 94.8247C143.968 94.832 143.912 94.841 143.851 94.8511C143.604 94.8909 143.275 94.9442 142.991 94.9442C143.158 94.2749 143.373 93.6273 143.589 92.98C143.897 92.0575 144.204 91.1356 144.368 90.1529C144.389 90.0263 144.415 89.8904 144.442 89.7479V89.7476C144.637 88.7165 144.896 87.342 143.99 86.6929C143.542 86.3712 142.865 86.2497 142.278 86.1444H142.278C142.126 86.1173 141.981 86.0911 141.846 86.0627C141.623 86.0158 141.348 85.984 141.056 85.9503C140.411 85.876 139.683 85.7919 139.254 85.513C139.071 85.3939 138.942 85.2785 138.818 85.168C138.614 84.9845 138.424 84.8146 138.026 84.6635C137.881 84.6083 137.751 84.5532 137.63 84.5022C137.14 84.2944 136.804 84.1519 136.208 84.3328C136.256 84.2724 136.307 84.2144 136.357 84.1582C136.619 83.8629 136.839 83.616 136.34 83.2909C136.243 83.2278 136.109 83.2239 135.978 83.2198C135.779 83.2136 135.586 83.2078 135.535 82.9995C135.212 83.2276 135.182 83.4236 135.142 83.6798C135.128 83.7732 135.112 83.8746 135.081 83.9886C135.092 84.169 135.139 84.3411 135.224 84.5044L134.925 84.6246L134.524 84.786C134.613 84.5484 134.493 84.5371 134.364 84.5249C134.277 84.5168 134.186 84.5083 134.151 84.4293C134.055 84.213 134.072 83.9123 134.088 83.6417C134.093 83.5466 134.098 83.4552 134.098 83.3725C133.618 83.5243 133.115 83.7121 132.905 84.2122C132.439 83.9345 132.488 83.8617 132.679 83.582C132.729 83.5085 132.789 83.4207 132.852 83.3112C132.358 83.1943 132.253 83.4486 132.178 83.8578C131.991 83.7998 131.803 83.7422 131.616 83.6845L131.611 83.6825L131.396 83.6163C131.983 83.6121 132.124 83.153 132.138 82.6543C132.04 82.6864 131.942 82.7184 131.843 82.7504L131.84 82.7514C131.711 82.7934 131.582 82.8355 131.452 82.8775L131.312 83.6013C130.984 83.8788 130.18 83.4483 129.809 83.2496L129.808 83.2493C129.771 83.2295 129.739 83.2122 129.711 83.1978L129.616 83.1486C128.629 82.638 128.268 82.4517 128.413 81.2414C128.465 80.8107 128.542 80.379 128.619 79.9465C128.729 79.3293 128.84 78.7108 128.876 78.0921C128.936 77.0613 128.837 75.9673 128.742 74.9243C128.73 74.7852 128.717 74.647 128.705 74.5099C128.632 73.6763 128.542 72.8469 128.452 72.0185V72.0182C128.299 70.6072 128.146 69.1982 128.075 67.7726C128.059 67.4445 128.043 67.1164 128.026 66.7881L128.026 66.7879C127.98 65.8908 127.935 64.9936 127.899 64.096C127.893 63.9351 127.879 63.7718 127.864 63.6105C127.793 62.7945 127.726 62.0353 128.741 61.9629C128.592 61.4911 129.037 60.9455 129.496 60.6871C129.657 60.3211 129.832 60.2884 130.023 60.5893C130.189 60.6414 130.343 60.6169 130.486 60.5155C130.895 60.4228 131.354 60.032 131.786 59.6638C132.061 59.4296 132.325 59.2047 132.559 59.0715C132.718 58.9806 132.93 58.8781 133.161 58.7662H133.161C133.781 58.4655 134.547 58.0947 134.853 57.6828C135.081 57.377 134.988 57.2616 134.885 57.1315C134.803 57.0289 134.714 56.9174 134.769 56.6964C134.928 56.055 135.48 56.8773 135.628 57.0966C135.637 57.1112 135.646 57.1235 135.652 57.132C135.718 57.0658 135.843 56.981 135.983 56.8863C136.281 56.6849 136.644 56.439 136.638 56.2337L136.058 56.1303C136.12 56.0946 136.204 56.0378 136.298 55.9745C136.525 55.8218 136.81 55.6299 136.984 55.5959C137.073 55.5785 137.136 55.5599 137.183 55.546C137.241 55.5289 137.275 55.5186 137.305 55.5265C137.347 55.5372 137.379 55.5844 137.459 55.6985C137.49 55.744 137.529 55.8 137.579 55.8684C137.612 55.8178 137.658 55.7345 137.711 55.6384V55.6382C137.846 55.3923 138.028 55.0615 138.156 54.9752C138.206 54.9415 138.4 54.9143 138.573 54.8904C138.694 54.8733 138.805 54.8579 138.848 54.8425C139.152 54.7352 139.27 54.556 139.384 54.3834C139.475 54.2453 139.564 54.1111 139.742 54.0211C139.847 53.9688 139.964 53.9874 140.076 54.0052C140.173 54.0209 140.265 54.0355 140.341 54.0023C140.479 53.9424 140.544 53.8062 140.609 53.6701C140.669 53.5466 140.728 53.4232 140.841 53.356C140.952 53.2897 141.155 53.289 141.357 53.2882C141.529 53.2878 141.699 53.287 141.812 53.246C142.084 53.1467 142.166 53.0521 142.281 52.9194C142.338 52.8536 142.403 52.7786 142.504 52.6886C142.747 52.4713 142.98 52.3965 143.223 52.318C143.404 52.2596 143.591 52.1992 143.794 52.0763C144.034 51.9303 144.139 51.6944 144.235 51.4769C144.336 51.2505 144.428 51.0439 144.655 50.9784C144.911 50.9048 145.085 50.9674 145.226 51.018C145.412 51.085 145.541 51.1312 145.725 50.8144C145.754 50.7643 145.719 50.7041 145.679 50.6372C145.619 50.5372 145.551 50.4223 145.675 50.3023C145.896 50.0881 146.005 50.2815 146.107 50.4619C146.122 50.4893 146.137 50.5164 146.153 50.5418L146.154 50.5404L146.155 50.5389C146.289 50.2859 146.423 50.0329 146.557 49.7799C146.952 49.9967 147.005 49.9099 147.098 49.7542C147.158 49.6552 147.234 49.5283 147.426 49.4337C147.532 49.3819 147.628 49.4041 147.726 49.4269C147.833 49.4513 147.942 49.4765 148.066 49.4085C148.172 49.3513 148.226 49.2536 148.279 49.1568C148.314 49.0915 148.35 49.0267 148.401 48.9746C148.475 48.8993 148.538 48.8155 148.602 48.7319C148.749 48.5398 148.894 48.3491 149.157 48.2665C149.021 48.309 150.14 48.2767 150.04 48.2288C149.932 48.0689 149.823 47.9091 149.714 47.7492C149.832 47.7492 149.948 47.7516 150.061 47.7541H150.061C150.509 47.7631 150.926 47.7719 151.378 47.6314L151.387 47.6287C151.588 47.5663 151.895 47.4715 152.059 47.3459L152.073 47.3356C152.276 47.1804 152.365 47.1126 152.401 47.0234C152.43 46.954 152.427 46.8716 152.421 46.7254C152.418 46.6489 152.415 46.555 152.415 46.4362C153.048 46.8391 153.853 46.6983 154.478 46.2311C154.618 46.1268 154.736 46.0136 154.853 45.9009C155.01 45.7503 155.166 45.6009 155.371 45.4748C155.524 45.3954 155.68 45.321 155.839 45.2521C156.037 45.0468 156.236 45.0448 156.435 45.2465C156.634 45.1932 156.691 45.1516 156.784 45.0839C156.822 45.0556 156.868 45.0226 156.932 44.9822C156.995 44.8585 157.061 44.7371 157.132 44.618C157.367 44.5936 157.597 44.5513 157.825 44.4911C158.081 44.4224 158.308 44.3239 158.521 44.2315C159.043 44.0049 159.481 43.8147 160.064 44.1861L160.128 44.0553L160.13 44.0506C160.213 43.8817 160.296 43.7128 160.379 43.5439C160.626 43.9304 160.818 43.7817 161.074 43.5835C161.179 43.5018 161.295 43.4119 161.43 43.3473C161.529 43.3002 161.643 43.2711 161.755 43.2427C161.862 43.2153 161.966 43.1887 162.052 43.1471C162.151 43.1704 162.25 43.1938 162.349 43.2173C162.433 42.9582 162.517 42.6991 162.6 42.4399C162.645 42.4573 162.724 42.4949 162.82 42.5406C163.089 42.6687 163.492 42.8604 163.64 42.8462C163.798 42.8313 163.973 42.6778 164.145 42.527C164.287 42.4028 164.426 42.2803 164.552 42.2387C164.795 42.1588 164.85 42.1845 164.93 42.2221C164.99 42.2507 165.064 42.2857 165.245 42.2869C165.287 42.2871 165.326 42.2884 165.363 42.2893C165.608 42.2957 165.755 42.2996 165.997 42.0644C165.216 41.8618 165.901 41.7481 166.383 41.6679C166.481 41.6516 166.572 41.6367 166.639 41.6225C166.81 41.587 166.958 41.5716 167.092 41.5579C167.441 41.522 167.693 41.4961 168.003 41.1436H167.558C167.883 40.8476 167.886 40.8483 168.054 40.8845C168.113 40.8969 168.192 40.9141 168.312 40.9241C168.344 40.9268 168.4 40.9458 168.468 40.9691C168.707 41.0505 169.091 41.1812 169.092 40.8199C169.69 41.1722 169.696 41.1729 170.313 41.014C170.424 40.9852 170.529 40.9297 170.635 40.874C170.787 40.7935 170.941 40.7124 171.118 40.7092C171.257 40.7068 171.377 40.7356 171.494 40.7632C171.622 40.7938 171.744 40.8229 171.881 40.808C172.021 40.7931 172.476 40.6263 172.702 40.5437C172.727 40.5342 172.75 40.5259 172.769 40.519C172.912 40.467 173.031 40.3863 173.148 40.3068C173.271 40.2232 173.392 40.1411 173.535 40.0959C173.7 40.0441 173.888 40.0526 174.077 40.0612C174.243 40.0687 174.409 40.0763 174.561 40.0431C174.875 39.9739 175.148 39.8658 175.408 39.7624C175.945 39.549 176.431 39.3559 177.134 39.5664C177.242 38.6585 178.345 38.8294 178.982 38.9281L179.036 38.9364C179.153 38.9545 179.254 38.9802 179.348 39.0044C179.607 39.0702 179.815 39.1232 180.146 38.9665C180.306 38.891 180.436 38.7961 180.565 38.7018C180.733 38.5788 180.901 38.4566 181.132 38.3781C181.396 38.2886 181.737 38.2197 182.033 38.1596C182.09 38.1481 182.144 38.1371 182.197 38.1261C182.399 38.062 182.606 38.0415 182.818 38.0647C183.044 38.0965 183.231 38.1989 183.379 38.3717C183.375 38.3813 183.378 38.3864 183.39 38.3854C183.387 38.3808 183.383 38.3764 183.379 38.3717C183.411 38.2955 183.905 37.9293 183.848 37.9745C183.964 37.8819 184.06 37.8296 184.145 37.7834C184.331 37.6826 184.461 37.6117 184.616 37.2177C184.485 37.1901 184.353 37.1622 184.221 37.1343C184.089 37.1067 183.958 37.0788 183.826 37.051C183.873 37.0478 183.918 37.0446 183.963 37.0412C184.304 37.0155 184.58 36.995 184.9 37.1348C185.006 37.1813 185.143 37.3123 185.285 37.4477C185.476 37.6315 185.677 37.8234 185.821 37.8237C186.274 37.8242 186.433 37.1859 186.388 36.8537C186.768 37.7389 187.092 37.8863 187.946 37.4338C187.996 37.4071 188.046 37.3807 188.096 37.3541L188.102 37.3507C188.151 37.3252 188.199 37.2998 188.247 37.2742C188.45 37.0612 188.652 37.0652 188.853 37.2861C188.972 37.3512 189.091 37.4159 189.211 37.481L189.301 37.3304C189.414 37.1419 189.528 36.9534 189.641 36.7647C189.946 37.1842 190.235 37.2047 190.732 37.1067C190.901 37.0735 191.157 36.9058 191.404 36.7442C191.658 36.578 191.902 36.4186 192.03 36.4186C192.1 36.4186 192.179 36.4997 192.269 36.5921C192.368 36.6936 192.48 36.8087 192.607 36.8451C193.012 36.961 193.639 36.6696 193.783 36.2829C193.86 36.4442 193.937 36.6058 194.013 36.7674C194.06 36.7232 194.108 36.6787 194.156 36.6344C194.299 36.5005 194.443 36.3663 194.585 36.2313C194.636 36.6716 194.972 36.6647 195.265 36.6589C195.481 36.6545 195.674 36.6506 195.711 36.8263C195.755 37.0321 195.155 37.4788 194.797 37.7447C194.702 37.8154 194.624 37.8736 194.58 37.9107C195.146 38.252 195.842 37.656 196.353 37.2177C196.457 37.129 196.553 37.0466 196.639 36.9798C196.902 37.2651 196.991 37.415 196.749 37.7413C196.528 38.041 196.427 37.9784 196.31 37.9056C196.201 37.8384 196.079 37.7626 195.836 37.955C196.004 38.2371 196.156 38.1662 196.346 38.0774C196.394 38.0545 196.446 38.0305 196.501 38.0109C196.433 38.4087 196.493 38.4277 196.596 38.46C196.669 38.4832 196.765 38.5133 196.85 38.6932C196.975 38.9584 196.995 39.1714 197.018 39.4285C197.025 39.5121 197.033 39.6004 197.045 39.6964ZM119.054 74.0873C119.282 74.0677 119.346 74.1731 119.404 74.2679C119.453 74.3481 119.498 74.4204 119.632 74.4028C119.746 74.3879 119.838 74.2672 119.932 74.1432C120.014 74.0357 120.098 73.9257 120.199 73.8814C120.66 73.6798 121.33 73.6487 121.944 73.6203C122.232 73.6071 122.508 73.5942 122.745 73.5646C123.136 73.516 123.503 73.4016 123.867 73.2884V73.2881C124.208 73.182 124.546 73.0767 124.897 73.0276C125.196 72.986 125.413 73.04 125.696 73.1226C125.717 73.1288 125.736 73.1344 125.756 73.14C126.02 73.217 126.15 73.2549 126.229 73.3402C126.305 73.4231 126.333 73.5509 126.388 73.803L126.39 73.8132C126.679 75.1457 126.456 76.5628 126.232 77.9789C125.94 79.8341 125.648 81.6873 126.508 83.3464C122.075 83.3105 117.633 83.3989 113.225 83.9184C113.225 83.5287 113.228 83.1393 113.231 82.7499C113.241 81.4648 113.251 80.1812 113.153 78.8969C113.109 78.3094 113.048 77.7237 112.986 77.1378V77.1375C112.968 76.9662 112.95 76.7946 112.933 76.623C112.841 75.7192 112.862 75.7148 113.519 75.5799C113.561 75.5713 113.605 75.5623 113.653 75.5523C113.887 75.5031 114.036 75.3975 114.193 75.2863C114.313 75.2012 114.438 75.1127 114.609 75.0436C114.808 74.9631 114.933 75.003 115.082 75.0504C115.155 75.0736 115.234 75.0988 115.331 75.1122C115.708 75.1655 115.816 75.1347 116.027 75.0753C116.108 75.0521 116.205 75.0247 116.339 74.9961C116.589 74.9428 116.83 74.9071 117.063 74.8727C117.789 74.7651 118.439 74.6686 119.054 74.0873ZM196.983 46.7056C196.919 46.6682 196.855 46.6311 196.791 46.5937C196.033 48.1985 195.537 49.871 195.034 51.5656C194.961 51.8125 194.887 52.0599 194.813 52.3077C194.51 53.3186 194.208 54.3296 193.907 55.3412C193.851 55.5272 193.784 55.7201 193.715 55.9171C193.487 56.5715 193.243 57.2714 193.367 57.9116C194.324 56.4366 195.235 54.9315 196.1 53.4009C196.522 52.6546 196.933 51.9024 197.335 51.1454C197.387 51.0474 197.452 50.943 197.519 50.8354C197.664 50.6017 197.819 50.3524 197.875 50.1148C197.947 49.8099 198.02 49.7197 198 49.6647C197.98 49.6136 197.88 49.5931 197.623 49.4596C197.828 49.2269 197.962 49.2912 198.073 49.3447C198.137 49.3751 198.193 49.4022 198.251 49.3685C198.394 49.2856 198.588 49.0284 198.742 48.8248C198.806 48.7409 198.862 48.6659 198.905 48.6163C198.786 48.5823 198.589 48.5454 198.36 48.5024C197.771 48.3916 196.971 48.2418 196.751 48.001C196.4 47.616 196.775 47.2803 197.143 46.9511C197.178 46.9203 197.212 46.8897 197.246 46.8589C197.158 46.8078 197.07 46.7567 196.983 46.7056Z" fill="#FF5678"/>
<path fill-rule="evenodd" clip-rule="evenodd" d="M96.9504 111.779C96.8468 112.313 96.5877 112.564 96.8592 113.054C97.0898 113.471 97.7508 113.743 98.1944 113.638L96.9504 111.779ZM84.9297 92.7986L82.7411 93.5489C83.3393 94.1358 83.9094 94.7528 84.5689 95.274L84.9297 92.7986ZM121.03 94.72C119.986 94.194 118.817 94.1346 117.673 94.0671C117.847 95.0065 118.021 95.9462 118.195 96.8856C119.14 96.1638 120.085 95.4419 121.03 94.72ZM95.9658 167.443C95.7575 167.075 94.3367 164.224 94.0414 164.371C93.8847 164.448 93.8725 166.035 93.8495 166.261C93.7681 167.064 93.6865 167.866 93.6051 168.669C94.4455 168.372 95.3431 168.126 95.9658 167.443ZM86.039 144.403C86.2539 145.033 86.469 145.662 86.6839 146.292C86.7861 146.592 86.846 147.034 87.0269 147.298C87.2618 147.641 87.0846 147.842 87.3982 147.467C87.735 147.064 87.8358 145.989 87.9819 145.495C88.2041 144.745 88.4261 143.995 88.6481 143.245C87.6016 143.236 86.9672 144.098 86.039 144.403ZM64.0476 107.31C62.7608 108.189 61.4581 109.062 60.3385 110.155C61.3234 110.093 62.6948 110.771 63.6225 110.453C64.0508 110.544 64.1923 110.382 64.0476 109.965V109.098V107.31ZM83.1276 113.531V118.667C84.3291 117.643 85.5936 116.692 86.7496 115.615C85.5423 114.921 84.3352 114.226 83.1276 113.531ZM126.078 126.837C125.699 129.123 125.678 131.476 125.574 133.789C125.556 134.2 125.398 134.818 125.671 135.178C125.946 135.538 126.728 135.738 127.125 135.931C128.244 136.473 129.354 137.031 130.47 137.579C129.006 133.999 127.542 130.418 126.078 126.837ZM154.472 112.778C157.23 111.422 159.99 110.066 162.749 108.709C160.044 107.564 157.338 106.419 154.633 105.274C154.579 107.775 154.525 110.277 154.472 112.778ZM126.072 119.163C126.577 119.2 126.656 117.279 126.74 116.771C126.899 115.807 127.061 114.843 127.228 113.88C127.562 111.956 127.914 110.034 128.283 108.116C129.022 104.28 129.838 100.458 130.741 96.6576C129.77 96.4825 128.878 96.3566 127.93 96.0741C127.164 95.8457 126.252 95.9699 125.568 95.4952C125.48 97.276 125.924 99.1693 126.089 100.95C126.279 103.011 126.382 105.06 126.365 107.13C126.332 111.141 126.179 115.154 126.072 119.163ZM62.5679 173.51C63.0461 173.382 62.3951 166.828 62.366 165.883C62.2829 163.146 62.2667 160.407 62.3156 157.67C59.7396 159.285 57.1037 160.773 54.3824 162.115C55.0818 163.022 55.7372 164 56.5111 164.845C57.3085 165.714 58.2233 166.427 58.9622 167.363C60.45 169.249 61.4691 171.39 62.5679 173.51ZM124.558 134.735C124.678 132.764 124.789 130.796 124.988 128.831C125.072 127.994 125.881 123.549 124.587 123.654C123.85 123.713 122.559 124.791 121.884 125.168C120.992 125.667 120.099 126.164 119.203 126.655C117.434 127.624 115.654 128.572 113.879 129.529C117.439 131.265 120.998 133 124.558 134.735ZM116.873 93.7408C115.399 93.6308 113.973 93.5212 112.519 93.2467C111.735 93.0986 110.951 93.1191 110.162 93.0191C109.598 92.9475 108.494 92.4838 107.968 92.6356C107.307 92.8263 107.067 96.1388 106.976 96.9702C106.829 98.3093 106.731 99.934 107.329 101.192C108.482 103.617 111.588 101.724 113.099 100.707C114.395 99.8347 115.862 98.9515 117.011 97.8928C118.029 96.9548 117.115 94.9528 116.873 93.7408ZM124.519 120.111C125.629 119.662 125.612 119.098 125.66 117.935C125.719 116.523 125.753 115.11 125.793 113.697C125.865 111.18 125.933 108.661 125.911 106.142C125.889 103.682 125.768 101.225 125.487 98.7801C125.387 97.9155 125.486 96.4388 125.031 95.7013C124.615 95.0285 123.324 95.0214 122.62 95.063C121.826 95.1097 121.183 95.8638 120.597 96.3405C119.948 96.8688 118.614 97.6124 118.508 98.4C118.389 99.2796 118.872 100.535 119.059 101.388C119.744 104.501 120.577 107.584 121.455 110.648C122.365 113.827 123.288 117.038 124.519 120.111ZM96.297 112.658C96.3686 111.959 96.629 111.374 96.2769 110.708C95.9746 110.135 95.4822 109.559 95.1124 109.017C94.0539 107.463 92.8668 105.975 91.7138 104.491C90.6577 103.131 89.5758 101.786 88.4689 100.468C87.8524 99.7338 87.2168 99.0156 86.5851 98.2944C86.1224 97.7666 85.6838 97.025 85.0294 96.7487C84.5471 99.7792 84.1487 102.823 83.8377 105.876C83.6876 107.352 83.5581 108.83 83.4493 110.309C83.4185 110.727 83.0946 112.137 83.3016 112.526C83.5195 112.934 84.8505 113.481 85.258 113.731C86.3972 114.431 87.2823 115.486 88.3657 114.335C89.1116 113.543 89.7122 112.425 90.5458 111.734C90.9802 111.374 91.3891 111.39 91.8763 111.177C92.4427 110.928 92.4606 110.689 93.1374 111.027C94.2778 111.596 94.9706 112.438 96.297 112.658ZM39.2053 128.251C39.2053 130.349 39.0618 132.074 40.4841 133.772C41.7269 135.256 43.0183 135.6 44.7664 136.186C45.7958 136.53 45.8676 136.212 46.7017 135.63C47.4945 135.077 48.3576 134.634 49.1394 134.063C50.8244 132.833 52.5082 131.565 54.1458 130.272C54.6963 129.837 54.6151 129.985 54.5315 129.463C54.455 128.988 54.1138 128.383 53.9272 127.93C53.5899 127.112 53.1924 126.32 52.7947 125.53C52.3432 124.633 51.9499 123.66 51.3891 122.824C51.1564 122.477 50.8801 122.163 50.6086 121.846C50.0368 121.18 50.0571 121.205 49.3733 121.749C47.9298 122.899 46.5868 124.144 44.9622 125.042C43.0401 126.106 41.1226 127.177 39.2053 128.251ZM82.7299 111.998C82.9384 108.986 83.1736 105.991 83.5346 102.992C83.7202 101.453 83.936 99.9171 84.146 98.3807C84.2315 97.7552 84.5616 96.7052 84.3777 96.0975C84.1971 95.4993 83.3997 94.93 82.9621 94.4973C82.8445 94.381 82.483 93.8928 82.3275 93.8708C82.161 93.8476 81.5345 94.3064 81.3538 94.4098C80.7148 94.7763 80.0873 95.1615 79.4694 95.5624C78.3048 96.318 77.1764 97.1289 76.0722 97.97C73.7568 99.7338 71.5486 101.632 69.2823 103.457C71.3587 105.277 73.9144 106.69 76.236 108.164C77.6086 109.035 78.9883 109.897 80.3858 110.728C81.0945 111.149 81.9163 111.793 82.7299 111.998ZM54.3455 165.861C52.6688 166.97 51.0676 168.14 49.1714 168.852C47.2838 169.56 45.4181 169.832 43.4671 170.253C42.4832 170.466 41.5584 170.698 40.5542 170.847C39.9915 170.93 39.1205 170.898 38.6074 171.135C38.1505 171.038 37.9877 171.194 38.1195 171.603C38.1244 171.73 38.1292 171.857 38.1341 171.984C38.2634 173.752 39.3999 175.88 40.3912 177.317C40.9698 178.157 41.7071 178.938 42.4397 179.643C43.2669 180.44 43.7438 181.002 44.8969 180.668C46.8406 180.105 48.5559 178.973 50.5259 178.473C52.0843 178.078 53.3787 177.25 54.8985 176.822C56.7727 176.293 58.6273 175.691 60.5275 175.25C59.6787 173.611 58.9197 171.905 57.8331 170.405C56.7186 168.865 55.4898 167.385 54.3455 165.861ZM64.6289 110.733C68.1353 111.431 71.9358 112.077 75.0741 113.887C76.2988 114.594 77.8513 115.686 78.2099 117.147C78.6387 118.893 76.953 119.975 75.5449 120.52C73.8543 121.174 72.0141 121.425 70.2227 121.631C69.2745 121.741 68.3218 121.8 67.3692 121.854C66.5982 121.898 65.2906 121.729 64.5859 122.034C64.1444 121.946 63.9914 122.125 64.1268 122.571C64.1185 122.732 64.1104 122.892 64.1023 123.052L64.0292 124.492C63.9806 125.451 63.932 126.41 63.8831 127.368C63.7772 129.457 63.6711 131.546 63.5653 133.634C65.4018 132.497 66.882 130.867 68.677 129.653C69.5304 129.076 70.3777 128.498 71.2276 127.923C71.5841 127.682 71.8019 127.343 72.1527 127.119C72.6178 126.821 73.0302 126.642 73.4666 126.251C75.2486 124.657 77.2304 123.28 79.1205 121.817C79.979 121.152 80.919 120.541 81.7359 119.828C82.5915 119.08 82.4732 118.465 82.4522 117.392C82.4302 116.255 82.8475 114.843 82.6539 113.747C82.8164 113.374 82.6915 113.143 82.2796 113.052C82.0043 112.876 81.7293 112.7 81.4541 112.524C80.9053 112.173 80.3565 111.822 79.8077 111.471C77.6245 110.075 75.4415 108.679 73.2583 107.283C72.1678 106.585 71.0773 105.888 69.9866 105.19C69.682 104.996 68.6885 104.116 68.3468 104.142C67.9982 104.168 67.3934 104.849 67.1321 105.065C66.7312 105.397 66.342 105.747 65.9088 106.037C65.693 106.187 65.4676 106.32 65.2329 106.438C64.8577 106.474 64.7274 106.68 64.8416 107.056C64.512 108.113 64.6932 109.623 64.6289 110.733ZM113.253 160.564C112.459 156.852 111.435 152.456 108.338 149.931C105.198 147.37 100.605 148.36 98.1485 151.367C96.9179 152.873 96.155 154.654 95.5883 156.5C95.0065 158.394 94.1492 160.861 94.3062 162.864C94.3749 163.742 95.1273 164.686 95.5573 165.452C96.001 166.244 96.2955 167.378 97.3413 167.104C98.9627 166.679 100.612 165.703 102.129 165.005C103.664 164.298 105.28 163.717 106.871 163.034C107.928 162.581 109.024 162.237 110.078 161.777C111.078 161.342 112.396 161.237 113.253 160.564ZM160.171 138.455C162.386 139.247 163.537 137.978 165.096 136.55C166.572 135.196 168.171 133.895 169.531 132.424C170.933 130.908 172.041 129.115 173.119 127.364C174.209 125.593 175.682 123.681 176.353 121.709C176.695 120.706 176.84 119.595 177.055 118.558C177.107 118.309 177.455 117.38 177.344 117.17C177.192 116.881 176.225 116.851 175.96 116.809C173.846 116.475 171.607 116.458 169.487 116.757C165.386 117.335 161.956 119.635 160.66 123.656C159.14 128.371 159.871 133.611 160.171 138.455ZM145.812 97.562C145.777 98.3783 147.734 98.6051 148.241 98.7955C149.413 99.2351 150.578 99.6993 151.716 100.219C154.06 101.291 156.559 101.989 158.803 103.284C163.641 106.076 168.892 108.044 173.779 110.714C174.541 111.13 176.029 112.133 176.898 112.048C177.361 112.003 177.016 112.375 177.316 111.64C177.424 111.376 177.46 111.032 177.52 110.749C177.701 109.9 177.842 109.043 178.045 108.198C178.38 106.809 178.721 105.519 178.862 104.091C178.922 103.486 178.988 102.881 178.995 102.273C179.002 101.656 179.144 100.11 178.866 99.5756C178.681 99.2214 178.644 99.3429 178.183 99.2429C177.918 99.1857 177.641 99.0666 177.386 98.9872C176.787 98.8009 176.188 98.622 175.56 98.5672C174.94 98.513 174.544 98.3242 173.963 98.2147C173.352 98.0998 172.726 98.2392 172.104 98.0788C171.433 97.9055 171.113 97.7473 170.412 97.8136C169.732 97.8776 169.536 97.727 168.871 97.5417C168.315 97.3873 167.653 97.4953 167.074 97.4484C166.373 97.3912 165.674 97.3037 164.973 97.2482C161.82 96.9986 158.629 97.3687 155.468 97.3393C153.749 97.3235 152.067 97.5772 150.351 97.4987C148.851 97.4303 147.301 97.4464 145.812 97.562ZM154.015 114.182C152.481 114.766 151.059 115.715 149.637 116.533C147.997 117.475 146.427 118.476 144.909 119.606C142.357 121.507 139.379 123.785 138.708 127.101C138.018 130.504 140.974 133.293 143.745 134.685C146.905 136.273 150.581 137.094 154.043 137.701C153.672 129.866 153.76 122.019 154.015 114.182ZM108.124 132.627C107.193 132.884 106.405 133.434 105.542 133.842C104.769 134.207 104.02 134.482 103.298 134.952C102.121 135.718 100.756 136.374 99.5257 136.966C96.4808 138.431 93.5247 140.25 90.5101 141.874C89.7112 142.304 89.4494 142.576 89.1788 143.462C88.8849 144.424 88.608 145.393 88.3249 146.359C88.0609 147.259 87.6395 148.222 87.7504 149.173C87.8472 150 88.275 150.78 88.5975 151.534C89.4095 153.433 90.2898 155.301 91.1994 157.154C92.0156 158.818 92.7605 160.583 93.8082 162.112C94.6225 157.865 95.3532 153.106 98.5098 149.87C101.664 146.636 106.696 146.59 109.736 149.929C111.18 151.514 112.058 153.512 112.749 155.518C113.112 156.573 113.356 157.647 113.589 158.736C113.838 159.899 113.777 160.516 115.06 160.164C116.08 159.884 117.16 159.66 118.159 159.341C118.677 159.176 119.183 158.99 119.206 158.58C119.236 158.063 118.54 157.004 118.334 156.518C117.273 154.007 116.211 151.496 115.149 148.985C113.996 146.259 112.843 143.533 111.689 140.806C111.114 139.446 110.538 138.086 109.962 136.726C109.437 135.486 109 133.645 108.124 132.627ZM154.101 111.424C154.119 110.185 154.139 108.945 154.155 107.705C154.165 106.967 154.494 105.538 153.851 105.01C153.452 104.683 152.269 104.432 151.764 104.208C150.768 103.767 149.69 103.57 148.689 103.131C144.766 101.413 140.684 99.9821 136.646 98.5973C135.775 98.2986 134.885 98.0541 134.008 97.76C133.535 97.6014 131.782 96.6691 131.344 96.913C130.961 97.1264 130.671 99.6687 130.549 100.197C130.258 101.446 129.98 102.699 129.713 103.954C128.676 108.826 127.807 113.733 126.998 118.648C129.147 117.832 131.206 116.419 133.235 115.326C135.344 114.191 137.445 113.059 139.568 111.95C140.167 111.637 142.275 110.198 142.768 110.763C143.559 111.669 141.674 112.732 141.179 113.12C139.264 114.622 137.242 115.931 135.194 117.24C133.072 118.598 130.865 119.797 128.732 121.13C127.962 121.611 126.733 122.197 126.431 123.01C126.041 124.055 126.322 125.325 126.677 126.324C127.547 128.778 128.5 131.202 129.508 133.602C129.966 134.694 130.437 135.78 130.915 136.863C131.486 138.152 132.234 138.424 133.477 139.018C138.77 141.545 144.268 143.944 149.353 146.869C148.502 147.85 146.428 146.239 145.588 145.832C144.033 145.076 142.476 144.323 140.922 143.566C138.027 142.155 135.147 140.715 132.235 139.338C134.101 143.582 136.303 147.671 138.745 151.61C138.128 151.819 138.279 151.83 137.892 151.459C137.566 151.147 137.347 150.535 137.126 150.143C136.67 149.333 136.22 148.52 135.76 147.712C134.806 146.036 133.817 144.384 132.946 142.662C132.291 141.367 131.784 139.103 130.437 138.45C128.76 137.636 127.06 136.844 125.382 136.018C125.382 142.47 125.846 148.78 126.526 155.192C126.561 155.515 126.871 156.47 126.246 156.376C125.964 156.334 125.869 154.565 125.819 154.195C125.592 152.502 125.399 150.804 125.241 149.102C124.927 145.707 124.756 142.298 124.734 138.888C124.332 142.203 123.929 145.518 123.527 148.834L122.954 153.546C122.854 154.371 122.754 155.196 122.654 156.021C122.608 156.4 122.637 156.896 122.504 157.257C122.294 157.826 122.364 157.782 121.708 158.042C122.336 153.725 122.916 149.401 123.429 145.069C123.679 142.955 123.914 140.84 124.13 138.722C124.189 138.153 124.246 137.583 124.301 137.014C124.329 136.723 124.58 135.789 124.441 135.548C124.303 135.309 123.391 135.06 123.128 134.938C122.553 134.671 121.977 134.404 121.403 134.136C119.537 133.264 117.673 132.385 115.828 131.47C115.021 131.07 114.174 130.452 113.296 130.238C112.422 130.026 111.787 130.634 111.039 131.021C110.458 131.322 109.088 131.722 108.699 132.233C108.338 132.709 109.461 134.613 109.756 135.315C110.587 137.295 111.42 139.275 112.252 141.255C113.939 145.27 115.626 149.285 117.313 153.3C117.725 154.281 118.138 155.263 118.55 156.244C118.815 156.873 119.256 158.666 119.897 158.736C120.181 158.767 120.647 158.458 120.921 158.369C121.33 158.237 121.708 158.239 122.119 158.169C122.871 158.042 123.652 157.654 124.391 157.381C126.291 156.681 128.259 156.229 130.174 155.575C132.097 154.918 133.989 154.18 135.905 153.523C137.645 152.927 139.401 152.247 141.072 151.47C142.838 150.65 144.648 149.926 146.368 149.016C149.501 147.359 152.6 145.811 155.368 143.779C156.019 143.301 156.712 142.821 157.356 142.31C157.92 141.861 158.997 141.306 159.382 140.716C159.528 140.491 159.654 140.049 159.483 139.782C159.299 139.495 158.486 139.521 158.106 139.47C156.908 139.309 155.71 139.148 154.513 138.987C154.605 139.775 154.697 140.562 154.764 141.353C154.811 141.911 155.141 143.386 154.696 143.823C154.084 143.242 154.281 141.504 154.226 140.729C154.197 140.316 154.302 139.505 154.117 139.138C153.914 138.736 153.352 138.741 152.844 138.631C150.687 138.165 148.549 137.773 146.462 137.034C142.936 135.785 138.721 133.676 137.933 129.608C137.112 125.368 140.72 121.693 143.758 119.328C145.577 117.912 147.512 116.687 149.513 115.548C150.449 115.017 151.383 114.485 152.325 113.964C152.667 113.775 153.792 113.385 153.972 113.054C154.157 112.716 154.062 111.81 154.101 111.424ZM78.6588 176.548C78.4876 176.631 78.3163 176.715 78.1454 176.799C80.0485 171.375 81.9339 165.977 83.5251 160.452C84.2931 157.785 85.0712 155.121 85.8655 152.462C86.2084 151.315 87.0506 149.735 86.8166 148.547C86.5634 147.261 85.9562 145.893 85.4863 144.67C82.4788 146.56 79.4083 148.354 76.3506 150.159C73.6096 151.777 70.8221 153.217 68.0617 154.818C66.6473 155.638 65.1882 156.193 63.7119 156.863C62.5124 157.408 62.9781 159.073 62.9955 160.186C63.0561 164.114 63.0531 168.055 63.2915 171.978C63.3783 173.406 63.2663 175.047 64.1759 176.236C65.3393 177.757 66.4183 179.307 67.4792 180.907C67.8767 181.507 69.5465 184.754 70.1692 184.682C70.5757 184.636 70.9499 183.322 71.1533 183.01C71.5916 182.338 72.2323 181.76 72.8156 181.219C75.3345 178.882 78.1295 177.236 81.0344 175.528C83.9856 173.793 87.0058 172.178 90.0128 170.532C90.6922 170.16 91.4238 169.892 92.0988 169.512C92.3655 169.362 92.8942 169.124 93.0622 168.856C93.3132 168.454 93.2281 167.342 93.2804 166.862C93.3875 165.882 93.5799 164.864 93.5902 163.876C93.6002 162.901 93.0138 162.063 92.5886 161.212C90.7225 157.477 88.9094 153.734 87.2857 149.886C86.0055 154.354 84.6615 158.801 83.4058 163.276C82.7502 165.612 81.9599 167.91 81.1903 170.211C80.7975 171.386 80.4022 172.56 80.0098 173.735C79.7043 174.651 79.5456 175.991 78.6588 176.548ZM105.461 92.342C104.471 92.353 103.575 92.2075 102.607 92.001C102.252 91.9254 101.94 91.8934 101.581 91.8616C101.173 91.8257 100.802 91.6047 100.444 91.5615C100.174 91.5289 99.702 91.6424 99.4438 91.7289C98.8454 91.9294 98.8645 91.8282 98.8395 92.5229C98.8004 93.5963 98.7711 94.6699 98.7122 95.7423C98.4802 99.9638 98.0319 104.144 97.4176 108.325C97.2931 109.17 96.945 110.278 97.1364 111.117C97.309 111.874 97.9627 112.682 98.3944 113.317C99.2825 114.622 101.374 115.267 102.845 115.637C104.397 116.027 106.008 116.171 107.482 116.519C107.89 116.616 108.359 116.446 108.795 116.542C109.197 116.632 109.51 116.853 109.882 117.013C110.794 117.404 111.812 117.476 112.753 117.778C114.62 118.377 116.619 118.341 118.487 118.917C118.965 119.064 119.377 119.434 119.837 119.561C120.257 119.677 120.69 119.541 121.129 119.606C122.061 119.743 122.93 120.061 123.145 121.062C123.715 120.61 123.794 120.729 123.695 120.031C123.632 119.584 123.383 119.039 123.247 118.608C122.899 117.509 122.55 116.41 122.202 115.31C121.515 113.134 120.832 110.957 120.199 108.765C119.632 106.804 119.117 104.828 118.666 102.838C118.437 101.825 118.246 100.809 118.05 99.791C117.992 99.4957 118.049 99.0263 117.752 98.8298C117.483 98.6516 116.855 99.2911 116.571 99.4971C114.585 100.935 110.031 105.19 107.548 102.68C106.211 101.329 106.289 98.953 106.434 97.2071C106.523 96.1339 106.712 95.0747 106.923 94.0197C106.975 93.7564 107.297 92.9106 107.179 92.7231C107.052 92.5214 105.727 92.4012 105.461 92.342ZM175.232 115.823C175.761 115.882 176.289 115.941 176.818 116.001C176.769 115.574 176.813 114.932 176.651 114.534C176.428 113.984 175.88 113.923 175.278 113.695C174.326 113.335 173.355 113.022 172.413 112.634C170.369 111.793 168.334 110.94 166.289 110.099C165.392 109.73 164.339 109.126 163.366 109.427C162.316 109.752 161.28 110.414 160.299 110.899C159.188 111.448 158.077 111.998 156.967 112.549C156.446 112.807 155.925 113.065 155.404 113.323C154.586 113.728 154.477 113.769 154.413 114.695C154.084 119.431 154.109 124.35 154.252 129.092C154.325 131.512 154.243 133.945 154.417 136.36C154.43 136.546 154.416 137.595 154.532 137.738C154.696 137.939 155.849 138.007 156.125 138.058C157.199 138.254 158.281 138.319 159.366 138.416C159.11 132.908 158.171 126.397 161 121.359C163.841 116.297 169.914 115.201 175.232 115.823ZM125.839 61.6351C126.158 60.9095 126.706 60.2969 127.175 59.6604C127.429 59.3162 127.867 58.9048 128.029 58.5022C128.26 57.9292 128.259 58.0519 127.914 57.55C127.588 57.0758 127.594 57.0401 127.09 56.9553C126.665 56.8839 126.212 57.0052 125.778 56.9274C125.34 56.8487 124.134 56.4791 124.41 55.7809C124.398 55.8115 125.096 55.4675 125.15 55.4079C125.326 55.217 125.381 54.81 125.468 54.5792C125.746 53.8395 125.844 53.3606 125.534 52.573C125.07 51.3969 123.236 51.0488 122.094 51.4446C121.523 51.6421 121.198 52.0611 120.941 52.5876C120.778 52.9221 120.741 53.4053 120.53 53.6965C120.212 54.1348 120.192 54.0861 119.534 54.0086C118.695 53.9101 118.007 53.5879 117.212 53.3633C116.347 53.1184 115.784 53.6165 115.027 54.0182C113.662 54.7437 112.343 54.9955 110.814 55.1106C109.11 55.239 107.532 54.8283 105.845 54.7225C106.283 56.738 107.414 58.3743 108.319 60.1994C108.478 60.5204 108.735 60.8484 108.741 61.2198C108.747 61.5696 108.24 62.0455 108.297 62.335C108.419 62.9524 109.778 63.4467 110.293 63.6205C111.749 64.1116 113.407 65.0731 115.01 64.6868C115.889 64.4751 116.362 63.0876 117.189 62.9857C118.298 62.8483 117.468 64.2769 117.262 64.7682C118.837 65.0076 120.832 64.8047 122.339 64.2708C123.095 64.0033 123.735 63.6041 124.424 63.2084C125.282 62.7156 125.461 62.5801 125.839 61.6351ZM98.2856 91.6319C95.4786 91.6786 92.6304 91.2745 89.817 91.6458C89.1653 91.7316 88.5222 91.87 87.8817 92.0171C87.4214 92.123 85.9593 92.2124 85.6523 92.5547C85.3727 92.8668 85.3707 94.304 85.313 94.709C85.1847 95.6111 85.2189 95.9225 85.7941 96.6199C87.6866 98.9148 89.6577 101.141 91.5226 103.462C93.3139 105.691 94.7843 108.181 96.595 110.378C97.562 107.564 97.62 104.185 97.8854 101.234C98.027 99.6602 98.1558 98.0852 98.2768 96.5099C98.392 95.0095 98.7836 93.0624 98.2856 91.6319ZM61.9529 121.298C62.2775 121.298 62.7952 121.4 63.1108 121.298C63.5447 121.436 63.6897 121.273 63.5462 120.81C63.5531 120.648 63.5599 120.485 63.567 120.323C63.6122 119.277 63.6621 118.232 63.7105 117.187C63.755 116.231 63.7982 115.275 63.8359 114.319C63.8618 113.666 64.1916 112.048 63.9278 111.459C63.7506 111.062 63.3308 111.152 62.8202 111.094C62.3345 111.039 61.8473 110.989 61.3642 110.913C60.7511 110.818 60.0716 110.598 59.4477 110.736C58.8209 110.874 58.3653 111.452 57.8734 111.82C57.0951 112.403 56.2999 112.963 55.515 113.536C54.0883 114.578 52.6761 115.639 51.2615 116.697C50.6772 117.133 50.565 116.982 50.8498 117.609C51.0261 117.997 51.4267 118.436 51.6707 118.786C52.1564 119.484 52.6402 120.541 53.2633 121.107C54.17 121.931 56.6856 121.408 57.8901 121.402C59.2634 121.395 60.5874 121.417 61.9529 121.298ZM65.5077 121.23C66.6987 121.113 67.9019 121.163 69.0855 121.003C70.3723 120.829 71.6498 120.571 72.9342 120.378C74.2146 120.185 78.11 119.407 77.7254 117.496C77.3192 115.476 74.3371 114.265 72.687 113.586C70.11 112.526 67.4196 111.958 64.7088 111.358C64.3688 113.169 64.4177 115.113 64.3556 116.948C64.3219 117.945 64.2923 118.943 64.2928 119.94C64.2928 120.181 64.2104 120.679 64.3084 120.902C64.5387 121.427 64.8066 121.23 65.5077 121.23ZM61.5911 122.098H53.9896C55.1145 124.426 56.1779 126.798 57.3906 129.083C58.5985 131.359 60.1537 133.503 61.5241 135.688C61.8712 135.31 62.4249 134.9 62.6608 134.451C62.9221 133.953 62.9148 133.222 62.9576 132.646C63.0686 131.152 63.1191 129.645 63.1568 128.147C63.1898 126.836 63.2475 125.533 63.3482 124.225C63.3702 123.938 63.6868 122.447 63.5056 122.202C63.344 121.984 61.9235 122.1 61.5911 122.098ZM92.8969 76.3756C94.1793 76.3753 95.4632 76.3592 96.7453 76.3807C97.9089 76.4005 99.425 76.1979 100.491 76.797C102.662 78.0173 98.3215 81.1514 97.4413 81.9403C98.8645 82.4561 101.086 81.4323 102.479 80.9632C104.202 80.3834 105.959 79.994 107.716 79.5398C108.155 79.4263 110.04 79.2041 110.278 78.8678C110.514 78.5341 109.985 76.521 109.932 76.0964C109.883 75.6972 109.924 75.0748 109.758 74.6994C109.86 74.2483 109.702 74.0902 109.283 74.2256C109.138 74.2251 108.994 74.2244 108.849 74.2239C107.78 74.2325 106.71 74.2821 105.641 74.3175C101.969 74.4398 98.3854 74.6028 94.744 75.176C93.0512 75.4425 91.3434 75.7703 89.6594 76.0974C88.2418 76.3726 88.4804 76.6037 89.8043 76.6071C90.8398 76.6098 91.8665 76.456 92.8969 76.3756ZM198.251 49.3685C198.469 49.1179 198.687 48.8671 198.906 48.6163C198.374 48.4645 197.842 48.3124 197.31 48.1606C196.745 47.9993 196.441 48.0362 196.692 47.4045C197.007 46.6132 198.445 46.5225 199.137 46.4927C201.517 46.3898 204.017 47.1471 206.278 47.8142C207.382 48.1398 208.247 48.6436 209.18 49.3137C209.588 49.6063 210.058 49.8811 210.415 50.2326C210.785 50.5978 210.94 51.0657 211.302 51.4319C211.896 52.0323 212.657 52.3312 212.948 53.1978C213.282 54.1925 212.883 55.3311 212.388 56.1985C211.886 57.0787 211.14 57.7444 210.535 58.5442C210.054 59.1788 209.05 60.9127 210.619 60.7118C211.448 60.6054 212.524 59.1906 213.122 58.6268C213.977 57.8184 214.819 56.9915 215.726 56.2385C216.53 55.5709 217.456 54.8865 218.53 54.7691C219.663 54.6454 220.229 55.3705 220.781 56.2522C221.302 57.0839 221.386 57.8957 221.752 58.7469C221.929 59.1573 222.153 59.3861 222.257 59.8335C222.417 60.5216 222.434 61.2723 222.515 61.9739C222.643 63.0756 222.764 63.942 222.55 65.0215C222.35 66.0318 222.296 67.105 222.127 68.1329C221.937 69.297 221.778 70.4664 221.59 71.631C221.431 72.6176 220.825 74.0227 221.419 74.9402C222.846 77.1449 224.559 73.8993 225.009 72.6868C225.802 70.5561 226.205 68.227 226.905 66.0526C227.279 64.8897 227.606 63.7159 227.821 62.5119C227.998 61.5163 227.911 60.3033 228.456 59.4164C228.881 58.7276 229.635 58.2044 230.463 58.4147C231.499 58.6779 231.897 60.1755 232.202 61.0858C233.006 63.4868 232.71 65.6492 232.383 68.0979C232.231 69.2317 232.086 70.3672 231.826 71.4821C231.65 72.2343 230.922 73.7568 232.004 74.1657C233.538 74.7461 235.164 70.3454 235.601 69.3517C236.746 66.749 237.184 64.1679 237.656 61.3791C237.764 60.7379 237.847 60.0831 238.009 59.4529C238.15 58.9043 238.572 58.3499 238.609 57.8013C238.647 57.2523 238.284 56.8692 238.656 56.3302C238.966 55.8816 239.526 55.8545 240.032 55.8506C241.221 55.8413 242.358 56.3632 243.464 56.7419C244.492 57.0941 246.015 57.8671 247.125 57.6182C243.643 54.0842 240.171 50.5902 236.02 47.8379C234.092 46.5597 232.163 45.3313 230.079 44.289C227.968 43.2332 225.55 42.5201 223.289 41.8814C222.06 41.5337 220.838 41.1399 219.624 40.7412C218.543 40.3863 217.455 40.3191 216.397 39.9164C214.098 39.042 211.529 38.7032 209.148 38.0833C208.097 37.8098 207.035 37.5751 205.981 37.3216C204.874 37.0551 203.318 36.5924 202.19 36.6374C201.226 36.6757 200.901 37.7799 200.437 38.548C199.765 39.6629 199.191 40.8214 198.662 42.0107C197.578 44.4474 196.433 46.9647 195.658 49.5105C195.232 50.9083 194.812 52.3075 194.394 53.7075C194.032 54.9195 193.127 56.6678 193.367 57.9116C195.15 55.1642 196.81 52.3109 198.251 49.3685ZM115.251 74.1765C114.305 74.2195 113.359 74.2623 112.414 74.3053C113.357 77.405 113.225 80.7056 113.225 83.9184C117.632 83.3989 122.075 83.3105 126.508 83.3464C125.694 81.775 126.01 79.7366 126.242 78.054C126.378 77.0691 126.453 76.1204 126.434 75.1267C126.415 74.1946 126.684 73.4109 125.696 73.1226C124.913 72.8941 124.417 73.2749 123.671 73.4487C122.777 73.6568 121.803 73.6819 120.893 73.7951C118.999 74.0305 117.173 74.1687 115.251 74.1765ZM89.8552 80.213C92.6955 79.4251 95.7137 79.7155 98.5682 79.1166C97.9189 78.5241 96.6957 78.8751 95.8335 78.9245C94.8533 78.9802 93.8737 79.021 92.8935 79.0687C91.9374 79.1154 89.2856 79.043 88.9407 80.2594C89.2453 80.244 89.5503 80.2284 89.8552 80.213ZM193.782 36.2897C190.065 36.6158 186.173 36.5652 182.483 37.2138C178.257 37.9564 173.852 38.4224 169.755 39.7312C165.736 41.0153 161.637 41.9141 157.675 43.4219C153.823 44.8876 150.113 46.447 146.486 48.4075C144.711 49.367 142.983 50.3842 141.291 51.4861C139.639 52.562 137.828 53.444 136.227 54.5843C134.802 55.5995 133.573 56.5307 132.33 57.7744C131.002 59.1043 129.709 60.47 128.38 61.7976C127.27 62.9053 127.972 65.6133 128.043 67.0874C128.14 69.131 128.309 71.1458 128.559 73.1759C128.798 75.1105 129.043 77.1898 128.728 79.1203C128.596 79.9319 128.139 81.3338 128.357 82.1439C128.532 82.7927 129.689 83.2684 130.279 83.4799C131.001 83.7385 131.739 83.6295 132.48 83.9585C133.307 84.3264 134.005 84.785 134.884 84.9784C135.967 85.2167 137.185 85.4171 138.298 85.4245C139.327 85.4311 140.36 85.7645 141.387 85.9699C143.056 86.3043 144.686 86.4084 144.582 88.422C144.462 90.7452 143.54 92.7387 142.991 94.9442C143.734 94.9442 144.251 94.9916 144.931 94.7283C145.724 94.4213 146.571 94.3397 147.404 94.2072C149.247 93.9141 151.043 93.8202 152.897 93.6332C156.294 93.2905 159.75 93.3315 163.149 93.3677C164.871 93.3858 166.738 93.5188 168.435 93.7867C170.177 94.0617 171.98 94.2336 173.668 94.7609C175.092 95.2058 176.562 95.5089 178.014 95.902C178.669 96.0789 179.453 96.2227 180.071 96.4207C180.967 96.7079 181.446 97.3203 182.481 97.3063C182.19 95.3898 181.506 93.6119 181.093 91.7113C180.662 89.7264 179.803 87.9702 178.855 86.0977C178.431 85.2624 178.118 84.376 177.71 83.5336C177.257 82.5966 176.619 81.8205 176.071 80.9444C174.95 79.1523 173.754 77.4284 172.653 75.6236C171.692 74.0479 170.593 72.5374 169.541 71.0164C168.384 69.3441 166.777 68.082 165.464 66.5478C164.91 65.8998 164.382 65.2977 163.761 64.703C163.189 64.1554 162.378 62.9434 161.503 62.8867C161 62.8539 160.128 63.137 159.648 63.2888C158.76 63.5702 157.817 63.7535 156.9 64.0011C155.896 64.2722 154.909 64.625 153.904 64.8826C153.501 64.9856 153.023 64.9367 152.642 65.0533C152.243 65.1755 151.924 65.4446 151.488 65.5681C149.335 66.1787 147.196 66.872 145.027 67.4279C142.795 68.0004 140.528 68.4878 138.364 69.2987C137.951 69.4534 137.492 69.8191 137.175 69.5788C136.939 69.3994 136.786 68.8926 136.849 68.5968C137.056 67.6122 138.631 67.2565 139.39 66.8612C141.422 65.8018 143.441 65.0547 145.625 64.3353C146.7 63.9813 147.772 63.6034 148.863 63.2976C149.775 63.0421 150.724 62.61 151.656 62.4792C152.485 62.3628 153.074 62.0362 153.897 61.747C155.11 61.321 156.357 60.9711 157.589 60.6072C159.695 59.9848 161.927 59.7232 164.082 59.3059C169.074 58.3391 174.258 57.8551 179.352 57.915C181.92 57.9453 184.606 57.8703 187.145 58.2927C187.757 58.3944 189.043 58.3748 189.465 58.9241C189.692 59.2189 189.569 59.6577 189.627 59.9772C189.726 60.5165 190.02 60.7678 190.275 61.2591C190.817 58.6004 191.439 55.9982 192.139 53.3785C192.771 51.0075 193.357 48.5935 194.202 46.2558C195.097 43.7825 196.181 41.16 197.518 38.8963C197.793 38.4304 198.479 37.6902 198.538 37.169C198.599 36.6312 197.846 36.2147 197.328 36.1548C196.166 36.0206 194.923 36.2504 193.782 36.2897ZM218.749 74.2789C219.128 70.5908 220.233 66.7331 219.616 63.0304C219.354 61.463 219.15 59.9667 218.366 58.5518C217.97 57.8363 217.811 57.3107 217.054 57.7326C216.288 58.1597 215.583 59.2145 214.947 59.8259C213.78 60.9496 212.558 62.1069 211.16 62.9414C210.059 63.5985 207.872 64.2214 207.044 62.7999C206.256 61.4451 207.308 59.5545 208.063 58.4369C208.927 57.1582 210.564 55.9738 209.645 54.3961C209.25 53.717 208.681 53.5391 208.083 53.0934C207.565 52.7077 207.132 52.208 206.614 51.8154C205.114 50.6775 203.469 50.1901 201.737 49.5398C200.937 49.2394 200.832 48.9568 200.37 49.6435C199.869 50.3893 199.594 51.4346 199.231 52.2593C198.505 53.9116 197.73 55.4771 196.793 57.0176C195.848 58.5723 195.01 60.1965 194.116 61.782C193.779 62.3802 193.462 62.9881 193.064 63.5496C192.847 63.8552 192.578 64.1275 192.402 64.4619C192.141 64.9565 192.257 65.4072 192.095 65.8996C191.394 68.0239 190.372 65.0584 190.177 64.3651C189.955 63.5765 189.42 62.9617 189.072 62.2262C188.786 61.6187 188.59 60.7159 187.898 60.4299C187.331 60.1957 186.6 60.5172 186.021 60.5485C184.958 60.6062 183.887 60.5201 182.819 60.5866C181.82 60.6487 180.824 60.7445 179.825 60.8057C178.826 60.867 177.828 60.6981 176.842 60.8032C175.072 60.9919 173.263 60.9616 171.497 61.2232C169.425 61.5297 167.375 61.8568 165.297 62.112C165.779 63.025 166.78 63.4211 167.572 64.0725C168.279 64.6548 168.839 65.3268 169.551 65.8807C170.274 66.443 170.703 67.2746 171.302 67.9503C171.888 68.612 172.431 69.1669 172.944 69.9074C175.423 73.4827 177.979 76.9261 180.023 80.7904C181.058 82.7463 182.046 84.8388 182.753 86.9372C183.512 89.1878 183.884 91.6015 184.334 93.9287C184.559 95.0887 184.676 96.0677 184.43 97.2342C184.366 97.5119 184.298 97.7891 184.229 98.0656C184.013 98.3966 184.093 98.6112 184.468 98.7097C184.688 99.0297 184.988 99.1498 185.007 99.5873C185.021 99.9198 184.836 100.305 184.55 100.493C183.997 100.854 183.997 100.366 183.427 100.474C183.214 100.59 183 100.705 182.787 100.82C182.674 100.649 182.558 100.479 182.439 100.312C182.076 99.9665 181.787 99.998 181.312 99.9139C181.553 102.693 181.169 105.174 180.557 107.884C180.263 109.187 179.758 110.463 179.504 111.769C179.22 113.228 179.841 113.892 180.8 114.865C180.557 114.992 180.13 115.13 179.929 115.32C179.609 115.623 179.691 115.66 179.691 116.134C179.692 117.002 179.525 117.857 179.389 118.711C179.137 120.291 178.906 121.926 178.362 123.44C177.374 126.188 175.776 129.042 174.149 131.463C173.238 132.818 172.325 134.357 171.183 135.526C170.037 136.699 168.902 137.882 167.759 139.059C165.509 141.375 163.05 142.975 160.355 144.709C159.288 145.396 158.164 146.148 157.246 147.003C156.313 147.872 155.072 148.48 153.958 149.111C153.46 149.393 153.106 149.797 152.569 150.028C152.064 150.245 151.712 150.316 151.289 150.601C150.239 151.307 149.105 151.91 147.949 152.443C146.539 153.092 145.151 153.847 143.703 154.401C143.043 154.654 142.423 154.929 141.784 155.224C141.092 155.544 140.346 155.754 139.637 156.094C139.037 156.382 138.43 156.549 137.82 156.784C137.322 156.976 136.931 157.287 136.423 157.488C135.367 157.905 134.407 158.13 133.382 158.621C132.019 159.274 130.405 159.578 128.97 160.048C127.368 160.573 125.706 161.095 124.062 161.467C123.362 161.626 122.766 161.833 122.09 162.073C121.65 162.229 121.145 162.314 120.658 162.463C119.31 162.874 117.963 163.27 116.608 163.619C113.961 164.302 111.257 165.121 108.69 166.048C107.344 166.534 105.979 167.119 104.688 167.738C103.228 168.437 101.655 168.84 100.19 169.533C97.3604 170.869 94.5399 172.246 91.7426 173.649C90.2737 174.387 88.8253 175.146 87.3911 175.948C86.8707 176.239 86.3016 176.359 85.7846 176.644C85.1084 177.017 84.5535 177.565 83.861 177.935C81.1915 179.361 78.4671 180.704 76.0152 182.508C74.7321 183.452 73.3534 184.418 72.2446 185.568C71.8786 185.947 71.2445 186.534 71.1783 187.084C71.0807 187.899 71.1722 187.15 71.454 187.652C71.8444 187.699 71.9326 187.849 71.7197 188.101C71.6215 188.22 71.4956 188.28 71.3423 188.283C70.8492 188.382 69.9269 187.86 69.5307 187.641C68.844 187.263 68.4795 186.785 68.0385 186.149C67.0807 184.771 66.1462 183.38 65.1598 182.021C64.2727 180.799 63.4044 179.454 62.3951 178.332C61.7106 177.571 61.6593 177.903 60.8981 178.332C60.3317 178.651 59.6738 178.787 59.0869 179.088C56.8504 180.233 54.3919 181.08 52.098 181.878C51.5756 182.06 51.2972 182.348 50.8381 182.599C50.2534 182.919 49.5127 183.076 48.8874 183.303C47.1647 183.929 45.4506 184.58 43.7402 185.239C42.4196 185.748 41.1507 186.149 40.1169 187.088C39.7055 187.462 39.2075 187.73 38.7827 188.109C38.2879 188.548 37.6188 189.264 36.996 189.513L36.6166 189.809C36.3599 189.631 36.103 189.453 35.8456 189.275C35.5904 189.098 35.3349 188.922 35.0802 188.745C34.4405 188.3 33.8054 187.849 33.1695 187.399C31.7275 186.377 30.2762 185.365 28.9349 184.211C26.5522 182.162 24.0797 180.223 21.5883 178.304C18.9734 176.29 16.424 174.183 13.7194 172.289C11.268 170.574 8.59343 169.125 6.21661 167.314C5.02026 166.402 3.82684 165.485 2.60531 164.602C2.53882 164.554 1.54489 163.944 1.5356 163.876C1.518 163.751 1.84507 163.426 1.94163 163.321C2.39876 162.825 2.90526 162.382 3.36067 161.88C5.48325 159.539 8.25461 159.621 11.1839 159.51C12.5122 159.46 13.9528 160.073 15.2144 160.49C16.7572 161 18.2454 161.748 19.7356 162.395C22.8066 163.727 25.9763 164.865 29.0784 166.098C30.2982 166.583 31.5134 166.82 32.7535 167.154C34.0117 167.492 35.3078 167.169 36.6535 167.194C37.3519 167.206 38.0122 167.247 38.7154 167.207C39.133 167.184 39.614 167.105 40.0264 167.112C40.3606 167.118 40.7075 167.255 41.015 167.221C42.3612 167.068 43.7832 166.854 45.1717 166.679C46.5502 166.505 47.9726 166.419 49.333 166.147C50.018 166.01 50.6939 165.816 51.3529 165.584C51.9249 165.382 52.9648 165.153 53.4342 164.745C53.8542 164.379 53.6706 164.375 53.4364 163.778C53.3437 163.543 53.2479 163.185 53.1105 162.958C52.7392 162.345 52.3803 162.152 52.5964 161.384C52.9771 160.031 54.2744 159.167 55.3849 158.5C57.8866 156.999 60.1747 155.074 62.8089 153.801C68.2368 151.177 73.1835 147.769 78.4769 144.888C84.2953 141.721 89.7994 138.005 95.6988 134.972C101.19 132.149 106.656 129.309 112.193 126.574C114.897 125.24 117.955 124.018 120.408 122.268C119.049 122.099 117.686 121.882 116.322 121.761C115.689 121.705 115.049 121.757 114.42 121.656C113.716 121.544 113.051 121.259 112.349 121.141C111.142 120.937 110.056 120.523 108.848 120.371C107.552 120.207 106.283 119.826 104.982 119.719C102.259 119.496 99.8012 118.492 97.4141 117.227C96.8233 116.913 96.3378 117.092 95.7717 116.879C95.4597 116.762 95.1285 116.294 94.7782 116.042C93.8134 115.349 92.9852 114.531 92.0682 113.775C90.1405 118.101 86.3551 121.043 82.7428 123.946C80.9131 125.415 78.9272 126.661 77.0786 128.103C75.6456 129.221 74.3442 130.222 72.8144 131.111C71.3455 131.964 69.9655 133.117 68.5651 134.142C67.6159 134.836 66.5033 135.361 65.494 135.964C64.6692 136.457 63.059 137.192 62.8341 138.086C62.65 138.816 63.0091 139.686 61.8944 139.35C60.8963 139.049 60.1728 137.941 59.5915 137.161C58.0881 135.141 56.6856 133.053 55.2898 130.959C54.5401 132.422 53.2469 133.476 52.0516 134.561C51.3253 135.22 50.5714 135.832 49.7869 136.42C49.4066 136.706 49.0218 136.986 48.6407 137.27C48.4906 137.383 48.1503 137.556 48.053 137.714C47.8257 138.085 47.9638 137.917 47.9993 138.365C48.0545 139.067 48.2887 139.619 47.8915 140.291C47.5184 140.923 46.7051 141.192 46.1351 141.624C44.7788 142.65 43.3527 143.741 41.8481 144.543C41.5066 144.725 41.1837 144.882 40.8656 145.105C40.3347 145.476 40.4317 145.611 39.8966 145.255C39.0599 144.698 38.337 143.773 37.5819 143.101C35.9998 141.694 34.4001 140.304 32.7799 138.941C29.6922 136.342 26.5133 133.873 23.464 131.228C20.5662 128.715 17.4597 126.551 14.4681 124.161C13.6475 123.506 12.8369 122.837 12.027 122.168C11.3059 121.573 10.1357 120.917 9.60228 120.155C8.82761 119.049 11.8578 117.537 12.7721 117.312C14.3486 116.924 16.3871 117.146 17.966 117.464C19.6234 117.798 21.3111 118.914 22.8587 119.609C24.6032 120.392 26.3799 121.07 28.1372 121.81C28.921 122.139 29.7519 122.403 30.4793 122.847C31.2513 123.319 31.9404 123.856 32.7613 124.252C33.7073 124.707 34.6903 125.132 35.6852 125.469C36.136 125.621 36.6212 125.774 37.095 125.836C37.7657 125.923 37.6748 125.614 38.2319 125.442C38.7054 125.295 38.8179 125.682 39.2437 125.79C39.6446 125.892 39.9443 125.789 40.2914 125.573C41.0654 125.093 41.7542 124.431 42.5284 123.93C43.2466 123.466 44.0384 123.033 44.7116 122.507C45.0118 122.273 45.2338 121.952 45.5296 121.714C46.0036 121.333 46.1915 121.484 46.745 121.221C47.1975 121.007 47.6079 120.607 48.0384 120.342C48.3056 120.177 48.9536 119.969 49.1259 119.703C49.5787 119.004 48.806 118.519 48.1139 118.725C48.0103 118.121 47.4781 116.688 47.7079 116.122C47.9113 115.622 48.4451 115.715 48.8942 115.45C50.5819 114.454 51.8274 112.644 53.4063 111.473C54.8948 110.369 56.208 109.052 57.6825 107.928C58.9456 106.965 60.326 106.024 61.4762 104.986C62.8361 103.758 64.5771 102.803 66.0555 101.707C67.5829 100.576 69.0021 99.3162 70.5131 98.1715C71.9669 97.0702 73.3947 95.9198 74.8886 94.8713C76.2311 93.929 77.6384 93.0685 78.9531 92.1132C79.6732 91.5901 80.4606 91.1305 81.2827 90.787C82.1002 90.4453 82.8152 90.0446 83.6133 89.6767C85.1996 88.9456 87.2652 88.4403 88.9901 88.2308C90.8865 88.0005 92.7908 87.794 94.7054 87.7922C95.7252 87.7915 96.7157 87.9856 97.7295 88.0472C98.6609 88.1034 99.668 88.3391 100.593 88.308C101.012 88.2941 101.376 88.1169 101.781 88.1741C102.12 88.2217 102.414 88.4261 102.777 88.4618C103.586 88.5415 104.4 88.462 105.218 88.5667C107.097 88.8067 108.978 89.149 110.861 89.3396C112.867 89.5428 114.856 89.5812 116.852 89.9234C118.802 90.2576 120.765 90.6039 122.704 90.9904C126.824 91.8118 130.988 92.6138 135.044 93.8334C135.992 94.1184 136.945 94.3895 137.857 94.7804C138.299 94.9699 138.724 95.1996 139.185 95.3414C139.846 95.5443 139.976 95.6213 140.316 95.0672C140.902 94.1133 141.224 92.8517 141.649 91.814C142.07 90.787 142.58 89.752 142.824 88.6796C142.115 88.5674 141.221 88.7855 140.49 88.8104C139.596 88.8412 138.712 88.8219 137.819 88.8165C136.019 88.8057 134.612 88.2741 132.908 87.716C131.473 87.2454 129.562 86.9755 128.467 85.898C127.88 85.3203 127.684 85.2186 126.802 85.3223C125.912 85.4267 125.032 85.6066 124.134 85.6364C120.746 85.7489 117.374 86.34 113.971 86.4568C113.05 86.4883 110.748 86.9247 110.898 85.3634C110.93 85.0392 111.178 84.7581 111.226 84.4244C111.278 84.0668 111.189 83.7038 111.133 83.3542C111 82.5272 110.861 81.7007 110.728 80.8735C107.625 81.8694 104.482 82.6763 101.32 83.4652C100.009 83.7923 97.9023 84.5444 96.5473 84.1321C95.2373 83.7334 95.9961 81.8877 96.4041 81.0043C93.8014 81.5983 91.0254 82.5698 88.3713 82.7927C87.5639 82.8607 86.778 83.0394 86.59 82.0633C86.4404 81.2854 87.0022 80.3342 87.2887 79.651C85.2519 79.4691 83.1428 79.4865 83.5261 76.8757C83.8773 74.4803 85.8672 74.0034 87.9858 73.5658C90.6008 73.0254 93.2714 72.8452 95.9034 72.4079C98.1935 72.0273 100.692 71.6029 103.031 71.795C104.269 71.8965 105.514 71.9197 106.752 72.0343C107.336 72.0884 107.897 72.1788 108.463 72.3382C108.984 72.4849 109.713 72.9398 110.248 72.9479C111.054 72.9606 112.027 71.8698 112.894 71.6178C113.969 71.3054 115.127 71.2487 116.237 71.1722C117.496 71.0859 118.756 71.0377 120.014 70.9358C120.3 70.9125 121.384 70.9834 121.61 70.8155C121.94 70.5708 121.721 69.3158 121.698 68.8002C121.676 68.3233 121.768 67.4301 121.437 67.2431C121.127 67.0676 120.222 67.3083 119.916 67.3572C118.65 67.5601 117.447 67.5369 116.185 67.4853C115.602 67.4616 115.042 67.6168 114.465 67.5403C113.846 67.4584 113.222 67.2502 112.606 67.1343C111.27 66.8832 110.053 66.5708 108.901 65.8223C107.891 65.1655 106.695 64.7208 106.13 63.5704C105.717 62.728 105.549 61.1024 106.765 60.8629C105.936 59.6682 105.365 58.3262 104.926 56.9457C104.846 56.6954 104.793 56.3185 104.674 56.1002C104.254 55.3282 104.644 56.0129 104.044 55.7042C103.451 55.3993 103.024 55.1581 102.561 54.6278C101.822 53.7823 101.511 52.7417 101.418 51.6399C101.291 50.1436 101.055 48.4564 101.273 46.9677C101.651 44.389 103.536 42.4514 105.451 40.8918C106.491 40.045 107.86 39.7297 109.079 39.2158C110.256 38.7196 111.571 38.1994 112.811 38.0831C113.93 37.9779 115.022 37.6125 116.142 37.4651C117.682 37.2622 119.224 37.338 120.772 37.2764C121.484 37.248 122.195 37.1475 122.904 37.071C123.304 37.0277 123.981 37.0739 124.348 36.9153C124.948 36.6552 124.624 37.2013 124.838 36.4059C125.246 34.8927 125.579 33.4737 126.197 32.0033C126.772 30.6334 127.471 29.3236 128.395 28.1524C129.261 27.0539 130.385 26.2503 131.405 25.3119C132.162 24.6167 133.019 23.9887 133.882 23.4264C134.375 23.105 134.925 22.9312 135.407 22.6474C136.005 22.2953 136.533 22.0284 137.206 21.8128C138.651 21.3503 140.085 20.8592 141.619 20.8834C143.273 20.9093 144.932 20.5243 146.542 21.0125C149.533 21.9191 150.998 25.1601 150.948 28.1363C151.971 27.8811 152.865 27.3897 153.948 27.3477C154.946 27.3091 156.131 27.3956 157.112 27.5809C159.014 27.9405 160.971 28.998 162.105 30.6006C163.187 32.1292 163.349 34.1586 162.684 35.8928C162.365 36.7229 161.861 37.4614 161.323 38.1627C160.929 38.6771 160.049 39.2464 160.008 39.9355C167.371 37.7098 174.764 36.1409 182.381 35.1254C186.242 34.6108 190.11 34.8685 193.975 34.5744C195.626 34.4488 197.42 34.6245 199.127 34.6311C199.847 34.6341 200.408 34.5338 200.931 34.0674C201.46 33.5956 201.882 33.0178 202.499 33.6988C202.656 33.8726 202.689 34.2931 202.901 34.4238C203.158 34.5822 203.904 34.4735 204.211 34.4923C205.284 34.5578 206.332 34.7399 207.386 34.9497C209.319 35.3347 211.24 35.7238 213.151 36.2125C216.789 37.1431 220.379 38.0432 223.964 39.1479C227.623 40.2751 231.32 41.6657 234.693 43.4903C236.327 44.374 237.959 45.4773 239.461 46.5704C240.159 47.0789 240.785 47.6289 241.393 48.242C242.042 48.8974 242.836 49.3396 243.479 49.9999C244.878 51.436 246.271 52.9595 247.54 54.5154C248.203 55.3277 248.811 56.1845 249.4 57.0504C249.816 57.6578 250.906 58.7701 250.654 59.5548C250.522 59.9738 250.053 60.2669 249.625 60.1642C249.481 60.13 249.364 59.9442 249.241 59.9266C248.826 59.8679 249.202 59.7222 248.721 59.918C247.76 60.3075 247.455 61.0885 246.235 60.9108C244.162 60.6084 242.213 59.6296 240.328 58.7762C239.79 60.8345 239.713 62.9683 239.242 65.0513C238.783 67.0834 238.016 69.0215 237.091 70.8854C236.279 72.5208 235.237 74.2638 233.801 75.4325C232.704 76.3242 229.999 77.4321 229.194 75.5334C228.852 74.727 229.361 73.4739 229.505 72.644C229.698 71.5303 229.911 70.4134 230.027 69.2884C230.122 68.3744 230.17 67.455 230.258 66.54C230.334 65.7529 230.544 64.063 230.101 63.3678C229.834 62.9488 229.811 63.3599 229.656 63.7782C229.468 64.2854 229.311 64.7885 229.174 65.3109C228.881 66.421 228.617 67.5386 228.34 68.6526C227.845 70.6429 227.3 72.5897 226.269 74.3794C225.353 75.9686 224.065 77.712 222.106 77.9723C221.189 78.0941 219.994 77.6748 219.294 77.0571C218.508 76.3641 218.743 75.221 218.749 74.2789Z" fill="black"/>
<path fill-rule="evenodd" clip-rule="evenodd" d="M174.027 155.555C175.104 155.342 176.01 154.483 176.889 153.838C178.01 153.015 179.073 152.118 180.162 151.253C182.213 149.624 184.074 147.837 185.844 145.894C189.336 142.06 191.965 137.124 193.16 132.082C193.765 129.531 194.512 126.541 194.169 123.905C194.05 122.989 193.868 122.821 192.97 122.717C192.564 122.67 191.535 122.553 191.17 122.712C190.223 123.126 189.712 124.886 189.432 125.77C188.603 128.381 188.115 131.086 187.365 133.719C186.631 136.299 185.447 138.917 184.277 141.33C181.673 146.7 178.053 151.191 174.027 155.555ZM195.378 125.912C194.735 133.223 192.705 140.189 188.153 146.077C185.99 148.875 183.446 151.31 180.688 153.522C177.841 155.806 174.933 157.957 171.702 159.66C170.842 160.114 169.981 160.566 169.111 160.998C168.628 161.238 167.41 162.121 166.853 161.981C166.407 161.869 166.291 161.524 166.221 161.075C166.065 160.068 166.72 159.565 167.382 158.918C170.04 156.319 172.707 153.711 175.192 150.946C180.101 145.486 183.789 138.948 185.838 131.893C186.47 129.721 187.033 127.524 187.715 125.367C188.13 124.053 188.719 121.715 190.098 121.059C190.838 120.708 191.7 121.05 192.478 120.839C193.208 120.642 193.691 120.239 194.313 120.915C195.404 122.1 195.453 124.426 195.378 125.912Z" fill="black"/>
<path fill-rule="evenodd" clip-rule="evenodd" d="M0.906953 168.097C0.362068 168.29 0.339334 168.482 0.0897495 167.921C-0.0358991 167.639 -0.00192028 167.252 0.0276586 166.958C0.0985498 166.255 0.46865 165.605 0.772749 164.982C3.63479 167.343 6.6066 169.471 9.67546 171.557C12.9575 173.787 16.0911 176.267 19.1952 178.738C21.9748 180.951 24.788 183.099 27.5386 185.34C28.8652 186.42 30.3776 187.258 31.6388 188.372C32.6579 189.272 34.348 189.675 35.2168 190.734C33.8401 191.556 32.002 192.219 30.4764 191.507C28.7933 190.722 27.5024 189.698 26.0046 188.634C25.2329 188.086 24.4304 187.588 23.6464 187.058C22.9573 186.591 22.4706 185.91 21.7729 185.473C20.3067 184.553 18.8026 183.539 17.4114 182.489C15.9823 181.41 14.4027 180.552 13.024 179.405C11.6105 178.23 10.0284 177.451 8.55269 176.381C5.42516 174.113 2.67116 171.562 0.906953 168.097Z" fill="black"/>
<path fill-rule="evenodd" clip-rule="evenodd" d="M85.2878 47.6737C85.2489 47.8824 85.2101 48.0912 85.1712 48.3002C85.1949 48.3056 87.0664 44.6901 87.3764 44.2535C88.428 42.7734 89.7965 41.5418 91.1158 40.3056C93.9104 37.6871 97.1811 35.5735 99.9197 32.9082C100.821 32.0314 102.435 30.7028 102.079 29.2202C101.725 27.7466 98.7344 28.0461 97.7104 28.4724C96.1051 29.141 94.8011 30.5393 93.6048 31.7576C92.2999 33.0867 90.9845 34.4009 89.8786 35.905C88.6862 37.5269 87.5541 39.2836 86.8234 41.1659C86.0048 43.2745 85.685 45.4567 85.2878 47.6737ZM85.9023 54.1429C84.6324 54.5345 86.2245 54.799 85.7271 55.4776C85.1815 56.2217 84.2643 53.929 84.1271 53.496C83.3187 50.9383 83.6803 47.8311 84.1217 45.2343C84.3447 43.9243 84.4887 42.5927 84.7894 41.2969C85.0827 40.0333 85.7214 38.8326 86.3116 37.6831C87.493 35.3833 89.0575 33.2407 90.833 31.3655C92.6138 29.4842 94.5987 27.6019 96.9487 26.4437C98.8904 25.4872 101.968 26.1508 102.877 28.2402C103.806 30.3752 102.55 32.701 101.064 34.2021C99.1267 36.16 97.0156 38.1046 94.8393 39.7928C93.7209 40.6606 92.7834 41.71 91.6968 42.6155C90.5403 43.5793 89.5398 44.5488 88.6847 45.7953C87.8565 47.0031 87.0041 48.21 86.4658 49.5811C85.8764 51.0826 85.9023 52.5544 85.9023 54.1429Z" fill="black"/>
<path fill-rule="evenodd" clip-rule="evenodd" d="M35.1061 146.214C32.1878 144.335 29.2598 142.685 26.7184 140.289C24.2093 137.923 22.017 135.255 19.2244 133.202C17.831 132.178 16.3929 131.216 15.0242 130.158C13.7252 129.154 12.2321 128.294 11.058 127.149C9.49298 125.623 6.56297 122.786 8.56235 120.509C11.044 123.461 14.449 125.787 17.5533 128.028C20.8265 130.391 23.8309 133.147 26.9357 135.721C29.9266 138.2 32.9075 140.703 35.826 143.248C36.5924 143.917 37.3316 144.619 38.107 145.277C38.2018 145.357 39.0056 145.866 39.0056 146.002C39.0058 146.327 38.3827 146.53 38.1608 146.62C37.8105 146.763 36.863 147.118 36.4657 146.998C36.2575 146.935 36.2538 146.765 36.1037 146.665C36.0174 146.502 35.9167 146.349 35.8023 146.204C35.5701 146.208 35.3381 146.211 35.1061 146.214Z" fill="black"/>
<path fill-rule="evenodd" clip-rule="evenodd" d="M206.903 113.451C204.823 113.398 201.656 113.391 201.773 116.232C201.83 117.639 202.593 118.672 203.22 119.875C203.877 121.139 204.365 122.445 204.558 123.863C205.339 129.599 203.244 135.204 201.349 140.507C205.419 137.222 208.358 132.65 209.902 127.64C210.65 125.21 210.941 122.087 210.7 119.557C210.579 118.291 210.112 117.156 209.549 116.028C209.267 115.461 208.985 114.814 208.534 114.356C208.083 113.896 207.458 113.743 206.903 113.451ZM199.646 143.793C198.302 141.582 200.418 138.328 201.11 136.173C201.937 133.597 202.7 130.914 203.054 128.227C203.424 125.412 202.946 123.223 201.641 120.737C200.475 118.514 199.782 115.554 201.079 113.202C201.602 112.255 202.373 112.139 203.29 111.761C204.415 111.298 204.725 110.514 206.106 110.639C208.571 110.86 209.711 113.197 210.627 115.188C212.765 119.831 212.184 125.821 210.361 130.483C209.312 133.165 208.115 135.95 206.334 138.234C205.46 139.354 204.434 140.324 203.368 141.259C202.216 142.269 201.183 143.487 199.646 143.793Z" fill="black"/>
<path fill-rule="evenodd" clip-rule="evenodd" d="M58.9204 63.1964C55.6717 63.8494 52.7069 65.3137 52.1865 68.9648C51.7135 72.283 53.9737 75.3528 56.7492 76.9061C59.7511 78.5864 63.5125 78.8656 66.5036 77.0034C69.6524 75.0429 70.3667 71.114 68.4502 68.0317C66.3117 64.592 62.7293 63.5768 58.9204 63.1964ZM61.0083 61.6046C64.877 62.1715 68.4683 64.9247 69.7715 68.6328C71.115 72.4553 69.8805 76.658 66.3237 78.7524C59.1356 82.9856 49.5283 75.931 51.2632 67.8225C51.7037 65.7637 52.9546 64.1694 54.654 62.964C56.5302 61.6329 58.799 61.5967 61.0083 61.6046Z" fill="black"/>
<path fill-rule="evenodd" clip-rule="evenodd" d="M198.557 22.7864C193.896 20.6787 189.234 18.5711 184.573 16.4634C184.382 18.5764 184.19 20.6893 183.999 22.8023C183.947 23.3741 183.735 24.1519 183.826 24.7161C183.922 25.3182 183.716 25.2539 184.501 25.1684C185.505 25.0586 186.512 24.8107 187.505 24.6335C189.291 24.3147 191.191 24.2238 192.939 23.7549C193.831 23.5156 194.685 23.4855 195.591 23.3408C196.585 23.1819 197.553 22.8876 198.557 22.7864ZM182.789 26.8712C182.789 24.491 183.053 22.1428 183.271 19.7735C183.467 17.6419 183.543 15.61 184.238 13.5791C184.888 14.7596 186.688 15.2314 187.802 15.8388C189.337 16.6758 190.971 17.2921 192.542 18.0545C194.085 18.8033 195.571 19.663 197.116 20.4101C197.899 20.789 198.694 21.1425 199.476 21.5243C199.965 21.7634 201.126 22.1481 201.43 22.5921C202.355 23.9395 199.191 24.0698 198.581 24.1886C196.749 24.5457 194.897 24.7469 193.069 25.1141C191.365 25.4568 189.658 25.7748 187.948 26.0855C186.255 26.3931 184.511 26.8712 182.789 26.8712Z" fill="black"/>
<path fill-rule="evenodd" clip-rule="evenodd" d="M39.0552 85.7963C40.8906 85.6054 42.7184 85.3306 44.5517 85.1492C46.2878 84.9774 47.8235 84.7945 49.4095 83.9991C47.2434 83.3459 45.0724 82.7274 42.888 82.1373C41.8046 81.8447 40.7234 81.535 39.6351 81.2617C38.7932 81.05 38.0593 80.9283 37.7357 80.0094C37.359 78.9396 38.4065 79.1017 39.0594 79.3735C39.9599 79.7483 40.9409 79.9812 41.8743 80.2929C43.9575 80.9884 46.0534 81.6281 48.1562 82.2605C48.8099 82.4571 52.5974 83.1841 51.2326 84.4476C50.6486 84.9886 49.3455 85.2856 48.6314 85.6741C47.7155 86.1723 46.7183 86.3707 45.6995 86.569C43.5759 86.9821 41.3721 87.1408 39.2224 87.4991C38.1246 87.6822 37.027 87.8653 35.9294 88.0484C35.2863 88.1555 35.0386 88.145 34.8707 87.4278C34.7485 86.9066 34.9078 86.3852 35.0252 85.8804C35.3229 84.5977 35.6542 83.3217 35.982 82.0466C36.1066 81.5602 36.3274 79.4217 36.7613 79.1878C37.7457 78.657 36.9862 81.6176 36.9131 81.9801C36.6369 83.3476 36.3088 84.7055 36.1612 86.0933C37.128 86.0058 38.0921 85.9151 39.0552 85.7963Z" fill="black"/>
<path fill-rule="evenodd" clip-rule="evenodd" d="M65.0792 96.6832C65.4434 97.5977 64.8386 97.8023 64.1048 98.1191C63.1529 98.5301 62.2166 98.9637 61.2474 99.3338C59.2084 100.112 57.1548 100.835 55.1644 101.735C51.3683 103.452 47.5209 105.1 43.7837 106.939C42.855 107.395 41.9256 107.851 40.9886 108.291C40.0196 108.746 38.9083 109.512 37.8716 109.772C36.9674 109.999 36.873 109.355 37.4089 108.762C38.0997 107.997 39.1677 107.426 40.0353 106.894C43.6057 104.705 47.5025 102.924 51.4023 101.418C55.9098 99.6778 60.4294 98.0079 65.0792 96.6832Z" fill="black"/>
<path fill-rule="evenodd" clip-rule="evenodd" d="M74.9905 44.8039C74.86 42.0235 75.2318 39.2355 75.0101 36.4624C71.1976 39.8422 73.0759 45.0654 75.2692 48.7327L74.9905 44.8039ZM76.6408 44.645C76.665 46.0032 76.742 47.3606 76.61 48.7119C76.4714 50.1305 77.1368 50.8612 78.0041 51.906C77.2676 52.6535 75.5774 50.9105 75.1108 50.3967C74.1498 49.3387 73.4348 47.9331 72.7985 46.6627C71.4432 43.9564 70.5099 41.0589 71.5946 38.0875C71.9967 36.9863 72.4885 35.489 73.5531 34.8478C74.7221 34.1438 75.6163 35.1367 76.1013 36.1581C77.2854 38.65 76.3826 41.9702 76.6408 44.645Z" fill="black"/>
<path fill-rule="evenodd" clip-rule="evenodd" d="M117.029 182.853C118.787 182.993 120.519 183.13 122.277 183.241C121.974 180.831 121.67 178.421 121.367 176.011C120.349 176.247 119.332 176.482 118.315 176.718C117.834 176.829 117.097 176.858 116.671 177.098C116.512 177.135 116.353 177.172 116.194 177.209C116.189 177.521 116.186 177.834 116.183 178.147C116.171 179.073 116.144 179.997 116.106 180.922C116.09 181.309 115.955 181.877 116.047 182.261C115.883 182.649 115.987 182.814 116.362 182.756C116.585 182.788 116.807 182.821 117.029 182.853ZM115.819 184.596C114.441 183.909 114.818 181.813 114.82 180.478C114.822 179.629 114.882 178.786 114.904 177.938C114.919 177.356 114.786 176.634 114.986 176.071C115.343 175.07 117.088 175.097 117.986 175.167C118.651 175.219 119.208 175.186 119.89 175.142C120.226 175.12 120.601 175.184 120.931 175.085C121.003 175.064 121.675 174.595 121.645 174.594C122.85 174.64 122.866 177.53 122.945 178.263C123.138 180.071 123.313 181.882 123.47 183.693C123.512 184.173 123.69 184.715 123.235 184.988C122.824 185.235 121.736 184.991 121.282 184.977C119.451 184.922 117.63 184.637 115.819 184.596Z" fill="black"/>
<path fill-rule="evenodd" clip-rule="evenodd" d="M201.838 77.2039C202.634 77.9208 202.252 78.6606 201.991 79.5562C201.834 80.0938 200.972 81.8587 201.21 82.3616C201.485 82.9429 202.776 83.0859 203.328 83.2695C204.29 83.5892 205.256 83.9104 206.166 84.3612C206.57 84.5614 208.026 85.0215 208.3 85.395C208.456 85.6091 208.513 85.7768 208.395 86.0528C208.189 86.5373 207.894 86.2809 207.391 86.177C205.091 85.7018 202.81 85.0941 200.677 84.0918C200.083 85.4722 199.579 86.882 199.076 88.2983C198.928 88.7134 198.788 89.6565 198.228 89.7237C197.545 89.8054 197.535 88.8907 197.581 88.3971C197.647 87.6765 198.02 86.9081 198.246 86.2259C198.432 85.6627 199.084 84.49 199.004 83.9097C198.949 83.5102 198.705 83.5381 198.271 83.3812C197.861 83.233 197.451 83.0856 197.042 82.9358C196.385 82.6955 195.731 82.4545 195.091 82.1694C194.74 82.013 194.006 81.8301 193.752 81.5055C193.605 81.3173 193.441 80.6389 193.627 80.4512C194.062 80.0114 196.954 81.195 197.549 81.3566C197.943 81.4639 198.34 81.5458 198.723 81.6864C198.868 81.7399 199.039 81.957 199.196 81.9651C199.861 81.9988 199.914 81.4872 200.12 80.9384C200.6 79.6631 201.12 78.3621 201.838 77.2039Z" fill="black"/>
<path fill-rule="evenodd" clip-rule="evenodd" d="M36.0057 102.577C35.651 101.707 39.4158 100.657 40.1147 100.364C41.8205 99.6499 43.648 99.218 45.4142 98.6726C47.151 98.1363 48.8803 97.5589 50.5885 96.9382C51.1168 96.7461 54.9209 94.8938 55.1199 95.1647C55.7792 96.0609 47.7964 98.876 47.0185 99.1561C43.4065 100.457 39.6769 101.455 36.0057 102.577Z" fill="black"/>
<path fill-rule="evenodd" clip-rule="evenodd" d="M197.931 34.5784C196.955 34.5882 195.547 34.8649 194.652 34.4689C195.745 34.5053 196.838 34.542 197.931 34.5784Z" fill="black"/>
<path fill-rule="evenodd" clip-rule="evenodd" d="M61.0083 61.6045L58.8383 61.5967C59.5624 61.4288 60.2859 61.3273 61.0083 61.6045Z" fill="black"/>
<path fill-rule="evenodd" clip-rule="evenodd" d="M174.012 61.0249C174.524 61.0222 175.036 61.0195 175.544 61.0166C175.031 61.0195 174.522 61.0222 174.012 61.0249Z" fill="black"/>
<path fill-rule="evenodd" clip-rule="evenodd" d="M218.749 74.2789C218.745 74.8263 218.742 75.3736 218.737 75.9187C218.741 75.3707 218.745 74.8248 218.749 74.2789Z" fill="black"/>
<path fill-rule="evenodd" clip-rule="evenodd" d="M117.986 175.167C117.442 175.207 116.899 175.246 116.356 175.285C116.9 175.246 117.443 175.206 117.986 175.167Z" fill="black"/>
<path fill-rule="evenodd" clip-rule="evenodd" d="M121.048 70.8517C120.496 70.8964 119.944 70.9414 119.393 70.9861C119.945 70.9412 120.496 70.8964 121.048 70.8517Z" fill="black"/>
<path fill-rule="evenodd" clip-rule="evenodd" d="M178.159 60.8449C178.549 60.8441 178.94 60.8434 179.327 60.8427C178.935 60.8436 178.547 60.8444 178.159 60.8449Z" fill="black"/>
<path fill-rule="evenodd" clip-rule="evenodd" d="M99.5771 71.9197C99.0918 71.9634 98.6061 72.0072 98.1211 72.051C98.6063 72.0072 99.0918 71.9634 99.5771 71.9197Z" fill="black"/>
<path fill-rule="evenodd" clip-rule="evenodd" d="M121.014 37.2749C120.529 37.2779 120.043 37.2808 119.558 37.2837C120.042 37.027 120.528 37.0933 121.014 37.2749Z" fill="black"/>
<path fill-rule="evenodd" clip-rule="evenodd" d="M32.4076 121.232C32.0038 121.21 31.6747 121.406 31.4469 121.021C31.8197 120.731 32.0348 121.065 32.4076 121.232Z" fill="black"/>
<path fill-rule="evenodd" clip-rule="evenodd" d="M107.304 88.8141L106.044 88.6724L107.304 88.8141Z" fill="black"/>
<path fill-rule="evenodd" clip-rule="evenodd" d="M115.819 184.596C116.097 184.602 116.376 184.608 116.651 184.615C116.371 184.608 116.095 184.602 115.819 184.596Z" fill="black"/>
<path fill-rule="evenodd" clip-rule="evenodd" d="M180.496 35.3708C180.062 35.4097 179.628 35.4486 179.194 35.4875C179.628 35.4483 180.062 35.4097 180.496 35.3708Z" fill="black"/>
<path fill-rule="evenodd" clip-rule="evenodd" d="M42.9916 166.994C42.5749 166.996 42.1583 166.998 41.7418 166.999C42.1586 166.998 42.5751 166.996 42.9916 166.994Z" fill="black"/>
<path fill-rule="evenodd" clip-rule="evenodd" d="M9.49194 159.607C9.07123 159.607 8.65077 159.608 8.23032 159.609C8.65102 159.608 9.07123 159.607 9.49194 159.607Z" fill="black"/>
<path fill-rule="evenodd" clip-rule="evenodd" d="M115.786 71.1989C115.359 71.2409 114.932 71.2827 114.505 71.3247C114.932 71.2827 115.359 71.2409 115.786 71.1989Z" fill="black"/>
<path fill-rule="evenodd" clip-rule="evenodd" d="M103.871 71.8919C103.45 71.8435 103.03 71.7951 102.61 71.7467C103.027 71.8281 103.489 71.5066 103.871 71.8919Z" fill="black"/>
<path fill-rule="evenodd" clip-rule="evenodd" d="M141.925 88.7583C142.187 88.7288 142.554 88.6371 142.824 88.6799C142.788 88.8339 142.026 88.7579 141.925 88.7583Z" fill="black"/>
<path fill-rule="evenodd" clip-rule="evenodd" d="M115.272 121.72C115.554 121.725 115.836 121.73 116.115 121.735C115.832 121.73 115.552 121.725 115.272 121.72Z" fill="black"/>
<path fill-rule="evenodd" clip-rule="evenodd" d="M89.8132 88.1511C89.4015 88.191 88.9901 88.2308 88.5784 88.2704C88.9903 88.2306 89.4015 88.191 89.8132 88.1511Z" fill="black"/>
<path fill-rule="evenodd" clip-rule="evenodd" d="M43.725 86.7483C43.9494 86.7544 44.1738 86.7605 44.3953 86.7666C44.1699 86.7605 43.9475 86.7544 43.725 86.7483Z" fill="black"/>
<path fill-rule="evenodd" clip-rule="evenodd" d="M104.391 88.4611C104.039 88.454 103.687 88.4469 103.335 88.4401C103.687 88.4469 104.039 88.454 104.391 88.4611Z" fill="black"/>
<path fill-rule="evenodd" clip-rule="evenodd" d="M39.0552 85.7964C38.6993 85.8404 38.3434 85.8841 37.9879 85.9279C38.3441 85.8839 38.6996 85.8401 39.0552 85.7964Z" fill="black"/>
<path fill-rule="evenodd" clip-rule="evenodd" d="M87.8785 82.7727C88.0983 82.7815 88.3181 82.7903 88.5351 82.7998C88.3142 82.7915 88.0963 82.7822 87.8785 82.7727Z" fill="black"/>
<path fill-rule="evenodd" clip-rule="evenodd" d="M104.647 119.741C104.871 119.727 105.094 119.712 105.314 119.697C105.09 119.712 104.869 119.727 104.647 119.741Z" fill="black"/>
<path fill-rule="evenodd" clip-rule="evenodd" d="M121.721 90.7929C121.362 90.7482 121.003 90.7034 120.644 90.6587C121.003 90.7034 121.362 90.7482 121.721 90.7929Z" fill="black"/>
<path fill-rule="evenodd" clip-rule="evenodd" d="M35.1061 146.214C35.339 146.211 35.572 146.208 35.8023 146.204C35.5686 146.207 35.3371 146.211 35.1061 146.214Z" fill="black"/>
<path fill-rule="evenodd" clip-rule="evenodd" d="M15.9785 117.266C15.6074 117.229 15.2363 117.191 14.865 117.154C15.2361 117.191 15.6072 117.229 15.9785 117.266Z" fill="black"/>
<path fill-rule="evenodd" clip-rule="evenodd" d="M8.06051 159.657C7.69579 159.7 7.33106 159.742 6.96609 159.784C7.33131 159.742 7.69579 159.7 8.06051 159.657Z" fill="black"/>
<path fill-rule="evenodd" clip-rule="evenodd" d="M206.884 60.9656C206.856 61.2809 206.827 61.5963 206.798 61.9104C206.826 61.5946 206.855 61.2802 206.884 60.9656Z" fill="black"/>
<path fill-rule="evenodd" clip-rule="evenodd" d="M45.1714 166.679C44.8045 166.721 44.4376 166.763 44.0709 166.805C44.4378 166.763 44.8047 166.721 45.1714 166.679Z" fill="black"/>
<path fill-rule="evenodd" clip-rule="evenodd" d="M41.5716 167.043C41.2003 167.302 40.8292 167.317 40.4576 167.044C40.829 167.043 41.2003 167.043 41.5716 167.043Z" fill="black"/>
<path fill-rule="evenodd" clip-rule="evenodd" d="M34.5314 167.353C34.1713 167.353 33.8115 167.354 33.4516 167.354C33.8117 167.354 34.1715 167.353 34.5314 167.353Z" fill="black"/>
<path fill-rule="evenodd" clip-rule="evenodd" d="M76.6408 44.6449C76.61 44.3254 76.5792 44.0061 76.5484 43.6879C76.5792 44.0079 76.61 44.3264 76.6408 44.6449Z" fill="black"/>
<path fill-rule="evenodd" clip-rule="evenodd" d="M115.963 37.5106C115.601 37.5554 115.239 37.5998 114.878 37.6443C115.239 37.5998 115.601 37.5554 115.963 37.5106Z" fill="black"/>
<path fill-rule="evenodd" clip-rule="evenodd" d="M117.245 37.3414C116.877 37.3825 116.509 37.4238 116.142 37.4651C116.51 37.4238 116.877 37.3825 117.245 37.3414Z" fill="black"/>
<path fill-rule="evenodd" clip-rule="evenodd" d="M60.141 79.9141C60.3673 79.9107 60.5937 79.9072 60.8169 79.9038C60.5895 79.9072 60.3654 79.9107 60.141 79.9141Z" fill="black"/>
<path fill-rule="evenodd" clip-rule="evenodd" d="M92.8969 76.3757C94.0976 76.1777 95.2981 76.1117 96.4984 76.3749L92.8969 76.3757Z" fill="black"/>
<path fill-rule="evenodd" clip-rule="evenodd" d="M124.917 62.8704C125.167 62.2177 125.229 61.9727 125.839 61.6349C125.585 62.2692 125.545 62.6085 124.917 62.8704Z" fill="black"/>
<path fill-rule="evenodd" clip-rule="evenodd" d="M154.194 127.464C154.219 128.143 154.243 128.822 154.266 129.5C154.242 128.821 154.218 128.143 154.194 127.464Z" fill="black"/>
<path fill-rule="evenodd" clip-rule="evenodd" d="M197.734 36.1458C197.191 36.158 196.648 36.1704 196.107 36.1827C196.651 36.1704 197.193 36.158 197.734 36.1458Z" fill="black"/>
<path fill-rule="evenodd" clip-rule="evenodd" d="M125.382 139.526C125.401 140.091 125.42 140.657 125.438 141.222C125.419 140.656 125.401 140.091 125.382 139.526Z" fill="black"/>
<path fill-rule="evenodd" clip-rule="evenodd" d="M58.8271 121.401C59.3756 121.405 59.9244 121.409 60.473 121.413C59.9242 121.409 59.3756 121.405 58.8271 121.401Z" fill="black"/>
<path fill-rule="evenodd" clip-rule="evenodd" d="M105.461 92.342C105.13 92.3452 104.8 92.3482 104.472 92.3523C104.804 92.3494 105.132 92.3457 105.461 92.342Z" fill="black"/>
<path fill-rule="evenodd" clip-rule="evenodd" d="M104.384 74.3594C104.112 74.3501 103.84 74.3408 103.571 74.3325C103.844 74.3421 104.114 74.3506 104.384 74.3594Z" fill="black"/>
<path fill-rule="evenodd" clip-rule="evenodd" d="M65.5077 121.23C65.9367 121.188 66.3655 121.146 66.7945 121.104C66.3655 121.146 65.9367 121.188 65.5077 121.23Z" fill="black"/>
<path fill-rule="evenodd" clip-rule="evenodd" d="M56.161 121.422C56.5813 121.416 57.0015 121.409 57.4214 121.403C57.0015 121.409 56.5813 121.416 56.161 121.422Z" fill="black"/>
<path fill-rule="evenodd" clip-rule="evenodd" d="M60.6472 121.412C61.0823 121.374 61.5175 121.336 61.9528 121.298C61.5177 121.336 61.0823 121.374 60.6472 121.412Z" fill="black"/>
<path fill-rule="evenodd" clip-rule="evenodd" d="M62.234 122.101C62.0176 122.1 61.8013 122.099 61.5879 122.098C61.8052 122.099 62.0196 122.1 62.234 122.101Z" fill="black"/>
<path fill-rule="evenodd" clip-rule="evenodd" d="M154.004 112.379C154.037 112.06 154.069 111.741 154.101 111.423C154.069 111.743 154.037 112.061 154.004 112.379Z" fill="black"/>
<path fill-rule="evenodd" clip-rule="evenodd" d="M89.036 80.1432C89.3088 80.1664 89.5819 80.1896 89.8552 80.2131C89.5503 80.2287 89.2453 80.2441 88.9407 80.2598C88.9424 80.1972 88.9742 80.1583 89.036 80.1432Z" fill="black"/>
<path fill-rule="evenodd" clip-rule="evenodd" d="M159.151 133.78C159.133 133.49 159.116 133.199 159.099 132.91C159.116 133.202 159.134 133.491 159.151 133.78Z" fill="black"/>
<path fill-rule="evenodd" clip-rule="evenodd" d="M93.9346 79.035C93.7156 79.0394 93.4963 79.0436 93.2799 79.0477C93.5002 79.0433 93.7173 79.0392 93.9346 79.035Z" fill="black"/>
<path fill-rule="evenodd" clip-rule="evenodd" d="M174.137 115.695C174.502 115.738 174.867 115.78 175.232 115.823C174.867 115.78 174.502 115.738 174.137 115.695Z" fill="black"/>
<path fill-rule="evenodd" clip-rule="evenodd" d="M98.2856 91.632C98.0607 91.6354 97.8361 91.6386 97.6141 91.6425C97.8397 91.6393 98.0627 91.6356 98.2856 91.632Z" fill="black"/>
<path fill-rule="evenodd" clip-rule="evenodd" d="M85.2878 47.6737C85.5237 47.7996 85.4012 48.353 85.1712 48.3002C85.2101 48.0912 85.2489 47.8825 85.2878 47.6737Z" fill="black"/>
<path fill-rule="evenodd" clip-rule="evenodd" d="M206.903 113.451C206.686 113.445 206.47 113.44 206.256 113.434C206.473 113.44 206.688 113.446 206.903 113.451Z" fill="black"/>
<path fill-rule="evenodd" clip-rule="evenodd" d="M74.9905 44.8037C74.9675 44.3161 74.9448 43.8286 74.9221 43.3424C74.9448 43.8306 74.9678 44.317 74.9905 44.8037Z" fill="black"/>
<path fill-rule="evenodd" clip-rule="evenodd" d="M116.029 182.707C116.362 182.756 116.696 182.804 117.03 182.853C116.696 182.804 116.362 182.756 116.029 182.707Z" fill="black"/>
<path fill-rule="evenodd" clip-rule="evenodd" d="M113.822 57.1594C112.645 57.4017 111.436 57.5283 110.286 57.8849C110 57.9739 109.059 58.5205 108.715 58.3765C108.193 58.1573 108.457 57.5948 108.677 57.2946C109.265 56.4918 110.317 56.042 111.282 56.052C112.245 56.0623 113.567 56.0271 113.822 57.1594Z" fill="black"/>
<path fill-rule="evenodd" clip-rule="evenodd" d="M110.551 59.3133C111.848 60.2204 112.838 60.6673 112.947 58.6283C114.352 58.8197 113.723 61.0819 112.66 61.2525C111.503 61.438 110.731 60.2825 110.551 59.3133Z" fill="black"/>
</g>
</svg>
