<svg width="329" height="212" viewBox="0 0 329 212" fill="none" xmlns="http://www.w3.org/2000/svg">
<mask id="mask0" mask-type="alpha" maskUnits="userSpaceOnUse" x="0" y="0" width="329" height="212">
<rect width="329" height="212" rx="8" fill="url(#paint0_linear)"/>
</mask>
<g mask="url(#mask0)">
<path fill-rule="evenodd" clip-rule="evenodd" d="M165.819 177.849C162.307 176.587 156.431 176.86 155.563 181.41C155.199 183.314 155.907 185.329 157.218 186.713C158.739 188.317 161.161 188.466 161.031 185.672C160.942 183.738 159.107 182.059 162.332 181.669C164.339 181.427 167.308 182.932 167.407 185.156C167.633 190.169 158.983 190.562 155.796 189.695C149.469 187.975 151.188 181.328 155.532 178.294C156.655 177.51 159.875 176.303 160.022 174.675C160.218 172.515 157.556 172.956 156.251 173.241C146.66 175.335 144.57 191.451 154.591 194.49C159.142 195.869 165.551 194.445 168.293 190.31C170.865 186.434 170.9 179.674 165.819 177.849Z" fill="#FF8860"/>
<path fill-rule="evenodd" clip-rule="evenodd" d="M127.719 113.869C122.448 116.407 117.177 118.946 111.908 121.484C110.166 117.754 107.222 107.565 102.803 106.264C95.6496 104.158 100.205 115.264 101.439 117.804C102.454 119.89 104.806 123.122 104.235 125.608C103.469 128.958 98.7453 130.145 96.2727 131.873C90.154 136.151 90.2025 145.135 99.0638 141.328C104.078 139.173 110.287 133.197 114.13 139.982C115.905 143.113 120.109 160.603 124.501 149.165C127.218 142.083 114.139 134.725 120.587 128.734C122.663 126.807 125.093 126.644 127.166 125.536C132.174 122.859 129.35 117.912 127.719 113.869Z" fill="#FF8860"/>
<path fill-rule="evenodd" clip-rule="evenodd" d="M197.986 129.839C196.624 129.309 194.94 128.274 193.426 128.627C191.818 129.002 191.17 130.717 190.001 131.748C186.822 134.551 184.97 130.373 183.223 128.083C181.573 125.921 179.56 125.396 177.232 126.725C176.305 127.254 172.398 129.681 173.079 131.236C173.569 132.355 175.5 131.35 176.158 131.106C177.587 130.576 178.915 130.113 180.377 130.885C183.119 132.333 183.831 136.303 187.148 136.922C190.579 137.562 190.692 134.087 193.14 132.778C194.781 131.902 195.925 133.454 197.508 133.144C199.017 132.85 199.715 130.512 197.986 129.839Z" fill="#FF8860"/>
<path fill-rule="evenodd" clip-rule="evenodd" d="M169.817 143.504C171.047 143.767 171.85 141.417 172.62 140.82C173.898 139.832 176.112 139.633 177.413 140.628C179.953 142.569 179.078 146.761 182.694 147.854C185.927 148.83 187.45 144.636 190.171 143.592C191.753 142.985 193.49 142.587 192.872 140.409C192.446 138.902 191.19 138.515 189.824 139.094C187.477 140.087 186.68 144.136 183.898 144.208C181.019 144.283 180.707 140.195 179.471 138.414C177.587 135.7 173.714 135.044 171.513 137.639C170.848 138.423 167.474 143.004 169.817 143.504Z" fill="#FF8860"/>
<path opacity="0.7" d="M76 181C76 209.719 52.7188 233 24 233C-4.71881 233 -28 209.719 -28 181C-28 152.281 -4.71881 129 24 129C52.7188 129 76 152.281 76 181ZM-13.7459 181C-13.7459 201.846 3.15351 218.746 24 218.746C44.8465 218.746 61.7459 201.846 61.7459 181C61.7459 160.154 44.8465 143.254 24 143.254C3.15351 143.254 -13.7459 160.154 -13.7459 181Z" fill="#FF8860"/>
<path d="M31.0753 37.2344H34.625C34.5554 33.794 31.6222 31.358 27.2869 31.358C23.0114 31.358 19.7997 33.7642 19.8097 37.3636C19.8097 40.2869 21.8878 41.9673 25.2386 42.8324L27.5554 43.429C29.7528 43.9858 31.2045 44.6719 31.2145 46.2528C31.2045 47.9929 29.554 49.1562 27.1477 49.1562C24.8409 49.1562 23.0511 48.1222 22.902 45.9844H19.2727C19.4219 50.0312 22.4347 52.3082 27.1776 52.3082C32.0597 52.3082 34.8935 49.8722 34.9034 46.2827C34.8935 42.7528 31.9801 41.142 28.9176 40.4162L27.0085 39.9389C25.3381 39.5412 23.5284 38.8352 23.5483 37.1349C23.5582 35.6037 24.9304 34.4801 27.2372 34.4801C29.4347 34.4801 30.8864 35.5043 31.0753 37.2344ZM38.1921 52H51.516V48.9077H41.881V43.3494H50.7504V40.2571H41.881V34.7287H51.4364V31.6364H38.1921V52ZM55.1999 52H67.8576V48.9077H58.8888V31.6364H55.1999V52ZM74.44 52L76.1204 46.9787H83.7766L85.467 52H89.4045L82.2255 31.6364H77.6715L70.5025 52H74.44ZM77.1147 44.0156L79.869 35.8125H80.0281L82.7823 44.0156H77.1147ZM92.0866 31.6364V52H95.6264V37.9801H95.8153L101.443 51.9403H104.088L109.716 38.0099H109.905V52H113.445V31.6364H108.93L102.885 46.392H102.646L96.6009 31.6364H92.0866ZM120.077 52L121.757 46.9787H129.413L131.104 52H135.041L127.862 31.6364H123.308L116.139 52H120.077ZM122.751 44.0156L125.506 35.8125H125.665L128.419 44.0156H122.751ZM134.368 34.7287H140.662V52H144.321V34.7287H150.615V31.6364H134.368V34.7287ZM167.593 52C173.797 52 177.476 48.1619 177.476 41.7983C177.476 35.4545 173.797 31.6364 167.732 31.6364H160.692V52H167.593ZM164.381 48.8082V34.8281H167.523C171.659 34.8281 173.817 37.1349 173.817 41.7983C173.817 46.4815 171.659 48.8082 167.414 48.8082H164.381ZM182.639 52L184.32 46.9787H191.976L193.666 52H197.604L190.425 31.6364H185.871L178.702 52H182.639ZM185.314 44.0156L188.068 35.8125H188.227L190.982 44.0156H185.314ZM196.93 34.7287H203.224V52H206.883V34.7287H213.177V31.6364H196.93V34.7287ZM216.463 52L218.144 46.9787H225.8L227.49 52H231.428L224.249 31.6364H219.695L212.526 52H216.463ZM219.138 44.0156L221.892 35.8125H222.051L224.806 44.0156H219.138ZM250.844 31.6364H247.175V45.517H246.996L237.411 31.6364H234.11V52H237.799V38.1293H237.968L247.563 52H250.844V31.6364ZM268.506 38.1392H272.265C271.638 34.142 268.178 31.358 263.674 31.358C258.344 31.358 254.347 35.2756 254.347 41.8381C254.347 48.2812 258.165 52.2784 263.783 52.2784C268.824 52.2784 272.434 49.0369 272.434 43.7869V41.3409H264.171V44.2244H268.864C268.804 47.1278 266.865 48.9673 263.803 48.9673C260.392 48.9673 258.056 46.4119 258.056 41.7983C258.056 37.2145 260.432 34.669 263.723 34.669C266.179 34.669 267.85 35.9815 268.506 38.1392ZM289.847 52C296.051 52 299.73 48.1619 299.73 41.7983C299.73 35.4545 296.051 31.6364 289.986 31.6364H282.946V52H289.847ZM286.635 48.8082V34.8281H289.777C293.913 34.8281 296.071 37.1349 296.071 41.7983C296.071 46.4815 293.913 48.8082 289.668 48.8082H286.635ZM306.924 31.6364H303.235V52H306.924V31.6364ZM22.6236 86L24.304 80.9787H31.9602L33.6506 86H37.5881L30.4091 65.6364H25.8551L18.6861 86H22.6236ZM25.2983 78.0156L28.0526 69.8125H28.2116L30.9659 78.0156H25.2983ZM40.2702 86H43.9592V79.1193H47.8569C52.56 79.1193 55.0856 76.2955 55.0856 72.3778C55.0856 68.4901 52.5898 65.6364 47.9066 65.6364H40.2702V86ZM43.9592 76.0866V68.7188H47.3398C50.104 68.7188 51.3271 70.2102 51.3271 72.3778C51.3271 74.5455 50.104 76.0866 47.3597 76.0866H43.9592ZM58.2898 86H70.9474V82.9077H61.9787V65.6364H58.2898V86ZM77.8381 65.6364H74.1491V86H77.8381V65.6364ZM81.8327 86H85.5217V79.9347L87.7788 77.2699L93.854 86H98.2887L90.3441 74.7741L98.2191 65.6364H93.7148L85.7702 74.9929H85.5217V65.6364H81.8327V86ZM103.397 86L105.077 80.9787H112.734L114.424 86H118.362L111.183 65.6364H106.629L99.4595 86H103.397ZM106.072 78.0156L108.826 69.8125H108.985L111.739 78.0156H106.072ZM131.782 71.2344H135.332C135.262 67.794 132.329 65.358 127.994 65.358C123.718 65.358 120.507 67.7642 120.517 71.3636C120.517 74.2869 122.595 75.9673 125.946 76.8324L128.262 77.429C130.46 77.9858 131.912 78.6719 131.922 80.2528C131.912 81.9929 130.261 83.1562 127.855 83.1562C125.548 83.1562 123.758 82.1222 123.609 79.9844H119.98C120.129 84.0312 123.142 86.3082 127.885 86.3082C132.767 86.3082 135.6 83.8722 135.61 80.2827C135.6 76.7528 132.687 75.142 129.625 74.4162L127.716 73.9389C126.045 73.5412 124.235 72.8352 124.255 71.1349C124.265 69.6037 125.637 68.4801 127.944 68.4801C130.142 68.4801 131.593 69.5043 131.782 71.2344ZM142.588 65.6364H138.899V86H142.588V65.6364ZM164.595 71.2344H168.145C168.075 67.794 165.142 65.358 160.806 65.358C156.531 65.358 153.319 67.7642 153.329 71.3636C153.329 74.2869 155.407 75.9673 158.758 76.8324L161.075 77.429C163.272 77.9858 164.724 78.6719 164.734 80.2528C164.724 81.9929 163.074 83.1562 160.667 83.1562C158.36 83.1562 156.571 82.1222 156.422 79.9844H152.792C152.941 84.0312 155.954 86.3082 160.697 86.3082C165.579 86.3082 168.413 83.8722 168.423 80.2827C168.413 76.7528 165.5 75.142 162.437 74.4162L160.528 73.9389C158.858 73.5412 157.048 72.8352 157.068 71.1349C157.078 69.6037 158.45 68.4801 160.757 68.4801C162.954 68.4801 164.406 69.5043 164.595 71.2344ZM171.712 86H175.401V79.1193H179.298C184.001 79.1193 186.527 76.2955 186.527 72.3778C186.527 68.4901 184.031 65.6364 179.348 65.6364H171.712V86ZM175.401 76.0866V68.7188H178.781C181.545 68.7188 182.768 70.2102 182.768 72.3778C182.768 74.5455 181.545 76.0866 178.801 76.0866H175.401ZM189.731 86H193.42V79.1193H197.318C202.021 79.1193 204.547 76.2955 204.547 72.3778C204.547 68.4901 202.051 65.6364 197.368 65.6364H189.731V86ZM193.42 76.0866V68.7188H196.801C199.565 68.7188 200.788 70.2102 200.788 72.3778C200.788 74.5455 199.565 76.0866 196.821 76.0866H193.42ZM232.892 75.8182C232.892 69.2358 228.875 65.358 223.536 65.358C218.186 65.358 214.179 69.2358 214.179 75.8182C214.179 82.3906 218.186 86.2784 223.536 86.2784C228.875 86.2784 232.892 82.4006 232.892 75.8182ZM229.183 75.8182C229.183 80.4517 226.857 82.9673 223.536 82.9673C220.224 82.9673 217.888 80.4517 217.888 75.8182C217.888 71.1847 220.224 68.669 223.536 68.669C226.857 68.669 229.183 71.1847 229.183 75.8182ZM236.38 86H240.069V79.1193H243.966C248.669 79.1193 251.195 76.2955 251.195 72.3778C251.195 68.4901 248.699 65.6364 244.016 65.6364H236.38V86ZM240.069 76.0866V68.7188H243.449C246.213 68.7188 247.436 70.2102 247.436 72.3778C247.436 74.5455 246.213 76.0866 243.469 76.0866H240.069ZM254.745 86L256.425 80.9787H264.081L265.772 86H269.709L262.53 65.6364H257.976L250.807 86H254.745ZM257.419 78.0156L260.174 69.8125H260.333L263.087 78.0156H257.419ZM269.036 68.7287H275.33V86H278.989V68.7287H285.283V65.6364H269.036V68.7287ZM299.606 65.6364H295.758L296.076 80.0142H299.278L299.606 65.6364ZM297.677 86.2188C298.85 86.2188 299.854 85.2443 299.864 84.0312C299.854 82.8381 298.85 81.8636 297.677 81.8636C296.464 81.8636 295.479 82.8381 295.489 84.0312C295.479 85.2443 296.464 86.2188 297.677 86.2188Z" fill="white"/>
</g>
<defs>
<linearGradient id="paint0_linear" x1="8.1708e-08" y1="162.533" x2="332.83" y2="145.321" gradientUnits="userSpaceOnUse">
<stop stop-color="#FE69A9"/>
<stop offset="1" stop-color="#FF8860"/>
</linearGradient>
</defs>
</svg>
